<mxfile host="Electron" modified="2024-05-18T04:07:56.738Z" agent="Mozilla/5.0 (Macintosh; Intel Mac OS X 10_15_7) AppleWebKit/537.36 (KHTML, like Gecko) draw.io/24.4.0 Chrome/120.0.6099.109 Electron/28.1.0 Safari/537.36" etag="C_Kg2J75f1D0JYOVPYoB" version="24.4.0" type="device">
  <diagram name="Page-1" id="poWtpb0YTsKKjVYy8SO0">
    <mxGraphModel dx="2261" dy="907" grid="1" gridSize="10" guides="1" tooltips="1" connect="1" arrows="1" fold="1" page="1" pageScale="1" pageWidth="827" pageHeight="1169" math="0" shadow="0">
      <root>
        <mxCell id="0" />
        <mxCell id="1" parent="0" />
        <mxCell id="rylPVy3shO58b24bcxYE-3" value="Public subnet" style="points=[[0,0],[0.25,0],[0.5,0],[0.75,0],[1,0],[1,0.25],[1,0.5],[1,0.75],[1,1],[0.75,1],[0.5,1],[0.25,1],[0,1],[0,0.75],[0,0.5],[0,0.25]];outlineConnect=0;gradientColor=none;html=1;whiteSpace=wrap;fontSize=12;fontStyle=0;container=1;pointerEvents=0;collapsible=0;recursiveResize=0;shape=mxgraph.aws4.group;grIcon=mxgraph.aws4.group_security_group;grStroke=0;strokeColor=#7AA116;fillColor=#F2F6E8;verticalAlign=top;align=left;spacingLeft=30;fontColor=#248814;dashed=0;" vertex="1" parent="1">
          <mxGeometry x="190" y="90" width="490" height="250" as="geometry" />
        </mxCell>
        <mxCell id="rylPVy3shO58b24bcxYE-5" value="" style="sketch=0;outlineConnect=0;fontColor=#232F3E;gradientColor=none;fillColor=#8C4FFF;strokeColor=none;dashed=0;verticalLabelPosition=bottom;verticalAlign=top;align=center;html=1;fontSize=12;fontStyle=0;aspect=fixed;pointerEvents=1;shape=mxgraph.aws4.application_load_balancer;" vertex="1" parent="rylPVy3shO58b24bcxYE-3">
          <mxGeometry x="210" y="90" width="78" height="78" as="geometry" />
        </mxCell>
        <mxCell id="rylPVy3shO58b24bcxYE-6" value="Private subnet" style="points=[[0,0],[0.25,0],[0.5,0],[0.75,0],[1,0],[1,0.25],[1,0.5],[1,0.75],[1,1],[0.75,1],[0.5,1],[0.25,1],[0,1],[0,0.75],[0,0.5],[0,0.25]];outlineConnect=0;gradientColor=none;html=1;whiteSpace=wrap;fontSize=12;fontStyle=1;container=1;pointerEvents=0;collapsible=0;recursiveResize=0;shape=mxgraph.aws4.group;grIcon=mxgraph.aws4.group_security_group;grStroke=0;strokeColor=#00A4A6;fillColor=#E6F6F7;verticalAlign=top;align=left;spacingLeft=30;fontColor=#147EBA;dashed=0;" vertex="1" parent="1">
          <mxGeometry x="-210" y="450" width="1210" height="1100" as="geometry" />
        </mxCell>
        <mxCell id="rylPVy3shO58b24bcxYE-69" style="edgeStyle=orthogonalEdgeStyle;rounded=0;orthogonalLoop=1;jettySize=auto;html=1;exitX=0;exitY=0.25;exitDx=0;exitDy=0;exitPerimeter=0;entryX=0.5;entryY=0;entryDx=0;entryDy=0;entryPerimeter=0;strokeColor=#333333;" edge="1" parent="rylPVy3shO58b24bcxYE-6" source="rylPVy3shO58b24bcxYE-12" target="rylPVy3shO58b24bcxYE-32">
          <mxGeometry relative="1" as="geometry" />
        </mxCell>
        <mxCell id="rylPVy3shO58b24bcxYE-67" style="edgeStyle=orthogonalEdgeStyle;rounded=0;orthogonalLoop=1;jettySize=auto;html=1;exitX=0;exitY=0.75;exitDx=0;exitDy=0;exitPerimeter=0;entryX=0.75;entryY=0;entryDx=0;entryDy=0;entryPerimeter=0;strokeColor=#1A1A1A;" edge="1" parent="rylPVy3shO58b24bcxYE-6" source="rylPVy3shO58b24bcxYE-12" target="rylPVy3shO58b24bcxYE-22">
          <mxGeometry relative="1" as="geometry" />
        </mxCell>
        <mxCell id="rylPVy3shO58b24bcxYE-68" style="edgeStyle=orthogonalEdgeStyle;rounded=0;orthogonalLoop=1;jettySize=auto;html=1;exitX=0;exitY=0.5;exitDx=0;exitDy=0;exitPerimeter=0;entryX=0.75;entryY=0;entryDx=0;entryDy=0;entryPerimeter=0;strokeColor=#333333;" edge="1" parent="rylPVy3shO58b24bcxYE-6" source="rylPVy3shO58b24bcxYE-12" target="rylPVy3shO58b24bcxYE-14">
          <mxGeometry relative="1" as="geometry" />
        </mxCell>
        <mxCell id="rylPVy3shO58b24bcxYE-47" style="edgeStyle=orthogonalEdgeStyle;rounded=0;orthogonalLoop=1;jettySize=auto;html=1;" edge="1" parent="rylPVy3shO58b24bcxYE-6" source="rylPVy3shO58b24bcxYE-7" target="rylPVy3shO58b24bcxYE-11">
          <mxGeometry relative="1" as="geometry" />
        </mxCell>
        <mxCell id="rylPVy3shO58b24bcxYE-57" style="edgeStyle=orthogonalEdgeStyle;rounded=0;orthogonalLoop=1;jettySize=auto;html=1;exitX=0.75;exitY=1;exitDx=0;exitDy=0;exitPerimeter=0;strokeColor=#333333;" edge="1" parent="rylPVy3shO58b24bcxYE-6" source="rylPVy3shO58b24bcxYE-7" target="rylPVy3shO58b24bcxYE-23">
          <mxGeometry relative="1" as="geometry" />
        </mxCell>
        <mxCell id="rylPVy3shO58b24bcxYE-7" value="" style="sketch=0;points=[[0,0,0],[0.25,0,0],[0.5,0,0],[0.75,0,0],[1,0,0],[0,1,0],[0.25,1,0],[0.5,1,0],[0.75,1,0],[1,1,0],[0,0.25,0],[0,0.5,0],[0,0.75,0],[1,0.25,0],[1,0.5,0],[1,0.75,0]];outlineConnect=0;fontColor=#232F3E;fillColor=#ED7100;strokeColor=#ffffff;dashed=0;verticalLabelPosition=bottom;verticalAlign=top;align=center;html=1;fontSize=12;fontStyle=0;aspect=fixed;shape=mxgraph.aws4.resourceIcon;resIcon=mxgraph.aws4.fargate;" vertex="1" parent="rylPVy3shO58b24bcxYE-6">
          <mxGeometry x="566" y="40" width="78" height="78" as="geometry" />
        </mxCell>
        <mxCell id="rylPVy3shO58b24bcxYE-52" style="edgeStyle=orthogonalEdgeStyle;rounded=0;orthogonalLoop=1;jettySize=auto;html=1;exitX=0.5;exitY=0;exitDx=0;exitDy=0;exitPerimeter=0;" edge="1" parent="rylPVy3shO58b24bcxYE-6" source="rylPVy3shO58b24bcxYE-8" target="rylPVy3shO58b24bcxYE-6">
          <mxGeometry relative="1" as="geometry" />
        </mxCell>
        <mxCell id="rylPVy3shO58b24bcxYE-8" value="" style="sketch=0;points=[[0,0,0],[0.25,0,0],[0.5,0,0],[0.75,0,0],[1,0,0],[0,1,0],[0.25,1,0],[0.5,1,0],[0.75,1,0],[1,1,0],[0,0.25,0],[0,0.5,0],[0,0.75,0],[1,0.25,0],[1,0.5,0],[1,0.75,0]];outlineConnect=0;fontColor=#232F3E;fillColor=#ED7100;strokeColor=#ffffff;dashed=0;verticalLabelPosition=bottom;verticalAlign=top;align=center;html=1;fontSize=12;fontStyle=0;aspect=fixed;shape=mxgraph.aws4.resourceIcon;resIcon=mxgraph.aws4.fargate;" vertex="1" parent="rylPVy3shO58b24bcxYE-6">
          <mxGeometry x="900" y="80" width="78" height="78" as="geometry" />
        </mxCell>
        <mxCell id="rylPVy3shO58b24bcxYE-9" value="&lt;font color=&quot;#000000&quot;&gt;Frontend&lt;/font&gt;" style="text;html=1;align=center;verticalAlign=middle;whiteSpace=wrap;rounded=0;fontStyle=1" vertex="1" parent="rylPVy3shO58b24bcxYE-6">
          <mxGeometry x="575" y="135" width="60" height="30" as="geometry" />
        </mxCell>
        <mxCell id="rylPVy3shO58b24bcxYE-10" value="&lt;font color=&quot;#000000&quot;&gt;Image Provider&lt;/font&gt;" style="text;html=1;align=center;verticalAlign=middle;whiteSpace=wrap;rounded=0;fontStyle=1" vertex="1" parent="rylPVy3shO58b24bcxYE-6">
          <mxGeometry x="989" y="135" width="71" height="30" as="geometry" />
        </mxCell>
        <mxCell id="rylPVy3shO58b24bcxYE-54" style="edgeStyle=orthogonalEdgeStyle;rounded=0;orthogonalLoop=1;jettySize=auto;html=1;" edge="1" parent="rylPVy3shO58b24bcxYE-6" source="rylPVy3shO58b24bcxYE-11" target="rylPVy3shO58b24bcxYE-14">
          <mxGeometry relative="1" as="geometry" />
        </mxCell>
        <mxCell id="rylPVy3shO58b24bcxYE-11" value="" style="sketch=0;points=[[0,0,0],[0.25,0,0],[0.5,0,0],[0.75,0,0],[1,0,0],[0,1,0],[0.25,1,0],[0.5,1,0],[0.75,1,0],[1,1,0],[0,0.25,0],[0,0.5,0],[0,0.75,0],[1,0.25,0],[1,0.5,0],[1,0.75,0]];outlineConnect=0;fontColor=#232F3E;fillColor=#ED7100;strokeColor=#ffffff;dashed=0;verticalLabelPosition=bottom;verticalAlign=top;align=center;html=1;fontSize=12;fontStyle=0;aspect=fixed;shape=mxgraph.aws4.resourceIcon;resIcon=mxgraph.aws4.fargate;" vertex="1" parent="rylPVy3shO58b24bcxYE-6">
          <mxGeometry x="360" y="200" width="78" height="78" as="geometry" />
        </mxCell>
        <mxCell id="rylPVy3shO58b24bcxYE-12" value="" style="sketch=0;points=[[0,0,0],[0.25,0,0],[0.5,0,0],[0.75,0,0],[1,0,0],[0,1,0],[0.25,1,0],[0.5,1,0],[0.75,1,0],[1,1,0],[0,0.25,0],[0,0.5,0],[0,0.75,0],[1,0.25,0],[1,0.5,0],[1,0.75,0]];outlineConnect=0;fontColor=#232F3E;fillColor=#ED7100;strokeColor=#ffffff;dashed=0;verticalLabelPosition=bottom;verticalAlign=top;align=center;html=1;fontSize=12;fontStyle=0;aspect=fixed;shape=mxgraph.aws4.resourceIcon;resIcon=mxgraph.aws4.fargate;" vertex="1" parent="rylPVy3shO58b24bcxYE-6">
          <mxGeometry x="770" y="200" width="78" height="78" as="geometry" />
        </mxCell>
        <mxCell id="rylPVy3shO58b24bcxYE-13" value="" style="sketch=0;points=[[0,0,0],[0.25,0,0],[0.5,0,0],[0.75,0,0],[1,0,0],[0,1,0],[0.25,1,0],[0.5,1,0],[0.75,1,0],[1,1,0],[0,0.25,0],[0,0.5,0],[0,0.75,0],[1,0.25,0],[1,0.5,0],[1,0.75,0]];outlineConnect=0;fontColor=#232F3E;fillColor=#ED7100;strokeColor=#ffffff;dashed=0;verticalLabelPosition=bottom;verticalAlign=top;align=center;html=1;fontSize=12;fontStyle=0;aspect=fixed;shape=mxgraph.aws4.resourceIcon;resIcon=mxgraph.aws4.fargate;" vertex="1" parent="rylPVy3shO58b24bcxYE-6">
          <mxGeometry x="480" y="210" width="78" height="78" as="geometry" />
        </mxCell>
        <mxCell id="rylPVy3shO58b24bcxYE-59" style="edgeStyle=orthogonalEdgeStyle;rounded=0;orthogonalLoop=1;jettySize=auto;html=1;exitX=0.5;exitY=1;exitDx=0;exitDy=0;exitPerimeter=0;strokeColor=#4D4D4D;" edge="1" parent="rylPVy3shO58b24bcxYE-6" source="rylPVy3shO58b24bcxYE-14" target="rylPVy3shO58b24bcxYE-33">
          <mxGeometry relative="1" as="geometry" />
        </mxCell>
        <mxCell id="rylPVy3shO58b24bcxYE-14" value="" style="sketch=0;points=[[0,0,0],[0.25,0,0],[0.5,0,0],[0.75,0,0],[1,0,0],[0,1,0],[0.25,1,0],[0.5,1,0],[0.75,1,0],[1,1,0],[0,0.25,0],[0,0.5,0],[0,0.75,0],[1,0.25,0],[1,0.5,0],[1,0.75,0]];outlineConnect=0;fontColor=#232F3E;fillColor=#ED7100;strokeColor=#ffffff;dashed=0;verticalLabelPosition=bottom;verticalAlign=top;align=center;html=1;fontSize=12;fontStyle=0;aspect=fixed;shape=mxgraph.aws4.resourceIcon;resIcon=mxgraph.aws4.fargate;" vertex="1" parent="rylPVy3shO58b24bcxYE-6">
          <mxGeometry x="290" y="400" width="78" height="78" as="geometry" />
        </mxCell>
        <mxCell id="rylPVy3shO58b24bcxYE-15" value="&lt;font color=&quot;#000000&quot;&gt;Ad Service&lt;/font&gt;" style="text;html=1;align=center;verticalAlign=middle;whiteSpace=wrap;rounded=0;fontStyle=1" vertex="1" parent="rylPVy3shO58b24bcxYE-6">
          <mxGeometry x="369" y="290" width="60" height="30" as="geometry" />
        </mxCell>
        <mxCell id="rylPVy3shO58b24bcxYE-16" value="&lt;font color=&quot;#000000&quot;&gt;Checkout Service&lt;/font&gt;" style="text;html=1;align=center;verticalAlign=middle;whiteSpace=wrap;rounded=0;fontStyle=1" vertex="1" parent="rylPVy3shO58b24bcxYE-6">
          <mxGeometry x="779" y="300" width="60" height="30" as="geometry" />
        </mxCell>
        <mxCell id="rylPVy3shO58b24bcxYE-17" value="&lt;font color=&quot;#000000&quot;&gt;Recommendation Service&lt;/font&gt;" style="text;html=1;align=center;verticalAlign=middle;whiteSpace=wrap;rounded=0;fontStyle=1" vertex="1" parent="rylPVy3shO58b24bcxYE-6">
          <mxGeometry x="498" y="300" width="60" height="30" as="geometry" />
        </mxCell>
        <mxCell id="rylPVy3shO58b24bcxYE-18" value="" style="sketch=0;points=[[0,0,0],[0.25,0,0],[0.5,0,0],[0.75,0,0],[1,0,0],[0,1,0],[0.25,1,0],[0.5,1,0],[0.75,1,0],[1,1,0],[0,0.25,0],[0,0.5,0],[0,0.75,0],[1,0.25,0],[1,0.5,0],[1,0.75,0]];outlineConnect=0;fontColor=#232F3E;fillColor=#ED7100;strokeColor=#ffffff;dashed=0;verticalLabelPosition=bottom;verticalAlign=top;align=center;html=1;fontSize=12;fontStyle=0;aspect=fixed;shape=mxgraph.aws4.resourceIcon;resIcon=mxgraph.aws4.fargate;" vertex="1" parent="rylPVy3shO58b24bcxYE-6">
          <mxGeometry x="1058" y="300" width="78" height="78" as="geometry" />
        </mxCell>
        <mxCell id="rylPVy3shO58b24bcxYE-19" value="&lt;font color=&quot;#000000&quot;&gt;Shipping Service&lt;/font&gt;" style="text;html=1;align=center;verticalAlign=middle;whiteSpace=wrap;rounded=0;fontStyle=1" vertex="1" parent="rylPVy3shO58b24bcxYE-6">
          <mxGeometry x="1067" y="400" width="60" height="30" as="geometry" />
        </mxCell>
        <mxCell id="rylPVy3shO58b24bcxYE-20" value="&lt;font color=&quot;#000000&quot;&gt;Cart Service&lt;/font&gt;" style="text;html=1;align=center;verticalAlign=middle;whiteSpace=wrap;rounded=0;fontStyle=1" vertex="1" parent="rylPVy3shO58b24bcxYE-6">
          <mxGeometry x="300" y="490" width="60" height="30" as="geometry" />
        </mxCell>
        <mxCell id="rylPVy3shO58b24bcxYE-22" value="" style="sketch=0;points=[[0,0,0],[0.25,0,0],[0.5,0,0],[0.75,0,0],[1,0,0],[0,1,0],[0.25,1,0],[0.5,1,0],[0.75,1,0],[1,1,0],[0,0.25,0],[0,0.5,0],[0,0.75,0],[1,0.25,0],[1,0.5,0],[1,0.75,0]];outlineConnect=0;fontColor=#232F3E;fillColor=#ED7100;strokeColor=#ffffff;dashed=0;verticalLabelPosition=bottom;verticalAlign=top;align=center;html=1;fontSize=12;fontStyle=0;aspect=fixed;shape=mxgraph.aws4.resourceIcon;resIcon=mxgraph.aws4.fargate;" vertex="1" parent="rylPVy3shO58b24bcxYE-6">
          <mxGeometry x="460" y="578" width="78" height="78" as="geometry" />
        </mxCell>
        <mxCell id="rylPVy3shO58b24bcxYE-23" value="" style="sketch=0;points=[[0,0,0],[0.25,0,0],[0.5,0,0],[0.75,0,0],[1,0,0],[0,1,0],[0.25,1,0],[0.5,1,0],[0.75,1,0],[1,1,0],[0,0.25,0],[0,0.5,0],[0,0.75,0],[1,0.25,0],[1,0.5,0],[1,0.75,0]];outlineConnect=0;fontColor=#232F3E;fillColor=#ED7100;strokeColor=#ffffff;dashed=0;verticalLabelPosition=bottom;verticalAlign=top;align=center;html=1;fontSize=12;fontStyle=0;aspect=fixed;shape=mxgraph.aws4.resourceIcon;resIcon=mxgraph.aws4.fargate;" vertex="1" parent="rylPVy3shO58b24bcxYE-6">
          <mxGeometry x="615" y="578" width="78" height="78" as="geometry" />
        </mxCell>
        <mxCell id="rylPVy3shO58b24bcxYE-24" value="" style="sketch=0;points=[[0,0,0],[0.25,0,0],[0.5,0,0],[0.75,0,0],[1,0,0],[0,1,0],[0.25,1,0],[0.5,1,0],[0.75,1,0],[1,1,0],[0,0.25,0],[0,0.5,0],[0,0.75,0],[1,0.25,0],[1,0.5,0],[1,0.75,0]];outlineConnect=0;fontColor=#232F3E;fillColor=#ED7100;strokeColor=#ffffff;dashed=0;verticalLabelPosition=bottom;verticalAlign=top;align=center;html=1;fontSize=12;fontStyle=0;aspect=fixed;shape=mxgraph.aws4.resourceIcon;resIcon=mxgraph.aws4.fargate;" vertex="1" parent="rylPVy3shO58b24bcxYE-6">
          <mxGeometry x="779" y="578" width="78" height="78" as="geometry" />
        </mxCell>
        <mxCell id="rylPVy3shO58b24bcxYE-25" value="" style="sketch=0;points=[[0,0,0],[0.25,0,0],[0.5,0,0],[0.75,0,0],[1,0,0],[0,1,0],[0.25,1,0],[0.5,1,0],[0.75,1,0],[1,1,0],[0,0.25,0],[0,0.5,0],[0,0.75,0],[1,0.25,0],[1,0.5,0],[1,0.75,0]];outlineConnect=0;fontColor=#232F3E;fillColor=#ED7100;strokeColor=#ffffff;dashed=0;verticalLabelPosition=bottom;verticalAlign=top;align=center;html=1;fontSize=12;fontStyle=0;aspect=fixed;shape=mxgraph.aws4.resourceIcon;resIcon=mxgraph.aws4.fargate;" vertex="1" parent="rylPVy3shO58b24bcxYE-6">
          <mxGeometry x="930" y="578" width="78" height="78" as="geometry" />
        </mxCell>
        <mxCell id="rylPVy3shO58b24bcxYE-26" value="" style="sketch=0;points=[[0,0,0],[0.25,0,0],[0.5,0,0],[0.75,0,0],[1,0,0],[0,1,0],[0.25,1,0],[0.5,1,0],[0.75,1,0],[1,1,0],[0,0.25,0],[0,0.5,0],[0,0.75,0],[1,0.25,0],[1,0.5,0],[1,0.75,0]];outlineConnect=0;fontColor=#232F3E;fillColor=#ED7100;strokeColor=#ffffff;dashed=0;verticalLabelPosition=bottom;verticalAlign=top;align=center;html=1;fontSize=12;fontStyle=0;aspect=fixed;shape=mxgraph.aws4.resourceIcon;resIcon=mxgraph.aws4.fargate;" vertex="1" parent="rylPVy3shO58b24bcxYE-6">
          <mxGeometry x="1090" y="578" width="78" height="78" as="geometry" />
        </mxCell>
        <mxCell id="rylPVy3shO58b24bcxYE-27" value="&lt;font color=&quot;#000000&quot;&gt;Product Catalog Service&lt;/font&gt;" style="text;html=1;align=center;verticalAlign=middle;whiteSpace=wrap;rounded=0;fontStyle=1" vertex="1" parent="rylPVy3shO58b24bcxYE-6">
          <mxGeometry x="469" y="680" width="60" height="30" as="geometry" />
        </mxCell>
        <mxCell id="rylPVy3shO58b24bcxYE-28" value="&lt;font color=&quot;#000000&quot;&gt;Currency Service&lt;/font&gt;" style="text;html=1;align=center;verticalAlign=middle;whiteSpace=wrap;rounded=0;fontStyle=1" vertex="1" parent="rylPVy3shO58b24bcxYE-6">
          <mxGeometry x="624" y="689" width="60" height="30" as="geometry" />
        </mxCell>
        <mxCell id="rylPVy3shO58b24bcxYE-29" value="&lt;font color=&quot;#000000&quot;&gt;Email Service&lt;/font&gt;" style="text;html=1;align=center;verticalAlign=middle;whiteSpace=wrap;rounded=0;fontStyle=1" vertex="1" parent="rylPVy3shO58b24bcxYE-6">
          <mxGeometry x="797" y="689" width="60" height="30" as="geometry" />
        </mxCell>
        <mxCell id="rylPVy3shO58b24bcxYE-30" value="&lt;font color=&quot;#000000&quot;&gt;Payment Service&lt;/font&gt;" style="text;html=1;align=center;verticalAlign=middle;whiteSpace=wrap;rounded=0;fontStyle=1" vertex="1" parent="rylPVy3shO58b24bcxYE-6">
          <mxGeometry x="939" y="689" width="60" height="30" as="geometry" />
        </mxCell>
        <mxCell id="rylPVy3shO58b24bcxYE-31" value="&lt;font color=&quot;#000000&quot;&gt;Quote Service&lt;/font&gt;" style="text;html=1;align=center;verticalAlign=middle;whiteSpace=wrap;rounded=0;fontStyle=1" vertex="1" parent="rylPVy3shO58b24bcxYE-6">
          <mxGeometry x="1108" y="689" width="60" height="30" as="geometry" />
        </mxCell>
        <mxCell id="rylPVy3shO58b24bcxYE-32" value="" style="sketch=0;points=[[0,0,0],[0.25,0,0],[0.5,0,0],[0.75,0,0],[1,0,0],[0,1,0],[0.25,1,0],[0.5,1,0],[0.75,1,0],[1,1,0],[0,0.25,0],[0,0.5,0],[0,0.75,0],[1,0.25,0],[1,0.5,0],[1,0.75,0]];outlineConnect=0;fontColor=#232F3E;fillColor=#8C4FFF;strokeColor=#ffffff;dashed=0;verticalLabelPosition=bottom;verticalAlign=top;align=center;html=1;fontSize=12;fontStyle=0;aspect=fixed;shape=mxgraph.aws4.resourceIcon;resIcon=mxgraph.aws4.managed_streaming_for_kafka;" vertex="1" parent="rylPVy3shO58b24bcxYE-6">
          <mxGeometry x="90" y="540" width="78" height="78" as="geometry" />
        </mxCell>
        <mxCell id="rylPVy3shO58b24bcxYE-33" value="" style="sketch=0;outlineConnect=0;fontColor=#232F3E;gradientColor=none;fillColor=#C925D1;strokeColor=none;dashed=0;verticalLabelPosition=bottom;verticalAlign=top;align=center;html=1;fontSize=12;fontStyle=0;aspect=fixed;pointerEvents=1;shape=mxgraph.aws4.elasticache_for_redis;" vertex="1" parent="rylPVy3shO58b24bcxYE-6">
          <mxGeometry x="290" y="611" width="78" height="69" as="geometry" />
        </mxCell>
        <mxCell id="rylPVy3shO58b24bcxYE-34" value="" style="sketch=0;points=[[0,0,0],[0.25,0,0],[0.5,0,0],[0.75,0,0],[1,0,0],[0,1,0],[0.25,1,0],[0.5,1,0],[0.75,1,0],[1,1,0],[0,0.25,0],[0,0.5,0],[0,0.75,0],[1,0.25,0],[1,0.5,0],[1,0.75,0]];outlineConnect=0;fontColor=#232F3E;fillColor=#ED7100;strokeColor=#ffffff;dashed=0;verticalLabelPosition=bottom;verticalAlign=top;align=center;html=1;fontSize=12;fontStyle=0;aspect=fixed;shape=mxgraph.aws4.resourceIcon;resIcon=mxgraph.aws4.fargate;" vertex="1" parent="rylPVy3shO58b24bcxYE-6">
          <mxGeometry x="12" y="680" width="78" height="78" as="geometry" />
        </mxCell>
        <mxCell id="rylPVy3shO58b24bcxYE-35" value="" style="sketch=0;points=[[0,0,0],[0.25,0,0],[0.5,0,0],[0.75,0,0],[1,0,0],[0,1,0],[0.25,1,0],[0.5,1,0],[0.75,1,0],[1,1,0],[0,0.25,0],[0,0.5,0],[0,0.75,0],[1,0.25,0],[1,0.5,0],[1,0.75,0]];outlineConnect=0;fontColor=#232F3E;fillColor=#ED7100;strokeColor=#ffffff;dashed=0;verticalLabelPosition=bottom;verticalAlign=top;align=center;html=1;fontSize=12;fontStyle=0;aspect=fixed;shape=mxgraph.aws4.resourceIcon;resIcon=mxgraph.aws4.fargate;" vertex="1" parent="rylPVy3shO58b24bcxYE-6">
          <mxGeometry x="160" y="680" width="78" height="78" as="geometry" />
        </mxCell>
        <mxCell id="rylPVy3shO58b24bcxYE-36" value="&lt;font color=&quot;#000000&quot;&gt;Accounting Service&lt;/font&gt;" style="text;html=1;align=center;verticalAlign=middle;whiteSpace=wrap;rounded=0;fontStyle=1" vertex="1" parent="rylPVy3shO58b24bcxYE-6">
          <mxGeometry x="21" y="780" width="60" height="30" as="geometry" />
        </mxCell>
        <mxCell id="rylPVy3shO58b24bcxYE-37" value="&lt;font color=&quot;#000000&quot;&gt;Fraud Detection Service&lt;/font&gt;" style="text;html=1;align=center;verticalAlign=middle;whiteSpace=wrap;rounded=0;fontStyle=1" vertex="1" parent="rylPVy3shO58b24bcxYE-6">
          <mxGeometry x="169" y="780" width="60" height="30" as="geometry" />
        </mxCell>
        <mxCell id="rylPVy3shO58b24bcxYE-38" value="" style="sketch=0;points=[[0,0,0],[0.25,0,0],[0.5,0,0],[0.75,0,0],[1,0,0],[0,1,0],[0.25,1,0],[0.5,1,0],[0.75,1,0],[1,1,0],[0,0.25,0],[0,0.5,0],[0,0.75,0],[1,0.25,0],[1,0.5,0],[1,0.75,0]];outlineConnect=0;fontColor=#232F3E;fillColor=#ED7100;strokeColor=#ffffff;dashed=0;verticalLabelPosition=bottom;verticalAlign=top;align=center;html=1;fontSize=12;fontStyle=0;aspect=fixed;shape=mxgraph.aws4.resourceIcon;resIcon=mxgraph.aws4.fargate;" vertex="1" parent="rylPVy3shO58b24bcxYE-6">
          <mxGeometry x="529" y="890" width="78" height="78" as="geometry" />
        </mxCell>
        <mxCell id="rylPVy3shO58b24bcxYE-39" value="&lt;font color=&quot;#000000&quot;&gt;OTEL Collector Service&lt;/font&gt;" style="text;html=1;align=center;verticalAlign=middle;whiteSpace=wrap;rounded=0;fontStyle=1" vertex="1" parent="rylPVy3shO58b24bcxYE-6">
          <mxGeometry x="538" y="1000" width="60" height="30" as="geometry" />
        </mxCell>
        <mxCell id="rylPVy3shO58b24bcxYE-48" style="edgeStyle=orthogonalEdgeStyle;rounded=0;orthogonalLoop=1;jettySize=auto;html=1;entryX=0.5;entryY=0;entryDx=0;entryDy=0;entryPerimeter=0;strokeColor=#000000;" edge="1" parent="rylPVy3shO58b24bcxYE-6" source="rylPVy3shO58b24bcxYE-7" target="rylPVy3shO58b24bcxYE-11">
          <mxGeometry relative="1" as="geometry" />
        </mxCell>
        <mxCell id="rylPVy3shO58b24bcxYE-49" style="edgeStyle=orthogonalEdgeStyle;rounded=0;orthogonalLoop=1;jettySize=auto;html=1;exitX=0;exitY=0.75;exitDx=0;exitDy=0;exitPerimeter=0;entryX=0.5;entryY=0;entryDx=0;entryDy=0;entryPerimeter=0;strokeColor=#000000;" edge="1" parent="rylPVy3shO58b24bcxYE-6" source="rylPVy3shO58b24bcxYE-7" target="rylPVy3shO58b24bcxYE-13">
          <mxGeometry relative="1" as="geometry" />
        </mxCell>
        <mxCell id="rylPVy3shO58b24bcxYE-50" style="edgeStyle=orthogonalEdgeStyle;rounded=0;orthogonalLoop=1;jettySize=auto;html=1;exitX=1;exitY=0.5;exitDx=0;exitDy=0;exitPerimeter=0;entryX=0.25;entryY=0;entryDx=0;entryDy=0;entryPerimeter=0;strokeColor=#000000;" edge="1" parent="rylPVy3shO58b24bcxYE-6" source="rylPVy3shO58b24bcxYE-7" target="rylPVy3shO58b24bcxYE-12">
          <mxGeometry relative="1" as="geometry" />
        </mxCell>
        <mxCell id="rylPVy3shO58b24bcxYE-51" style="edgeStyle=orthogonalEdgeStyle;rounded=0;orthogonalLoop=1;jettySize=auto;html=1;exitX=1;exitY=0.25;exitDx=0;exitDy=0;exitPerimeter=0;entryX=0.5;entryY=0;entryDx=0;entryDy=0;entryPerimeter=0;strokeColor=#1A1A1A;" edge="1" parent="rylPVy3shO58b24bcxYE-6" source="rylPVy3shO58b24bcxYE-7" target="rylPVy3shO58b24bcxYE-18">
          <mxGeometry relative="1" as="geometry" />
        </mxCell>
        <mxCell id="rylPVy3shO58b24bcxYE-55" style="edgeStyle=orthogonalEdgeStyle;rounded=0;orthogonalLoop=1;jettySize=auto;html=1;exitX=0;exitY=0.25;exitDx=0;exitDy=0;exitPerimeter=0;entryX=0.25;entryY=0;entryDx=0;entryDy=0;entryPerimeter=0;strokeColor=#333333;" edge="1" parent="rylPVy3shO58b24bcxYE-6" source="rylPVy3shO58b24bcxYE-7" target="rylPVy3shO58b24bcxYE-14">
          <mxGeometry relative="1" as="geometry" />
        </mxCell>
        <mxCell id="rylPVy3shO58b24bcxYE-56" style="edgeStyle=orthogonalEdgeStyle;rounded=0;orthogonalLoop=1;jettySize=auto;html=1;exitX=0.5;exitY=1;exitDx=0;exitDy=0;exitPerimeter=0;entryX=0.5;entryY=0;entryDx=0;entryDy=0;entryPerimeter=0;strokeColor=#1A1A1A;" edge="1" parent="rylPVy3shO58b24bcxYE-6" source="rylPVy3shO58b24bcxYE-7" target="rylPVy3shO58b24bcxYE-22">
          <mxGeometry relative="1" as="geometry" />
        </mxCell>
        <mxCell id="rylPVy3shO58b24bcxYE-58" style="edgeStyle=orthogonalEdgeStyle;rounded=0;orthogonalLoop=1;jettySize=auto;html=1;exitX=0;exitY=0.75;exitDx=0;exitDy=0;exitPerimeter=0;entryX=0.25;entryY=0;entryDx=0;entryDy=0;entryPerimeter=0;strokeColor=#333333;" edge="1" parent="rylPVy3shO58b24bcxYE-6" source="rylPVy3shO58b24bcxYE-13" target="rylPVy3shO58b24bcxYE-22">
          <mxGeometry relative="1" as="geometry" />
        </mxCell>
        <mxCell id="rylPVy3shO58b24bcxYE-60" style="edgeStyle=orthogonalEdgeStyle;rounded=0;orthogonalLoop=1;jettySize=auto;html=1;exitX=0;exitY=0.75;exitDx=0;exitDy=0;exitPerimeter=0;entryX=0.5;entryY=0;entryDx=0;entryDy=0;entryPerimeter=0;strokeColor=#4D4D4D;" edge="1" parent="rylPVy3shO58b24bcxYE-6" source="rylPVy3shO58b24bcxYE-32" target="rylPVy3shO58b24bcxYE-34">
          <mxGeometry relative="1" as="geometry" />
        </mxCell>
        <mxCell id="rylPVy3shO58b24bcxYE-61" style="edgeStyle=orthogonalEdgeStyle;rounded=0;orthogonalLoop=1;jettySize=auto;html=1;exitX=1;exitY=0.75;exitDx=0;exitDy=0;exitPerimeter=0;entryX=0.5;entryY=0;entryDx=0;entryDy=0;entryPerimeter=0;strokeColor=#333333;" edge="1" parent="rylPVy3shO58b24bcxYE-6" source="rylPVy3shO58b24bcxYE-32" target="rylPVy3shO58b24bcxYE-35">
          <mxGeometry relative="1" as="geometry" />
        </mxCell>
        <mxCell id="rylPVy3shO58b24bcxYE-62" style="edgeStyle=orthogonalEdgeStyle;rounded=0;orthogonalLoop=1;jettySize=auto;html=1;exitX=1;exitY=0.75;exitDx=0;exitDy=0;exitPerimeter=0;entryX=0.5;entryY=0;entryDx=0;entryDy=0;entryPerimeter=0;strokeColor=#333333;" edge="1" parent="rylPVy3shO58b24bcxYE-6" source="rylPVy3shO58b24bcxYE-18" target="rylPVy3shO58b24bcxYE-26">
          <mxGeometry relative="1" as="geometry" />
        </mxCell>
        <mxCell id="rylPVy3shO58b24bcxYE-63" style="edgeStyle=orthogonalEdgeStyle;rounded=0;orthogonalLoop=1;jettySize=auto;html=1;exitX=1;exitY=0.5;exitDx=0;exitDy=0;exitPerimeter=0;entryX=0.25;entryY=0;entryDx=0;entryDy=0;entryPerimeter=0;strokeColor=#333333;" edge="1" parent="rylPVy3shO58b24bcxYE-6" source="rylPVy3shO58b24bcxYE-12" target="rylPVy3shO58b24bcxYE-18">
          <mxGeometry relative="1" as="geometry" />
        </mxCell>
        <mxCell id="rylPVy3shO58b24bcxYE-64" style="edgeStyle=orthogonalEdgeStyle;rounded=0;orthogonalLoop=1;jettySize=auto;html=1;exitX=1;exitY=0.75;exitDx=0;exitDy=0;exitPerimeter=0;entryX=0.5;entryY=0;entryDx=0;entryDy=0;entryPerimeter=0;strokeColor=#333333;" edge="1" parent="rylPVy3shO58b24bcxYE-6" source="rylPVy3shO58b24bcxYE-12" target="rylPVy3shO58b24bcxYE-25">
          <mxGeometry relative="1" as="geometry" />
        </mxCell>
        <mxCell id="rylPVy3shO58b24bcxYE-65" style="edgeStyle=orthogonalEdgeStyle;rounded=0;orthogonalLoop=1;jettySize=auto;html=1;exitX=0.75;exitY=1;exitDx=0;exitDy=0;exitPerimeter=0;entryX=0.5;entryY=0;entryDx=0;entryDy=0;entryPerimeter=0;strokeColor=#4D4D4D;" edge="1" parent="rylPVy3shO58b24bcxYE-6" source="rylPVy3shO58b24bcxYE-12" target="rylPVy3shO58b24bcxYE-24">
          <mxGeometry relative="1" as="geometry" />
        </mxCell>
        <mxCell id="rylPVy3shO58b24bcxYE-66" style="edgeStyle=orthogonalEdgeStyle;rounded=0;orthogonalLoop=1;jettySize=auto;html=1;exitX=0.25;exitY=1;exitDx=0;exitDy=0;exitPerimeter=0;entryX=0.75;entryY=0;entryDx=0;entryDy=0;entryPerimeter=0;strokeColor=#333333;" edge="1" parent="rylPVy3shO58b24bcxYE-6" source="rylPVy3shO58b24bcxYE-12" target="rylPVy3shO58b24bcxYE-23">
          <mxGeometry relative="1" as="geometry" />
        </mxCell>
        <mxCell id="rylPVy3shO58b24bcxYE-71" value="" style="shape=flexArrow;endArrow=classic;html=1;rounded=0;fillColor=default;" edge="1" parent="rylPVy3shO58b24bcxYE-6">
          <mxGeometry width="50" height="50" relative="1" as="geometry">
            <mxPoint x="336.09000000000003" y="780" as="sourcePoint" />
            <mxPoint x="498" y="880" as="targetPoint" />
          </mxGeometry>
        </mxCell>
        <mxCell id="rylPVy3shO58b24bcxYE-72" value="" style="shape=flexArrow;endArrow=classic;html=1;rounded=0;fillColor=default;" edge="1" parent="rylPVy3shO58b24bcxYE-6">
          <mxGeometry width="50" height="50" relative="1" as="geometry">
            <mxPoint x="583.22" y="740" as="sourcePoint" />
            <mxPoint x="558.002608695652" y="885" as="targetPoint" />
          </mxGeometry>
        </mxCell>
        <mxCell id="rylPVy3shO58b24bcxYE-73" value="" style="shape=flexArrow;endArrow=classic;html=1;rounded=0;fillColor=default;entryX=1;entryY=0;entryDx=0;entryDy=0;entryPerimeter=0;" edge="1" parent="rylPVy3shO58b24bcxYE-6" target="rylPVy3shO58b24bcxYE-38">
          <mxGeometry width="50" height="50" relative="1" as="geometry">
            <mxPoint x="770" y="745" as="sourcePoint" />
            <mxPoint x="744.782608695652" y="890" as="targetPoint" />
            <Array as="points">
              <mxPoint x="690" y="820" />
            </Array>
          </mxGeometry>
        </mxCell>
        <mxCell id="rylPVy3shO58b24bcxYE-40" value="" style="sketch=0;points=[[0,0,0],[0.25,0,0],[0.5,0,0],[0.75,0,0],[1,0,0],[0,1,0],[0.25,1,0],[0.5,1,0],[0.75,1,0],[1,1,0],[0,0.25,0],[0,0.5,0],[0,0.75,0],[1,0.25,0],[1,0.5,0],[1,0.75,0]];points=[[0,0,0],[0.25,0,0],[0.5,0,0],[0.75,0,0],[1,0,0],[0,1,0],[0.25,1,0],[0.5,1,0],[0.75,1,0],[1,1,0],[0,0.25,0],[0,0.5,0],[0,0.75,0],[1,0.25,0],[1,0.5,0],[1,0.75,0]];outlineConnect=0;fontColor=#232F3E;fillColor=#E7157B;strokeColor=#ffffff;dashed=0;verticalLabelPosition=bottom;verticalAlign=top;align=center;html=1;fontSize=12;fontStyle=0;aspect=fixed;shape=mxgraph.aws4.resourceIcon;resIcon=mxgraph.aws4.cloudwatch_2;" vertex="1" parent="1">
          <mxGeometry y="1636" width="78" height="78" as="geometry" />
        </mxCell>
        <mxCell id="rylPVy3shO58b24bcxYE-42" value="" style="shape=image;aspect=fixed;image=data:image/png,iVBORw0KGgoAAAANSUhEUgAAAgAAAAIACAYAAAD0eNT6AAAABGdBTUEAALGPC/xhBQAAACBjSFJNAAB6JgAAgIQAAPoAAACA6AAAdTAAAOpgAAA6mAAAF3CculE8AAAAhGVYSWZNTQAqAAAACAAFARIAAwAAAAEAAQAAARoABQAAAAEAAABKARsABQAAAAEAAABSASgAAwAAAAEAAgAAh2kABAAAAAEAAABaAAAAAAAAAEgAAAABAAAASAAAAAEAA6ABAAMAAAABAAEAAKACAAQAAAABAAACAKADAAQAAAABAAACAAAAAAD4wtiGAAAACXBIWXMAAAsTAAALEwEAmpwYAAABWWlUWHRYTUw6Y29tLmFkb2JlLnhtcAAAAAAAPHg6eG1wbWV0YSB4bWxuczp4PSJhZG9iZTpuczptZXRhLyIgeDp4bXB0az0iWE1QIENvcmUgNi4wLjAiPgogICA8cmRmOlJERiB4bWxuczpyZGY9Imh0dHA6Ly93d3cudzMub3JnLzE5OTkvMDIvMjItcmRmLXN5bnRheC1ucyMiPgogICAgICA8cmRmOkRlc2NyaXB0aW9uIHJkZjphYm91dD0iIgogICAgICAgICAgICB4bWxuczp0aWZmPSJodHRwOi8vbnMuYWRvYmUuY29tL3RpZmYvMS4wLyI+CiAgICAgICAgIDx0aWZmOk9yaWVudGF0aW9uPjE8L3RpZmY6T3JpZW50YXRpb24+CiAgICAgIDwvcmRmOkRlc2NyaXB0aW9uPgogICA8L3JkZjpSREY+CjwveDp4bXBtZXRhPgoZXuEHAABAAElEQVR4AeydB4BU1dn+n9k+21hAFGx0QWnSpAiKBU2MMcbYY4smRokits+QxMQk/2i+oAT1iykaTdRYorEk0URBRbGgCMrSWXoRpe/uzPad/T/vmR0YVmD77szc5+oOuzO3nPs7Z+55znnf876+Gm7QJgIiIAIiIAIi4CkCSZ66W92sCIiACIiACIiAIyABoIYgAiIgAiIgAh4kIAHgwUrXLYuACIiACIiABIDagAiIgAiIgAh4kIAEgAcrXbcsAiIgAiIgAhIAagMiIAIiIAIi4EECEgAerHTdsgiIgAiIgAhIAKgNiIAIiIAIiIAHCUgAeLDSdcsiIAIiIAIiIAGgNiACIiACIiACHiQgAeDBStcti4AIiIAIiIAEgNqACIiACIiACHiQgASABytdtywCIiACIiACEgBqAyIgAiIgAiLgQQISAB6sdN2yCIiACIiACEgAqA2IgAiIgAiIgAcJSAB4sNJ1yyIgAiIgAiIgAaA2IAIiIAIiIAIeJCAB4MFK1y2LgAiIgAiIgASA2oAIiIAIiIAIeJCABIAHK123LAIiIAIiIAISAGoDIiACIiACIuBBAhIAHqx03bIIiIAIiIAISACoDYiACIiACIiABwlIAHiw0nXLIiACIiACIiABoDYgAiIgAiIgAh4kIAHgwUrXLYuACIiACIiABIDagAiIgAiIgAh4kIAEgAcrXbcsAiIgAiIgAhIAagMiIAIiIAIi4EECEgAerHTdsgiIgAiIgAhIAKgNiICHCIRQ4+62hv/af9pEQAS8S0ACwLt1rzv3EIFIZ58EH6rZ8ftq/wshIgk8BEO3KgIi4AhIAKghiEACE4iM9K3Dty2/fAOu3/EE/lz0JnaGgkjif/aJZIDDoxcR8BQBXw03T92xblYEPELAOvVw9w5sqtqFJwNzMLV0Lu8+mT/lODnlSPwk6xSM8x+LDF8K3wvPE0TEgkcw6TZFwLMEJAA8W/W68UQlEN3xF4bK8GpwPi4teYvD/CAG+HJQwRvP8PmwpqYCwZoAvp82CNdln4Tj03s4JBFzgYRAorYQ3ZcIhAlIAKgliECCEIjuuKs4mp9TuhS/KH4Ds6s3oQc7/kxfMopqQu5ubdovjZP/ub4kLKQwMCPAb/xjcUn2WByZ0sntEy0k3Bt6EQERSCgCEgAJVZ26GS8SsM7cOv/IdP/iik14JPAO7i9fiFSfH/196SisqWYX/+XNjs3iken8d1FNEZCUi79lnoRzskcim8fZJiHgMOhFBBKOgARAwlWpbshLBKI758208z8fnIspJe8SgQ+Dk7IQ4Ii/nOIg7AJ4cDK5nCEoqanCulARzkg9GlOzTsVJmQMoDyLeAXbWhpzp4NfRpyIgArFBQAIgNupBpRCBRhGI7vgDNeV4PbgQlwffQEloN+38HVDFswU4dm9sd22dfR6FQH5NGXv9MkxKG4jJOaeiX9oRrnxyE2xUNWlnEYhpAhIAMV09KpwI7Esg2s5v0/cflK3AtOI38VLlGhzN6fscevPbdH9zNjtvOqVDNv0D8kMB/pWEezPH4FL6B3RLznOnjhYgzbmWjhUBEWg/AhIA7cdeVxaBBhOoa+cvqNiChwNvY1r5J5yXz8AQ/uzmdL8F+Wmpzc5kIoAPCSznagEk5eDvNAucnTUcfl+qu4wJEpkFWoq4ziMCbUtAAqBteetqItBoAtGj7a3VRfhH8ENMMjt/TSXt/DlcyhdCWQPt/I2+OA8wM4L5B+ymf8BmCoGvpRyNO7JPw4n+/vIPaApQHSMCMUJAAiBGKkLFEIG6BKJH16Xs7F8Lfor/Cc5GQWgb+tHO7+Na/mJ2/o2189e9TkP/TuaVcjgjsNj5B1TghvQBuCnndPRJ7epOYULFZgPaqjwNLbf2EwER2D8BCYD9c9G7ItBuBKLt/FaID8sKMCMwG89UrkRXruc/hNPvZudvucn+xt2q+Qf4+bO4poTTAymY4R9N/4AT0SU5x50oesaicWfW3iIgAm1JQAKgLWnrWiJwEAJ17fyrK7/Aowzfe3fZfB6ViiFJfnb8IXr4t1fXv2/hLX6AdfYFNAv0TsrD9OzTMTFzCP0DLKyw4gfsS0t/iUDsEZAAiL06UYk8SCB61GxJep4LzMV1zs5fjkG+bJSSSWkTlvW1NsqIf8A2mii2UghcnNoHU7JPxaiMPu7SdWczWrs8Or8IiEDDCUgANJyV9hSBFicQbeevoA+/ree/M/gWPq3eir6c7k+mzd2C+cT6lkKTgPkHLGLuAdAl8c6MkbiS+QV6px7qim5ph32cMZB/QKzXpMrnJQISAF6qbd1rzBCoOzJeUL4W9zFu/1OVBQzEk4kjfWntaudvCigzTJhvgP0ssmWD9FV4JHMCzs0aic7J2e6U0TMdTbmGjhEBEWg5AhIALcdSZxKBBhGI7gQ3VG3HY8VzcFfZxzw2CYOSMt2IvzJG7PwNuqE6O5kQsNkAyzS+oqYQw5IPxT30DxjvH1jrH1DD+QC7W80H1EGnP0WgTQlIALQpbl3MywSiO/7CUCleDs7DlcG3uZ6/BMdxur+ScEpi0M7f1Dqz7t3CCm9m2uGdNUFckdofN2ZPwIiMXu6UdWdBmnodHScCItA0AhIATeOmo0SgwQSi7fyV7ODnlCzFnYGZeL96C3r5cpHO0bKt50/EzWYD9qYd5rJBypx7mHb4wqzR6CX/gESsct1THBGQAIijylJR44tA3RFufvkGPBB4E3+uWIY02vn71dr5E7Pr37euwv4BScjk2/ku7XAWHvNb2uER6MSshbZFz5C4N/QiAiLQqgQkAFoVr07uVQLRndkmpul9kuv5p5bOJY5kZ+e38L0NTdObSAxNCHSgWaCKgYxWMnPhBKYd/nHWKRjnPxYZjB9QVzQl0r3rXkQg1ghIAMRajag8cU0guuMv4pK4V4LzcWnJWxzeBpmmNwcVvLtEsvM3tbLMP6AjhcBq+gcEuWLgWqYdvoH+AYPSu7tTSgg0layOE4GGE5AAaDgr7SkCByQQ3WFZpL45pUtxT+AtzKzagJ608/tp5y9KUDv/AaHU84HNBuz1DwjyrxpM84/BxUw7fGRKJ3d0tKCq53T6WAREoJEEJAAaCUy7i0A0AevErPOPLGlbXLEJjwTewf3lC5msx4+BvnS3nt8Ldv5oLo353RhaWGFLMLzE+Qfk4m+Z5h8wkumI092pJAQaQ1T7ikDDCEgANIyT9hKBLxGI7pQ2087/fHAuplj4Xq5vH0zHNovg50U7/5dANeINSztcwrTD60JFOIP+AVOzTsVJmQMoD8JCy06lfIONAKpdReAgBCQADgJHH4nA/ghEd/yBmnIXvvfy4BsooVPbAKbpreJBgQRaz78/Bq35nnX2Fj8g36UdLsMk+gdMzjkV/dKOcJcNm1skA1qzDnRubxCQAPBGPesuW4BAtJ3fpq0/KFuBacVv4qXKNTg6KZfR71LcdH8LXMrzpzC+lnY4m74T+SGGFeYcwL2ZY5h2eCy6Jec5PtFCzPPABEAEmkBAAqAJ0HSItwjUtfMXVGzBw4G3Ma38E85HZ2AIf3Zzur+avgDaWpaAETURwAcVllt+gaQc/J1mgbOzhtOx0rwGwqYBzQc4FHoRgUYRkABoFC7t7DUC0aPMrdVF+EfwQ0xyaXoraefP4RK2EHPf1SiqfSs3DFs2aP4Bu+kfsJlC4GspR+OO7NNwor+//ANamb1On7gEJAASt251Z80gYNP9kVFlKXPdvxb8FP8TnI2C0DZG8OtAD3+fC99rHZO2tiOQzFqxREOLnX9ABW5IH4Cbck5Hn9SurhAm2KzeVC9tVye6UvwSkACI37pTyVuBQLSd307/YVkBZgRm45nKlejKQD6HcNq5kFHsNNnfCvAbcUrzD7C0w4uZSAn0vZjhH03/gBPRJTnHnSV65qYRp9WuIuApAhIAnqpu3eyBCNS186+u/AKPMnzv3WXzeUgqhiT52fGH6OGvrv9ADNvjfYsfYJ19Ac0CvZPyMJ1phydmDqlNO6z8Au1RJ7pm/BCQAIifulJJW4lA9GhxJ0P2PheYi+ucnb8cg3zZKOV1S7Wsr5XoN/+0Ef+AbTTVbKUQuDi1D6Zkn4pRGX3cyevO6jT/ijqDCCQGAQmAxKhH3UUTCETb+Svowz8rmI+pwTeRX70VfTndn0xbswXz0RYfBFJoEjD/gEXMwQC6Zv4yYxTNAuOUdjg+qk+lbAcCEgDtAF2XbF8CdUeEC8rX4r7iN/BU5SpmqvPjqNo0vZrsb996asrVrc7MNyCTpoH8mmL6B6TikcwJODdrJDonZ7tTRs/4NOUaOkYEEoWABECi1KTuo0EEoh/+G6q247HiObir7GMem+TS9NqIv8J5kjfodNopRgmYEMjlbECI8QNW1BRiWPKhuIf+AeP9A2v9A2po1LFa13qBGK1CFasNCEgAtAFkXaL9CUR3/IWhUrwcnIcrg28zikwJjuN0fyWLqDS97V9PLV0C694trPBmph3eWRPEFan9cSPTDo/I6OUuVXc2qKWvr/OJQCwTkACI5dpR2ZpNINrOX8kx35ySpbgzMBPvV29BL6bpTecosVh2/mZzjuUT2GzA3rTDXDZIuXePfywuyhqNnqmHuqKHnJOn5gNiuR5VtpYnIAHQ8kx1xhggUHdkt6hiIx6gnf+RimVI82UymE+a0vTGQD21ZRHC/gFJ9A8A/QOKOP+fjceZdvgshhXuzOyNtkXPFLk39CICCUxAAiCBK9ertxb9EN/ENL1Pcj3/1NK5xJHs7PwWvldper3aOix3AOjsmYwqBnRayQyOE5h2+MdZp2Cc/1hkMKhQXfHoXVK680QnIAGQ6DXsofuL7viLuBTsleB8XFryFod1QabpzaFzX3g9v4eQ6FYPQsD8AzpRCBQwpXMJ/QOuZdrhG+gfMCi9uztKQuAg8PRRQhCQAEiIavT2TUQ/qC1S35zSpbgn8BZmVm1AT9r5/bTzF8nO7+1GcoC7t9mAvf4BQf5Vg2n+MbiYaYePTOnkjooWlgc4jd4WgbgkIAEQl9WmQhsBe3hb5x9x3VpcsQmPBN7B/eULmazHj4G+dNn51VQaRMDakoUVtgTDS5x/QA6ezjwZ52SfgEz6i9gmIeAw6CWBCEgAJFBleulWoh/Gm2nnfyH4ESaXzHEIBtOhy9bzy87vpRbRcvdq/gEBph1eHyrCWandcTv9A07KHEB5EBacdiXlG2w53jpT+xGQAGg/9rpyEwhEd/wB2m5fDy7EFcE3EKQz1wCm6a3iOQNuSVcTTq5DRKCWQDL/zaUQWOTSDpdhEv0DJuecin5pR7g9wmYnyQA1mPgmIAEQ3/XnmdJH2/ltuvaDshWYVvwmXqpcg6OTcvmwTsFuenVrE4GWImDtLINj/Sz6kOSHAvwrCfdmjmF+gbHolpznLhMtSFvqujqPCLQVAQmAtiKt6zSJQF07f0HFFjwceBvTyj/hPGwGhvBnN6f7q51HQJMuoYNE4KAErA1mUwTwYYnlzDaIpBz8PetUnM34AX7mGrDNBKrmAxwKvcQRAQmAOKosrxU1enS1tboI/wh+iEkuTW8lBvMhbOv5y9yD12tkdL/tQcCWDZpZYDf9AzZTCJyVcjR+lHM6xmb0cxkFomep2qN8uqYINJaABEBjiWn/VicQPZoqZY7310o+xY8Zt39p1Vb0T+rAkb/Phe+1B7I2EWhrAsns7i3t8GLnH1CJG9MH0D/gNPRJ7eqKYsLVZgPUPtu6ZnS9xhKQAGgsMe3fagTqjqA+LCvAjMBsPFOxEodxxH8op1vNzm9TstpEoL0JpLOLNx+BJUwoBfqgzPCPpn/AieiSnOOKFj2D1d5l1fVFYH8EJAD2R0XvtSmBunb+1ZVf4FGG7727bD7LkYohSX6u5w8xhYuNrLSJQGwRsPgB1tkX0CzQOykP05l2eGLmkNq0w4ofEFu1pdJEE5AAiKah39ucQPQoaSdD9j4XmIvrnJ2/HIN82ShliUq1rK/N60UXbByBiH/ANpqstlIIXJzaB1OyT8WojD7uRHVntxp3du0tAq1DQAKgdbjqrPUQiLbzV9CHf1YwH1ODbyK/eiv6Mm5/Mm2sFsxHmwjEE4EUzlGZf8Ai5qIAXVR/mTGKZoFx6KW0w/FUjZ4pqwSAZ6o6Nm607khoQfla3Mc0vU9VrmKGNj+Oqk3TKzt/bNSXStF4AtZ2/RQCmTQN5NcU0z8gFY9kTsC5WSPROTnbnTB65qvxV9ARItAyBCQAWoajztIAAtEPvQ1V2/FY8RzcVfYxj0xyaXptxF8hO38DSGqXeCBgQiCXswEhxg9YUVOIYcmH4h76B4z3D6z1D6ihcctavzxb4qE+E7GMEgCJWKsxdk/RHX9hqBQvB+fhSi7rA72nj+N0fyXLWyI7f4zVmorTUgSse89j/IDNNRXYybTDV6T2x41MOzwio5e7RN1ZsZa6rs4jAvURkACoj5A+bzKBaDt/JTv4OSVLcWdgJt6v3oJeTNObztFRsez8TearA+OHgM0G7E07zGWDlL33+MfioqzR6Cn/gPipyAQrqQRAglVoLNxO3RHNooqNeIB2/kcqliHNl4l+tXZ+ufjFQm2pDG1JIOwfkET/ANA/oIjz/9l4PPMknMWwwp2ZxdK26Bkz94ZeRKCVCEgAtBJYr542+uG1iWl6n+R6/qmlc4kj2dn5LXyv0vR6tXXoviMETAhY2uEqBrZayUyWE1KPxo+Zdnic/1hkMKhQXREdOU7/ikBLEpAAaEmaHj5XdMdfxCVQrwTn49KStzicCTJNbw6d+8Lr+T2MSLcuAl8iYP4BnSgECpjauoT+Adcy7fAN9A8YlN7d7Ssh8CVkeqMFCUgAtCBML54q+gFVxXHLnNKluCfwFmZWbUBP2vn9tPMXyc7vxaahe24gAZsN2OsfEORfNZjmH4OLmXb4yJRO7izRAruBp9VuIlAvAQmAehFph/0RsIeWdf6RJUyLKzbhkcA7uL98IXP1+DHQl87wvdVumdP+jtd7IiAC+xKw75SFFbYEw0ucf0AOns48Gedkn4BM+s3YJiHgMOilhQhIALQQSC+dJvohtJl2/heCH2FyyRyHYDAdmWw9v+z8XmoRuteWJmD+AQGmHV4fKsJZqd1xO/0DTsocQHkQFt52PeUbbGnq3jufBID36rzJdxzd8Qdos3w9uBBXBN9AkE5MA3wdUMUzBzhGUViTJiPWgSKwh0Ayf8ulEFjk0g6XYRL9AybnnIp+aUe4fcLmN8mAPcD0S6MJSAA0Gpn3Doi289s05QdlKzCt+E28VLkGRyfl8iGV4tL0eo+M7lgEWpeAfd8s5XAWfWnyQwH+lYR7M8cwv8BYdEvOcxePFuatWxqdPdEISAAkWo224P3UtfMXVGzBw4G3Ma38E84/ZmAIf3Zzur+avgDaREAEWo+AfcOyKQL4wMZyZhtEUg7+nnUqzmb8AD9zDdhmQl3zAQ6FXhpIQAKggaC8tlv0qGJrdRH+EfwQk1ya3koM5sPH1vOXuQeO18jofkWg/QiYec3MArvpH7CZQuCslKPxo5zTMTajnzO9Rc/WtV8pdeV4ISABEC811UbljB5FlDK3+Wsln+LHjNu/tGor+id14Mjf58L3ys7fRhWiy4jAfggks7u3tMOLnX9AJW5MH0D/gNPQJ7Wr29sEvM0G6Hu6H3h6aw8BCYA9KLz9S92Rw4dlBZgRmI1nKlbiMI74D+U0424u69Nkv7fbie4+tgiks4s3H4ElTKwF+uLM8I+mf8CJ6JKc4woaPZMXWyVXaWKBgARALNRCO5ahrp1/deUXeJThe+8um89SpWJIkp/r+UNMXWIjCm0iIAKxSMDiB1hnX0CzQO+kPExn2uGJmUNq0w4rfkAs1lkslEkCIBZqoZ3KED062MmQvc8F5uI6Z+cvxyBfNkpZrlIt62un2tFlRaBxBCL+AdtouttKIXBxah9MyT4VozL6uBPVneVr3Nm1dyISkABIxFqt556i7fwV9OGfFczH1OCbyK/eir6M259M26IF89EmAiIQfwRSOFdn/gGLmJMDdNX9ZcYomgXGoZfSDsdfZbZyiSUAWhlwLJ2+7ghgQfla3Mc0vU9VrmJmMj+Oqk3TKzt/LNWayiICjSdg32E/hUAmTQP5NcX0D0jFI5kTcG7WSHROznYnjJ4BbPwVdEQiEJAASIRabMA9RH/ZN1Rtx2PFc3BX2cc8Msml6bURf4Xs/A0gqV1EIH4ImBDI5WxAiPEDVtQUYljyobiH/gHj/QNr/QNqaOSzp4A8fOKnVluupBIALccyJs8U3fEXhkrxcnAeruSyPtBr+DhO91ey1CWy88dk3alQItBSBKx7z2P8gM01FdjJtMNXpPbHjUw7PCKjl7tE3dnBlrquzhPbBCQAYrt+mly6aDt/JTv4OSVLcWdgJt6v3oJeTNObzlFBsez8TearA0Ug3gjYbMDetMNcNkj5f49/LC7KGo2e8g+It+pskfJKALQIxtg5SV0lv6hiIx6gnf+RimVI82WiX62dXy5+sVNnKokItCWBsH9AEv0DQP+AIs7/Z+PxzJNwFsMKd2Y2T9uiZw7dG3pJSAISAAlUrdFf2k1M0/sk1/NPLZ3LO0x2dn4L36s0vQlU4boVEWgGARMClna4igG+VjKj54TUo/Fjph0e5z8WGQwqVHcw0YxL6dAYJSABEKMV05hiRXf8RVz680pwPi4teYsyPsg0vTl07guv52/MObWvCIiANwiYf0AnCoECpvguoX/AtUw7fAP9Awald3cAJAQStx1IAMRx3UZ/Mauo1+eULsU9gbcws2oDetLO76edv0h2/jiuYRVdBNqGgM0G7PUPCPKvGkzzj8HFTDt8ZEonV4jogUbblEpXaW0CEgCtTbgVzm9fVuv8I0t3FldswiOBd3B/+ULm6vFjoC+d4Xur3fKeVri8TikCIpCgBOzZYmGFLcHwEucfkIOnM0/GOdknIJP+Q7ZJCDgMCfEiARBn1Rj95dtMO/8LwY8wuWSOu4vBdOCx9fyy88dZpaq4IhCDBMw/IMC0w+tDRTgrtTtup3/ASZkDKA/CAxArsvINxmDFNaJIEgCNgNWeu0Z3/AHa6l4PLsQVwTcQpPPOAF8HVLFwAWpzhfNoz1rStUUgsQgk83ZyKQQWubTDZZhE/4DJOaeiX9oR7kbDZkjJgHitdQmAGK+5aDu/Tc99ULYC04rfxEuVa3B0Ui6/nCkuTW+M34aKFyMEbPRmD/QKRoazAFDaRKA+AvbcsZTDWfQpyg8F+FcS7s0cw/wCY9EtOc8dHj1Aqe98+jx2CEgAxE5d7FOSunb+gooteDjwNqaVf8J5twwM4c9uTvdX0xdAmwg0hICFhC1hm1kXKmQbSodMRg2hpn0iBOxJk802xE4Dy5ltEEk5+HvWqTib8QP8zDVgmw1YNB/gUMTFiwRADFZTtJreWl2EfwQ/xCSXpreSD+0c2Hr+MvdFi8HCq0gxRcAe2pYQJp3/Lq4N+vJX/3gsqdqC3zAXRCqDwBxLMbBbTqMxVW+xXBgzM9os0m76B2ymEDgr5Wj8KOd0jM3o50yQ0bOWsXwfKhvHATXcBCI2CESr51Lm9H6t5FP8mHH7l1ZtRf+kDqwtnwvfKzt/bNRXLJfCvtS2rMvSwuaHLOxrFcO+jsZl2ePdsq5ydvjvlS7Dr5gG+s3KDeiTlMdIkclcNlody7elssUQgeTa9rXY+QdU4sb0AfQPOA19Uru6UtpAxmYD9LyKoUqrUxQJgDpA2uPPuor5w7ICzAjMxjMVK3EYR/yHcnrNRmhSau1RO/F3zYidfw0Tv1hgl6vTjsVN2adicHp3dzPRM0y7KA4scNTlJW9zfVcAgxk/opR7KUFU/NV7e5U4nV28+QgsYYIx0CdpBoXmpdknoktyzpfaW3uVUdfdPwEJgP1zaZN3rUO3zj+ynn915Rd4lOF77y6bz09SMSTJz/X8IabsMCWtTQTqJ2Aj/gq2mdXMAT8quSvuYsd/WuYgtqa9i7dsTFa37a2r3IbnaGr6n9L3eJEUtr1MF0RKKaLrZ649wgQsfoCJywKaBXpzRmk60w5PzBxSm3ZY8QNisZ1IALRTrUSPwnYyZO9zgbm4ztn5yzHIl+1GYaVa1tdOtRNfl7XO3F9r519izll0EP1T5jhckD0aeezIbYtub+6N2pe6s0/zy9bgoeA7eLRiCTqyHR7J4C+afYompt8PRsAGKuYfsI0mzK1sixen9sEUitBRGX3cYXXb28HOpc9an4AEQOsz3ucK9gWIWMUq6MM/K5iPqbTD5ldvRV/G7U/mCM6C+WgTgfoIWMefytZk3v35IZu4r8KPMobhezkno0dKF3e4dfwNscOG26Ud4kMZnbveKV3C9NFv4COmj+7ny0MS/U8srLRmohxWvdRDIIUtxWajFjE3Ceiy/MuMUTQLjEMvpR2uh1zbfiwB0Ea86yrfBeVrcR/T9D5VuYoZufw4qjZNrz3UtYlAfQSsI7ZIbZ/Tzr+ddv6LUvviVo60Rmb0dofWbW/1nS/yefRMwQ76BLwUmIfvmn8Ag0+Zf4D5BpQ6URE5Qv+KwP4JhGemfG4VSj5NUuAz7s8MK/yNrJHonJztDopub/s/i95tTQISAK1Jt/bc0Y18Q9V2PFY8B3dxCZYF1BjEKVob8cvW2gYVkQCXsIeqjaxs8c6KmkIMTD4Md2dNcLZWS+FqW/Qsk3ujkS92jRp29En8z7Y1lVvxdOA9/KTMUktb/AC/mw2wBFTaRKA+AtZKbJYqVNtmhyUfinvoHzDeP7DWP8Bamz0NNb9UH8uW/lwCoKWJRp0vuuMv5BTty8F5uJLL+kBv2eM43V/JfeVtHQVMvx6QgD1E/XxAZrrp/vBo6ve085+fNQqHtJK3dd1ZhI/pHzCDZoG/Va5EF7ZfW51iywYlAw5YbfogioB173mctdrMWaudnLW6IrU/bmTa4REZvdxeddtb1KH6tZUISAC0AtjwCMxO7GMnH8KckqW0p87E+7Sn9uI0ajof4sWy87cC+cQ8pa237uA6frPzV+CO9KG4Juck9E3t5m7YhGZD7PxNpRMtZC0+xVsli3BbYBaWhXbSbyXbzRQE3RiuqVfQcV4hYGJxb9phi09RyfgUY3FR1mj0lH9AmzcDCYAWRF5XwS6q2IgHaOd/pGIZg6xk0pkqTWl6W5C3F05lI6addMr7jOF7L0o7BpM5YhqTcQw7/PBUvzGIOJW2No9oIbCtuhjPBD7A5NL3WZBKJqTKctEpLROlNhGoj0B4RiuJ/gFAvotQmYUnMifgawwr3LGelSv1nVufN5yABEDDWR10z+iH46aqnXgq8D7uKP2Ax4Tt/Ba+V2l6D4pQH9YSsIej2fmTaDNdyofj0UmdcD9TsZ6ZNXRPzPXo9taW4KxsJnQj9tpVjF3xeyanml6e75y8BnIJos1uyTDQlrUSv9ey9mTOrJU0JRUws+lpTDv8Q/q0jPMfC/NpqTuoit87jc2SSwA0s16iH8RFXPJiUdUuLXmLC6+DHBXlcMIW9JrWsr5mYvbE4fYwtKhq1vkvrM269iDt/Bdmj8GhybmOQXR7a08o0Q9mK/f7zFJ5d/EsvFq1EYdztiuPD28TAvaZNhGoj4C5m9ps1wquNimnf8C1TDt8A2e7BqV3d4dGt7f6zqXPG05AAqDhrPbZM7pBmjf0nNKluCfwFmZWbUBP2vn9fIjbumltItAQApZ33UZC+XwAmpPobWbnzz4Z/dMOd4dbV9qadv6GlHF/+9j3IGKCMP+AV4MLcEnwDVSGimnysqVePgQogOXfvT96ei+awL4COMiPajDNPwYXM+3wkSmd3K6xIoCjyx3Pv0sANLL2rJHaQy8yBbq4YhMeCbyD+8sXMlePHwOZWa2Q01nq+hsJ1sO7W8cfoJ1/fagIX03tgR9yPf9Yf38G5LWQveExdKSTjVVM0Q/mL6oL8TeawG41ExhFsKUdVgbLWK252CuXtXgLK2wJhpc4/4AcPM34Aedkn8BVMGmuwNHtLfbuIH5KJAHQiLqKbnSf8yFn4Xsnl8xxZ1Bu9UaA1K6uW9/3IZeLZ2nn/0rmUOQmZThC0e0tHpCFpcreGYEVFZ85J9iHGFYYFMaD6B9gywaVbzAeajM2yhgtjs+iOL49+xSc5D+O8iA8ELNSxro4jg2S+y+FBMD+uezzbvSDOMAp2pnBhbiR4Xs3h3bRzt+BAVihac59iOmPAxGwTnJvml6b5kTUNGdH93d0e3NvxNlL9KyFzYS9Q/PYvTSPvVK5Dkcl5TIoTIqbJYuz21Jx24mAmccsv8Ail3a4HJPSLO3wqeiXdoQrUbi9SQY0pXokAA5CLfpBZg/uD+joNI0ezy9VrsGRfJCZo5MlStEmAg0hYKMWG9EUMBBKGe381/NBNinnFAxMO8odbh2/2coT5VEWLWRKeM//ZFjhy0reQTW9vY+rFc4WP0D+AQ1pPd7ex56/lnI4y8XDYMIrzgHcmzmG+QXGoltynoMT3d68Tavhdy8BsB9W1tis84/Y+QsqtuDhwNuYVv4Jn84ZGMKf3VrqtB9yeutABCwUainbzFraNE9MPhy/yJnIUKjHfilN74GOj+f3ox/MW6p248nAu0w7bGGFwbTDWW61gJbIxnMNt13Z7dmcze8SOy4st8yXSTn4e9apOJvxA/yMTGmbPbsTRUS7G2rFFwmAOnCjH1Zbq4vwD+ZIn+TS9FbSmSlHzkx1eOnPAxOwh1UmZWQ6/11syVAY4ORxBjs5J2sEOjCevm3R7c29kaAvdUX1knIGyQq8iT9VLEUqnWePpY+AzabJeTZBG0AL35bNGplZYDedZzdTCJyVcjR+lHM6xmb0czNK0bO3LXzphDqdBEBtdUarRlvONLNkIX4YnI1lVVvRP6kDR/4+N1LRdGVCtf9WuRnr7Pba+S3caRXDnY7GZdnjPb+cKfrBXE53wPdKluFX9Kd5s3ID+iblMWJmsvwDWqVVJuZJLUy2xc1Y7PwDKnBL+mBcT/+APqmHuRs2gW2zAXpu77/+PS8Aoh9IhujDsgImPJmNZyoLmOwkG4dxWslGJvZQ1yYC9REwO7+NTNbQ5l3CgCZXpx2Lm7isb3B6d3do3fZW3/kS9fPomY9doRIXQOtySzvMAEiWdtiyHihRVqLWfsvflwXQMh+BJfzOgb5ZMxg/4NLsE9GllRJltfwdtM8ZPSsA6k5JrmZI00cDc3B32XzWROqelKeVTkG2T+XoqvFFwEYiFbTzr+Z0/6jkrriLHf9pmYM8YedvSk3V/Q5a2uHnaXK7w/ILMArCEJpMLJiWUmU3ha43j7GltSYuC2gW6M0ZpelMOzwxc0ht2mHvmNwaWvueFADRo4+dDNlr6/mvc3b+cq5VznajDwvfq2mjhjYj7+5nnZi/1s6/xJyS6CD6J4bvvSB7NPKU1KRBDaPurMh8ph1+KPgOHmX8gI78Ph7J4C+ahWsQSu1EAvbctlm4bTTlbuV38uLUPphCMT4qo4/jU7e9eRmaJwWAVbgln5hZko+ptD/mV29lWtMcJHMEF+CIQ5sI1EfAOv5UPmrMuz8/ZBPWVfhRxjB8L+dk9Ejp4g6X/bE+ivt+Hhbm9p6PyySrGD9gCdNov4GPmEa7ny8PSfTDsRkBCfN9uemv/ROwSJo2K7eIOVrAXJW/zBhFs8A49KpNO2xCwOveAd4TAHxyL6LD0W/K3uBypOVcl53J4CThNL32UNcmAvURsA7I1vN/Tjv/dtocL0rti1s5whiZ0dsdqhFGfQQP/nn0DN0O+gS8xPgB3zX/APK2lTglFAGlMs0dHKI+dQTCM3Q+txonn6G2wSibj2SfhPP8J6BjchZbkbdFgOcEQEV5BYbffzUWj8/G8f16oTBUhcoKBvNJ0rhCz4yDE7CHiY34Q1yDvKKmEAOTD8PdTF1qNkZLXWqb1x8oDkILvBjrGprhmBTZnc38A55i/IA7yyx+QMYeHx1LxKVNBOojYK2kQ3IyskI+zFs3F/899A6c2XMMv8tsY/xOe3Xz3p2zn+/5fCE6jH0dhX9fhMqdnL71M4CE9f98sGsTgboErFWYh3FnjvqXMcvdClTi91ln4K3O1+LrDEBinb+NWm3z+pSig9ACL/Z1tM7fBJX9Z9O2P+l4HuZ1/D6+nXoUzS47EeQyQpuJkXRvAeAJfAofB3dJ/Nm+swTF+TuApTVIqVKrsSoPD1sSuPL3d2tVR6aicEMFOl//LnynFaDm+iHASKZdzWGmqXJG9rdnOe2N2kTAupcOETs/p6CnZgzHd2hH7JvazcGJ2PkjUSNFrGUJRARVxCwwgmaWh9OPxqUli3BbYBaWUAj0paOgiQULK6xNBBwBe4ZzeGudf2WgEsUbixH8vIQBuPiMT2M70ePdYfKkAGCycvMJYafPHNNLi+A7/7/AVX1R851BwLF04LJ5ETMLSAS4RuLVlzyOLnfSGS2/ehcuSjsGk7MnYEzGMe7ZYaNS29Txt03riHA2IWAhX8/KGkafi754JvABJtuyQXp8D/Bl8WtdAwsrrM3bBHwpPlSXVyP4WQCFm7g6p5Jtgu/R0xuMye1tOFF3700BYACq2QgC7OTziKAbs7D9ZQN8f1kH3DUYNd84Bjia0f+qKRSqTC1KLka1mYT+1R4N5jmcRHPQYiatOTqpE17MvRBnZg3dE2s8MhpNaBAxenMmBKyOTIBZkJcbO5yBr9IH4/dM0jW9PJ/f1TQM5FLMYtp2Fb4rRiuxFYvlYwdfw2d7yZYgdm8oRjVH/0jliM5+zMRrjUeP8z014F0BEEFQxRZRTCEwkLHZbeR/1yfw/Y5mgf93PDCRXt0dGMm9kp+HuJ+EQIRawv1rzwWz81uikYX0PLfG8GDmqbgwewwOTc519xvp+COj0YSDECc3ZM9vMw1EZmEs7Ou9nS7BeWXDcHfxLLxatRGHc3WPZes0IWB1qy2BCdij2Ub23Mp3laFwfTHKd3KKl9P/vrRk9vvcIdq/Sw1iT2OQAIigKOdI37YhfNiXca3x998GvroaNdcOBkYdSbsRUZkQsIYkIRBmlSCvpvtsuj+/ppxCL4jb0ofhmuyT0T+NfiHcrAuxDkcdv8MRMy8R/wATAvb7iUwE83x6L7waXIBLgm/gMzps9qN/gMmFAGtRA7+YqbqWKYh15Pzy2nR/ldn5OdUf4MjfFJ+PI/5wv6/e/mCwJQDq0imhELAeYSj9Az7cBd9/6B/wPfoHXEUh0LezPUvCQkAioC65uPzbvMiDzs6/E+ek9sJt2adgjL8fvWP3jjDV8cd21UaEgAk18w/4VvYobPT3x98C7+PW0g/YIYS4bDBLmTxjuxobXTrr+EP01QpsDKJwYwA1tPm7qX4+o6MH/I0+sYcOkADYX2XbZID5BxzG5YHdaQJ4eB18D68HfjEINd/sBxyeE/YNMB8BCYH9EYzp92xMYDHDLXv4klAhBV8uns09D1/JHIpcBgqxLTLd7/7QS1wQiPgH2BDwsOQOuKXDV/E1/xA8UPwGHmJYYTDl8CD6BxQxCii/3drilICz89MkW/JFCaf7i1BVTDt/Cmt/z3R/nN5YOxRbAuBg0M0/wITAwEzuxd9/Sv+AP9M/4GfDgFN60FuM4qCKn8s/4GAUY+ozC99rTn75nOq3bZp/PC7OHss0vXQE5Rbif7akTKN+hyPuXsLT/Htnb/rRjPNg58txQelS3Bt4C69UrkN3Cr4O9A8opBDQFicE+Ph1dn5WcMXuctfxl+3Y187vbP1xcjuxUkwJgIbUhPkH2JNlCEf+FAS+q9+mfwCFwCTGDxhBOzGVZ9g/gPtoRqAhRNt8H7Pq2HR/Adfyr2X62evTBmBSzikYmHaUK0vYzm/WH9tTW7wTiDYLmJib4D8OJzAZzD8DH+ESl3a4EMcx7TCjfrj4AWHhEO93nYDlt+k6fiWt868qqaKdv5h2/hK3isuXGnbwU8ff9HqXAGgoO2uI5h/AqSYcT0fBD3aG/QN+cAxqLmf8gN7hEaQTAhIBDaXaJvtZ+N5S2oEXcVnfuORu+HnO+RjvP3afNL0a8bdJVbT5RSL1agIvk0sEL84Zh3EUA8/QP+D2UgsrTF1P/wBbLWDxAyQE2ryKDnpBZ+dn3Jbg5gB2m52/lJLNLevjLI8M/Qdl15APJQAaQil6H5vuD/LncPMPYFSp363mssH1wD0DUXMO4wd04yyBrRaw+AFchqKtfQiYXsvk0IFGGq7nL+YQIhNPZH/dhe7tkMQln9widn7VksOR0C8mBCLLBo9M6YTb8s7GV80/IPAm/lSxFKk+P46lj4ClHeY3V1s7E7AIftbBl26lnZ/r+SsLK2Tnb4U6kQBoKlSLLGU/g+gfYEGFpn4M37NcNnj7UODEo5k1hl2PCyvMzzQj0FTKjT6OtJHGh33Yzs+pQk7y3uMfjcuyx9POz5Ud3CIdf2R06N7US8ITiJgFIkJgQPpReCD9MlxUsgy/YlrwN5kltG9SHsVAsvMPkDBs4yZhX16b7mfnX1FUgSI6+JVuo52fFRFx8NOov2XrRAKguTwZM8DNGw5h5MDCcvi+/TpwUW/UXEOzwODDwvEDTAjYJiEQ5tBKr2a9z+XDe42z8wdxddqxuIlpegend3dXjDz41fG3UgXEyWkjQsCEYDqScWrmQAzN6IVXgvNxeclsKsRCDPZ1cCmHSygXJQTaoGKtk6edv7qMdn5O9Rfben5zwk4N01fH3zp1IAHQElxNuZZw2j+dzoBDGSvg5c85G7CGswJDUHPusfQPyHOLCFx+AZkFWoL4l85hI/5y2nEtfO+o5K64K/tcnJY5aB87f+TB/6WD9YYnCYTNAvbVrEHHpExcljPeBRN6NvgBplr8ALaeIXy/iO2qgvtICLROM7GOP0STafAzrufndH8oys5P7NpakYAEQEvCjeQX6EXfgHSuJ79nKXz3FAAzhqLmTIYVPoxRySo5G2DKVkKg2eTt2eCvtfMvsfC9tOP+KetMXJA9Gnl8cNsWme7Xw9vh0EsdAtYuTBhGZod6Mu3wD/O+gYkZg/BQ8B08yvgBHRlN8Eg6EJp/gPqjOgCb8aez8/P4sh2l2L3O7PyMxJlMWab1/M2g2rhDJQAax6thezv/AM4IDGaHb06DU96Db8wq1ExhfgELKyz/gIZxPMBe9hC29fzm3Z8fKuVfVfhRxjBcmzMB3VMOcUdZx28Pdk33HwCi3t6HQGR2KCwYgeE0Cfwu/WhcVLoEdwbewEfVWxhWOI+63edmBCQo98HX8D/sy1tr568sNjt/MUq22XeYQkzL+hyHtnyRAGhN2qW1/gEWVnhzCXwXMazwFVw2eNmAWv8AfhMsfKVt8g8Ic6jn1R68Frf/c9r51zGYz0WpfXEr7fwjmSfetshITh2/w6GXRhKItBsTAhkMFnQGMw0OZ9t6KTAP33XxAyroH5AD8w0odSKzkRfw+O6RNL0Bxu0v4tI+2fnbt0FIALQ2f1O8Fk0wk/4Bw+gf8Pgm+B6nf8DPjkfN2X2BnowfEKJQ4FpXmQUOXBmG0Ub8IS4NWhzahYHJh+HRrLMxkQ9oe1DbZp1/ZCTn3tCLCDSRgAkBa3M17Og7J2XjmtxTcIp/AJ4KvIs7yz7kJxnML2BhhUOcf7I9tR2MQMTOX/pZCXbRuz/EoD6R9fzCdzByrfuZBEDr8t17dvMPsLTDA+gbkMafn38K3/8ymuB0RhM8rRfQJYsxLvmlUFjhvcz4mz1a/XwYZ7rp/iLOlKTj91ln4PysUTiE+eBt22vn18SsA6KXFiEQ9g9gVrnaHqoX/QN+0vE8TCwbjBkMK/xM5Up04WzAoUxAZPkFJAO+jD1i57f0vLvXFaFiF+38itv/ZVDt9I4EQFuDr+BInzEtXNphjvp9k96mAGD8gOspBEYyrHAOHQhd/ADu43GzQDI7/g4ROz+n/KdmDMd3ssehb2o3V2uy87d14/Xm9SKzShGhOYohhR9N784lg4twW2AWE0rtxDEUArZfkHLU85spoYid39L0bixG8HOLycFHWq2Dn5b1ORzt/iIB0F5VYGGFbYgxjE5rS4vgO5/+AVcx7fB3GD/g2C7hzyyioEdFgNn5d7o0vbtwUdoxmJw9AWMyjnHIIiOyiL22vapQ1/UWgUh7MyFgaYfPyhpG35O+NAu8hyku7XAVBviyUMbPLaywV7eInT/4WQCFtPW7gGlM3WtfXnX8sdUqqNO0tRsBe0aYWSCPOmwYfQH+sgG+k/8F30PzgM8Yvjad79tyQY/EvDYc2Rzx5/JJYev5U7j06sXcC/FY5+9gbG3nHxn1R0Zl7VZ3urBnCUT8A6wtdqEZ6qYOX0FB50m4JX0gltQUYzWn+EzA2gyWlzaz89tWwiA+X3y6DYVraLKzL7XF7rfNu5oofP8x+KoZgFioFIsLYEJgIGPU23flLvoHPEqzwE+4bHBir/CyQZsNSFD/AHsuZPBhaZ3/QlvPTwgPZp6KC7PH4NBkJl7iZg9be/BGRmHuTb2IQDsRsK7ORGhkNqpP6mG4t9MlOK9sGO4unoVXqzYwdkC2Szuc0P4B/PJGOv7yXWVM01sMs/fbwCUy3e+VAUw7NcVmXVYCoFn4WvhgSzts2xB2eows6Lt2NnAWhcD3BjN+AP0D0lhdJgRsRiBBTAOmd2y0lF9D5yAu67stfRiuyT4Z/ZnH3bbIiF8dv8OhlxgjEJmJiqxAOTGjH55P74V/M6zwhcwvsClUhP4UAjX8vga4YiBh5gRMtfPLa9P9VWbn51R/wML32qOJI357RGm6P8Ya636KIwGwHyjt/pb5B9jUv8UPmMu0w6/+B/ie+QfQUbAP37OnSAL4B3Rgxx90dv6dOCe1F27LPgVj/P2QEjWyUsff7q1RBWgAgYgQMMFq/gEWjfIzf3/6B7yP20oYVpid/2AuJwzyX/MRiHch4NL0VlQjsJHhey1Nr8Uzsal+3phHLJYNaBWxv4sEQKzWkU0GWPyAw5h2+GiuDHh4HXwPbwB+wbTD3+zHdMRcAmcph6v5E0ezATZwyOLQgXdF7+lCCp1cPJt7Hr6SORS5XFdtW2S63/2hFxGIIwImWK2N21C4W3Iebu1wFs62tMPFb+IhhhW2ZayDfBY/oBr8dsfdZtP9NTRFlnzBNL1cz19VXKllfXFXi3sLLAGwl0Vs/mb+AfYz0GLb89+ffgLfnxk/4KfDuHywZ3jZYJz4B1j43nCaXk4VcpvmH4+Ls8cyTS8dILmF+F+S+y/ex0fudvTiUQLh1rvXP6Bf2hF4sPPluKB0Ke5l/IBXKtehO4VvBwawKqQQiPmNjx1n5+eNVewudx1/2Y597fya7o/5WtxvASUA9oslBt80/wB7sgzhyJ8zA75rZgNfZ36Ba+kfMML8AxhpkFNybouxGQGz89t0f4FL01uC69MGYFLOKRiYdpQrbtjObyZF21ObCCQGgWizgM0MTPAfhxMYQ+CfgY9wiQsrXMhlg7ngGNrFD4g52cuO376S1vlXMXJf8aZi2vm5np9BzRS3PzHaqARAPNWjfSHNP4CRtHB8B+CdHfD9i/4BNx2LmkuYX6B3eCQdS2mHLXxvKe2ei7isb1xyN/w853yM9x9LE4B19mEfatn546kRqqyNJRBp3yZ0M7m09eKccRhHMfAM/QNud2mHfUw7nIVifk8sfkCsCAFn52ewsiBj9u82O39Uml6N+BvbCmJzfwmA2KyXg5fKlgMG+XMELek96B9w/0r47l/DOfUhqPlaX6CrpR3mbID5CJgzYRtvplMy2cGn89/FIcYz8GXiieyv4+tZw9EhiUsduUXs/G1fOnd5vYhAmxMI+wfYtwM0e3XCbXln40z/IPxfYDb+VLEY6Qwi1I8+ApZ2mN/cdttc+F568pVupZ1/g6XprZCdv91qo3UvLAHQunxb9+wu7TAfKIOYR8BEwe1z4XuG/gG3Dw+nHe7ALtiFFeZnbWAWsEdbGscvYTu/hf6swj3+0bgse7x74BmMSMcfGRXZe9pEwCsEImaBSPyAQendcX/at+kfsAy/Ds7GG5Xr0TcpD6k0mZl/QJsJZPvy2nQ/BwwVRZamtwil22jnZwEi6/k16k+8VioBkAh1Wsbxgj0pjqcJYEc5fBfTLHBRH9Rcw7DCg7uG/QNMCNjWSkLAJvRz+dBa4+z8QVyddixuYprewXzA2RZ54Knjdzj04nECESFggtiyWZ6eOcilHX6F8QMuL5lNpVzItMO5TDsMph1u5fgB1snTzl9dRjs/p/qLbT2/OR6nhuWHOv7EbawSAIlSt6bgg5z2z7C0w8wv8NLn8D1Ls8CPmHb4G/3pH5DnFhG0hn+AjfjLab+08L2jkrviruxzcRofaNF2/sgDL1Fw6z5EoCUIhM0C9tUMoWNSJi7LGQ8LJvRs8ANMdf4BqfQPyHRphyu4V7hLbokrh89hHX+IpsLgZ1zPz+n+UJSdn5fTluAEJAASrYIjaYd70zcgnevq714M392rgBn0DzizN+MKmH8AZwNM4TfDP8CeDf5aO/8SC9/r8+NPWWe6ACh5fGDZFpnub+mHlju5XkQgQQjY98OCXEdmyXoy7fAP876B0zMG4oHA23iicjk60T/gCDoQmn9AS/TLkTS9ZTtKmabX7PyMxJlMOVKbra9FLpIg9ZPItyEBkKi16/wDOCMwmMsGTRRMeRe+8QwrfAOjCY46MpxfoAn+AfbwsfX85t2fHyrlX1X4UcYwXJszAd1TOPPAzTp+G/Frut/h0IsINIhAZJYsLJy5ujejN/6Y3h2XlS7GVKYdXlC9lU6CHajbfW5GoNHC2r68tXb+ymKz8xejZJt9hylAUpNd6F5N9zscnnmRAEj0qi6t9Q8Y2hlYF4TvIvoHXN2fywaPo/PgYfQP4BPBwnjaVo9/gD1wLG7/57Tzr2Pc/otS++JW2vlH8kFlW2QEo47f4dCLCDSJQOT7Y0LAT/+AMzKPx/D0PngpOA/fdf4BlfQPyKF/QIj+AQ03C0TS9AYYt7+IS/tk529S9STUQRIACVWdB7gZU/4WVjir1j/g0Q3MNkizwM+GouZsLhvsSefBEIWCLRvcjwiww23EH+LSoMWhXRiYfBgezTobEzOHOAcmu6p1/pERjP2tTQREoHkETAjYd8/8AzonZ+Oa3FNwin8A8wu8izvLPuQnGRjE8NkWP6DK7bn/60Xs/KWflWAXvftDDOrj4vabk59dQJtnCUgAeKnqI/4BA7gWP40/P2fa4V9x2eCDTDt8Wi/gEL5n0QRr0w7bs8HPh1Cmm+4vojhIx++zzsD5WaNwCPOg27bXzt/oCUl3vF5EQAQOTMC+VdH+Ab3oH/CTjudhYtlgzAi8iWcqV+FQZhvswgREddMOR+z8lp5397oiVOyinZ9BxGTnPzBvr30iAeC1Grf7reBIn7E9XNph/u67/m3gdPoHXE//gBOOYBSfFIQqqpBbk4TljE0GTvn/MGM4rs4eh76p3Rwx2fkdBr2IQJsQiMyuRQT3KIYUfjS9B0MKL8Qt9A9YwhU4fSkEzJhX7qtBEh18Ky1NLz37g0zcY1uk45ed3+HQCwlIAHi5GVhYYRtimH/Aot3wfcv8A/oidPVgZPbrguU1pfhWzeG4mXH7T2SaXttk53cY9CIC7UKgrn/AOYyuOSbjGJoF3sMUWzaYlISeFUnY8VkRimjrhzkDp/BLzv/V8bdLlcX0RS1+izYvE7B5fvMP6MSwwkPpC/DoeuSMm4lV/zcLv919PJ499DrX+dfQR8B8AGwkEhmNeBmb7l0E2pNAxD/AZgS60Bx3U4evYMUh1+OcwjysXbAJ1WvZ+dt3uzaYj2z97VlbsXttCYDYrZu2LZnFBTAhwLTD5YOSccjPV+CNb/4FLz33AgIlXD3AkYUtP9Ioom2rRVcT7YeYkQAAQABJREFUgQMRsMm7sBDgvBzF+TEpXXFGgL48RTvQKZ2C3jYTAdpE4AAEJAAOAMazbzPtcGVZNbKHdMG/Sz7F+Rd+C5d8+yq8/c4cLhSgv0CtCJAQ8GwL0Y3HGIHoObnqJJr1krim3xx5tYlAPQQkAOoB5MWPbWRRzaVC3dM6YvDw0fj36+9iwsknYfLNt2FlwSonAiQEvNgydM+xTsC+uxr2x3otxU75JABipy5iriQ24t9ZFEDvHt2cEPjdA79Fv2P64rf3P4ht27bvEQK2nzYREAEREIH4IiABEF/11ealtRFFRWUldlEI9Bs8HP0GDcMtUyZj2PjT8eLL/0RZWRkdj8PNKKRpxzavH11QBERABJpKQAKgqeQ8eFxJaTlKyysxYOgJqK4ox3nnfgNXXH0t3vtgrqNha4/NN0D+AR5sHLplERCBuCMgARB3Vda+BbbOvShQgvT0NAyif8BzT7+CcWPH4Kd3/QJr1qzdxywgIdC+daWri4AIiMDBCEgAHIyOPjsggerqkDML9BnQHYOGjcIvf/4z9O7dC3/40yPYvmOHMwuYo6D8Aw6IUB+IgAiIQLsSkABoV/zxfXHzDyivoH9AcRDHDhnp/AOu//73MPGsc/HazFkoLZV/QHzXsEovAiKQyAQkABK5dtvo3kwIBEpKnX/AoGGjsfnzrfjKGRPx/Uk34uP5C1wp5B/QRpWhy4iACIhAAwlIADQQlHarn4DZ/HcVB5Cd5ceQkWPwxF+exsgRw3H3/07D2rXr5B9QP0LtIQIiIAJtRkACoM1Qe+NCNhtQVVWNHbuL0XdgPwwZMQY//uH/oFevXvjL409i585d8g/wRlPQXYqACMQ4AQmAGK+geC2eCYGy8grsKCzGgONPoH/AUHznystx/qVXYOasNxg/oDwcP0DLBuO1ilVuERCBOCcgARDnFRjrxTchUBQscf4BNhswP38pzph4Oqbcejs+XZjPNKWMZK78ArFejSqfCIhAAhKQAEjASo3FWzL/gB27i3BIXi6OHzkWf3zoQQw9fgjunT4D6zds3Mc/IBbLrzKJgAiIQKIRkABItBqN4fuxkX5lVRW27yqkSWC4ix9w+603o0f34XjqmWcRCASiwgorv0AMV6WKJgIikAAEJAASoBLj7RZMCJTQB2A34wdYWOHexx6Ob19yMc6/5HLMfvsdBg+qcULAZg0UTTDealflFQERiBcCEgDxUlMJWk4LK1zFbIKD6R/w2tsf4ZQJJ+PGKbdg+YoVe8wCEgIJWvm6LREQgXYlIAHQrvh1cSNgI/6dXC3Q+6hDnRB46MEZOLZ/f9z72/ux5fPP9wgBhRVWexEBERCBliMgAdByLHWmZhCw1QIVlVVOCPQfPIKhhUfg9lum4Kih4/H35//BsMKle/wDZBZoBmgdKgIiIAK1BCQA1BRiioAJgSBzCNjPgKGjcHhOOi664HxccMkVmPPuewjRL0DLBmOqylQYERCBOCUgARCnFZfoxWY/z7TDQSQnJbu0w6+8NgcnjR+Hm265DatWrd5jFpB/QKK3BN2fCIhAaxGQAGgtsjpvixCopoPg7qIA+vQ+3C0b/L8Z09G3bx/c/+DvsG3b9j1CQP4BLYJbJxEBEfAQAQkAD1V2PN+qpR22ZYP9Bg/HMQOHYsrkGzB8/Ol48eV/MqxwdNphxQ+I53pW2UVABNqOgARA27HWlVqAQElpOcoqqlz8gKqKcpx37jdwxdXX4r0P5rqzJyUludgBchRsAdg6hQiIQEITkABI6OpNzJuzzt3iB6Snpzn/gOeefgXjxo7BT3/+C6xes3Yfs4CEQGK2Ad2VCIhA8wlIADSfoc7QTgSqq0PYZf4BA7o7/4Bf3vUz+gr0wp8f+yt27Nzplg3aigH5B7RTBemyIiACMU1AAiCmq0eFq4+ALRs0/4Bd9A84dshI9GeOge9efRXOOPubeH3mLJRG+wfY0gJtIiACIiACjoAEgBpCQhAwIRAoKUVJeQUGDx+N9Zu24MwzJuK6H0zGx/MXhBu70g4nRF3rJkRABFqGgARAy3DUWWKEgNn8d9IskJudiSHML/D4o49j5Ijh+PVv7sOatevq+AfESKFVDBEQARFoBwISAO0AXZdsXQI2G1BVVY0dzC/Qd+AA5hcYjal33IbevXrjL48/iZ07d9X6B1geAi0bbN3a0NlFQARilYAEQKzWjMrVbAImBMpoEthVGHDLBvsNOh7fufJyfItph2e98RY/K1fa4WZT1glEQATilYAEQLzWnMrdKAK2bLC0vNKZBeYvWoqJp5/KsMK3Y9GixXvMAmY+0LLBRmHVziIgAnFMQAIgjitPRW8cAevcd+wuQpe8Djh+5Fj86aEHMXjwINw7fQY2bd68RwjILNA4rtpbBEQgPglIAMRnvanUTSRgcQEqq6qwfVch+nHJ4MChJ+D2W2/GUf3G4Jlnn0MJVxJYNEHbQiEtG2wiZh0mAiIQBwQkAOKgklTElidgQqCkrByFNA0MoAjocWQeLrn4Qlxw6eWY/fY7rvNPSvIprHDLo9cZRUAEYoSABECMVISK0X4EzD+gBj4XP+DV197FKRNOxo1TbsGKFSv3mAXkH9B+9aMri4AItA4BCYDW4aqzxhkBs/tb/IA+vQ53ywYfenAG+vfvh/t++wC2fP75HiEg/4A4q1gVVwRE4IAEJAAOiEYfeI2ALRssr6zETi4b7D94hPu57ZabcPjx4/DcP15Eaele/wCtFvBa69D9ikDiEZAASLw61R01k4AJgWBpGX0Eypx/wJE5Gbjw/PNwPuMHvPf+B84vwHwIZBZoJmgdLgIi0K4EPCkAUlNTATp4aROBgxHgqkGXdjglJdllG3z1P3Mw7sSxLn5AwarV+5gFNCNwMJL6TAREIBYJeE4A2IN69dr1OCQvC/6MdAV+icVWGWNlsrTDu5ltsE/fI9yywQdn3Idj+vbB/Q/+Dtu2bVfa4RirLxVHBESgYQQ8JwDS0tIw6fvfxfYNK7Hkk49wSMcOSE1NkRBoWHvx9F6WdtiWDfYbPBzHDByGKZNvwNhTv4J//vuVfdMOK7+Ap9uJbl4E4oWA5wSA2W4nXXct8hctwrWTbsSn897Hlu270Tkvl1YBmQXipeG2ZzlLSstRRjFg8QMCgSC+8fWzcfX3rseHH81zxbJAQvIPaM8a0rVFQAQaQsBzAiACZdDAgbh/+jTMnPUmThw+CAs//gDpaSkujaziv0Uo6d8DEbAO3uIHmBlp8PDReObJlzF61An4f3f/ej9ph9WiDsRR74uACLQfAc8KAFvPnZGejtNPOwV/f+pxPPG3p7Bycdgs0LlDNj9LY3AYbSJwcAJV1dXh+AEDejghcOePpzLtcE88+thfsWPnTvkHHByfPhUBEWhHAp4VAJFpWhMCHfPycNmll2DNmsW453+ncTZgLgoWL0HnDjkwD3AJgXZsoXFwaRc/gCYBCyR03PEjXY6Ba66+Cmec/U28PnPWvv4BtrRAmwiIgAjEAAHPCgBjb/4AESFgU7o9e/bAD//nNsz7eD6uuPoKZxawad5OudluXztGmwgciIAJgeJgKdMOV7jZgPWbtuDMMybiuh9MxsfzF7jDzM9E/gEHIqj3RUAE2pKApwVABLQJAfsJ1Y7ORgwfhj/87gG89vpMdD+iG/Lnz0VmRhpysvyaDYhA078HJGAdvM0G5GZnYsiIMXj80ccxcsRw/Po392Lt2nWKH3BAcvpABESgLQlIAETRjqwCMLOAPyMDZ0w8Ha+/8iIeefQvWJ4/H0s/nedmAzLSUiUEorjp1y8TsNmAqqpq7CgsRt+BAygERmPqHbejV6+BePKpp7Fr9275B3wZm94RARFoQwISAPuBHTELmBDo3KkTrvnOlVi9Zi1++at73GxAwZL1TgikJCfv52i9JQJ7CZgQKKNJYAfzC9iywWMGHoPLv30p0w5fgVlvvMXPyvcxQ+09Ur+JgAiIQOsSkAA4AN+6/gG9evbAT370Q8z98CNcfNnXnRAoZT55m+a1fbWJwMEIWAsxf5LyiipnFnh/wSJMPP1UTL75NixZumyPWUD+AQejqM9EQARakoAEQD009/gHcDbAtlEnjMSjD/8BL//r38jOznLRBM0kkOlPr+dM+lgE4PxMdhQWoVvnPBw/ciwe/v3/YeCA43Dv9BnYtHnzHiFgs0/aREAERKA1CUgANJCumQVsi/gHnHP21/D+m//FjAf+j/EDFmAFfQQ6cDYgnWJAmwgcjABdTlFZWYXtuwrdksEBXDp4+60346j+Y/DMs8+hpGRv2uFQSMsGD8ZSn4mACDSdgARAI9lF+wd06XIIbrrxBygoWIUbp9yKxcwtsGrlZuTlZCE5WWgbidZzu9vsUgnNSEVcOmj+AT2OyMMlF1+IC+kfMPvtOU5sJjFrpcwCnmsaumERaBMC6qWagLmuf0CfPr1dWOF333sfZ501HosWfOg8wMP+AU24gA7xHAHzD6jhzICFFX7l9XdxyoSTnH/AipUFe8wCEgKeaxa6YRFoVQISAM3AG/EPsAez/X7i2DF4/ukn8PfnX8Dm4jLnH5DJ5YRZ/gwtG2wGZ68cauYlix/Qu2c3JwR+98Bv0b/fMZg+40F8sXXrHiEg/wCvtAjdpwi0LgEJgBbga52/bc4/wO/HBd/6JjZ/+i7u/e39jB/wsfvpxPwCaZZ2uAWup1MkLgFrSRWV4bDC/QePQH+mHr715snoOWw8/vHCSygtLXPLBo2ACU9tIiACItBUAhIATSW3n+Mi/gH2YO7WtStunTIZy5evwKQbpyCf+QVWb9yKTswvEHEo3M8p9JYIOAImBILs7EvKKpx/QMeMZJxPYXnBJZfjvfc/cELShKfMAmowIiACTSUgAdBUcgc4LtosYA/nfpzCfXDGfXhr9ts48+QTKAQ+AP26XPyAA5xCb4vAHgLWhsw/IC01FQOHjcIr/30H404ci9v+54dYtXrNPmYB21ebCIiACDSUgARAQ0k1cr+IELBlXDbin3DySc4/4G9PP4u1Wwqdf4AtG8xkPnk9uBsJ14O7V1eHUFgcRJ8+RzghMH3a/6IvnU8ffOgP2LZtu2tj1ubkH+DBxqFbFoEmEpAAaCK4hh5my7hsswdzdnY2LuUyr41L3sO0+37rlg2uWDQfh3TsgNQU+gdoBNdQrJ7dr5xph00ImH/AMQOHYvIPrseEr3wdr/7nv/umHVYgIc+2Ed24CDSUgARAQ0k1c79o/4AjjzgCt91Cv4D8Rbh20o34dN772Lq7EJ3zct2UbjMvpcM9QMD8A8oYVtjMAtt37MLXzvoqrr3uhr1phznrZIJSotIDjUG3KAJNJCAB0ERwTTksYhaIPJgHDRro4gfMnPUmRg46DgvpH+BPT0VuVqZWCzQFsMeOsXZkswG2zNTSDj/51+dd2uH/d/evsUZphz3WGnS7ItB4AhIAjWfW7CMiQsDMAhnp6Tj9tFOcf8Bjf30CKxZ9giWffoTOXC2QkZ4mIdBs2ol/gqrqSNrh3k4I3Pnjqejdqycefeyv2LFzp/wDEr8J6A5FoEkEJACahK1lDgqbBcL+AZ06dcRVV1yGNWvW4O5f/8bNBhQsXkGzQA5SUpIlBFoGecKexTxNwmmHi3Eccwv0HzQc11x9Fb527oV4feYslJUpfkDCVr5uTASaSEACoIngWuowiyEU7R/Qs2cPTL3jdsz7eD4uv+oSLJz3AYqDJeiUmy3/gJaCnsDnMSFQzNwCJeUVLppgwdr1OPOMibjhplsxf8En7s5tBkq+AQncCHRrItBAAhIADQTV2rvtNQuE13KPGD4Mf3zoQbz2+kwcfUQ35M+fi0yaBLIz/ZoNaO3KSIDzWwdvYYUtMZWlHf7znx6Ctanf3Dsd69avl5hMgDrWLYhAcwmkNPcEOr5lCUQvG/TTueuMiadjOB/cL738L3yXU7q2DaLndylHeGVcEmYjPm0isD8C1jYqq6qxfXcRlwwOY/CpLNxx+63YuPkzPDB9mkTA/qDpPRHwEAHNAMRoZUfMAuYo2LlTJ1zznSuxmpHf7vzZL1y2wVVL1qMjzQJKOxyjFRhDxTIhYIKxiKYkIBvZtspEMSdiqIZUFBFoHwISAO3DvUFXNbNARAjYA7sXPbt/cdedeJex4C+45GtYRLNAOR/s4bTDmgtoEFTP7xRgUCqFDPZ8MxAAESABCYA4aAZ7/QNCrrQnjhmNxx/9E1546WUkp6W7sMIZaanI9KfHwd2oiCIgAiIgArFAQAIgFmqhgWWw2QDbXPyAjAx88xvnYMGcWcwX/wBWLl6AFfnzndNXOsWANhEQAREQARE4GAEJgIPRidHPos0CXbocgptvuhErC1bhxim3hv0DVn+GPPMPqBUMMXobKpYIiIAIiEA7EpAAaEf4zbl0xCxgvgH2Y5nhZtCz+5057+JrXxnv/AOqQ9XoQM9vizWgTQREQAREQASiCUgARNOIw9+jhUASe/rx407Ec089jmefex6fFZcz4+CHLla8xYuX61ccVrCKLAIiIAKtREACoJXAtvVpTQjYZv4Bfr8fF57/LWz8ZA6mTZ+BZQs/xvL8j9GJ+QXSUpl2uK0Lp+uJgAiIgAjEHAEJgJirkuYVKNo/oFvXrrjt5puwbPlyTLqR6YeZbXD1xq1OCEQCDjXvajpaBERABEQgXglIAMRrzR2k3NFmAfMP6N+vHx6cMR1vzX4bZ558ghMCKXQQtPgB2kRABERABLxJQAIgges9IgTMLGAj/gknn8S0w0/ib08/g9XLNrv4ARYrPjMjXZHhErgd6NZEQAREYH8EJAD2RyXB3ouOH5DNVQGXXnwRE8IswLT7fuuWDa5YNB+HdOyAVKUdTrCa1+2IgAiIwIEJSAAcmE3CfRLtH9D96KNw2y1T8MmnC/H9STfi03nvYxezx3Wmo2DEoTDhAOiGREAEREAE9hCQANiDwhu/RMwC5hvAeX8cP2QwZtw3Da/NnIUB/fpgIR0F/empyLWEMd5AorsUAREQAU8SUDpgT1Y79ozyw2GF03HG6adh+LCh+Ne/X8V3rryCVGowZMQYlJSVu0xyiiXk0Yai2xYBEUhYApoBSNiqbdiNRcwCJgQs7fBVV1yGNWvW4O5f/8bNBhQsXoHOeTlIkX9Aw4BqLxEQARGIEwISAHFSUa1ZTDMLRISAmQZ69uyBqXfcjnkfz8flV12ChfM+QHGwFB1zsvfMHLRmeXRuERABERCB1icgAdD6jOPmChH/gEi++BHDh+GPv38Qr70+E0d0PZQrBuY6/4DszIy4uScVVAREQAREYP8EJAD2z8XT70aiBLqwwkw7fMbE0zHrlZfw+z8+jBWLFrjQwhY/QGmHPd1MdPMiIAJxTkACIM4rsDWLHzELmBA45JDOuO7a72LV6tW440c/CacdXrEJJgRSkpNbsxg6twiIgAiIQCsQkABoBaiJdMq6/gG9e/XCr3/1S7z73gc499zTnBAoLS93YYVtX20iIAIiIALxQUACID7qqd1Lucc/wOIHcDtx7Gg89fhjeOGll5GSlu7CClv8gEx/eruXVQUQAREQARGon4AEQP2MtEcUgaR90g5n4JvfOAcL5szC9BkPOP+AFfnz0TE3m2mHUxVIKIqbfhUBERCBWCMgARBrNRIn5Yn4B9iywS5dDsHNN92IFSsL8IPJNyN//lysXrcFnSgEkpl1UJsIiIAIiEDsEdDTOfbqJG5KFDELmAiwn2P69sEDv70Xs99+B2efMc4JAXMg7MAERJB7QNzUqwoqAiLgDQISAN6o51a9y2ghYDMDJ580Hs8+9TieefY5bAmUY/EnHyLbn4Es/phQ0CYCIiACItD+BCQA2r8OEqYEkVUANurP9Ptx0YXnY/2Cd1za4WULP8by/I8ZVjiX/gEpEgIJU+u6EREQgXglIAEQrzUXw+WO9g/o1rWrSzu8bPlyl3bYsg2u+XyHEwKRgEMxfCsqmgiIgAgkLAEJgISt2va9sWizgE379+/XDw/ePx1vvjUbp48e6hINpTLBUG52ZvsWVFcXAREQAY8SkADwaMW31W1HhICZBVJTUnDKhJPx3NNP4MmnnsaqJetc/ABbNujPSJdZoK0qRdcRAREQARKQAFAzaBMCZhawza0KyM3Fty+5GGvXforf3DvdrRZYuWg+DunYgSIhWfED2qRGdBEREAGvE5AA8HoLaOP7j/YP6NGjO26/9WbMX/AJrvvBZHw6733sKgqiU4ccpR1u43rR5URABLxHQALAe3Xe7nccMQtElgQOG3o8fnvvb/DazFkY0K838ukoaGGFc7IyNRvQ7rWlAoiACCQqgZREvTHdV+wTiF42mEEfgDNOPw3Dhw3Fy//8F675zlXuBoaMGIOSsnKUllcollDsV6lKKAIiEEcENAMQR5WVqEWNmAXMP6Bzp064+qorsWbNWvy/u3/tVgsULF6FzjQLKO1worYA3ZcIiEB7EJAAaA/quuaXCNhsQEQImGmgZ88e+PHUOzDv4/m47MrznRAoKStDXk6W/AO+RE9viIAIiEDjCUgANJ6ZjmhFAhH/gFAoHDJ4xPBh+NMffodXXv0vOnXsiEULPkRGWiqyMzNasRQ6tQiIgAgkPgEJgMSv47i8w0iUQDML+DMycNZXz8Q7r/8bv//jw1i5eAEstLDNBqRTDGgTAREQARFoPAEJgMYz0xFtSCBiFjAhcMghnXHdtd/FqtWrccePfuJmA1at2IQOFALJyWrKbVgtupQIiEACENBTMwEqMdFvoa5/QO9evfDrX/0S7773Ac499zQsplmgqrLKZRuMmA4SnYnuTwREQASaS0ACoLkEdXybEdjjH1CbUvjEsaPx1BOP4fl/vIgtwQqXbTDLr5DCbVYhupAIiEBcE5AAiOvq82bhk7hiwLaIf8C3zjsXn+W/j5/+/JfOPyDLLwdBb7YM3bUIiEBjCEgANIaW9o0pAhH/gOrqahzapQu+euYZrnz+jLSYKqcKIwIiIAKxSEACIBZrRWVqMIGIWcAOqKiocMdFQgw3+CTaUQREQAQ8SEACwIOVnqi3bGIgvEX+TdQ71X2JgAiIQPMJSAA0n6HOIAIiIAIiIAJxR0ACIO6qTAUWAREQAREQgeYTkABoPkOdQQREQAREQATijoAEQNxVmQosAiIgAiIgAs0nIAHQfIY6gwiIgAiIgAjEHQEJgLirMhVYBERABERABJpPQAKg+Qx1BhEQAREQARGIOwISAHFXZSqwCIiACIiACDSfgARA8xnqDCIgAiIgAiIQdwQkAOKuylRgERABERABEWg+AQmA5jPUGURABERABEQg7ghIAMRdlanAIiACIiACItB8AhIAzWeoM4iACIiACIhA3BGQAIi7KlOBRUAEREAERKD5BCQAms9QZxABERABERCBuCMgARB3VaYCi4AIiIAIiEDzCUgANJ+hziACIiACIiACcUdAAiDuqkwFFgEREAEREIHmE5AAaD5DnUEEREAEREAE4o6ABEDcVZkKLAIiIAIHIFBzgPf1tgjsh4AEwH6g6C0REAERiEcCNTAF4IvHoqvM7UBAAqAdoOuSIiACItBSBGpqrNsPD/1TklOBmhB80gAthTehz5OS0HenmxMBERCBBCVgXX4NO/skn43jfFi2cyPe+HwxkNoBRXxfmwjUR0ACoD5C+lwEREAEYoxAiKP+JA7zfez8Py/ZjWdXvoUpBf8yRYCOKVnYJQEQYzUWm8WRAIjNelGpREAEROBLBCIdv3X+JdUVeHXNXFy2/J8oL1qPwzMOQymn/q3zNwuA/AG/hE9v1CEgAVAHiP4UAREQgVgj4Gz87NGt47eO/f3PluB/l/wL/9o6D0jvgu6Zh2NDqNImANymzj/WajA2yyMBEJv1olKJgAiIgOvszcnPOn4b1q/c/Rn+uPQ/mL5hJv/2o3fmkdgcqsJ6dv7aRKCxBCQAGktM+4uACIhAGxCITPf72PlvLyvGM7Tz37iSdv7KEvRMPxS7EcJqdfxtUBOJewkJgMStW92ZCIhAHBKwEb8N+G3UX1FTjf+s/QjXLHkBO4o34LD0Q5CUnoG1NVVxeGcqcqwRkACItRpReURABDxJIGLntxG/bQu2rsI9+S/g+W3zgZQO6O4/DBtD1QhRFGgTgZYgIAHQEhR1DhEQARFoIgFz2Nuznp99/7rirfjr0tdx19pXaedP53T/YfiCnf562vq1iUBLEpAAaEmaOpcIiIAINILAXjt/EnZXlODFgjm4evkLQEURenC6v5jn0nR/I4Bq10YRkABoFC7tLAIiIALNJ1DXzj97w6e4edHzWFq0Gp3Z8Wdwad862fmbD1pnOCgBCYCD4tGHIiACItByBOra+T/dtgb3LnoJf/v8A4bw7Yge/q7Ozl+tzr/loOtMByQgAXBANPpABERABFqOQCgSt592/g2B7Xh82UzcueYVXiAFvTK6YSuX9a2Tnb/lgOtM9RKQAKgXkXYQAREQgaYTiNj5LWnPbq7h/+eq93Hl8heBsp3ozun+IE+9RiP+pgPWkU0mIAHQZHQ6UAREQAQOTMDs/LbZev5Kju7f3bgIP138It7dtRh5aYcim3b+9er4DwxQn7Q6AQmAVkesC4iACHiJgNn5w+F7LU0vkL99HR5Z9l88uJHhe1M7oaf/CNr5q7Bbnb+XmkVM3qsEQExWiwolAiIQjwQidn4L5rMluBNPrXgLtxW85FLz9ck4El+gGmsVvjceqzYhyywBkJDVqpsSARFoSwLRdv4g0/T+Z/VcXLD0H0DJFvSwNL0szKoaJexpyzrRteonIAFQPyPtIQIiIAL7JRBt5zeL/7ubF+HuxS/jv9s/QTIT9hzJZX3y7N8vOr0ZAwQkAGKgElQEERCB+CIQDt9bm6aXRV++axP+sORV3L/xDSA5G732pOlV+N74qllvlVYCwFv1rbsVARFoJoHIdL/Z+beWFuIZ2vlvWmVpesvQm3H7d9Djf43s/M2krMPbgoAEQFtQ1jVEQATinkA4fK/PLesrqa7Ef5mm9zvLXkJR8Toczo6/Jj0Tq+XZH/f17KUbkADwUm3rXkVABBpNoG743rmfL6ed/yX8ayvT9HJZX3f/4W5Zn60A0CYC8URAAiCeaktlFQERaDMC+9j5Gb53deEWPEQ7//QNbzJNbxp6+bthS8jS9Mq7v80qRRdqUQISAC2KUycTARFIBALRdv5d5UGu538TNxTQzl8RZPjeTkzTW0M7vxz8EqGuvXwPEgBern3duwiIwD4Ewnb+cPjeippqzFz3MW5e8iIKita6NL1p6Z0VvncfYvojnglIAMRz7ansIiACLUKgrp3/k62rMI3r+Z/+fK5L03u0/zBs5nS/0vS2CG6dJEYISADESEWoGCIgAm1PIGznD9Gzn3H7XZrebfjLktfws7VM0+tLd2l6v+Cyvg2a7m/7ytEVW52ABECrI9YFREAEYpHAXjs/0/RWlODFVe/i6mUM31tRjB5M0xtgoZWmNxZrTmVqKQISAC1FUucRARGICwLOzs+SWppes/PP3rgQtyx6DksKVyOPHX8Wf9ZpPX9c1KUK2TwCEgDN46ejRUAE4oRAOE1vuOO3Ii/cvhYzFv8Tf/nsXWfn75HRFZsoCJSmN04qVMVsNgEJgGYj1AlEQARincDeNL3AhsB2PLF8Fn6ymnZ+JDk7/1ba+TXqj/VaVPlamoAEQEsT1flEQARihkDEzm9OfrsrS/AK0/RetuwFoGw71/N3QQlLKjt/zFSXCtLGBCQA2hi4LicCItD6BKLT9FqA3jmb8vHzJS/hre2fIje9K38O1Xr+1q8GXSHGCUgAxHgFqXgiIAINJ7DPsj4etnzXRvx+8St4YOMsICWPaXqPcnH7i+Tk13Co2jNhCUgAJGzV6sZEwFsE9tr5k/B5yW48zfC9txT8E+Aa/j4ZR2AbqpWm11tNQndbDwEJgHoA6WMREIHYJhBt5y+prsCrtPNfsPwlILAJR3CqvzrFh1U1StgT27Wo0rUHAQmA9qCua4qACDSbQLSd36b+3928GNOW/otpeucB7Pi7+7u6CH419qE2ERCBLxGQAPgSEr0hAiIQywTCdv4aF8jHyrli12b8cdl/8Nv1M4HkLGfn38xp//UK3xvL1aiyxQABCYAYqAQVQQREoGEEItP9Pkbx21pWhGdXvIXJlqa3shS90g/DLq7nXxPSdH/DaGovrxOQAPB6C9D9i0AcEAin6fW5UX85R/b/WfsRLl36AkqLN6Ab1/MjPVPr+eOgHmOiiBSP2sIEJADUEkRABGKWQN00vfO+WIlfLXoRL2+d78L3mp1/I9P0hrSsL2brMJYKxpyPzPKobi9SJyIRIaF/RUAEYobAPuv5OWBbU/QFHuJ6/vs2vskypqIn4/Z/zrj9svPHTJXFfEG6seNPBltW2RpUyzPU1ZcEQMw3WxVQBLxFYK+d39L0BvHcirdx7Uou6+PvR6V3YvjeGqzViN9bjaIZd9uRYaDzmPNhbfkObEnLwgP/v70zAY+yOvf4P3syTEIIExJCFpJoIDOEJCyyFJ/G4gJYELGUR/CpWvVBntu6UG0Ve+tV73N7e6sFsWo3bLFu1A1FbW3vrb0tUq9ttZaCG1kGBFkSErJMMkuS+56TDASEkEwyk/m+7z8anmHyfeec9/ce5vy/855z3hn3YWZ+mS5RrSWx8osCwMrep+0kEEUE+sb5VZreN9zv4hv/fB67mvdgrGzrS5TBf598zhcJDIRAMmKQExuPGn8LGrvacWv+fPzLlEtRPHq8vl2Fl2LkPyu/KACs7H3aTgJRQODUOP+7R6px/86X8NTBHTLbn4GJKTn6+N5ODv5R4K3ob4Ia0vNjE+Du9KKm/RAWZ87AHVOWYM54px7u9fkRcpHVB3/lSQqA6O/PbCEJmJZA8Phe9c2s0vT+YvfruLtG0vTGJKI4ZQIOyaBfx219pvX/cBs2PiYOMRLfd7cfQJy9AFvKr8LCovNgi0vUVQVnmYa7XqOWRwFgVM+x3SRgYALBOL9O0+vz4OXqHbj6/ecB7zFMTBqLVrGtmgO/gT0c2aanS5x/rMT5qyXODxnsN5SuxIpJFyDblq4bEuxvVo/5n+oVCoBTifDvJEACYSOgp1+l9FhZfOXv7sIf9r2Hb+96EW837ka6xPlHJTlQxwV+YeNvtoKTZOpogo7zt6KpswU3512IG50LMTkjT5uqZphiRByo/sbXZwlQAHyWCT8hARIYZgIqzq8Gf/XEr17v1dfi0d2v4cef/EHi/OkolOn+fXLATxMHf82Hf5ydQIEM/J90+lHj+QSXOCqxznUZzs8tOxHnlyKC/e3spVnzCgoAa/qdVpNAxAgE4/xq+nWfxPnV8b2375Ftfd1xKEoeL2l6u1DL6f6I+cPoFY2TOL9NjKhrPwjYsvHs1Jslzj8bo+J74vzB6X6j2xmJ9lMARIIy6yABCxIIfhGrp7AWf4cc3/t/WLH7OcBzGBOTx8l+fjngh0/8FuwZoZmcJv1onBzls8fXKItEu3H/5C9j5aQvYPyoDF1gUGhyun/gfCkABs6KV5IACQyAQN84vzrRb/v+nbj3n1vx3/XvSow/C2NTsmRlf2AAJfESElBb1WKQJ9P9tQEPmv2NWJ17AdY4F6HcUajxnIjz94SXyGzgBCgABs6KV5IACfRD4KTje+W6Dxr34dF/voaN+/5HvsVTUWzL03H+vRz8+6HIX/UlkCvH97ZKf6n17Me8DBfunfI1fE7i/IkyG3BCaHLg78tsMO8pAAZDi9eSAAmclkBwul+tuD7oacKWj97ALR+/DMgirWI5t79e4vzc1ndadPzwNAQcEucfJZ+7vUeA5AxsnnYjlhTPRXqiiv5Dkj+pBaVc2a9hDOEPCoAhwOOtJGB1AsEvYvVl7On04bWat3DVBy/D2+xGTnKWrPOLQTXj/FbvJgO2367j/LFyfG+ziMYA7j1nCa4uvQj5docug3H+AaMc0IUUAAPCxItIgAT6Egge36sGfjX1v+PALnxv1zZsO/wXICkTBbYc7JWV/Uy61pca35+JgJzfp+P8dYF2tEqcf1X2HNxWthQVmUX6Fj3dLw/83NZ3JoKhfU4BEBo33kUCliTQE+fvnX6VL+SPmg7gx7t/jR/s/Z2szE6ROH8u9kvM1s1tfZbsH6EYnSNx/g6ZJaqT43udacVYP3M1qgoqJM4fJ8Wp8yOka3G6PxS0Z72HAuCsiHgBCZCAIhCc7ldfxvUdLXhG4vxf/2gb4PegUE7xa2Kcnx1lEATGygBvl+vd3nog0Y5N5ddj2bnnfybOz7F/EFAHeSkFwCCB8XISsBoBNf2qvoTVdL9K0/vr2rdx3a4X0NCyF1lydG9sUjJqGee3WrcI2V6bTPdnyeBfK2l6G7q9WDfxElzvWoDCtCxd5oltfVzkFzLkAd5IATBAULyMBKxGIBjnD06/vnN4D777jxfw3JG/yba+0SiQ/fz7ujplZqDTamhobwgEYnWcPw7uQIfs6a/HFZnTcVfZMlRmnaNLY5w/BKhDvIUCYIgAeTsJmI3ASfv55SGsruUwNu/+Lf6t9jUJxibJdH+WTtPr5n5+s7k+bPaoNL3qyd7dfghjU/OxyXmtTtPbE+eXSL+eZeITf9gccIaCKQDOAIYfk4AVCZyI88eiydeGFz/ejq9+8ALga5Y0vQ60CBRO91uxZ4Rm8xjZ1pcuaXprVZrehBRsdK3ClZKm15Gcqgs80d84+IdGeGh3UQAMjR/vJgFTEDg1zv+/kqb3lp3PYvexPRgr2/qS5Ydpek3h6ogYkSzT/TkqTa8Ix8audqwtuAirJU1vSXqOrl8N/Cq0xMN8IuKOM1ZCAXBGNPwFCZifgI67ipnBOP/fj9Tg/p1b8eTBt3Sa3okp43Wcv5OL/MzfGYbBQvUcnx+bAHenFzUy3b84cwa+5VqMuTkukQQ9U/3qDQf+YYA9DEVQAAwDRBZBAkYjENzPHxz490qa3sff/x3+teZVMSUehXJ8r0rTy6Q9RvPsyLVXxfnVsVBu2c8fZy/AlvKrdJzfFsc0vSPnlf5rpgDonw9/SwKmI6DjrvJVrQb/Jp8HL1fvwNUfvAh0HEWBxPnbxGLG+U3n9rAZNFri/LIZFNW+o/Jon4ANpSuxQuL82bZ0XWcwzs+n/rC5IOSCKQBCRscbScBYBILLrJLjE+GVrXtvfbIbd+18Hjsad8nhK+Nglzi/m1P9xnLqCLY2UUSkStNb7W/FsUAzbsqbjzWuSzE5I0+3ivv5R9A5A6yaAmCAoHgZCRidgE/27AM21DYfxJ07HsOGfa/LbP8YFKZM0Gl6mzj4G93FEWt/gQz8ByTTY7VnHy50VOI7rqWYJ2l6j8f5pSU8tz9i7gi5IgqAkNHxRhIwFgF/ZyeKxk7Ek5+8A3zSqgf+hq4u1PLcfmM5cgRbO07i/Cohb137QdGS4/GrspuxoGgWUhOSdauC0/0j2ERWPQgCFACDgMVLScDIBNRxvn5/J3ITbOhIHC0Df8DI5rDtESSQ2pumt9rXJFtGunH/5C9j5aQvYPyoDN0KpumNoDOGsSoKgGGEyaJIINoJKBHglT3Y9er43uCigGhvNNs3YgTie+P8tQEPWvxNWJ1bhTXORSh3FOo29cT51X7+2BFrIysOnQAFQOjseCcJkAAJmJZArqTpbZV1IbXt+zFrjBP3udagKq8CCTLYB8+P4MBvbPdTABjbf2w9CZAACQwrAYfE+UdJiTpNb9JobK68EUuK534mTe+wVsrCRoQABcCIYGelJEACJBBdBOy9cf4afzPqEcC95yzG1aUXIt+eqRvKOH90+Ws4WkMBMBwUWQYJkAAJGJSAOr8vX7b11Qba0epvxKrsObitbCkqMou0RXq6X9aLcLrfoA7up9kUAP3A4a9IgARIwMwEciTO79Vx/gNwphVj/czVqCqoQE+a3m6J9Z/IE2FmDla1jQLAqp6n3SRAApYlMFbi/HaxXsf5E1Oxaep1WFZyvsT5VfQfCO7nV7tG+DIvAQoA8/qWlpEACZDASQRsMt2fJYN/rb8FDd1erJt4Ca53LUBhWpa+jsf3noTL9H+hADC9i2kgCZCA1QnE6v38cXAHOiTWX48rMqfjrrJlqMw6R6NhnN+aPYQCwJp+p9UkQAIWIaDS9Kone3f7IYxNzccm57U6TW9PnB96T38wLbRFkNDMXgIUAOwKJEACJGBCAmNkW1+6pOmt9TYACSnY6FqFKyVNryM5VVt7Is7PQL8J3T8gkygABoSJF5EACZCAMQgky3R/jmzrq/E1o7GrHWsLLsJq50KUpOdoA9TAr574Y7nCzxgODWMrKQDCCJdFkwAJkECkCKjn+PzYBLg7vaiR6f7FmTPwLddizM1xiSTomepXbzjwR8oj0V8PBUD0+4gtJAESIIF+Cag4fwy6Jc5/AHH2Amwpv0rH+W1xifq+4HR/v4Xwl5YjQAFgOZfTYBIgAbMQGC1xfofE+at9R+XRPgEbSldihcT5s23p2sTgwM+nfrN4fHjtoAAYXp4sjQRIgATCTiBRnvfzJM5f7W/FsUAzbsqbjzWuSzE5I0/Xzf38YXeBKSqgADCFG2kECZCAVQioc/sbOv2o9uzDfEcl7nYtxbzcshNxfgHBc/ut0huGZicFwND48W4SIAESiAiBcRLnT5Ga3O0HgZQsbJlxs8T5ZyE1IVnXH5zuj0hjWIkpCFAAmMKNNIIESMCsBFJ70/RW+5okM083Hpi8AstLPo88u0ObzDS9ZvV8+O2iAAg/Y9ZAAiRAAoMmEN8b568NeNDib8Lq3CqscS5CuaNQl9UT51f7+WMHXTZvIAFFgAKA/YAESIAEoozABEnT26bT9O7HrDFO3Odag6q8CiTIYK/P7Zf2cuCPMqcZsDkUAAZ0GptMAiRgTgInpelNGo3NlTdiSfFcSdNr0wYzzm9Ov4+UVRQAI0We9ZIACZBALwF7b5y/Rqfp9eGe4ktxjfNi5Nsz9RWM87OrhIMABUA4qLJMEiABEhgAAXV+n9rWVxtoR6u/Eauy5+C2sqWoyCzSdzNN7wAg8pKQCVAAhIyON5IACZBA6ARyJM7v1XH+A3CmFWP9zNWoKqgA0/SGzpR3Do4ABcDgePFqEiABEhgSgQyZ7rfLk/9ebz2QmIpNU6/DspLzJc4/SpcbjPOrjH18kUA4CVAAhJMuyyYBEiCBXgI2GfTVYT51Euc/2u3DnRMvwQ2uBShMy9JX8PhedpVIE6AAiDRx1kcCJGApArF6P38c3IEO1AXqcVnmNKybshTnZU/SHBjnt1R3iCpjKQCiyh1sDAmQgJkIqDS96sne3X4IGan5eMx5LRYUnYck+Vy91ODPqX4zedxYtlAAGMtfbC0JkIABCIyROH+6pOmt9TYACSnY6FqFKyVNryM5VbeecX4DONECTaQAsICTaSIJkEBkCCTLdP8ElabX14LGLg/WFlyE1c6FKEnP0Q1QA7964o/lAr/IOIS19EuAAqBfPPwlCZAACZydgFqvnx+bAHenV9L0HsQXx83EHa7FmJvjEknQM9Wv3nDgPztLXhE5AhQAkWPNmkiABExIQMX5Y9ANt2e/7OqbiCenrsSi4tmwxSVqa4PT/SY0nSYZnAAFgMEdyOaTAAmMDIHREud3SJy/2ndUHu0TsMG5Ciskzp9tS9cNCg78fOofGf+w1rMToAA4OyNeQQIkQALHCSTK836eivP7W3Es0Iyb8uZjjetSTM7I09dwP/9xVHwT5QQoAKLcQWweCZBA9BBQ5/Y3dPolzr8P8x2VuNu1FPNyy07E+aWpTNMbPf5iS/onQAHQPx/+lgRIgAT0CX4pwsHdfhBIycKWGTdjYdEspCYkazrB6X6iIgEjEaAAMJK32FYSIIGIEkjtTdNb7WsCYrrxwOQVWF7yeeTZHbodTNMbUXewsmEmQAEwzEBZ3MgRiI3tSZ7SLSuy+SKBoRCI743z1wY8aPE3YXVuFdY4F6HcUaiL7Ynzq/38sUOphveSwIgSoAAYUfysfDgJdHh9urhUmw1tHi+8Ph+PWR1OwBYpa4Kk6W3TaXr3Y9YYJ+5zrUFVXgUSZLDX5/YLBw78FukMJjeTAsDkDraCecGz1CdPKsENN34NP/3RDxEjK7KnFuWiqaUVXV2cEbBCPxiqjWNlP79dCnGrNL1Jo7G58kYsKZ4raXptumjG+YdKmPdHGwHOX0WbR9ieQRNQAkA9mU3IycEjD63H79/4Ay6cXYn3/vpnJMTHIc3e8wU+6IJ5gyUI2OXJvkie+htkW59b9vTfU3wp3Bffi6+UXqgHfzXdr17cz2+J7mApI2Pki5OPR5ZyuXmNVV05OBtwrLkZr7z6Gq5auUYMbsLU6bPR4fPD095x/BrzkjiDZfExiDngQ8cl43F4eaksajvDdRb5WJ3fp7b11QbaAX8jVmXPwW1lS1GRWaQJ6K9GYSTULEKEZlqNAAWA1TxuAXu7uroQG9szuVVX58azz7+Ab962VlteMXMumlvb4At0Wu9rnQLgeO/PkSd+r8T5G7xH4Ewrxvopy1FVUIFEpuk9zohvzE+AAsD8PrakhcGJreCMwDvv/h0/3fRz/OjhjRgz4Rzkjc9EU3Pr8UVdloBEAYAMme63i/Tbq9L0JqZi06TLsazkfJnqH6W7AOP8lviXQCN7CVAAsCuYmkDfsEBHhxd/3L4d9333+9j++9cxqWwa4uLi0dzmscZsgIUFgE08PE6e7uv8LZKaz4c7Cy7GDa4FKEzL0v0/eHwvJ/tN/XVA404hQAFwChD+1ZwE+oYFGo4exUsvb8N1116jjS2fMQceEQftso3Q1AOABQVArHg0LzYO7kAHEDiGyzKnYd2UpTgve5L2PeP85vz3TqsGRoACYGCceJUJCKgve/UTXB9QW1uHp57Zgm+vu0OsS0P5TJesD/DAb9b1ARYTACpNr3qyPyTb+jJS8/GYcxkWFJ2HJMb5TfCvmSYMBwEKgOGgyDIMRUA/9UmLg+sD/vq3d/DgQw/jic2PITO/BNmODByThYLB6wxlXH+NtYgAGCNx/nRJ01ur4vwJKdh47hJcKWl6Hcmpmg7j/P11Ev7OSgR4DoCVvE1bNQE18Kuf4AFBM6ZPw08efRi/+e3vkJM9DjvfeQspSQmw23oSvRCbMQgky3R/cWwCGv0eGfwPY23BF/Dhhffi6+VL9OCvBn6155n7+Y3hT7Yy/AQ4AxB+xqwhygn0XR9QX9+A5154EWtW36BbXTZtll4b4JUzBAz/MukMgFq3kS8Dv7vTC8i2vi+Om4k7XIsxN8el13TomRy5iPv5Dd+DacAwE6AAGGagLM6YBNQgoX6C6wOqa2r0tsHv/ce/A/GZKJtahFZPBwKdncY0ULXahAJAxfnlHEgckDS9iakT8eTkJVhUPBu2uETtJ073G7e7suXhJ0ABEH7GrMFABIJx/+D6gDd3vIX71z+Irc89g+zCyRibnoaWtnZjrg8wkQAYLXF+h8T5q+XoXsjT/waJ86+QOH+2LV33Ng78BvpHx6aOGAGuARgx9Kw4GgkcXx8gswHq9bm5s/HU4z/HC1tfQnxiEna9+7ZeH2BLSYrG5pu+TYm9cf5jcnxvdcenuGnCPLwvcf6bKy/Xg79a9c84v+m7AQ0cJgKcARgmkCzGnAT6rg84cqQeTzz1NNbecpM2VuUXaGuXtMN+v441Rz0Bg88AqHP7Gzr9aPMewnxHJe52LcW83DLN/tSZm6j3BRtIAlFAgAIgCpzAJkQ3gVMHl48+3oONP3wED29cD9iyMbV0oj4/oFNyEET1y6ACQJ3glyJg3R2HgJQsbHF+CQuLZiE1oWeXBqf7o7rXsXFRTIACIIqdw6ZFF4G+QkDNDPxp+5uyPmAjXtn6HPLOdUna4VGyPsAj6wOiq93HW2MwAZAqcf5xOs7fJEv4u/HAuUuxvOTzyLM7tElquj9WruGLBEggNAIUAKFx410WJqCEQHCRoKe9Hdu2vYqv3LoOvgMfo7R8hhYArZ7249dEDSqDCIB4mdTP02l6PZKmtwmrc6uwxrkI5Y5CjbLn3H61qc/UBzdHTbdhQ8xLgALAvL6lZWEm0Hd9wKcHD+LJp7fg9rW36FpVfgElArz+QPQMUwYQABMkTW+bpOltkoN8Zo1x4j6J81flVSBBnvT7zsCE2bUsngQsQYACwBJuppHhInDqoPTBhx9iw8aH8eNHHpL0AhMwtSQfx1paj586GK52DKjcKBYAYyXObxcj3Or43qTR2Fx6BZYUz5U0vTZtGuP8A/IwLyKBQRGgABgULl5MAqcn0FcI+AMBbJf1Af/1gwfxm20vori0HMnJSXqh4OnvjtCnUSgA7L1x/preNL33FC3CNc6LkW/P1FAY549Q32A1liRAAWBJt9PocBHoGxZolYRCL7/yClZd+TWprh7qWGGfhATa2jtGZn1AFAkAdX6f2tZXK/v54W/Equw5uK1sKSoyi7RrtKDi8b3h6qYslwQ0AQoAdgQSCAOBvkLAvXcfnn3uedz+jVt1TRUz5+rZAJ86P0CSEkXsFSUCIEfi/F6J8zfIuf3OtGKsn7IcVQUVSGSa3oh1BVZEAooABQD7AQmEiUDfsICq4u/v/QM/+snP9PqAtPFFKJyQhcbm1uOL28LUjBPFjrAAyJDpfrs8+e9Vcf7EVGyadDmWlZwvcf5Ruo2M859wFd+RQCQIUABEgjLrsDQBJQT0c7487Xd0eOX8gO347v0b8Mbrr2BS2TTEx8XjmJwfEPa5gBESADaxTB3mU9cb57+z4GLc4FqAwrQs3S96tvXFht9+S/dCGk8CnyVAAfBZJvyEBMJCoG9Y4OjRRlkf8CquvforUlc31LZBj4iDdq8vfANhhAWAGtLzYuPgDnQAgWO4LHMa1k1ZivOyJ2m+jPOHpZuxUBIYMAEKgAGj4oUkMHQCatBTP8G0w7W1dXjmV89i3R3flMJHoXzmVL0+wB/oHH4hEEEBoNL0qif7Q956ZKTm4zHnMiwoOg9JjPMPvROxBBIYJgIUAMMEksWQwGAI6KdfuSG4CPCvf3tH8gs8il/+4mfIzC/B+MwMNLW0De/6gAgIgDES50+X43trVZw/IQUbJU3vlZKm15GcqvEwzj+YXsJrSSC8BCgAwsuXpZNAvwS6utRsQE/0v122B6r1Abff9W/4x1/elPUB0/VMQYs6VrjfUgb4yzAKgCRpYa5s66v2tQBdHqwtuAirnQtRkp6jG6cGfp1qeYBN5WUkQALhJ0ABEH7GrIEEzkqg7/qAhoaj2PryNlz/1Wv0fer8ALU2oMM3xLTDYRAASpio/fzuTh8g2/q+OG4m7nAtxtwclxYtjPOf1fW8gARGjAAFwIihZ8UkcDKBU9cH1NTU4hePP4H77vmOXJiBsuklOttgZ2eIaYeHWQCoOL98geCAV9L0jsrDs6VLsah4NmxxidowTvef7F/+jQSijQAFQLR5hO2xPIFT1we8+ee38OBDj+DZp3+J8YWTkZGeJkKgffDrA4ZJAIyWOL9Dp+k9CsQmYIPE+VdMqkK2bYz2HQd+y3dhAjAIASbTNoij2EzrENCxcjkzQIUF1Otzc2bj8cd+ghe2voS4xCTsevdtJCcmwJaSFFEoiTKpXywD/jE5vre641PcNGEe3r/wXtxcebke/NWq/25pUWwkTzeMKAFWRgLmIsAZAHP5k9aYkEDf9QFHjtTjiaeextpbbtKWBtcHeGV9wFlfQ5gByJfjexu6/GiT6f75jkrcLWl65+WWnYjzS+XBHQ1nbQcvIAESiAoCFABR4QY2ggT6J3BqWODjPdV46OFH8dCGB4DkLJS5CtHS6kFn76zBaUsLQQCoE/xUQt66jsNAyjhscX4JC4tmITUhWVfB6f7TkuaHJGAIAhQAhnATG0kCPU9dQ8QAAASPSURBVAT6CgE1+L755g5874ENeHXrc8g714XRdjua29T5AachNggBkCpx/kyJ89f4jsmjfQDfP2epxPkvQJ7doQtmmt7T8OVHJGAwAhQABnMYm0sCioASAsEp9/b2dmx79TWs/Pod6Dy4B6VTZ+hYfKtKO9wX1wAEQLzckSfb+moDHknT24TVuVVY41yEckehLqnn3P4YueqkkvvWwvckQAIGIUABYBBHsZkkcDoCfdcHfHrwIJ58egtuX3uLvnTqjNlo83TA6w/0DNdnEQATJM7fJml6m7yHMWuME/dJnL8qrwIJMhvQd+bhdO3gZyRAAsYjQAFgPJ+xxSRwEoFTB+cPP/wIG2V9wCMPbQBSczB1UgGOybHCnTFy6uCncqDQJeNxeHmpTO33FOOQOL9d3tap43uTRmNz6RVYUjxX0vSq6L8c7CezDVzZr1HwDxIwFQEKAFO5k8ZYmUBfIaBmBv74p+34z/vX4/VXtqJw8lTY7Clo+bjpuACwx8ZinIrz+5slpuDDPUWX4hrnxci3Z2qMjPNbuTfRdisQoACwgpdpo6UI9M0v0NraKmmHX8OqGyXb4DE3yoqno21WBjqvmCzH90qaXn8jVmbPwW1ll6Eys1hz0kJCZgcY57dUt6GxFiRAAWBBp9NkaxDouz7gk/37ddrh29feClx8LnB1JUrTCrFhynJUFVQgkWl6rdEpaCUJ9CFAAdAHBt+SgNkI9A0LKNt2vrcTP/z1M5i+cC6+XHoB4/xmczjtIYFBEKAAGAQsXkoCRiWghEBw22CnHNkbJyv71atnW19scD2gUc1ju0mABEIgQAEQAjTeQgJGJRAMC3SrkwLk/6AoMKo9bDcJkEDoBCgAQmfHO0mABEiABEjAsASYDdCwrmPDSYAESIAESCB0AhQAobPjnSRAAiRAAiRgWAIUAIZ1HRtOAiRAAiRAAqEToAAInR3vJAESIAESIAHDEqAAMKzr2HASIAESIAESCJ0ABUDo7HgnCZAACZAACRiWAAWAYV3HhpMACZAACZBA6AQoAEJnxztJgARIgARIwLAEKAAM6zo2nARIgARIgARCJ0ABEDo73kkCJEACJEAChiVAAWBY17HhJEACJEACJBA6AQqA0NnxThIgARIgARIwLAEKAMO6jg0nARIgARIggdAJUACEzo53kgAJkAAJkIBhCVAAGNZ1bDgJkAAJkAAJhE6AAiB0dryTBEiABEiABAxLgALAsK5jw0mABEiABEggdAIUAKGz450kQAIkQAIkYFgCFACGdR0bTgIkQAIkQAKhE6AACJ0d7yQBEiABEiABwxKgADCs69hwEiABEiABEgidAAVA6Ox4JwmQAAmQAAkYlgAFgGFdx4aTAAmQAAmQQOgEKABCZ8c7SYAESIAESMCwBCgADOs6NpwESIAESIAEQidAARA6O95JAiRAAiRAAoYlQAFgWNex4SRAAiRAAiQQOgEKgNDZ8U4SIAESIAESMCwBCgDDuo4NJwESIAESIIHQCVAAhM6Od5IACZAACZCAYQlQABjWdWw4CZAACZAACYRO4P8B4H/DSrSTvt8AAAAASUVORK5CYII=;" vertex="1" parent="1">
          <mxGeometry x="324" y="1636" width="90" height="90" as="geometry" />
        </mxCell>
        <mxCell id="rylPVy3shO58b24bcxYE-43" value="" style="sketch=0;points=[[0,0,0],[0.25,0,0],[0.5,0,0],[0.75,0,0],[1,0,0],[0,1,0],[0.25,1,0],[0.5,1,0],[0.75,1,0],[1,1,0],[0,0.25,0],[0,0.5,0],[0,0.75,0],[1,0.25,0],[1,0.5,0],[1,0.75,0]];points=[[0,0,0],[0.25,0,0],[0.5,0,0],[0.75,0,0],[1,0,0],[0,1,0],[0.25,1,0],[0.5,1,0],[0.75,1,0],[1,1,0],[0,0.25,0],[0,0.5,0],[0,0.75,0],[1,0.25,0],[1,0.5,0],[1,0.75,0]];outlineConnect=0;fontColor=#232F3E;fillColor=#E7157B;strokeColor=#ffffff;dashed=0;verticalLabelPosition=bottom;verticalAlign=top;align=center;html=1;fontSize=12;fontStyle=0;aspect=fixed;shape=mxgraph.aws4.resourceIcon;resIcon=mxgraph.aws4.managed_service_for_grafana;" vertex="1" parent="1">
          <mxGeometry x="170" y="1642" width="78" height="78" as="geometry" />
        </mxCell>
        <mxCell id="rylPVy3shO58b24bcxYE-44" value="" style="sketch=0;points=[[0,0,0],[0.25,0,0],[0.5,0,0],[0.75,0,0],[1,0,0],[0,1,0],[0.25,1,0],[0.5,1,0],[0.75,1,0],[1,1,0],[0,0.25,0],[0,0.5,0],[0,0.75,0],[1,0.25,0],[1,0.5,0],[1,0.75,0]];points=[[0,0,0],[0.25,0,0],[0.5,0,0],[0.75,0,0],[1,0,0],[0,1,0],[0.25,1,0],[0.5,1,0],[0.75,1,0],[1,1,0],[0,0.25,0],[0,0.5,0],[0,0.75,0],[1,0.25,0],[1,0.5,0],[1,0.75,0]];outlineConnect=0;fontColor=#232F3E;fillColor=#E7157B;strokeColor=#ffffff;dashed=0;verticalLabelPosition=bottom;verticalAlign=top;align=center;html=1;fontSize=12;fontStyle=0;aspect=fixed;shape=mxgraph.aws4.resourceIcon;resIcon=mxgraph.aws4.managed_service_for_prometheus;" vertex="1" parent="1">
          <mxGeometry x="491" y="1642" width="78" height="78" as="geometry" />
        </mxCell>
        <mxCell id="rylPVy3shO58b24bcxYE-45" value="" style="shape=image;aspect=fixed;image=data:image/png,iVBORw0KGgoAAAANSUhEUgAAAeAAAAHgCAYAAAB91L6VAAAgAElEQVR4nOy9V5AkyXnn+feISF1ZWsuurmotprtHYEQDowDMkAAIYgCC4PF45BpP2Anbl3vYszu7M9yZ3cvZ3drZ3XK5trtmtCPIpSYBEFyCgwEGAzGyR/TMtBbVolSXrsrKrNR+D64jI7NEZlVlzoTPVGeGh//cP/dw/z7/PCLDyb/41e9QgAAAKAUI+8oCBTvFPyml2iFnQAEAhBB2ngCgBJRQEEoAQnm+BKBUscRVBKUsDc9T5i/jRUoP8bbJUl7RSqzeGEaaBmbhur4GqzWozzYmK1KJc17jA/BZn/XZemEtgBlOCDNMmUGloAChkCeEYiCEZURYzoQQEBBVAC9RGFlhfKWAghWGG7REOF3hSJbKqlXH8vTlDJmYUECwPB/eag3Lgk+OxLU2WCo6kKuj+GxDsdD7B89DnKfu8z7rsz6776wFUNMoigEuLKy0vgAFN7BC4bPstCOqHE1lE9SBwYqZAzEMqFcwzwuZdsp6nRP1FQaclrKUNi5LqVlzApMlYrJiGm6fbTxWnpPjmRjxPuuzPls/rANhVAlkQqbP2fwbfCmZ225QQiA9SgIQSsCMPeF5slm8zJZqbrj8hxelZNMCS61m/2COuDvdTlmi5FEU8T7WE/LCGpHVQ6UJCyHlDny2UVjtJO/8ALfaFTLyWZ/12f1gLcrTAVS6yMxOCistDJpwqzVDIPOmjAdTHsJYE+7xMowaLJWGgsqsqLQeunfnka4KVkZ5BtPb9ErYiCxLRs1PD5Ytfbry89nGYUuieWfQB77P+qzP1g1rSYOopRWDnBDwP/5FGHEZL76zpWCRFwGYR6wsIE+jsW4BKfdauXUVkwFQyDiRuhpWTBY8mshIJ9tBC43LAiDqPrzKyrTW8jr7bEOy7smXmihrfcJnfdZn64a1ZAYU7KllqEFOBUdVIZSyp5oNYy/jNC+aUEizIeyhwaq0ukzqU3wRN6xFWloVS8QswAgesxktH2ocNyIrOgjMz5IcXUbeZxuLLZe2zDKZz/qsz+4vawFsrIulY2nXpPUEv22rP23LP6iWjIhCCM+EgAijTUon9MJrLid4+XhSFbu9+E/K2U20+pZy8tn6Z3cSfNZnfXa/WMvMQ5hTambJ3WB5b5XZV1DC3FkCAkJZPAFAhTEn2oNBwjOmblmJZsG9KuT+pGaaHbDifjRoqUexWWhEVrY9y6hcAT7b4Kw7kK0oBZ/1WZ/dN9YCBfNctXul4lN72BmGkSO8QO1nQHxhWJ7WY3XjLVmpTWgZrUM9P6k7brss5Y3ChVT3jjW6TGM2KmucqbAIUNJZfLbxWOPUJhM1n/VZn91X1mI/DQLUGrU2wKnIgkAZUyJLE8+KUCJ4wpabhaWjwmKIJ6OJh6TlvFX3+UpH22AriSAOXev1VEvXiKxxrpyhhkdn8dnGY90nKwWf9Vmf3VfWEmmYzaQg/MausKmlL3mgskBhmgGw5Wci8mCZ8oVo4bgZrAjaA8vsIS0Ib06kofzhrVIju2NWe1hMSArJqiAeKiP6uQZkjQfoXGlNmJSc89kGY/U4DXUbbp/1WZ/df5b8i1/5DreYypzqylszv+ybMMKUG2Eq4nhC3QhTnRUfigWlyi1VMFMyJTeLqZmuCrbcWd3BLzdvaURWMa7Xd7igkvM+21DspnltI/isz/rs7rOW8Xg0hXxxh4inUPd5hQcsvS/NIEsPVxp5YejM84Yw5dx2I5qWSbNTlpbEE9cXd85q5tKorEhDjGM3VNpRfLaR2HJDpXzwWZ/12f1k5VPQFFBL0TIQ7mxyAyA/hNvFPVFhd+VPg3Rvkxlpca+ZGue9AinzqYdqWFImvlLQ82tEVoTKfnLpAwM+21DstifpPuuzPrufrAUKfs9QkPoALzMTL2f/pPfM/iEVsySuNfJNnuyl4phUyUJOGjzTerAwjhuRddXfHeTtBiLT+2wjsmZ8yVJ2me8+67M+uz+sBQL1cJVbiYOoOF03EAL5o195/5eyRPInTVTeHyZ63pyl4Fs0abh417QozzjmclJUxzIRiDlpcS1nG8fybVrauQZj5TV2GW0NVt/dNsBnG4al8rkIloayf2QaOWn1WZ/12bpgLWVgiWGtCc+BQMWzpExJsHd2CMNKAPnSDe3JaC4EIAyEYglgeN6ECIMtAKplor7wXHbMGrMQLi81Dl2LfNpTpw3N8stUmpWRk9mpfLahWPeky60k3JM4n/VZn91f1oJmtSlUBszWih8SUWZgufVj3ic3ujxevJaScGPMnkbmJlIIpbMgprDyWI/Ta6fXaucs5TXSWsScyLiOZSOKdmhAVp+VEVeTuNtRDz7beCyLpAJEpeCzPuuz+8talGobFhCh7KGUATQFYEzEuWmmwjxoy8LUlVfplJ5/mDN73dC4kZJK75D1MtSblSXbokFZuTQC4s7Glad5vXy20ViISBiJSjPxWZ/12TpgLWN2TanaEUmsVYvEVA1+sRRNxKso9eVgAOLNWYQqZUJVESqVMPycNJfAifzmyqFKVshR3oS5zXjp/KHxWEI079+VD5tEuV4X6rMNx8q0Io9ywWd91mfrgnVAxYFYLhYce3iKcgMLaFaex4lz0hhSbnxLZvCaMRf5UXc6IYgb5vFUO1UNK2I3WRoo54Y0IuvKpGzHUashPtuQrEirTYa3G3zWZ31271jHnFVLnxrCahH3sciRgMVJ48uUBlGW1siPqw95Si6Rg/AVayJ1j2bjudF3fWLnLKummDxwMaE7HFSVIWWkcmenRmTF0qZoLzOo2YmxjOKzDceyODYWiRiblKpJsdFBfNZnfXa/WUdfuqUgaqtBSjRDRuWxcGYJz1DpAl6IeOMGFwLgxgCqfAKRN+UsEaULuSCMSrnPnbK6pZZeheQgG5Gor6K2ojEajjW8J9ERYLLySPeufLahWCMtEZNSbYSbHWTP2abWMDr74+gaaka0OYR4awQAkMsWsLqQwvKDdTy4t4q1hRSKRWqwjVhfn/XZzViHGVFlkQFmbHm+zGhyq80+iTKk0uoTZdT1fAyBlK8tWPd9XDOQMvF6hXfA8oaqtIynzWU+MaxMUT4LGKshPtuYLKDxZXvFnrGx5hAOnOzGwFg7uoea0dwRRXNHBKFIAOFYAIQQ5PNFpNYySK6msTqfwuTNRVy/MI2ZiRXksoU9l9lnfXavWIfxwvCyzAggvS592VcYYwpxTi7+sv+FPeSscQ7EYDXpXSKZvrL61IyqemH19tlNm6Q06OkbkZWhZJOKbQSfrX/WnVUV+VTDBkMOho50YvxML/oOtKJzoBnx9ghCEUflr61iOY6F5vYI4m1h9I22YeR4F44+OoAbH8zig1cnMH9/TXnEuySzz/rsfrByRCivV9xPJMrBdPV9YVpZ3so4gwhvmccKAw49XtzDNQVzm8zNqrVz1hXE8u6WS2tUdvNuVD6FzzYC6w4l3nKFXGvF9o224okvH8aBE93c6AZAiJjka/kLPaMt34njcCyAwUMd6OiL4+DJbrz349t47ycTyGV0b7g+6uuzPlsN60hvVdzDlYmVmRTfpOcLClA1YMRat2EJAWl15X68BJIV9zSF5RZmnOj5GJVymdlqWKPNtOPtWvAGY0s6g4ut1Fl8tv7Z/QyWRTB8rBPPfvMERk/2IBCyASjD635622183T+xo5Qi0hTE0JFOdPTFceBEN370JxexNJvcoxr5wQ+7H/ztCFFqr905q7vZjcqKNMQ4LpmLeOTis43Dlhsq5UPt2K6hZjzzjRMYe6gXwTBbWKtkXN2BECL/dJYQINYSwqnzw/i9//VZjJ3uqZnMPuuz+8362xFuKej5NSIrQmV3mZa0q882FLttx7g2bFtvDM//1ikcfrgPtmN5Glg9FPJFfPz6PWTTeSMtpbQs6wRsdA0047f/x8/i6a8fq1pmn/XZemDt84de+rYc9Pr9GDB7Kj81fU7AIomwC4TNzIk4Lx7QIiq9+GmFZKn+4yQYD3qJQAFAf9Ja+tQ7ZwFx74lXh0Ne96SULtA8lAZk9XoD4il3/edcBCBsdUL9no36bIOx8raOnhYU6qeB2vkasIQQxFpC+OxLx/DYC+NyALqXmr2Oc+kCfvDv38X4mV65XL0VNhByMHK8Cy2dUdy/tohcpsDF2v36+qzP1pq1BExYD5edXcxExWAXT0iz8gjfDYmTVDFSQfAdisTTzyyBYll2XEgiWPZJoY4ZwQpj4tGqWLWEp1hZZ2iBUo0lvI0ak2UTKNUihN9nkCwR15FypQefbURWnlP9nIi8SO1Z27EwfqYXn3nxEEuvGUz9O5UskXVp6YxifSmN7/3rd7C+kt4ySylFMOTg4c+P4av/zaNo7YrBtsme1NdnfbbWrP3UoZe+LYe9NMxqJk5AIPaXpRQynhKeFkpx6PdtGMeSuO8hUy6seuJaE94Qm8vB/0ReLOnOWCkzwN8UJeI0lvCaEyKPiV7fhmOpmiTJnPS2EtMaUYbeVj7bSKxQCBSm96yUBa0NawG9I6146Z9/BrGWEMoFtxcr4gAguZrGhz+7C8siGDzSAcsuTVeOtSyCzv44eg+0Yn5qDesraVCK3auvz/rsLrCW0b3Fgez0StEb0bwA8Z8M0jMTPz+SFsAohIAA3JhTIwURekcKC+bQmQJWw8pDIqtG+eTEbEjtE2JgNyhLZaNANKDB6qe4gffZxmPlBFd1epmHfI6jRmysOYTnvnUC7T1NnkbSy3gCqk8GgjZGT/Ygmyngw5/fxc33Z1As0C2xYvLtBGyMnenFC//ZQxg63AHbsXatvj7rs7vByoewAC2B8aedl/9S7Ug3EO6v6hz1yJdyvaJiRWX4dyE4qJ511axeC9lAPJJwQ84MPNUqRRqXJZyTGp0YrJgsiUmNzzYoSwE5SeORlBIQ0UdQG9Z2LJz+7AhOnR9RuWlGs9JDWMIjsGwLrd1R9B1oxfxUAm//8CYWZxJbYnXjbNsWRk/14PO/fRpjp3sQjARqXl+f9dndYg0DTPTBr68xi0CpOg8+GIw0prEQ74JmZ4jJEq5r2LoRI4UBce9IDj6oKU9eBcs+qWTlBIYylrqqzH4frSrVkCx4W/EIQkpZY3lTFuCzjcRSUPl8hUxIGCcmwLVghw534unfOMGy0Aymfr+WUir/9PMApAENxwIYOd4FWqC4f30Rl964L5+M3ozVz1kWwaGzfXjhd8/g2KMDCEWdmtbXZ312t1jDAGsY5FNW8g/C6sljNRGl2qd2zjhv5qWbZt2dY7N9072XM3+etBqWQptoEALhM7L2I2zXIZk7gZhiiJo3JMvPGIZbY8X1EBMVMV3y2cZiWf/g34nMiKWU62DVsc3tETz7myfQ2hlFpeB+LkQYZ91whiIBDIy3AwRYX8ng+rszmL27siXWKwyMt+NzXz+Go48OIBQN1KS+Puuzu8lahtHl2UDPTP5Bgiqd16cYNFpWXnlBK1l4dVRXQIxj+obKxMLU7JzVBKPmgq3Il4ANep1liRqXJUT8ERDXNSA8gXigQE2efLahWHHtjWHMJ5+Un6+CtQMWnvzKEYyf6S3xSN3fy53TDakTsNHRF2cPcRFg9s4K7l6aRz5b2JQtV+7AeAc+9/XjzAhHnH1rK5/12a2wFo/yCLT0j+jxIpk6T/V4TbDSvLRosAEkxpDm6GmVYkqHiUCqYwlh33VFJ6rG40T7STVIeTUblJVOE5SRNlmRWF1Sn208lsp0AFHr1hBLY+JpiJ2ypz83gke+OMYfdlLGsJxn6hXv9mYjTQH0jbYBFNhIZHH/2iJW5pNbYsuV2z/WhvO/fhSDh9ph2WRf2spnfXYrLNsNqbQPe8YSV7z7gQiD4IKVy4tSfprVQCan4phbESGw2PpQjLmds1QkFhYaIpq1m4hX6YlIrwpqKLbkvplQYhpLtask29LFWraFppYwOgfiaOtpQqw5hEDYQbwtjMxGDulkDqm1DFbmkrh/YxEbiWxNyvXZrbPqu0ir9Xeew07Y8TM9OP/VI4g1h0w5ywTdWLo9Y50NBB00t0ekiFM3FzF7ZwWdA82bspXKHRhvx7PfOomX//gipm4soVAo7llb+azPbpV1pCEElMkS/rIRdAXAzolHriFcTJ4OwgCUOSdYKawQlIh4pWhkaVxIEb9TVu76BKK9EASa8RJVF7JLlafl2YAs7yQiGdFYLVJNjDQ21hzCyPEuHDjRhf6D7YjGgwg3BREMObAcC6Gwg3y+iHy2gFwmj3Qyh9WFJO5cnseN92YweWNpR+VWI/OnkgU32obRYgNfrBzthO0bbcNnv3YMPSOtsGyLM5UNrPuc+K7HU0oRCNto7ohKDbGykMLCVAK5bAGBoF2RrVSubVs4eKoHv/LPzuKv/uUbWJ5LyrbczbbyWZ/dDuvo6eTyrshYWVyYpCtz45N9NweIR3pNIC4f/4cbaUrYdMCw4er+545ZYYzFW0c4x8am1nCuuhvt1GAshRZPBUUUK7W8SkII0D3UjNNPH8Dhs32ItYQQawkjFHFKFCEAhBwHobADIAR0AT0jLRg83Injjw/i4mt3ceFHt7Cxnt1SudXI/GlmKaUqC8J7PJ+kssm1WwFszsZbwjj/60dx8FQPnEDpKyPdRnArcTobCDpo7oiwmhKgUChiYTqB5Eoard2xiuxm5dq2hQPHu/Arv38O3/uDt5Fcy+xqW/msz26XVTtkS+WtaXH1aiwIswc5V4XrnB50Dxjaeaqn4P/qS8i8QjxLAg0jQhxtmXWHrJh9UC6b0G2ENwyz3UQtAvCGBUhDsqr+rA0IpXy2Bjlrg8IwfrYXJ58awvhDvYi1hhGOBgzlpi8DlvNCCCGINYcQaQqitTuG/rE2/PzvrmL61nLZcikor9f2Za5HNhiyMXykEz0jLbj94QPM3lnd1XIpxKgA2LgX/Z3fo5LptsbGWkJ4+jdO4MQTQ3KHI7fn6fVQ1GZ9Qz8OBG3E2yI8gjELU2tYW9qQBriaci3bwrHHBpBaO42/+1fv7Fpb+azP7oRVBliNfr0rG59ul9tM44qjEvBMy4wls5xyVqsZFmGr2eSBMqH5TKIqls9DJMtFYg++CJjFS+PHM2M/92lAVrsWTHkLFQ7+yYzFsccHcfbZUQyMtyMSC8AJmnu6uoN7OdC95Aiw32g2tYRx6vwIIrEgXv7ORUzfXpbliu5K+aSNAluWuV7ZUCSAI4/049zzo4i1hPH631/D/FRC5iHYo48O4P7VBaQSmZqUyzY44UFeMj7qxdctsrHmEJ7+xnE88oUxhGMB43rr19erb3idK8sSqFdQ8o/luSSSa5nN2S2WGwjaOPf8Qdy5NI/3X52oeVv5rM/ulFUGmKemxjd3IK54rgwMY6tZP5nWdQ6Ae7cXQgibHQDSS6VGUcr4svgdsrIWYq0e/Gk1IS8prTo/lmU0GMt+oiXaSzYKAIr23jhOPjWEhz9/EO29TXAcC8Qqvd/GmpEYn6p5VZpy8YGgjSOP9COdyuGH/98HWJlLaXJwWbcos2Lqi7UIQedAM1743Ydw+OF+FPMUb/3jDVx64z7yuaJkY60hfOG3T2P5QRK3Ls6WLdcJ2OgbbUU6lcP8ZGJTmUXHp6LDsIsgx4sc2Zuw7b0xPP2N4zjz7ChCYafsBKzcvdhy6SuxVGve1cUUVheSKOSLsB1rU3Yr5QZDDr78Xz6M+ck1TN5YrFlb+azPVsNyA+zysBgFFURJ1DAG0qxqZbEiNLebmQ1A/qtYKgUpM5AIIDw6UQH2oo2ds2bVhKcIWXfRiCyKyNbRKtd4rBYsm8AJWOgZacVnfvUQjn9mELHmUImxFW2pG18vpQfAYN0PzOisZVs4dX4YK3NJvPqXl5DZyEOtvMjcSmQmRFw7XUZSNywhQKSJeYxPfPkwQpEAKKW4cWkG775yC9mNPAgBnICFh545gC/8J6exMp/EK3/6EXLZgtHetmMh0hTA+Jk+PPVrR3Dv6gJ+/Gcf8QSby2ycc08cxKEHS8CWa7uHW/D8b53EqfMjnpMqr+urnxP1qOQFl5uwCVkppViaXcdGMoumlnDNyo01h/DN//4J/Lv/4cdIrKZ33FZeMvusz+6EdUQsM+KlnbZkeVEoe56JMgAmA5lUsEIO/UleYaBd3hZRkwFhujnKlDzIjllt2lA6Czfajqqm4zMYrXUaiyWAHbARi4cwMN6OR744hoOnehBpChpGU1xPdx8QQV8G3MwzLsfajoVzz49iYTqBD356B4V8UV4vxmkTDDWF5MZQqy/hvXafWcsm6Oxvxq/9149g/KFeWd/1lTSuXZjGg3urcAI22npieOIrh3H2mVHYjoW/+r/f4Mus7P5+IGSjuT2C448P4bEXx9He14Qb783gwiu3WTpCNpVZtbka8IRPGNwTbJ0lhCDcFMTY6V48843jGDzcsen1dC8LC+Povt5bYwHLgpw8EhA8uLOC5EoaseZQzcoFgI6+OL70X5zD3/6/byGXKWy7rappZ5/1WTfr6HNq9cyVykT4m1Kh83jhTAKlCpgIYfjrLM3zwovWDKc4JwwkRYmwLJQOvp2wor2oaBzRTIIVNReJZJ0ajw3HAoi3RTB4uAOf+dVDGDnaWdKG5YKXwdW9kJ2yzR1RPPrCGJZm13Hn0hyKFOw+CtEVqLJ6VNYesr7iQQYWtz9sOBrAwVPdeOmffwbx1oisLwAsza5j4qM5RJqCOHS2D0999SiGDneAWASvf/8qZiZWUCwWEQwH0NoVxZGH+/Hoi2PoGW4FLVLM3l3BO/90EzO3lrXrvAWZKR9b2mRNGHkxLnQ2FA2go68JD3/+IB59YRyBoF3iYbqNnPv66p9e/WAzNhByEGsJI7G8IWWeurWM1cUNdA+31LRcJ2Bj/Gwfzj13EBd+dAuFXHHLbVVNO/usz3qxjtFFpV5XCl4z75oxUCbACMIDhW6s3YGz/Lw+AVDl8Q9KZKV0OapiZXI1c5FiizrwZUf5CZfBqXPWsgmi8SDaeppw7NEBnDw/xBS7prTchrScl+L2drfKZjbyyKSyaOmMebIjx7pw7rlRrC6msDy7zjutNinQb+rziy7LEJWX15fsOdvSGcWZpw/guW+d5O8dVnnkMnk8uLuCjWQWT3z5CB57cRytXVEQQrA8l8THr99HNp1Dz3Arxk734DO/Mo6ekVbZluurabz3kwlcfWdaybIFmUWcbpIEJg0VYbcgYvEQ2nqacPB0D849dwBdgy2GMas0ufK67tWwgaCNSFMAieUNKXNiJY2l2QTy2S4EQk5ZdiflxppDePTFMTy4u4KJS3MV26qadvZZn92M1R7CEpnBFTTFCoCYWUMsA7uS8q9U+0ZhZi2MNLQcNS+WuLxdF10NKyQTcuqTGALRkNo9P492qEfWcWw0d0TQO9KKAye6ceaZA+w3ljyxbkhl22jn9OBWdNtl1xZTeO/HE3jx986UZc8+N4rkWga//P41JJY2zPrya0vMiyzrS7V6q9baG7ajL47zXz2Kc8+PIhwLlrRHZiOPYhF4/luncOqzwwhqDzLduTQHyyI4+eQwnvjyYQwd6QQhZhsuzyWxOJ2QS8EAUMgX2U5BRV0oFopFio119taxYoEil8mzh74oEAgHEAjZCIZshGPsBSodfU0YPtKJk08OIcbvserXkVLztoQ7eE26qmFBCIhFZOOLEXv38jyOPDKAtm6npuUSAvQMt+KxXz2E+ak1rK9kjHKFlivbNyiXmYplRZ/12Z2xhgE2Oq9uA2Qc1TQ/PDq8aSyI9nRWiQEVp7hiJoRAvEfTawwJQ0p5MTtlCdhkQMnJlwb45MNtrgnRpg60PtlAyEF7bxOGDndg9FQPDp/rQ1Nr2Lg2Xsa03HndU90p29IZxeJ0AivzSbR2xTxZJ2DjkS+OIZPK4e0f3lQ/PaHgDr3ob7rnA61js1YjvFypwHeR7eyP43MvHcNDnxtBOBb0bKtg2MGxxwbQ0hktaauWrhg+9/XjGD3RjWDEKWlHYeBf/L2z0EM2ncP6agaFXAHuUChQLE0nAAD5fBHJ1TQyG3kQALHWMKJNQcRamMfb2h1DW08Mtq2eLva6fuK7CFvpGztlA0Eb0aYQT6xkuntlAYmlFFq7ojKfWpUbCNoYPdGNk08Os6XofLGUB/HsG0K3UZXQZ312R6xhgA2r6/EqSqGUZDbEzXmdgxavi6Dnq9JJD0UaGK4miSHdjll2nqUDgZqpAGA31CkoXyLQjbasZR2xkVgQPQdaMXyEGd7RE92INAVVq3t4BG5vVKRzM9Wy4ona9348gee+dbIsG2sO4fyvHwUIwVv/8TpSiSz3UNkVFYhgZVtpxlO1mt4Ta892DTbjs79+FKc/axpfd1sFww6CYcezvqMnugzGzVoWe1o3Gg/KNtflKMeW+17uXCVvUYRyZdSaDYRsRJtDwn0A+HVZnF3HzMQKekfbEAw5NS+3pTOCh54ewczEMu5dXZDlyjtAfLbv7husIEC+VUGT2Wd9djusff7Q176tVL3eQYnrj4GsE7vTExcjDF2FvDTB1Tf34FImSBhSaWh3yALQBqL7mMhjpTz5ZEKUXSdsNB7C8NFOjJ7sRkdfHIVcAXP317A4s47EUgorcynksnn5FKnXsp25LEc2PbcdlvDJxBs/uIZD5/oRiQXLssGwI3fEmb69jHyuALFUyP6Er6q1FdhJQti1dbdVLVnLttAz3IKnvnoUpz87jGg8VNO22i3W67ge2cxGHveuLmBmYlleG3D9RQgwdroHYd5/alkuIQTR5hAKuSImby6xn4SJcpmy8+4bQudIfeuS2Wd9dousoyGu4PZawTLSvFyWjKqvokB5Ws0NXBkZRajZKivC9FYB7cfHanDtkKXyO5eDz0hUUr09VFlU1L9OWFqkSCxt4OrbU0incshl8gDYCwdGjndh/Ewv4u0RQ/HoXpSXYtKD23PYLmtZBJ2DzbBsC1femsQTXz5ckY01h/DUrx1BrCWEV//iY4tlJ2QAACAASURBVKwtpWU/lmXrbUWp8QIYNW/RVgqqYB3HQltPDL0jregba8PgWDuGjnQaKwy1aqtasu40erp6ZYNhG7GWkLplRQGALedNfDyHhekE2zHJ4wUx1cocigRw+Fwfbn/0AJfemJTlCk3m1TfYeKQAVStsusw+67NbZf3tCIlsH27wRLxKT2Sjom7YjVQOG7eXIa5wKBJA/1gbDp/rx9CRDvQeaEVTa1jzqN3tv/lyYrVsMORg8FAHrr49hRNPDBn3RL3YaHMIj/3KOOJtEbz9w5u48f6MkkEYJ62t1IRFu/4U2qRse6xFCDr64xg92Y3+sXZ09DehtSuG1q6YXFLerbaqNbuVPOqFDUeDaO2KaddEjdGNZBZX3pzE4Hg7QtHArsjc0R/HySeHMHtnBYuz61yvMGnK9Stj4u+S2Wd9dqusvx2hOE004y4tI9FK1CYedcQGQjYOnOzG6fPDzGj0xeWORXo76Z5VOa9LBOF9VcsG+GYEl9+axMTHc3jo6ZFNWcexceLJIbT3NqFnpAUXX7uDteW07OQSEW0lrrnoBOK0SC+TlWdjzUEMHe7EyaeG0DnQjLbuGJpaw3D4b2L3oq1qwW7m9elx9cQ6QRvReAhOwOIPQzFlJVbTLv78Lh7+whj6RltL2qcWMtuOhfEzvbhzeQ5rP04hnxUPZJXpV+DXwyjflNlnfXYrrL8dIeeYejNmI4bYRjvVARtpCmH0ZDeOPzGIkWNdaO2MwgnanooHWr0reRBuhVYtazsWukdaQAhw5a1JHH20X/5spxJrWQR9B9vQ3BHBobN9uPDKLVx5cxK5XBHmbFIF6mpCbabG40gJ29HXhEPn+nDyqWG0dkbR2hWTG1DspL76536xldK64+qJDccCaGoNY2Uhya+RcAgIEktpXH17Ct1DzXJLxFrL3NTG3kJ2/9oSpm8veShL1a8opap7EajVK01mn/XZrbD+doTQPFAoOy68TXGC8hP7zQYjDg6f68fDnx9F/8F2RONB+aICPZTzDryUfLm01bKEsCd6B8fbMXlzCdffm8Gp88NbYi2LoKk1jPEzvegebsHJJ4bwwU/v4NZHD5BJ5dUETLQfKG9Pol1vAITI3UpEO/ePtePkU0M48nA/WrtjiMZDsKzq67vfrFe6RmHjbRF09DVhdSHFxygbH2Ix7u1/uoFT54fRNdi8KzJbFsHBUz0YOdaJ+clV5HJF+fYxd7+igFKlmqxumX3WZzdj7fOHXvo26426kZVd2fgURsBMVzoAuCXhgDs/9kcIuJiawpbGySxTLI3r2xHumAXl34WyE/VyKTsZx40fIfvKEtvCwFgbvvSfP4wnv3IEPcOtCMcCsPjvOd2erwiVFJVebrnlu2pZy7awsZ7Fx7+4h0g8iPEzfXL7ua2Ua1kE4WgAnQPNOPJwPw6c6AYhBImlDWQzecaKfkBUL1D9Qk32eoZb8PnfOoXnvnUS42d65b1dYXz3u62qZb0MjzvfemXz+SKmby9jZmIFmgoTNHu5SZ7i6KP9uyaz7ViwHRuTN5awvpIGyvQroukXNdkvldlnfXYz1t+OkACNsKWgbRFkNgr4q3/5hto/FWzp7okvH8GjL4wj2qR+6qMH0U7iu/7plaaWbCBko3+MPUBz/9oi7lyaw6Gzfdsu1wnYcFpsHDrTi4Mnu5FYTuP2Rw/wwasTuHN5Hjlx346wf0S/sGyCgbF2PPnVozh0theRWBCWTXatvvvJeqXfLNQLG2+LoHOgWZyUY1xqoyLwzss38dxvnkRLV+kLTmol8/hDPRg60o6F6TXkswWpR/R+JRRMvW9157P1z9rnD730bWPZEIBaqyYGINxollRPr3d+xph5QMtDUW7WMO9ELLtqg0Y7v1NW1AEEfMai6iJyZiKKWYrMEuwG+/6wxQJFKpFBMV9EPldAIV9ES2cMz33rFB57YRzBsHpdH2vr0nvAXrN+Pc6dplZsLlPA1M0lTN9aQktHFKMnu/mrB7dfLghgOzYiTUH0j7Xj3PMH2UYHRzrQ1BpCLlNAPltAMMI2SvjS75/D5//T0xgcb0cgZMOyrbL510NbVcO6vb1ycdWylFIUi5T1zRqVa9sWVhdSuHd1AZmNHO/4fNQKlgJz91bw0NMHYFnWrtTXsixEmkK4e2UBKf5mNjEGiTiQY4sJJVbjvGT2WZ+txDryG4X00nR3WTz2xPMGiL7Uy9MS3WhDesWUmHEGy8s09I045ud4AdL4615sNayehPK6EQFo9ZITBj3LOmCdgI2hI5149psncPjhftUElJZ4Ue77iF7LcF6M29uqho21hDByvAs335/F7UtzOHJjCcNHO2tWbigSwPHHB3HiiSHQIsXKfArpjRz6DrSW5LUX9a0HtlyaWrCZjTzm768i3hFBOBpEKOzAeFXqDstt64mhvS+O1cUNNiR0I8n7/8SleVx/bwZHHu4HsXanvgdOdGH4SAeWZhPIZYuazgLTI9D0mHztICkrs8/6bDnWEqz+qQdCTXPM7QKLozJ7w2gzY65Lp2YJ8o8K4y4Rdkx1oyGeXFZHlFbHqnUDJTsVf5Sq7yix5fvOWhZBvD2CM8+O4mv/3WM4/HB/iVLx8qLKHZe7J1bu+07ZaDyEwUMdcEI2Zm6v4M7leRTyxd0pl4C/QKNl+2yN6rtfrNvw6J6ezlfLhqMB9B1sw5U3J/HuK7cwe3cF2XS+6nK7BpsxMNYGy4JUVpRSOTAIgFy2gJf/+CKW55O7Wt/Tnx1BvC1i6DpCxbjVxzLlOoaWldlnfbYcqz2EBe+gxW+m2Jl15B2fepx3Z03YDEEZZjZTIITPGDSzTolQQtWxXoOSycrjqFo2kJ/a4Nwv1glY6D/Yhs+9dBzPfPM4Uw68rd3Lb14zfa94L1Zdysp5bpfNpvOYmVjG4nQCoaiDgbF2xJpDu17up4n1Gp/lxmC1rG1b6B1pxdKDJC68fAsb61kEQw4CIQdOwN5RuYGgjZWFFO5fW0A2U5ATTzF2KR8j6VQOxQLzVG1HbSpRy/rGOyKY+PABlh6s8+V2NcET49VkwWfOHjL7rM+WYe3z41/7NjwG9/YDtyay5PI2XZyn2qyBcKNJxbPcyqdXAD9mA2mHLJThlsqOEOlVE4B577qo2uDcDzYaD+LoowN47jdP4sSTQ7Cd0t/7es3o3Ubf/elm9etfa5YWKean1jB1nb1zt3uoBd1DzSWKr55kbjTWPYYrjedasLZjoWuwGZF4CG//4w1ce3cauUwewbCDUCRgGMetllssUszcXsbKXNJTcQFsa8aV+RRau2PoGW4pybMW9bUdC5l0HhMfz6GQ4w/4aatuxoofAVspJCgrs8/6rBdrnz/89W+LA8qzEh6YsGCUAupnSpDZS4MC85y4H2yaBJissNeEi0wIhIEkhC9XEyKPVdWIXKbdCQvRBrJ1iPQ+CW8lyfM89ArvNdvWE8NjL4zjmd88iZ6R0jcBub8bRs/DKLs/3d55JYNeDesELCSW0rjx/gxSiSyaWsMYGG9HKBLY1XI/jaw7TjfetWYti2092TkQx8zEMt7/yQRm76ygSAEnaCEcYT+V22q50aYQFqYSmLq1jEKBSq0i0/EJdjaTx/LsOvrG2tDSGd2V+jZ3RHH5zUkkVzPaxF7TN9pYZU/CUjmOvWT2WZ91s3wJmhlQIv8VGYqOqcyX3m3dpk0/FgZWxLtZJTmbHYBSw2AzQ8s9Qyl0DVgtD8ITsEYS3jOk8StZFdhjtv9gG57+xnE8/qVDiMbVrkaVvCK3snYbZfG9nEe1W6xlW0itZeTTpflcAYOHOtDe27Sr5X7aWD3ofcWdppas7Vho6Yqia7AF6WQOEx/P4eYHM1iaYcu38bYwgmHH4MqV6wRs5HMFTN9axvpqWg0brkvYPxSgBOlkDun1LAbG2xFp8t4tqZr6hiIBzE+uYermEndalM5hh9r1oXyyIJWsh8w+67Mu1rUdYeUgvdYthkppCVEC6S+YVH8wvsuZhPyZzs5YeW9aDij9WA1ONWNWxlsat11mnYCNQ2d78fQ3juPkU8OwHfXTGbdS3qpBdiscN+t1vtZsPl/A7N0VzN9PYGM9i46+OPoPthmvf6w3mRuRrWRodoslhKC5PYLeA62gAObureH+9UXM3F5GYjkNy7bQ0hk1vOFy5cZaQlicXsPc/VUUxcN6JeUCxXwRiZUMCIDeA61yNaWW9Q0EbXz483vGFpli5QqEcEUqvhP5PvdyMvusz+qsff7Q17/tpbi1VWV5XK5ve90/JpUACENCuJ0kAuJFivzUzMEUqgqWV57wf8w0yigKIy/ypcCesE7AxkNPH8DT3ziOAye6DeMr0rmNbiUlrRtudz7uuHL3xWrFOgEbC1MJTHz8QMxBMHykE02t4V0t99PEeo1Fr7jdYqPxELoHWxAMOVicWcfygySmby3hwd1VJFfTaGoNo6klXLHcQMgBAcHkjSUk1zLKoxDjCnxcEYJcOo/VhQ1EYkF0DbXACdg1rW+0OYQPf3YXyUTWKJcNdABUTbIhWEIqyuyzPitY+/yhl74trTfU0jGIZu60TqnbZfldE0DG60oDKohYJgs3SlTZUmomAOFepJG+SlbKQlmDseryOhACkNLXiOjfd4uNNgdx5pkDOP+1o+g70ArbsSp6tTI/QjzP62w53kuZizS1Zm3HwupiCncuzyGXKSCVyGLkWBe6Bps9XwdZDzI3EutlrMX5SudqzYYiDns4qymIpZl1JNcyWF3cwMwt9qpJJ2ijvbcJtlNqLEXe8bYw1lfTmLu3ilymoMYvtLHEJ7uZVA6J5Q20dsXQ0Rc3vOxq6+sEbKzMJXHvykJJuUK/QMgllKuRxltmn/VZAsB+avxr32adTQx2yKDsGSmJM85T09skUJMDKYCLBYSBIEKiEqOlf1IQeaCMy/ZZcYKR+sSCD0AQaRz1SlC6u2ysOYTHv3QYT3z5MDr64rBd73jW6+2etW+muN3p3efK3WvcDXZjPYupG0tYW9xAPldAIOhg6HCH3CWpHmVuFNarH+h9plLfqDUbDDvo6I+jvbcJc/fWkFpLI5ctYGk2idk7y1iZT6L3QCvC0aBnuXbAQmtXDHevzGNtMaWNdzasKFXjHgBSiSxW5pNo6YyirSdW8qasauprORbefeW2Z7kyPTuQKkm7imVl9lmflU9Bewbd3dUyLAmEKGurwZ5pVWZylkAIgbo3yiukm21ZKWHosHNWOzYGmpwtKAMqfhZEtCruBhuNh/D4lw7h8S8dRqwljOmbS3j/1Qmk1jJyRu9Wxl6K2Fip0JSK2eymIvfKp9xxLVjLsjBzZwUzd1YAAOuraYw91IPWrlhZY7TfMjcSWyndXrNOwEJ7LzPCyw+SSCxvAJQZy7l7q5i+tYxocwid/XHPPJ2QjYuv3cXyXBKQ4x3ylg60iX+xSLG+nEZ6PYfekVb5O/la1DfWEsbr37uGfKFYUi4b+6ai1PVPJZl91mdL97HTg3d/LQ0uQ701mD2prK+TMw8SUGvJ7pzUt52yym8mhoQiTkUQY8IiJuC1Zjt6m3D+149i8FAHLr9+H5ffmsTC9Dpsh+B3/qfPyY0Xyt0L9DK+TASzHbwMspeH5RVqycY7Iujsi8OxLeQLRSRX0rh7eR79Y+2IuPYKrheZG4l1f99K2E02EGQPFLb1xPB3/+pt3LsyjyIFMht53Lw4i7WlDazMJ3Hu+VEEgqY6WlvcYO+FhtRtahxxb0P3Lgr5Im58MAPbsfCF3zmN7qEWeIXt1jcUdtA1FMfUzWXPco0pPj8nctxMZp/9dLPqTVgoY0f1c6LTGt4mtJ1+IOMIZBKzUH7EJgiaASWqIvI7/xOZEqLy3Skr5FSsruxK619qaGvHNrezDecTSxv45fev4crbU5ifZE8IP/KFMRz7zCAC2hPCuvdbztP1Uiju+1vuvNwel1tB1ZK1LAsr8ylM3lhEOpkDKJBcy+DYY4PypyT1JnMjsSJ49RUR9pq1bAux5hBGT/fg3pV5JBY32Ltwi0BqLY3p28vIbOTRPdxi/Fxp4qMHuPLWJDaSOZU/xBxbH/9S46BYoFicTSCfLaB/rA3haLAm9Z27v4p71xbLlku0PL30QCWZffbTy8pX1VDhOpcJBFrnRfl7ruI7lbvKuw0R9w6pMtig7D3N4g8Qx1Q71t6XXA3LhaEay79KVp4Xx3wGUWs2mcjgw1/cw3s/mcDCVALpZA7FIkV7Twznnj+IUER5BLonBP1aVFAsblZ8d+dVzuvaLba9twmtnVHZNg/urmD6NnvxQr3K3Cism/EK+8ESi6Cjtwm/8z8/je5hvu0gKIpFYHUhhV989yp+/OcfY301I5m1xQ3ksgU5fvVxpMaXGncErEvls0Vc+NEtvP1D9orMWtS3f6x903IpBYjUCduT2Wc/nawlIvQOaL7WQmSsz8RpybmtBJOlIJSzRK2lg3CDRoTSEdUAiOR3zhrDjBAQ7UUYVIkGaR2I/FZztpAtIp3MoZAvSmNtWwTnXzqG9t6YR9vt7DsrslTBbPW61Zrt6I+jracJhLdPkQIf/fwuMqncpux+ydwIrNf1r9Qn9polhKClI4rf/9+fx/DhDv6qSnYum87jnR/exCt/+iFWFthDVwvTCaRTfGtCqsaR2n+cauNcG4AEKBQoXvkPH+K1v7nMfsqkybOT+kbjwS2VSwmkXtquzD776WPFo7aAsiXQ71JS8J/VEMKNGwEFkR4lt3aG0ZbbEbridFZYTEPpiAoRwiqkGTeip6+Cle0kMSKqoBqOsDagMk/I+u42e+TRfhw5189+C8kBr2VlLw9JpHUvuYk//diLkbK50taajbeG0dYTYy/g4O109Z0pJFfTBldPMjcCKwyLfs4dVw9sc3sE/+x/exZnnx1FIOTI8ZHPFXHh5Vt47a8vYXE6gcXZBPsJEgBo44g968HHGY9jG6KLkwC4DD/9y0v48X/4CGuLG1XJjG2WW43MPvvpYf3tCKE1ItWWqqGMp2ybXWbjbRE89uI42nrUE8F6cCtlPU7Eu5cq3en1Yz2/7S5vVst29McRbwuzdqIUuXQBF1+7i0K+WLcy1zvr9tqEQXH3i3pgo/EQXvzdMzjzzAGEwg4fFxSFfBFv//AmvvuH72Du7irLmw8UMY62u/XbL79/DX/z/7yJ1YWUNgx3UN9tlluNzD776WC1vbzgHbT4zRS7NC7c+ngZETevGykivUICMU0Q3iyFUELVsV4DSzQGk5tyTjQU5VWju8raNsGp88PoH2uXLxLQZ+vuoCtmfRYvPt0zfa90XnF6/rvJtnXHEGsJK5YwLziTytetzPXOevWTcmOwHth4ewSf/61TeOjpEfk7cAAo5Aq48f4slh6s88z4hFYfC0SNObNc9o/erwgBrl2Yxvf/8ALuX1uQe1FvR+Y83xFpu+VWI7PPfvJZSzcS1QUKaR15IRUDl5NQUTaXA8J48O+EGt4t5VZrx6xMrQyVcEcpZR6+emBKtYmc7e8S2z3UghNPDKK5PWIoX7fHoZ8TeZVT3G6j7/50s8bl2WW2c6AZze0RQYBSiskbi5i6tVS3Mtc7W26y5hXqhW3piuKZ3ziBk08OIRC0+Xjlq2Wa4tLLUOOcGitvm7FX3p7Ed//gHVx5awrJtcy2ZJ67t7rjcquR2Wc/2awljCYhYu1amgmViTBoRqxmUEBBQYxjbltK/vQ8mUDg/xD+P18C4jKJYxYICF9X3ykrvE5upsRURLYBdJ4QozF3iw2EHJx8aggD4+0lRlcaa5iTJLeHJMv0YPU89KCz7nx3m423hdHaze4DE34dCSH46Od361bmemfdBsWdrl7Zjr44nvjKYYyf6UUg6MiHVZQq0/o1ZccyjpjjrRJLi8DMxDL+/t9dwBs/uIbp28soFr3l0+OyG3lcfWdqx+VWI7PPfrJZR+WgTsL4hFSQ7qCZNle8ZiQrBNbB2dIwKDUMNMtDGXKVrkpWk0nYQNZIVOZNwBqxRLnsEts12IyRo11yGU5n9TzKeUVu5ezFutN6sfrxXrA9wy1oagljZZ696YiCLUOnElnEmkN1KXO9s+507n5Yr2z/aBue+eYJgBDc/GAW+Uy+ZLIv1RBVA5lCHPO8jXFfylJKsTq/gdf++jLuX1/EQ58bwcixLrR1xwCrdLxlNnL44NU7uH9tUc9p2+VWI7PPfnJZfztC6MdKSSjlQGQ9pFKpIWtZFk4+OYTTT48gGHY2Naru87qyq8S6lbib9Tq/22wmxfaOXV/JgE8ckU3n0XewDX0HWutS5kZg9WMvpi5Zi72Ypq07hpX5JFbmU6AFCoCnLWHBFRvTBWzeK76TTbeNK+aLWJpZx+T1RSzNJpFcy6BYoLBsC07ARnI1jdmJFbz/6gR++f1rSCezNSnXZ31WZx3AW3G7vUVUML5ey1CkJINSBsIwgsjyxBPOUvEAoIR51GKWIYzuTlghEiFgSwLGDF4ZSULUkrpoDtEAtWTjrWEMjLWjiT+QVE4Ju7/rRtfL4yiXXo93x5XzWnaL7RyIIxrnni4hcob34c/u4OwzB+pS5npnvfrBVvvGfrOWbWH4aCee/LUj2EhkMXljCZRqHgVXZEKzUNFnAMjX8elpuRYqx9IixcpCChd/dgc3L86isz+Ols4YovEgNtbZ5g7Tt5eR3cjXtFyf9Vlx7ABiQFB3OpWpNpB0s6pccFIarysNqCBijXGpJRC/p5JGi4oyYAq1U1aXhbIGY9UVhp2dUOv1pty1Ztt6mtA5UPoy+q0uM8s8N2E3473y2G22qS2CeEcEtmOhkFfnJq8vYnUxhZaOaN3JXM+sl7EW5yudqyeWWAQHT/Yg/xtF/OTPPsLMxDJoEZ5tIVezADnIdH1UkqYMS4vA+nIa68tpAPMu1si+puX6rM9a+nIpTyeDMpakJM44T6nhDTKjbaYjLhYQT4MBFFQ+PaznyV1XQKYTNnTnrJxRg7FE+y4aRxpQrRIiy1qzsZYQmlrDRsvoSkn3FtznvIIXu1lgbWnOTvaCtSyC7sFmhKMBAFRe041kDtcuTNelzPXMehlw3cjpfD2zwbCDww/34fEvHUZzRxR635DOBaWGQpHjQ35XOsBnfbZeWauiAqCuQ5cCkIEQ03J7wSV5M1PFUMJlo5rdYiabgsDYY5dXYqcsIaKNXMpBGDpxnlK2TOWqYq3ZaHMITW3KABurDTyN7h25FZrZpN6sO81Ww16wnQPNCEUDENeMELarzZU3J+tW5npmK8VXMn71xgaCNk6dH8ZjL4whGg8BcrxDW+HStB/RVqEAsNUvNfX3WZ+tR1a9iMMrVLDNRvDUF5vBTDhd17Ab1qUsMb6RqliBUM90Wpww3CI9xa6wwbCDUDjA03nf3xPn9OA2sJVYd3q3h7yZF7abbEdfE0KRgOrIFKBFitk7K/JFDPUmcz2z7u9bCfXKRpqCeOIrR/DQ0yMIhmw5jggDmIKTE1I+KRcwYc+IGP3KZ322zljDAFcaPhSasud2XRoVotKIOOJi1Xc+JyBC0UjZIGyo/M7/AO24SpbwCYo8ZRgtt/k2j3eDFfLqcZUUmb7Ep6etxLoVnVwacX2WS7+bbO+BNuMtSOwEkE7lMPHhg7qUuZ5ZrzSVPOx6Z6PxEJ755gkMHemAZQHqF3/ENZb0FSc+tlx5+6zP1hvrb0dIZTaSlefFMWWV2A12bXEDq/Mpno+34tLjNjO8my0BlvOuynnPu83ajoXO/iY4AUtOzChhP0e6/v5sXcpcz6yb8QqNxrZ0RPGrv38O8baIHEdqfKmxRKD0Qz1tOeezPluO9bcj3MftCEGBjfUskmtqD9RKXtFOv7MiSxXbVq/bbrNdgy0IhByAqrYq5IqYvr2E1YVUXcpcj6zX9d+K11nvLCEEg4c68JX/6hHYNmm4Led81mfLsf52hNxQEt1oE9YGVOYJWd9asytzSSzNqnudTGY14RHHm3kMlVj3kqaX91xOEe4F2zkQRyBkA1pbUcJeATh1c6kuZa5HVhg0/Zw7rpHZU+eH8diL4yC2UGCaHqrjLed81mfLsf52hNAakWpL1VDGU7bNLrBriyksziRQKKht+NzLjbKeLqWsx1Viyx3r+W13ebOWbEd/3PCAQdkELpPKYermUkV2v2SuR1bvCyJeGDSdb2T2ud86hYHxNj5+9DFF+VinUtFRSuWA1PuVz/psvbD+doRQjcHkpnu6HWE2U8DMxErJfWC3l+AOumLWGS9W/9yM1fPfK7a5PQLHYfuC6PXNZvKYmVhGsUDrTuZ6ZL36Sbkx2KhsU3MIX/ydhxBrC8sxZ7LsH9lWBCX9SuoJn/XZfWb97QipnLqwxgS0B6ZUm8gZ+y6w968tYOrmUsnOLF5ej35OpC2nuN1G3/3pZo3Ls4dsNB5CrCUEQvS2Ypuzr86nsDKXrDuZ65EtN1nzCo3KWraFkaNd+MyL47ADlrHyxsY6X2nTlJ5ehtIR1Gd9dt9ZfztCbcZCmAVQPCFGY+4WuzKfxNStJe2F79oFFMYa5iTJ7SHJMj1YPQ896Kw7371muwabYQds2Vbium6sZzEzsVyXMtcb6zZk7nSfFDYYcXDmmQMYOdopvQ4x3upxyzmf9dlyrKXlILJgUZrxIMK4GbHQUprnCLiRROmfHtiA4sbUQxFRSmW8kKNqVsuDcIvIGknjqSrDs8I1Zgv5IiY+eoD5yTXJ6p6C+7s476XEvFj9vO55eCnA/WLj7RFYFtHaijXkxnpGGuB6k7keWXc6wevMJ4Ft647h0RfGEY0HzckLpaV6RmZuHDGnwGd9dh9Zi331HgzuQOnmabYaCGH/MPspfGb1J6YEQnRus0AJrYpVjSJm1rprqgyAMuR6/XePnbq1jImP5pBOZkvaSveM3F6SUFhe5/Q4L4Wns17n95Jtag3DspXhYYoWyGzkMT+VQCFfLMs2Yn13k/UyXl6hkdlAyMGB410YP9vH/mG5zwAAIABJREFUlIlACAElRD6LoZ/S+xUoVT8d8Vmf3SfWApQnZQS3LqfcaHoEL8VPSjLwYCjYPVORsRSMG1mxsE14bpQB1bAivW7E9UoSQnhdidGIFNhVNp8t4NIb97EwlShRQF6KSveCvbwGN1vOcOvpvdLsFRuOBtk53kiCKhYpEssbWF1I1Z3M9chWmoS5w36yxUIRy3NJTN5YxLUL07jx/gwmbyxidSGFXLawpXLj7RGcPj+M9p4YtLchsLHOx5n0RgCjX7F3tfOJsM/67D6x/naERCyfi4ZjJ8xb6XAZzN1hpyeWcfnNSbT1xBBtDkkFzKpjKuFKRlo3yuLcZrxXHnvJtnRGYNnuiQkLG4ksFmcSaO9tqiuZ640tZ6w3O7eXbDaTx7V3pnDn0jwWZxJIp3LIpHIgFtsFKdIURLwtgoHxdhw81YP23ibYjuVZru1YGD7WhWOPDeL1v7/GzrEEaqhTeLajEa9/+KzP7iHrqAHCIvQ8lbEkJXHGeTFb5emY0VZ5eSlVQBgIIiSSi8iU56kLTJWLy4zWDllhwFlaZSoloRlHvRJyQr6LbD5XxAev3cHhh/swfKwLhCgl5vZ0ywX9vG6EK4VyS4J7yQZCDudEHup8ci2D+ck1HDrbV1cy1xtbzoB79Z39YFfmk3j5jy/i3tUFrCykkMvk5djV01sOwbUL03j/JxM4+dQQTn9uBPG2iGe5TS0hHDzdjctv3sfKfIqNJuFtiKHFZuSc4W3pIbPP+uxes/52hK7Jw15vR+hmlx+s491XbiO5mvb0jiopbLfyE+ndabYa9oMVbUX5ASEEG+sZLM0mdrXcTwpbKd4dt9dsNB7C4Yf7EG0OIZctCK2lZqiErQYV8hQr80lMXJrDT//qMv78/3gdV9+ZQqFQLMnfsi30jbbhwMluUF3nUEBNy0lJv/Iq12d9dq9ZfztCI50WJwy3SE+xJyylwIc/v4vbHz2QDx6xeLOR3QbW7RmXU+puY+6V1h32khVtJSYyAJDPFpFczSCXLdSlzPXEur9vJewVGww7OPHkML723z5mrBJV2r4tsZLGxMcP8N0/eAcvf+eiZ1mtXTEcPNmNWDxksPWy5ZzP+mw51t+O0DBabvNtHu8Vm9nI4+d/ewUb695PROsK2ssQezH6d3Hs/iyXfq9YEfTtvVg6IJXIIrG8UXcy1xvrlaaSh73XbCBo486lOXl9zfGgrxrxiQfY9V9dSOH171/Dy9+5WFKuZRP0jbahd7SthNVDI25X57OfbNbfjpDKbCQrz4tjyiqxl+zUzSX84u+uIp8tsHZzeULlDO9my4flvKty3vNesdO3lpDPFYy20qduqbUMVudTdSVzPbJuxivsJ7s6n8KP/+xjHiPGiOr/BGqMu7dvy2YK+MV3r+JHf/JhSb6dA83oHWkty7r71XbK9Vmf3S3W345wn7cjLMcWKfDTv76M2x/PGR6Rasetf2dFlirFrd+X3X22kC8CVLWV2t6LfeSyBWQ2cnUlc72xXtd/Kx7rXrIXXrmF9dX0jrdvy6bzeOMH1/Huj26DFlW+4VgAg4fa0dYVLcua/Wp75fqsz+4G629HyA0l0Y02YW1AZZ6Q9d1r9vv/5h0sa+9CFsHLQ2L1VZMl/VhXjF7eczklulfs3OQa8vmibCvxkzLwWeX6ShqLM4m6krneWGEM9XPuuP1mL/7sjnF9ia5Ltrj120Yyizd+cB2Ls+tGGd1DLejoi1dkG227Op/9ZLP+doTQGpFqS9VQxlO2zT6wC1MJ/PCPPsDGerZEKQN6fYUhd01MXOn1Yz2/7S5v1ppdnUuhWCjKthLbewkjzDzgfF3JXG+s20sVRtDdL/aTTa5mjOsrxzEbnMpz0Iy4GBhyHBWBhZkELrx8U25gAgBtvU1o7Y7JibgX22jb1fnsJ5v1tyOEagwmN93T7Qi3wl5+8z7e/qeb7KcbsqlVW+ueh/h0eyde6bzi9Pz3is1s5LA4m5DbDso20poqncwiuZquG5mrZfO5AtLJLFYXUlieS2LpwTpW+OfyXBLLc0kkljfYW6GKWyvXa7yVG4P7xXb0xY3rK/q+ybJ/ZH0Jn5RqfSOTyuHGe7NYeZCUXKw5hPaeJgTDTkW2mnJ91mdryTqgVJ7czGBWDhTQ+c2y4nKKWQPhRlN4suKMchX5OSIU2g5ZvkRAoCk0PmFgi+3Q3qilGlLO9veBzeeK+OX3r6KtO4YTTw7Bti2VZwWl7y6fuK6zmzUuj2vCsJvszMQysum8mYZfS/7InmyHXLaAQNDed5m3yxbzFMm1DSRW0kiuZrC2mEJieQNLM+vIbORK8rRsC00tYbT3N6G9twkdvXG0dscQCNply60k42Yy7xU7cqwL964uaGNVjEnef0HZqhsB0xEgJX1asOuraUxcmkN7n3pDWudAHPH2CLLTuYpsNeX6rM/WinWgDSaBCKUnrCilAL/LzAsAT6mMoH6O3zXWzIgKktXttVgj5wZSFa/iKTes4tmlnbKAtHsCEhVUigUar1eC7h+bWNzAq3/xMaLNIYw/1Gt4H+7JUzlPzT3BKue1eSnT3WQf3F1FNp1X6eQkCuq6UmBjPYvUWgbNHZF9l3krbCFfxPpKGvNTa1icTmD2zgpmJpYxd28NG+sZNVFWY1fr1yICiLWEMHqiG09+9QiGj3TCdqwtyeyWz6sOe80ef3wQP//bK5D6Ql5mrf+KsUHk9MvVLuwguZrGnUvzOPvcKCyLldHeF0e8NYyF6URFtppyfdZna8U6KgeBCFBlwBKbg8xM6VJWIKaBLROoNEBMQH1YEz5TEPZUpauS1WQi3DgTEPazKW0Gwwy3a1VgH1lKgQf3VvHqn3+MaFMQ/WPtnt6uznoZZd1rcafRj/eKLRYo7l6ZRyaVU5dHdFhxHQlACXuBv9fbkOqtvvlcAQvTCUxeX8S9qwu4e2Uei9MJ5HJFMRsEn1lUrK+wzOsradx4fwaHzvVhcLwDTqC8zG753H2pUn33gh083IHOwTjfepO3LyDbhfDBoQ11mcbdVvlcESvzSaTWMmhqDYMQgtauKKLNIUMeL7aacn3WZ2vFOiVWqULYilHdaiCEzwSoMqZGWSyV5pWLiYbwrnfGMk+UcN0mLB8RCVhKohSLXmepVPaJLeQp7l9fxGt/cwXPfPMEekdaKnomOus2Hqz4yvfx9oJdml3H7J0V5HNFeRVN5c2VPlVH+y1zOZZSYHU+hUtv3MetD2cxeX0Ra0sbQmo+wSpfrru+oh/bDsHxx4cwerIbjrYEXU7mct+3Ut/dZgNBG0999Si+96/fERnxiaimogi/TcQ0WdkJJijFRjKL5bkk4m0RAOx1l6GIsyW2mnJ91mdrwTpi1s3SaYPGbdcqGN8Sjw3C/FUewADhK8hElieecJYKD+Cv9oKcZYgl752wQiQ1ATDnJcJIEmIuoVMB7TObSbPdZCJNATz9jRNo7Yp6ehzyOvA4L4/Ea+naS4nuJnv7wwdYX06rWSMhqsMabcC8ZbcHvB8ye6UpFiiuvDWJi6+x14iur2WgAjWvq6jnJvXljYKBsQ48+sUxdA40l4xBt8xe/WCrfWOv2BNPDOLtf7yBmYkV/msJ3jLyZepaG4mJtEdbUUKQSxfYk9U82I6FeHsEgbCNXKZQka2mXJ/12Vqw7GdIRK1JS7tApP1mxlKchwryewWjIY4pTJbLDQLIR7gJl9nMgy1ws/T69x2yugyUN5hMqU6IBhWx9cRupHL46Bf38eY/XMfqfIq3p9be0osu/T2pft4d3Gl2m11b2sCND2aQXMvIyYeor1Fn/sfuAZuv59xrmb3Y1FoGP/qTD/Hydy7io1/eQ3Ito9VDpZNxhGypvoLtHW1De38clkUqyuw1SSi3OrKfbKw5jMe/fJhHiHZQOki0kdQZ5dqKAoVCke2qpJUbb4sgFAlsylZTrs/6bC1YSw0QbhB0eyA+tUi3ogAAQqnh0RFohlwTUGcBArFsR0H1Z6lkntx1BWQ6YcR3zorvrB2oZNTvtwAqVJ9WCZFlvbDJ1TQu/OgW3viH61iZT2rplTL08j68gq5QRdgL9sZ705i6wV9BCaquqWgSnjfl3/O5gvwp1n7J7GZX5pP4/r+5gDd+cA1z99dKZDaurzjH++Zm9RXs4nQC60sbm8rs5aHrBlLn95O1bIJDZ/sweKjdUApy4ii/q3Hs1VYgQHYjhwRvG1FuvC2MYNjZlK2mXJ/12Vqw/naEAuLyy1UDSrEf2xFuh11fzeCdl2/hzX+4gdWFlFRCLBvKefO6lL2GHmE32cWZBK68NYXVRfF+Z/Yn6ktZJvz6MjbWEka8LbxvMrvDynwSP/i37+Lj1++xl4R4yKxfX7Oczesr2Mkbi7j4sztILG1sKnOl+EqGc6/Z5vYIPvu14wgGbaO+xuOUFNB9DHdbgVIUChS5TMEoIxBy2JPim7DVlOuzPlsL1t+O0EhnaEkjBaWoSza5msGb//EGXv6Ti1icWdey8TYmwkvQ02zm/dWaLeSL+OC1O7j54azcclF2ZF5fIiqvsU7Akg8h7bXM7s9sJo9X/vRDXHt3GvlcsazMxvXVyt1KfQWbSedx4eVbuPTGfWRSpb8Z1mV2f99K2A/WdiwcONGFE08Mopqt37xCJBaEE7A3ZRthuzqf/WSz/naEbqXoqrd+XK9sOpnFxdfu4od/9D5mJpaN1/MBpUpSLo24PsulrzV7/d0ZfPizu0iv5/TuadZXawV9EuKV917I7P782V9fxuU3J9mDPrSyzPr13W59BZtK5vDz717F1O0lFIu0rMxe9ark2e8XCwDx9gg+86XD6BoQb8fSV37E9MMMXlu/ufOPtYYQDNtbYqsp12d9tlrW346QymwkK8+LY8oqUc9sPlvA5Tcn8Rf/5+slRtg02N5enTvNbrG3Ls7i1b/4GHP3Vpn8om5UTcz07b3g8XWvZXazUzeXcOnNSaQS2U1lNq7vNuvrZpdm1nH5jUlsJDJlZXbL6hXqhSUEGDrcgc//9mlE4kEWDzXGt7T1W7nyhbNQidXG0rbL9VmfrQHrb0dYp9sR7oQtFIuYvbOCP/pfXsXlNyeR5U+HMqxUKW71utWCLRYpZiaW8cY/3MC9awsoFtn8UPYIwios6uvejpAQoLUzhrbu2J7J7MUWixTv/fg2FqfW5OUqK7OYTsnBuI36lmHf/+kEEsvpkrqosWnKuxWPdT9Z27Fw9NEBPP+tk4jEAoKQik2Mce+22kK5FVilI+i2y/VZn60FK3+GpE8nibTbIhPzqUZpEiiMcyJQSgFaGmewzEoaLOUVIYTIZVeZHxEqiVTJCgUn5OQsUQ3HawyxKkBEwzUIu76Sxl/+X7/EL/7uKlLaLkqiPdxLhF5LsuUU2nZZStnTy3cuzeF7f/gOPv7lXUNmAOwpen4V1fXkcXy2GIo6iLaE9kTmSuzsnWXcv77IXp25icxe12ir9S3HJpfTWJxWG1foMuv1071Br/P1xIajATz8hTE8+82TaGoNw+L6iPD8yrWVlzdOCHvKmk3aNmeFrmIH2yvXZ322WtbhqSGDsNC6oeTxbs+AFcqtuWagCRE/TC4dmDBzFZpGKT7D0EMaUDnD0HXnDljKOUK09LIJVANJw021CUgDsZmNAl7+zkUsza7j2W+eQEtnFE7QltfJywixJqy8PLsdFuC71rw/i9f++hLuX1+UF06mkzKD15dfI/1aUvbb0dauaImBrLXMm7ETH89jZS65JZlF9XZS30rs1O0ljJ/tRcgJGDKX9P0ywau++82GowE89uIYQhEHb//TTSzNrsOyLVg2KcmHFoFsOod8tgDw66OX29IZRTga4PkDXu1sysPGmlAu4pcTPuuzu806lBsnAmjKgWpGlAehNPirIGVBlPKMxRI1MxT6W6mUw6xYwxGWRl+IQFQSUppehh2wLD1vAG7kRBsRPb3YB1lXGg3IvvvKLUzfXsaz3zyB0ZPdiGle5HaD10SqbNoixdKDdVx9Zxqv/dUlrC6mhJDqGqm+Kaqn1ZcY9Yi3R9A10Lxt2bcj82ZsIV/E7MSyfPPSZjJXU99KbHIlg2Kh1NDpXuB2Qz2wkaYQHv3iOHpH23Drg1mEYwGEY8ESJp8vYvrWEhanE8hs5OAEbKPsQNCBZVtsfAAV25nIhnX1E5/12T1gHe05LZaBpnSM4STjXYNMGm/C7QIzEFQIYeRXOkDlzNVVB92rFVad8HRwp9kWS4w0YgYjJRPpiVLAyv41HksBTN9awt//2wt4+PmDeOjpA+gciMMJqHcKVzJSumfhlcaLzWXyuHt1AW//401cfus++50moATSZHZlBtEPqTxmW/O1dkXR3hffNZm3wqYSGSTXuPEjEvCUuZr6bsYWC0VPmXdiAOuNtQMWDhzvwoHjXZuwY8hlCnhwdxV2YJPyPdrZHFfa2BGTW5/12T1g5XaEMngNJlom3uAqny7JUhhN8MdL+INFTCxlsJkhIfwcr3AVLKGU/xZLWzKgYL45hbZMQCHuqYKnZecbkAWwupDCL753FZM3l3D22VEcON7F3iPt8XpDUc5Wlhvd7Nz9Vdx4bxZv/MM1LEwlZN+gILLTGTITSMPDKyGfFhRxTS0hDB/tRIzvcuNVbjUyb5VdX0kjncptSeZq6rsZm0pk5U+RKk0kKtX/k8AGww6GjnR4pneCNojNdtAq185CCcksubKU+k7OYn3WZ3eHNbYjLBu2Y1y3YtB5oELJcKFEPcRStbixzU0OT8eOd8pCKDMIg8arR7SfivD0xoAnwrA3HiuUeTadx433pjFzexlHHunHkUf6MXy0E80dUTahIcoY659ur9DtvdD/n703D5LsuO/8vvnqvrqq+u6e6ZnpHswMBpgBMMAQN0gcpEgRJCXKtGRZVtAbK1tyhO2ItcPh2AhvxDrWfzlkh8MRa2sdVliWYrUmtSthKQm7ECkQJEFgCIAABoO5j56e6Zm+z7qvl/4jj5f56r2q6q6+Xs9LEtP1MvOTd/5+v8x3JKVYnS/gzpVFfPbuHVz+xbSyRcr6hxAKcUKIKLP24XJhOInhwstsGAQjE1mcfPqgY77dlHmjbGGtwj6E0abM3dS3I1Z2r3OZ7b+dDIv9zqYyUYTCBiol0e8yAkQDqsaQkA8EsAwetz7yWZ/dItY/jtAqDKSaI9akVussBYMXWYi4QH6ljI/fnsTkxXlMnB7C4ZP9GD81hOxQAoGA9W0Wu5LS+48JweJ6BZMX53Hlg3u49vEM/y6vc776Byeo9uqN1n8K29MXwxMvH0HvcFL6typXJ2XeLNtomDBN5xXcVtW3EzaZjsIwiGuZ3X53Ut/9wsZSYQSCARDSaGL5BZMjREoHgPBbZxQAnHdKfNZnt5L1jyNUrGfZOFxJ6yGQDeA1Vu0JobNpw8TS/RxW5gq4/vEMDjx0D6MTWRw83ofBQ2lkBxIgNiEvnGlSrC8WMH19CbcuzOPGp7NYmsmh0aCW9nfJF8oglGUVjI2NJcI4++UJPPLMQV7/5m3ITraOt4oNR4IIBg1eBecyd1PfTtlkJiqfDraX2Wkuum377mc2lY0hFA6gyDya2tkrx9X57P5mg4BN8Qpn93KIIhWfAy8PQXB1XIBQsaYjltKn6gQDtyqY8umWlfv1hIVJwccbjsqflvUi6irr4zFWvABOYCkTwZomxdpiEWuLRdw8P4vscBLpvjgS6QgGx9KIxILo6YsDABo1E/m1Mlbm8pifXsfyTA4r80X2OgjAB1Vn+aoKBzLMYgNhAyfOjuDprx1DJB5qKZCdFKv991aw8Z4IwrGQbHt7mbup70bY3uHmnQq1Tk71dGuL/cqOTmQRS4XZ0/cO7SyEIQEF+2ofa2t7vj7rs9vJBsWgdRNwrZz2WpHNdZQS4YpRK5RY0YmJJ37yEouUN8lSAmXrWq+NfQXJvFmjEsJT8CRLIT4QTlqwlVIdM5OrmJlcBQEQ7wkjGAwgwt+pNBsmqpUGyoWqPOxc62c+fjaar501DIKTTx/Aa799Gun+uFKt1qsip2u3Ve1m2FQ2hlgyrEbekvpuhI0mQhg4mEYgaChJdTZvO6n/fmGHDmcwOtGLpfs51GpmUzszAQlQqkhRKBLG+sdnfXbbWKmAhacqqKz1Jd/25dpLPuSkWPJE4VniyrWiO5tYpTB6QZsFoarsN82KSM26TCpxSzjahLNXWQAEVGsXJ5b5W9fFtSqLuAzAqX9bsN3k+8KvncCzrx9Hn/LakVq3VlvJnW5dboaNJkLoHUogHAmgWmlsWX03wh481odUb8z19kA710l99wMbjgbxxe+cxMzkCmanVpksVNuZvyIiBKL8ZgFEHGUXAj7rs9vDSjNaxNEiUyIVFwFLWL0W8VXFSEjzAxKM1dMSBSM2K18UkFKm/imY/AEF90d3LHEuJ0TDaEoeym/qWZatrJjCpA4s1fxhtdcOs6lMBN/5R8/i5d98tEn5CsWv3vuTKToYXNvBGgbB4Fga8bRyJvEOt9WpFw4hkY64ltlpC13MiXb13W/s0KEMXv+9J+X3w7V2hi4nWF/o+UL6U5/12W1ht+Y8YIjclEtKnePJpLlFK1eo9mTs/pYl0RVL9aIygawuPFzKTYhnWU1lc1BjtX7mrbvD7KPPjeF3/8mX8PgXjyDRE20aP622iu1uO9kjj7L3p3nojrbVsceHMf7oAELhgJpQk4FhL3uz4fZgsIZBMHF6CK/85in2XrDSzpRFZEa8YNkPZWI595HP+uxWsRu6B9wyjt27dVLghj2LRinUO1+E8HDuT4hY+W4BS8CsDwL+EBeRDPtLZEIEFJSKxvIwy2oOcMUN3h6SpcD4qQGsL5awMl+AKQRch6yqKIRR1Ck7eKgHL3/nUTz89AHEkmGZllipbkR5qnG2i+0bSeHwyQHMTK6iXKhuuL6bbat4Koynv/YQ+kabP8fpVuZO3H5nA0EDT315AvN31/CzN65wXy5AhOwQsoQHibnj2kc+67NbxAaBZsXKRTyg+lB14MuUtLB2TmepXNmx7WSrCpaCFb4ivrU9t1mWqSgRxK94C8rFD+UZ8BakdgvHYyyLTgQuB4hgCSiOPzmCp75yFB/93U2ce/M6Srkq6vUGYLZnpQFEiK5k7PmCCcRA0MDY8T689O2TOPr4EEIR5VEExbltCXeqSLeDJQbBU69N4Ob5WUxfX9Z3Ijpo51ZtBZ5+wGAn+hgGQSgSRO9QEs98/RiOnx1FMOS8aWVXSup2e7v7p/udDQQNfOM/ewpzU2u4/skMxKsiMp4QnMIAYrD7ePZZn90i1noNSZEkREDKXxbFNhmE0LCFyftWaDWRiLQQ5OSB0CGsgPInL5tIV8E3xYpiUEqtGhIrnCkvZTIr9fMiKw0qShUFobMAEI4E8dpvn8aLv/4wPn57Ep/8eBIrs3lUKw00ag3Ua6ZjvgDktilVDTIChMIBBEMGQuEAEukojj85gsdfPoKhQ+xJXs3w44k5CVLh7zaedpIdPJTGYy8dxvJcAcX1yobbWW0rYrC2CYXZ0+YDB3swdqIPw0cyGD6cRWYwjmAo0FGZnernFv4gst/5R8/iX/x3P8TyXF4KASkXCCC2mghLiIWriw/Rvz7rs1vE+scRCoXGA8SK2q64RZ08yartwttKZe0uEgvhudeP45lfPYbZ26u4dWEOc7dXMTu1hkqxinrNRKNuomE7FAAAQqEAjABBIBhAOBbE2DGmTMZO9GFgrEc7BEL2EXQlJ67V35TaHmLYZfa5bxzH3WtLuHRuGo262Xk7U4pgJIhoIoRYIozsUAKHHu7HoYf7MXq0F0n+gJeaJ5VptS6zk/Hg5B5UNpWJ4lv/xVl8/395D4X1ipKmutgA9tJxdT67v1n/OEJppSgNx60WLQ14mSWan4CtVQMcnWGwDxqMTmQBAI2GicJaBWuLReRWSijlqk1MdjCBaCKMnt4YklnraWEnI6xTtxfZUCSIX/ndx5FbKWHq0gJgtm7ncDSIRDqCRDqK4cMZjJ8axMRjQ8j0x+UrRd2WWV0F+myzMwIGxk8N4sVffxjv/MUlVMt1zlI0GaPWlGN5OMwjn/XZbln/OEKiJWnFJ5YgtPSfN1kq4ghGjA2VNQxHRayuLAIBAz29MfT0xrRwNwGosk5xvM4OHOzBr/6DM3jzjz/G1OXFpnYmAYJETxTZoQQOPNSHidODOHxyAKnemPyW81aWeTNK7EFjw9Egzn7lKObvrOP8z6ZATf7Qopg7wri1MoOQjaJ/9Tnpsz67edY/jhACZ1vVe/ZIwS5YtY8oiOx8lU30RBBQ7jXaBb7btp8a50FkD58cwOu/9xT+7s/O49aFOTTqFMFQAJnBBEYnsjj0cD8mHhvC4MEe7WGz7Siz6tx4nwWS2Rhe/I2HsTybx52ri5Zo48JSyjthxTrMIyHAfNZnu2H94wh5W6DDo/28yAqFC0rhdtRdIh3R3i9Vt/fsqzP7CkTkad8SfFDYQw/345v/+Vm8+8ZlzN1Zw+hEFuOnBnHk0UH09MV2vMz2304K/kFmAYqhsTSe/9YJrP9JESvzBSkfCGAZtMKYJzJxCGFIhaAVafqsz26C9Y8jtAoDqeaINanVOsvJ7UUWIq5sBslqFpzajjaBrzpV2TuFP2js4KEe/Mp3n8DC3TUMH8kgnopoae5kmd1++6zFhiJBHH1iGGdencB7P7iCSqkOEH7rjAKA864Dv2AyiEjJ4rM+uynWAJyf9ITtEi2UbxMLS/25ObEkpwRWwkTaENyLsnSIch+Tkq5YEZ9w1q66pcVCeFzRroBnWarFhvbiOCEElACNOjvrVnXqysvu77Qt+qCzqUwU46cGpfLdjTI7zUUnP58FkukIHv/iYUycHlJhNn/4vKGUNs0jSvitLymEfNZnN8cajHewru3K1kn5SgXfHEgd/JwSJJRCLNeZmSDKy5WD2DpVA7tgCbXKDSrXk1LJUZ48VdPmAZ7XaQP8AAAgAElEQVRlYYURnobKEgDryyXUKvUm4WXf3msl3Hx291m3VbRbug86238ghSdeOYKBgz1sfqhKWghN+zxiNJtLVoDP+uyGWflZHbcJ38opqqDJtVO/IpKmqIlVWKlqiRbYNSuMkub6UsfJLBQaId5lrQ8/uLPVUg1mozk91TgTv+2rMjWuz+4u28o5xXvQ2WAogGNnRnD6hUOIJsKKcQsuQEjTPCJc6orPiwrnsz67UVb5rp2ioSVEpZIVX+5Qr4WQUBWx3eoU4Wo8xgI8QZY7salYZZIQHsgmD7pjqayq7gRss5DVyepZFgCxK2sHll1Sx9+qs2/l+ezeY92czza7eCqCM6+O4/iTIwgEuBHEd8+EU+cRe99eyCIiZaGYXT7rs52y/nGEVkn5BLX81PlKKfUs28lRd9LXbrzYnIgrVmc+u7dYJ4WjGsU+68z2jSRx+oVD6BtJ6YpayA51HkGXMSyOnq/P+mwnrH8cISGg1DJAmipiRfQsq6lsDmpsi36296PTlp7P7g1WKGs702rL1meZMwIGTj5zACefPoBoPCRSZFPDNo+o8APlO4oEcmtRpumzPtue3dA94JZx7OO9jfKmXKkQfkG5pcDLJSMxfUGtynXLMiOFWyciDhSFRmRC4ihDAXuVlS1AxINpNpYSVMt1mA7fdravvlT/ds5nd5btJK7PurOhSBBnXh3H0OEM97F2n7R5xLcRKbU9V0GhvNLnsz7bnjWAZmuQ6ijzoepWGG0K68TpLAURy3Ki3NvligUE3JIFhIIhkt88q007rrCksrKKBtmYxFL2XmXZPWQicIihIY0WUCzP5lEp1+HkWm2RtnM+u3Os23Zsu7R81mJHxrN45uvHkBmIs/6gTvOIKvJFmYCEC2NpIfusz7Zm5WtIUAYkWyCrkp3YLEdiBSlhwlFKId/XVfw0lmlJjaW8IoQv6wUuCk0F1xUrlJAoJ2eJ1XC8xqzMPL7Ix4ssFYYHte5N2FlqUtnl6v0Kex9a5SFN4T67u6waV92OdQr3WXf29IuHMHaiH4GgASgLDDGPtD7RlkFsYUCIvEnmsz7bkjV4bEgnfxP9rzJQZVQpsR0GPnEe5MIRKxGmICnXmtJKgPKbWMq1S5ZqVSRypciSsNS0VNxUbPkSz7KyjRRDS2UBILdaRq3akP2nCiXZZzaBpgo1te99dndYJyVuV9w+254NR4J44dceRt9oCsQgTfNIz4Nqf6lMHwB81mdbs/5xhODlU1h2TfQ04GWWaH4CtoQSkF8po84VsJtzMqQ6dT67/ayTMvfZzbFHHhnAqefH8O4bBXZsocM8YiyFOpcA5sWnK4vnsz7rwhrssRwqKECZ/NrQpJTlofvCUt6CoSIfqaClwraz4NYn5MJM1kFapUocmXA3LCGslMKfQDc05ArDspIp9TYr24Fa29M6S5BXVsCqU1cHTsLKacXhs7vDbsb5rLt76rUJZIcS7EKZR1B49uqJ2IVryqxpDvqsz6qsIYS7dE4WIXXxV90GjVCpNC0zAhCTQw2j7K84eIF2yYJSa2UOBefxrW0CZjhQSrnCo55llQbj76vRJrZUrKFSrMnvQduFlNvWnVomS/n77G6wqrPzPrtxtnckicdePMzuBdvmkfgtu4XPN0opfyrW+uuzPuvG8teQ3AenTLRTZ1fULRS3UIqEEO1dV7FVzf5S/j8er1uWEB7O/OR8I1RpTB4G66Y54VsMXmR5ZBaHRdRYyhoU68slNGrWfWD1r9Wd1r0Ou7KwMz67O2wr5e2zG2OffG0cvcNJfR6BWIas4CkU+WLFa5qDPuuzCmsw1dWZhm1hRG7YEWIVSK7IlP+4qOH+zJcCoIR2xaqNwn5TK4JoB6Jazmr9vckSwp52ZsKFGSwqKx5SW7y3rm1D2wW+6oSCcAv32d1jWX87K5z9zlZKdawuFLAyl8fyXF7+rSoHjWwk3+xQEo8+N6bNI1BqvXYiZS8TvGxuUS3IZ33WjQ0CLhPcrpepouhtzm45AkINtptIhN86JjI/9eEtSpkKZRYFuGYhYk27KVbqKwK2VtasCl4PrpD0EMgG8Bqr9oTUu9RiBTM3tYpquS6P01NXXnahZfdzW3n47M6yTnPRyc+LbClXRX69jPWlEirFKlYXimjUTRRzFVT5O+zVUh3lUo29Vqe4eE8E2cEETpw9gJHxzIbyferLE3j3jSuo1RpSpkgrl2qSmM9VIneVmLS15qDP+qzKBgE0DTgAzbrTSZcKnebAsyejWzmuVCiVK1arFurkZIVl3qRrVn6NhLAwqZx4w1H5k0cUdaNKE3iMFS+AE1hCXWN58gv3cqhV9Aex7Ft0gHN/uykLn91Ztp3Cs8fZq2y1XMfaYhErc3ksTK9jebaA3EoJ5WINpVwFtUoDhfUKTNNEpVRHvdaAeP7Bnq+YBNFECHeuLOJX/8EZDI6lOy7zwMEejB3vw62L89bcAb/RJU5Kcc1Xn4M+67MqGxQDz81abeXE/VYn11FKhCtGrVBiRScmgPjJSyyXsJtjKYF8KMteG/sKknmzRiWEp+BJlsr7EqQFu7pQQKlQ1cZCJys1e7jTtc/uDNvKdZLWbrG1agMrs3nMTK5gZnIFC/dyyK+WUc5XUVivoJSvolE3tfEs9sLkBw/4H8tAtTwJAcrFGm58MotzQ9fwrd//wobK/NCZYUx+PmflSwDx8f12+TaV2Wd9lrNSAQtPzYKU60s+1Ln2kg85EbGaglTEdmtXhMvVsp1VCqMXtFkgqcp+06yI1KzLIJS44JsEnVdZAARUaxcntlEzMXt7FSPjWYTCgbYKoNX2qM/uLuvm9hJbrzVw/9YKbnwyi/u3lrE8k0cpX0UxX0W1XJfbyGJlQWAbz5SIBQf3sW3PQ9nt4Wyt2sDkhXmsLRaR7o93XOaHnz6AH/7Z+U3n202ZfXb/slIBizhaZGUPm4DIROW1LX7La8VbVcJCAQh9IAuoFkrqcKHFu2F5XNVAEM2nKHUWpiSjCgGPsQDh7UDla0cqq+Zx9+oiTr9wCKFwwFHACqFk/wulfPbfPrtzrJOiU43ivcCuzhfx8du3cOvCHFbmCijlq6iWaqg3KBvAirUpOcrnsH08U2hznYofrix7UGttqYievljHZe4dSqJ3JIWlmfwm8+2mzD67X1llBezgmuWCu9P1QFsLWa6YhXJRklEzF1PRWjV3yTIjRTLSn+vzporIJIlnWT42mBelst0kq6B3riyhVm0gxq/t/djO4FKdz+4s65bGXmGvfHgP538yhZufzaJcqKFWbbATuAgzyZmRL26LqCwfr7bxTFkmkCZ4h2yt0sDS/RwOnejvuL6BoIGhw2kszeQ3nW83ZfbZ/clu6B5wyzh27zbKWxi6hF+odyelYuH+4og9uhUs18psN13EgaLQiEyIWTNc3RMPs6zmbDDwUSKMNMreCJcG2/ydVRTWy0hlo3IV4NTv7caKiOOzu8d24naCXZrN4+/+9FNc/eg+quU6Gg0+G8VEFnNYzGnAsgvZJJc7N9p43iRLCBAMtT4K3e4Mg2D4cAaXzk3vSpl9dn+y/nGEHjlSsBu2k+MIRcuaFLj6wX006tbZwG5bpJ04n905Vo0rfjv57RRLKcX09SV873/+OT776R2U8jWYDWobk1SZq8pgJtCfLKVO43lzbCgSRP+B9IbqawQIRo9md63MPrs/Wf84Qq7L9vqRgt2wco+AWorWzgIA4eyVD++hXjOt9lP6UL1HZg+3x/HZnWXVuOqWqlP4TrClfBU//t7nuHt9SRrf9jGp1U8sJZikwnYcGwcChCIBpHqjG6qvETBw8FjfrpTZZ/cv6x9HCKHYFIECi2UTkNfPo6xsI8XQUlnpQdgW9eTFBazM562+lFnrQkkVxGrfqwLNZ3eOdVLidsW9k+zUpQUsTK+DmvzBFGGsM9ghD6r93Y5j4wJBAwNjPUj0RDZcXxAi3w7YyTL77P5l/eMIwcunsOya6GnAyyzR/ARsCVLIscKzwaX3pzFyJAvVORlSnTqf3X7WSZnvJrs0k0cxVwWs4cviOYxJIgehre5bzIajQZx4anRT9Q2GDAwe6sG9Gys7Wmaf3b+sfxwhgW5oyBWGZdlT6m1WtgO1tqd1lkDrbUpx6dw0avz7uZJ1EFZOqwY1zGd3jt2M2062Xm3I07U40DQmofA7cWxcMhvF8SdHNlNdAIARMHa8zD67f1n/OEKB8/h79UjBblilweB2HKF4QICCghJg+voS7t1csfJT8rD60PbwnlT++mjz2Z1hVWfnd4ON90TYli0fi9RlTIrfsooiPqVbygYCBMfPjCDVK16y21h9DYMglYnuaJl9dn+z/nGEAtzjRwp2w/LILA6LqLGUNagVD+z+xGc/m2pajRGhwBWlQOWAI45/fXZn2VbKeyfZg8d72ccuWGyIcaWNSRDLKBQ8hTJXt46Np6N46leObrq+RsDgynvnyuyz+5v1jyMUrUNFTPbHsn7V+nuTJYQ97cwECTNYVFY+pCbicfbqh/eRXys3CVrAUhDit921CvPZ7WVFX7oxO8X2H+jBwWN9CEeD2rhSxyQotV7hkHKMCbGtPvrt0ecOYnQ821V9+cWOldln9zdrAE5Pb6F5UUwVRW8PctDMpCkBB4aC3ToWCcuCcSXLV7EgxFqlidebNsmK+KoSVytJCIFYTaotRQHPslSLDe3FcUII3w4Rxoz1N79aZh/At/WvUAqqwHKK4+bvs9vHOs1FJ7+dYEPhAJ58dRzD4xkQQ32GwRqTlBC+R0XVgcnmK7HidstGkyG88K2Hu67vTpbZZ/c/K98DbrL+7MrWSfnyXB0tczdtbUuQUAq5ZKNWPkLwsHuV4kEx0jVrrf4AiAZklbCqRISBoExG6mEWVhjhaagsEf8RYg0UChADSKajVnJOhposCmkKs2/v+ez2s26raLd0t5sdfagXX/rOIzhwNItAwGgekywm36KTAbqCV8fkJtnHv3gEAwd7uqqvLea2l9ln9z/rH0eo1IbYVovMmykrvsj0KEvlfQnSjlVX22DvTVpB1iBqJbycrn12Z9hWrpO0tpoNBAyceHIUsUQYP/7+Rdz4dBamSeWYJOAPpIjvrQojGvyn9U/TeO6UTaTCeP6bx7uurwzbgTL77IPBKh9EtSa9cNYjTPw3hXYtrHFlTdZkOYpwNR5jAZ6gLIxQk9JD/mSBYp+9K1bR4ZoTsM1C1gSjV1kwoaEJFQfWfk0p24a2O7ctU3u/Ozmf3RnWze0GGwwHcOSRAXzr98/ild96FJEIs/sJKNi769YzCupDhCwO0ce3Mp47ZV/89kn0jaS6ri+lFNVKY0fK7LMPBisVsJDNuvBmiQmQ6TLrWsRXV8FNCoCIAulpWQXTV2IE1j1pCqYnKP/B/NEdS5zLCYitPctPna+UUs+ybPXLOp46sFTzh9VeJsXaYgFaEM9ArM7ctvScVhA+u/2sk5JUjeLdYo2AgYGDPXjp10/i2//V0+gdSclVgjpf2dhrNuTlmFTHcwfs2PF+PP7FwwgEja7r26ibWJ7JbXuZffbBYVsfCeK06nJz1HZJqXM8mTS37olQyvZk7P7WCq4rlupFZcJNXTS7lJsQz7Kayuagxmr9LO5fMKG/ulC0JUlaXqvOPgZ8dntZoaztTLPhtntsLBnG6RcO4T/9py/jzCtH2MgVxrRg2Q9lgFtjUh3P7dhQJIAv/85jyAwkZDm6qS8A1GuNbS2zzz5YrFTAnWzPtIxjH7PuY5inxQpL+AXllgIvl4zE9AW1KtctS9gF1eJAUWhEJiSOMhSwV1nZAkQ8mGZjqbqHYa24qUmxOl9w7PdWQkqN47M7x3YSdy+wwXAAAwd78K0/OIvf+m+fx+BYDyi1PY9AIbf2tDGpjme+nefGPvOrxzB2vBdGQFe0m62v2aDIrZTb5ttNmX32wWL94wiV5SW1igbZmMRS9l5l5Xtp/I8YGtJogbJlQhhMwATO7UsLjsKq0z732Z1j3bZU26W1GywhBPFUBGdeHcfv/U+v4ZXffASZ/jiMgFgdcMEmrU2n8ay8f6nIFcMATr94CM9/8wQS6WhTu26mzJRSNOom1pZKrvl2U2affTBZ/zhCrsv2+pGC3bBUGB7UUrStjiMEN6pMSrG6UIDZsI4mpCZlT7FyoeYkqNwEmlUXn90OVo2rbqk6he8lNt0fx1f+k8fxO//4JTzxpSNI98URCgfkFp46Jvkva3tPpMWXFMFgAGMn+vHF7zyC3uHklpWZUmB1vuCaL5eu2EtH3fns3meDPDak4wpLU5Tc325Jsky5NlcUNOEKT2blwBIrEaYgRRk0RQ+pQKWFocqhTbCUc4Qo8WUTWA0kFTdVDBCvsmq7SEFksWq/M3+umCmwtlDE6kIRvcNJEEKQXyujVqkjM5hQhowltNR+tv9WBaHPbj3bNPZd3F5kjQDB2Ik+jB59BncuL+LTn97GncuLyK2UUC7U0KhzI5DBTYoSoAhHQxg/NYiX/8NHMXo021G+nZbZbJhYns875gtlwULlXATkPGpRZp99sFn/OEIQ2UZEjS/ui6qT17Ms0fwEbFn+kIYNUdqLUIp63cTs7RX0DidRrzYweXEexVwFz3ztGDbinIwwn91aVl3JeZUNhgKYeGwIE48NYf7uGm59NodbF+axNJNDuVhDpVhDvdbQ0giGAkikI5g4PYRnXz+OoUPpLS+zaVLMTa46KHMKzZAF87LPI/sc9FmfBYCgdauYJ6BMfm1oSn/bgJXKm3C9wBQEFYXQ0mse7NL6tNVBXdUKrU54PNjjbIglWhxhwciSifjEEoSW/vMmS0UcwSgK19rx0DoFYjzUqw3cubqEk88cxMpCARfevYN0XwymSWEYrR9oUVcWTnF8dmvZzSjAvcwOjqUxOJbGs68fx8L0OpZmcli8n0NhraLFS6QjOHJyAIOH0ghHgy6pdVdmalLMTq3J3SdrTirzThjGVmYQ80jMQZ/1WZUNNglfp4FJXfw1rnVwU5JCaYI/AsQfLGLFshQ2UySEh/EKd8GyL5YAYpsPEDi/d0ys7VxxTxU8Lgv3Hqv2EQWRna+xBFJJ88RAKFCrNnDv+jJ7AnS5hOlrSwidGkS5WEUsEdYEmaX8dWXhtu3ns1vLqs6N9yo7cLAH/QdSeFidAw5tsl1lrlXrmJ1aZYCYK9zoFX6UCiHE55gyj6TzWZ9VWP84QgESHpM3FCFEbqETHterLI/M4kjrxWKF9SbjgUjWbJhYmc9j4d461haLWF0oILdcwtpCUQqqRt0EVR7Msv+1hoJ1b1MVck6Mz26eVVfTbgreZzfGLt7LYX2pCDE/vHDUnc/ufdY/jlC0DhUx2R8RT62zV1lCmDXGBAozWFRWPj0u4tnYUr6KK7+4h8V7OZh19mT08qz1QMqN87OYu7MmH5RRy+y06hDKxS3cZ7tjRV+6MT67cfbWhTk5P+SqR50shAleNreo4zzyWZ+1s/5xhLZKEkLkalJtKQp4lqVabMin4wUrXiQXuwrir2ArxRpunJ/B6kIBlACrC0Us3FuHabKUL7x7Bz/9y0sorFnfjbav2lR/+0rDKY7Pbo51motOfj67MfbaL2esXTbCb31JISRhNvf4vLHPI5/1WTvrH0coi0NkMnI1qS0lPczCCiM8DZUl4j9CrIGisPWaiXs3VzB1eQGgFJVyHYv32MMw68slrMzlcfG9u/jwrZuolGpW9kpZHI08WQ3SFLZX2VsX5jB9fQn1WvM5yXuhzG6raLd0fbY9W1yvYPr6ko0Xt7TkBNMVvMM88lmftbP+cYRKbYhttci8mbLii0yPslTelyDtWGW1rbKlXBXlQk2yi9PrWJ7JgVKglKuiUqrj/TevIT0Qx5lXxps+fq8OwFaCz+l6L7GzU6u4/vEMTr1wCKeeH0MkFtpTZW7lOknLZ5vj3bowh2qlIecCAeXfVhASmMWT0sn6p2ke+azPqqx/HKFVWVFgjdUEo1dZAAQ2Ye7ANqWlsABATWHRAXN31rB4P4dSvopalb2XmVsu4Ud/fgGXP7jXcgXHstHD7WNmr7KJVAQL0+v44Z99hn//J59ibanYdsW6G2V2c/uBpSZFtVLfsXw/eee2PhcoeyiScLmiPvjI4hD3eeSzPquw/nGEVkn5hLP81PlKKfUsu+njCFuwpUIV924sY+7OqlTAALAyV8AP/ugjzNxagd0JgSZWdm7bgU6rlL3CjhzNIpGOYnWhgF/+6Bb+9J/9BLcvtv5e9k6W2UnhqAbCfmBLhSre/v8+x+1LC9ueb26ljKmLC/pcgC5j2HxpXnw4ziOf9VmFDbx47Df+Kdyc06rLzel6QAoO96S5dc+tAxFTFfL8/zJEpCdXBpthAfHNEJkWpZYBoqYPbnRwT+t9XI+x0rgSbUWIxnJP3bRqwwqDplSoYmW2gFqlIdlyqYZ715fw9NcechWAzcaE7uzjZ6+w0UQY8VQE09eXkFspI7dSwtUP78OkwOGT/btaZrc0WvFeY+u1Bs69eR0//6vLaNRMPPLs2Lbme/6dSVz8xTRoXTzcKQG2AOCLCzZBCPcH3OaRz/qsyvrHEfLGsxQakQntpSMFu2FlCxDxYJqNFZ+w5PG0b4i3YO/fXMbs7TXU5etHFrswncPNz+Ycx0wrZaLG2YtsIGDg5DMH8PV/+CTS/XFQCuRWy/j7P/8Mf/rPforF+7ldK3Mncb3OTt9Yxg//7DxqNbN95C3I99Of3Eaj1tDnAgifh7ZnKCiUjzK4zCOf9VmF9Y8jVL7iQa2iQTYmsZS9V1n5Xhr/I+/pclZ5cJ5r9s5Y0wRW5/IoF2tNbKNm4vK5aTi5TsdLq63Z3WQDAQOnnh/Df/BfP4NMfxwEQK3SwOVz0/g//pu38OPvX0R+rSxf09qpMrttqbZLywsspRTzd9fw//yTt1Gvmoinwnj46QPbmu+1X97H3NQaMzihzgXlvU9FnnFbVsol53nksz5rsf5xhFyX7fUjBbthqTA8qKVoOzmOsBu20TBx7eP7yPN3g8U9ENXYswtI9T6JfexY7bB32BNnR/Ht//JppPvjsq2KuQp+9C8/w/f/8D1MXZpHtVzX0tvOMqtx1S1Vp3CvsUuzeXzvD99DpVQHDCDdF8exMyPblq/ZoPjkx5PMuLTNBa1PtGUQWxgQQlzn0V5ngyEDgaDhqTJ7mWX3gMXkForYrihZijJx4SjX9qDW4JX3UIjzIIeaqtDzigGgKXqmcZiyFcq1S1Y+HS60FLjiEuUS8UQkqhgg8CjL/eyGlmDV3yx4a1izTpHKxDB2gt0bLeWrKKxVEI44fYKcWGPHIe1WbjfZ/gM9GBxL49aFeaYcKLsFsHg/h1ufLwAAUtkYwtEgDENPe6vL7DTPnNL0GptbLuF7f/gepq8tggKIxkJ49vVjGD89uG353r+5jHffuILCWqVpLjilDzEbxVx0mUd7hTUCBkKRAKKJMBLpCFK9MfT0xfDQ48OIJcNYnivsuTLvR9Y/jhBCWSsNxzW1lga8zBLNT8CWUII1RpT26patlOu48PM7eOKVI4glw7h3YxlXPriHx18+ggNHe6Wl3c61EpZ7gT1xdhTf+oOzePOPP8bybF76L8/k8aN/+Rlufz6Pp74ygcMnB5BIRzVFvJVldlLmXmdX5wv40Z9fwPT1JYhp0NMXw8lnDmxbvo26ifM/mUJhrWyJEIe5YAlXW3/R9vNoJ1kSMBBLhBCOBhGKBBGNh5BIR5AdSqL/QA876GI0hXR/HIGggfd+cAU3z896tr5eYv3jCImWpBWfWILQ0n/eZKmIIxhFaVo7HlqnQIyHbljTZPftLrx7B8/86jGYDYprH9/H8nweX/7txzAykXVVRuqWq5OQbKWkdoM9+cwBUJPi7/7sPObvrsm2qpXruPzBPUxfX8ITL4/j1PNjGJnINh2btxVl3owi2svs0kwO73z/Ij772RTqlToAgkDIwMlnDqL/QM+G8+w033vXl3Dtl/dRKdYhZ5oyF/Q5qcw7YRhbme04GwwbiCbCiCbCiCXDiCZCiCXDGD6cQXYwgZ7+OAYO9qCnN+Za//6DPZ6pr9dZ/zhCCJzfOyZim4BC3FMFjytfB/IYq/YRBZGdr7EEUtHyxLaELeaquPDuHZw4OwqA3Vu7+uF9pDJRvPJbp5AdTPLxQGX9mrdwdAVkj7MX2EDAwEn+UNA737+ImckVNBqmbKv1lTLe++srmLq8gDOvHMHxp0aRHUyAGGTLyqw6N94LrNkwMT+9jp+/cQWfvXuHfd6Uj6tYKownXx3ftjKXC1V8+Hc3sTyX57IFjnNBNXqFH7vvB8Xw3142HA0imYlKJZvMxJDMRJAZSCA7lETvcBKZgThiyeZjQ1u1WzgStObzHqrvfmS5Gc4Vm5vbiHLtRKFzR4Uw54WSCyu+VS1ubIv1F4vHrjfLQigNCIXGq6e9vkOaJy0Rit17rLTUKAUh7JYBYLFUDAqZk9JtXbJmg2JmcgXnf3IbB471IZoIo1HP4fP37qJvJIUvfPUhxFMRWWb1r31VaF+9aM8c7AE2GA7g4S+MIhwN4N03ruLmZ7NoNEzZVvU6MHV5AXNTq5i6vIgTT43gxNkDiPdEtrTMbgLWzuxF1myYuHNlET//wVW2Ci2xlS9jgMe/eBjDRzLbVuabn83h9qUF+V67yJdHkH6q0SlkCwEso3QLWUKAWCKMZCYq/4unIujpjSE7nEQqE0WqN4a+kSRCEX1nxamO7doq3hOxFMUu1PdBYoNtla/iuGLfEsfKxVdStLkMQnFSfiWVKREKdnMsWz0LRU7VwkCqOWINVLXOcsB6kYWIK5tBsuqrRlo7bhFbXK/g8/fuIhQJItETAUBQWKvgox/ewsh4FkefGEYgYDSxTisW1chwCt9tNhQJ4ujjwwhHQwiFA7j52SzKfCtTtFWlVMen79zGrQtzmLqyhEefO4jxU4MIhgJbUsFBBT0AACAASURBVGa333udrVcbmLqyiJ/95WXcOD+LeqUBQFcS4tWjbvOt1xrIr5ZRWK+gsFpGKV/F+nIJl85NY3kuD9iUkzYXKJdBREoWgPDbbhRNZd4o29MXR7ovhlgqgnRfHNnBBGI9YfT0xtHTG0OqN4ZkOuKobDtp53ZtlR1K7mh9H2Q2CDRb2iwh6HqthfJ12t4hTQk0MwDhT2oTmZ/68BbbUgX/zBeklSG2kzfDiiJZBgBVS2VZLMS6Oy6aQzSA11i1J1SdLVjJCM0t/m4RSykwe3sV539ym39PmrHz0+v4+O1JDIylkR1MyHLbV3yqv9t27F5ig6EAxk704dX/+BTi6Qgu/GwKlVK9qa3WFot4/2+v4e61RRw7M4ITZ0cxdrxPKuLNlNlpLrptv+4ltlZp4PonM3j3jSu4e20JtUqdx1OeQyAE7//1NczfWcfE6UEMHOxpOvTDKd+VuTzyaxUU1spYmsmhUqpjfamIwnoFpVwVxfUKysUa8qtlVEo1xhI9X208i3EOQPtEnbR8O2NDoQCS2Rgy/XGkB+JI9yeQTEfQ0xdHKhtFNBFGKhtFT198R/soFA5sS319tpkNqh2l916ba8BSfA68WG67O65UqFjTWYoUVB004FYF5NK9G1bu13PNIBUMbzgqf1rWi6irrI/HWPECOIEl1DVWpi/Ctp6tVRq4f2tFeceQxbny4T2cfPoAUpkogmFrBei0bdZuZbqX2EDQwOhEL1769sOIxkM4/9Mp5JZLjm117/oy5u+sYfLCHI4/NYrTLxzCwFjPpvJtJ4jtcfYCW8pV8dm7d3Dub69h7s4qzAZtYkVbXTo3jTtXFnHx/TT6RpI4cLQXo0d7kRlIwGyYWJ7LI7dSRn6lhJX5PEoFrlgLNalka9UGysUaG6dEPh2itas9X3U8C0FKQEHFSSltWCNIMDiWRqY/jlRvDL0jKXl/Np6KIN4TQTwVRjQeanouYDf6KJ4Ko5irbrq+3bTVg8T6xxEqtbGvIJk3a1RCILcRvMdSdHsc4Vaw1XIdwmATbLlQw6c/uY3DjwwgM9C8ClZ/t7P09xpLCDBwMI2Xvn0SPb0xvP+317AyVxAR5B8K9rT01JVFLEzncOuzOTx0ZhinXzjk+LRvq3xbuU7qsNPs+nIJ7//NNXzy40mszOWtNgef6dY/sq3yKyXkVsu4fXEeVz+6j1Q2hmgiBGqyb5NXS3VUyzWUClXUq6Zqm8sxyQQksB1HzsWSYfQOJdE7kkLfSBJ9Iykks1EkeiKIxkOIxEKIpcLaUZYbbb+NtvNG2exgAqX1yra31YPOKjcRmoWNtb7k275ce8mHnBRLnii82qGqpS/iaaxSGL2gzYJQVfabZtXZqDrpTyXfJOi8ygIgoFq7OLHMX0lrh9ib5+dw9+oikpkogqFAW4XXalt2r7GGQZDuj+PsrxxFvCeCd9+4grk7a6ANs6mtQNmXtG5dmMPM7VVc/fA+Hv7CATz+pcPIDiU3lK+b2yssNSlmb6/i7//V55j8fA7FXJUbZrYtdii7LtDHlVkH1pdKWF9iOwtOCwI3FvwVESEQN5KvyiZ6ohg+wl7xyQ4nMTKeRSIdQTgaRCQWQiTG/qq7Oxttq93oo1CE3wbZwrby2WZWKmARR4us7GETEJmovLbFb3mteKtKWAhiIZdlAdVCSR0utHg3LI+rGgii+RSlzsKUZMSq0oMsQHg7iKeYdVbNQ7SZ/KrWDrDVch0fvHUD46eHkEwHHIWG/T6WKiycVq17jY2nInjspcPoHU7izT/+GPduLMM0ndvKBEFhrYypXAVzd9Zw8f27OPXiITz5yjhSvbGW+ToJYNUo3gusaVJcPjeNH/35BSxMr6Nea2jzlYofaj5u44piR1hiEGQGEhgcy2BwjH39rG80hSRXtsFwAMFwAJFoEEag9QdmvNBHqUyM38/c2XZ+0NjWj9E1yxR3p+uBttaXXDEL5aIko2ZOuJ+1au6SZUaKZKQ/1+dNFZFJEs+yfGwwL7lVorAaysN2mL312TyWZ/JIpCIgRvN9znaGnur2KhuOBnH4kQH89n//In7wRx/h+iczaDTg2laUAsVcBdPXq5i/u4ZPfzyJ0y8expnXxpHpi4MYzcLUKf9OyrxTbLlYw0/+4iJ+8e+uo5ivsofyCDPJAQIQcXtCZZ3HFWWZbAs7OJbG6EQW2aEEBg9ncORkP4yAgUDIQDBoIBAKIBA02n7VrJu22k02O5RQ5Cf2ZB/tB3ZD94BbxrF7txmXYuFG+IV6h1EqFu4vjtijW8HyUcV200UcKAqNyISYNcPVPfEwy2rOBgMfJcJIo5SIIBlPrFZ3kq3XGvjoR7cwMp5BKBJ0FBqsiu0F3l5mAwEDvcNJ/M4/fgk//t7n+OlfXtaOc3RqK9MEysU6ZiZXMT+9jvf/9irOfvkozn7lKPpGU675duJ2kp2+voQ3/vkHmJlcZXUWE1nMYTGnAcs+Y5PceVxtARuKBTFwoAejE70YmchiZDyL/tEUIrEgSIDAIAQkQORrcl5o561gjYChrNx2t4/2MxsEmgdV870UyoW96EyZkhbWzuksle+UEkKU1FQFK3xFfPkW7KZZYZuwIH7FW5BSJSEiE+KrbivIayyLTgQuB4hg+Q0Bmb6mVHeQvfyLaXztu4/L9xtbbeu2c3uZJYQgHA3iq999AqNHe/HX/+IjrK+UZFu0aqt6zcT6chlvf+8ifvz9i3jy1XGceXUchx7uRzAUgBEgmtDt9B632/Zkt2yjbqKQq+Bn/+YSzr15nX/gAvJLalBZIcCEIcISdB9XLVgArC0Mtko1DIJAMIDxU4MYPpJB30gSB4/1YfBQes+01V5is0PJbe8jn4XyGhK1UiMCUv6yKLYO5ia6PUze40OrwUGkhSAHBIQOYQW0VktiZSDKhK5YUQxKqVVDYoUz5aUMUKV+XmSlQUWpohB1FoD8qDhVDa4dZNeXirh7dQknzo46jCfwdnAeT2ocL7GnXhhDdiiBv/rnH2B+ag21Sn1D7fzx25P45J3bGDmSwXPfPIEjjw4gmY4iFAkgGApo5XIqm1MYkflvnm3UTZQLNVz+YBo//cvLWJxel+cja2PDJjPY4GYjnLDILNxpXIlyGgShYABG0EAwZCAYCiCZiWBgLI3hwxkMH8lgiH8L2akPtqK++41N98e2tI981pkN8tiQTipiMUil5LcpUCgCtrkzudpu6nToqUpNKToexEGQEaIpV3TBUs6xKhJLofEAQsR9Sl1xizp5klXbhbeVyqr9zvyJ1dQ7zH76zm2cODuqjRcxtmQ/i+53UHLi2kvsgYd68bv/wxfxk7+4hAvv3kFhrQyTdt7O1KS4d3MZ//p/ex+p3hgeefogjj81gpGJLGKpCKJ8O9WtnKJcdiHs5NqxtWoDhdUypq8v4dyb13H74jzqNdN1bOhpCoODjxU5ri02wJVsOMa+NBYMGUj1xjF8OI3e4SQGD6UxerSXf3HNvfxbVd/9ygaCxqb7qJv+fdBY/zhCaaUoDcetFi0NeJklmp+ALUsY0rAhSnvtBnv70jwaDdPx05SbcV5gCSHI9Cfw1e8+geEjGZz72+tYmF5DrdrYcDvnV8r44K0b+OSdSQwdyuDYkyM48sgAMoNxJNJRxJNhx6d01VXRRp3ZoMivlVBYq2B2cgWfvnMbkxfn5XYzaPuxQWQFrXYLRQLsdZ5oEOEYe382M8i+GDV6NIu+EXaEXquTfdxcN/V9ENjsYLJZljj0EYBN96/P+scRSgtGlkzEJ5YQtfSfN1kq4ghGEebWjofWKRDjYafZldkCVhcK6FXee3USGq0UnGrhe4mNxIJ48rUJ9I2kcO7Na7j12TyKuUrH7ayOlWq5genrS7h7bRHReAjD41kcPtmPA0d7+beEo/K4umDY+dUvN9eomygVqiissW8or8wXMPn5PKYuLWDx3joadcp3aYguLtqUmVKCdH8MvUNJROIh9I2kkBmMy49a9A4nEY2HHFYanTuf7cwlM1HXPpJyZhP967M66x9HCIET+dABgdVo6raufxzhzrBTlxakAnbbQlMFimV06P5eZEPhAB56Yhi9w0l89MOb+Pznd7B4PwezQTtqZ9UYE37lYg23L87j9qUFgFL0jaQwdIht2WYGE0iko4glQgiEDIQjwaazik2TolyoolFnf4v5Klbm8pi/s4bl2TyWZvNoVJV3eXm+lIpJyfu+TZl7+mJ49vXjOP3CIfT0xxGJijtkVBv7Ts6trd3a2WdbsyBAOBKQX69zGlcb7V+fbWb94wh5W2CPHynYDSstNUqx08cRboadvraEJ1+d0ASuZnzYBIZ9e80urL3I9g4n8dK3T2JkPMNPTuKr4VbtDN2gEWOeQDF4QLA0m8fybF6WJxA0kMrGEIoEEOMHuauuXjeRXy2hUTORWykzoQx1Dup96ZZvqzL39Mbw9NcewlOvTaCnz/ljI25tZf/ts85spVhDpVRDim/Zt2INQpAZiGP+bo7F7WBcsTBZMGxkTD6orH8coVUYSDVHrEGu1lkOWC+yEHFlM0h2u48j3Ch758oir2JzmGpkOIW3CvMSazZMUEoxMpFFo05RKdYwdWXRuq9qY/kFmxtEjniA8NtBFACcV+Fmg2JtoQCA8LfbxBzjSXAWDmw3+Qo2norg8ZcO4+mvPoR0f7ypfdq1ldtvn9XZpdk8pi4t4PEvHdbO4HZ0BIgmwqzLu+xfn3Vn/eMIFWtSNg5X0noIZAN4jVV7QtXZgpWM0Nzi7y6xK/MF1KoNBEP6UXOqIrNQZyveyX8vsfWaidxKCWaDYul+DqZpIrdcQrVcR3G9inKxinKxhmq5jmqpjrWlEqgwOF3a2StHsKlsIhPDF756FE+9NqEpX7ctVHs7O8Xz2Wa2Xm3g3o0l3Lowh2NPjiCeirRlYwm2E+LFceUV1j+OUKTGG47Kn5b1Iuoq6+Mxdi8cR7gRtlZtYGUuj4GD7CQgRwNRos4Kzv57J1nTpCjlKyisVVDKV5HnB74X1yso5tnDS7VKA6U8O+4tt8yUaylfRb3aQKVUQ03cU+VtRmz5OrWzmOAEFHv5CDbBxlJhPP+N4/jC1x5qepLZzrr1UTvF47PMb22phIvvT6NebcCUX15zZwkB0gNxT44rL7H+cYRKbewrSObNBSCB3EbwHkuxF44j7JhtsJNyBsfS3M8avK0EkNP1TrCFtTI++Pc3UCnVkFspo5iroF5toFppsL/lOmrVBmoV/rdch6nPQ9lW0PLaWDuzSQ/s9SPYKIBoLIgXf/1hPPO1Y0hmok1t69Qfrfx81p2tVRu4e3URkxfmMDCWRn6tjEGkW7OEIBwJMjnioXHlNdY/jlAmKPyp5JuEs1dZAARUaxcnlvkrae0SSylFfqUMu3NTiNqYbaMst4NdmSvgZ391GY0G2+pr8BWGOhea0t6OdvbIEWzJngi++t3H8ejzh1w/mKG6TvrIZ93ZwmoZn7w9iUqpjkbdZLsrbVgCsG+ye2hceZH1jyOUq0rdIGBhSjJiVelBFiC8HaxPQqqsmodoM4rdY02T4v6tZajOuq3QfC/MadW6k2x6II5CrirrsKvtTKGNfSp+qPXbRbZvNImv/8MncezMiHzdyUlpqMZLqz7y2dZso27i/uQKbn0+D0opapU6yoVae9Yg6D+YAjvYZe+PK6+y/nGEwp/r86aKyCSJZ1k+NpgXpbLdJKuhPGwXWVDIV12sqpCW16qzj73tZhPp6J5oZ8oKCGmSErF9TfYEO35qEN/8/acwdDiDQEBXIvb27aSPfLY9WynVcP4nt1Gr1AFCUCnWUcxV2rOEvZMO7P1x5WXWP44QRDLsL5EJMWuGq3viYZbVnA0GPkqEkbZXjiNUWdOkmL6x7DjeOtmOcxJW28kaBsHgoR7M3V3HdrdV71ACyWwMYyf6kUxHMDLRi+xgAslsFMuzOXz41k1c+PkdFHNVaMkCYsI45wtizSUxt7aITWQj+OJvPIKnvjwhz3sGOpM5Ts6tj3xWd9SkWJhex4V370D2EaXsDOZ2eQIIx0LY7rHxoLP+cYRCswlWtqOl5SmFlofXWBadCFwOEMHyGwIyfU1R7BJrNkQHQ3OdCqJW28nbwSbSEZA7ndeXEALCj8kjBCCGdR1PRTAynkVmII6BsR5kB5MYGOtBui/OPpLv4uKpMMaO9+O13z6Ni+fu4tL705i5tYJquY5Gw2Rt6tZH6tambHhuELAG6JglhCAQNNDTG8NTX57AmVfHkR1MwDD0stsVi9NKr9V9eZ9tzVYrdbzzFxfRaDCLjhCC/GoZSzO5pvh21ggYGD6UFhbglo0Nn9VZ/zhCWQ0rnCkvZXAr9fMiKw0qShUFobMAsNvHEaqs2TCxtlREZiABp/tUTUajEqd5LG4/O3Q4i1sX5lvWNxIPIxwJIhAkiMRCGDjYg8xgAtnhJIbG0khkohg5ktHyVfNpV2YR3tMXw/PfOIHnv3ECuZUSJj+fx9UP7+POtUWUcuxVpxp/WEz2kW3uskHGRhphGbFwp/7lYeKUov7RFE4+cxBPvHwY2cFkR2W231t3CvfZjbEzt1Zx6dw0lwdKGG1W4E75Wt3e/djwWWfWP45QKDQeQIi496YrblEnT7Jqu/C2Ulm135k/sZp6l1izQZFfLSMzkJBjS/az6H4HBSmu1d87wSbTkbb1ff6bJ/DYFw+jbyTJXvFwcZsts5PxkMxEcfrFQ3jspcOoVuqYvb2Ku1cWcffqEmZur6BaqqNaYR/7qNcasryQZh5s96MtYzAQNBCJhRCJBZFIRzEynsGjz41h4vQQwrHm+nVaZrc28dnOWdM08f7fXNXko2CrlTqq5XrTN7+b8jUIEqkI8mtlxb/92FDnvp6mz9pZ/zhCaaUoDcetFi0NeJklmp+ANSuXWiGyi3aTVZyTAdep2yl2YKynqe3t9Q1Hg+gdSrRUvt2UWV0VOblwJIhDJ/px6EQ/AKBUqGLm5grmp9dx/+YyVuYLKBeqqJbr7IMNjWYhHwgZCIWDiMSDSPREcfBYLw4e78PBY31N35DeijL77ObYhXs5XP7FvWZ5QAhK+RqK61VEYqGWaQSCBjKDcRTWK0q+FJoBDebVbu77rDPrH0dItCSt+MQShJb+8yZLRRzBKIrP2vHQOgViPOwWC1jfQ3YSOK2UlLo62Ck21RtrW9/CGjvIwEnwbUWZNyrUY4kwxk8PYvz0IAhh2/6F9QpWF4rIr5ZQLTe/LxpPhZHMxtA3nEQoEthUvt2U2Wfbu0bdxM/fuIJqpS7HpCpHzIaJRsNskYLljIChzdW9fLSfF1n/OEIInGAvHynYDav2EQWRnb9XjyMUbKOhb7k5/Vav7f47yfaPprR6ONWXfYKyvqX5tlLKrdJyYo0AOxUpmYl2xDptg24mX5/dWnbm9gouvn/XGo+AnFsgBOViDaV8BUCqZb6GQZDKRDVWFocrFqkbKHWd+z7rzvLHEpsnkuY2olw7UejcUUrlStk6KQdyq5o/Q8r/x+N1yxLCw4VCE+XkMXlDEULkFjrhcb3K8sgsjrReLFZYbzIeyJ5gxXuIkPWmTQJDhDn93Uk2HAny7xm717eUr8qvEG1nmVXF6KbgfXb/sr948wZK+ao+B0EgPgtbqzRQqzTa5msEDH50ocXKvLkOgZTJLnPfZ1uyBvTNzJbOweDdtCPEKhBTpkQWjIsv/tcqMgVACe2KVRuF/aZWBNEOxBrkap29yhJujbGJxQwWlSVcect4e4E1iONWrVBM4rfdtQrbTpYYBJnBRMv6FtYqqDls6251mUWbujE+u3/Zhel13Ph0BmaDanNQrtQIQa1SR6VUb5svIUAgGNBYOUkJsT5CweM6zX2fbc0agPMTl02LYqooeofOsjvSlIADQ8G2IEXCsmBcyfJVLIhyP5GSrlgRX1XiaiUJIRCrSbWlKOBZlmqxob04TggB/86D3FUQf3eTDQQIevr0s2GFMlIFh33s2VeLO8YaBNnBRMv6FtbK7L7cNpbZaS46+fns/mQ/+uFN5FfLTXOQEn67DhTlQo2tkNvkawQMdiKSwiqDmslUYuXjNPd9tjVriMZusobsytZJ+fJcHS3zFtaVmiChFHLJRq18hOAR99KItlLfPGutSgCIBmSVsKpEhIGgDE7qYRZWGOFpqCwR/xFiDZRdZA0C9I2mEI4GZBqtBIU9zL5FtxMsIQSpbKxlfXOr7CGs7Syz2yraLV2f3T/s7O1VXP3lfXabwz4HWUwQsC/Nia9htcqXGER5sl3cwpOJ6saB29z32ZasfxyhUhtiW7UxbyZE+SLToyyV9yVIO1ZZbe8WawQMjB7tleNRHbytBJDT9U6xhkHQf7AHaFHfWsU6KWm7ytzKdZKWz3qX/fjtW1iZzUu7T52DBOzhU0oJirkK8qv6aWPO+bLnMFSWaRwWLqWx9U/LfH22mVW+DadoaAhIPMLEf1No18IaV9ZkTZaUCFfjMRbgCcrCCDUpPeRPFij22btiFR2uOQHbrE1NMHqVBUBgE+YObFNau8QaAYKjjw/B7ty2au3jzcltNwvCXtFpV9/luTwqpdq2l9nN+ez+ZOfvrmHy83lUlENM1DnIvhHAZGCdn03dLt9AwEDvcFJjmTFpPejJ0ieuc99nW7NSAQuZoQtvIle4MlHlWsRXV8FNCoCIAulpWQXTV0QE1j1pCia/KP/B/NEdS5zLCYitPctPHfuUUs+ybBXKOp46sFTzh9Veu8TGkmFMnNIVsBAOYlXoti3nZMnvBGsYBMOHM23rWyvXYTbotpXZSXirRrHP7k/28i/uYXkmz7aWneYgdLlYKbEHsVrlSwzC3/XWWZa+XmZI/9b5+qzOun/ZHXBedbk5artsY7kJZSy/mduUjN3fElpdsVQvKhNu6qLZpdyEeJbVVDYHNVbrZ3H/YvfYY0+MyI88qHVuda06+9jbCZYQon3az62+C9PrqBRr21JmoaztTLPh5rP7iV2ezeP6JzMo5ipwm4NU+IHdHinlq6gUq53la2MJIeA/FCHUWb4+q7NSAXey1dEyjr0P2yhvypUK4ReUWwq8XDISk2PKQOiWZUYKt05EHCgKjciExFGGAvYqK1uAiAfTbKz4hCWPJ1bcu8U++do47Ks+4VopIjXObrCBUACjRzMt69uomzBd0u+2zJ3E9dn9x158fxozk6tcBrrMQb71SanyFG4bkU8Ie799+EhGY6WjUD5C0Vm+PquzBtBsWdk2BpkPVbfCaFNYJ05nKbtxrawUCJHlB4iwCgGhYIjkN89qQ5grLKmsrKJBNiaxlL1XWfleGv8jhoY0WqBsmRAG7xZ78KFeHH18mDPNAqfTsbYbLCFAMBiQv53qOze1hjJ/BWSry+y2PdkuLZ/1Ljt/dw3XPr6P/FpZykPnOai8qwqK3HIJ+bVyU3oOGfMjMy2WE8Km3FC+Pquz8jUk1Rxi6xJVshObFUasICVM60za7KexTEtqLOUVIYRvu1IlPSLEGemSFcJRlJOzxGo4XmNWZh7fuk/iPZYKw4NaCs/OAgChwkChu8IaAYLnv3XC6jdl7FjtQJrC7XF2iw2GAjjwUG/L+pqmqY3NrSyzGlfd2nQK91nvs6ZJcfP8HOan1tgcIsR1DmrjiBLUayYaNbNtvoRAnkEtWHbBdMZG8/VZnRUtC+nkb6L/VQaMjCqXYQ6DiDgPNuGIlQhTkJRrTWklQPlNLOXaJUu1KhK5UmRJWGpaKm4qtnyJZ1nZRoqhpbLSgxAeTHaFHZ3I4NTzY9YYklXWhYMqINQxpwq03WANgyCWirSs78p8AVX+pOpWl9lJidsVt8/uHza3zM56Xlsqyudh3OagngdFvW69Etcq33AkiKFDaY1V/240X5/VWfbUiE05OjrSfB+CiLSJiKKk4+YvgoUGkRaBpWiIgrN7acy+EP7oglVLoqZHZFzeHNxqEXl4mVWHBOsKy6gSg4fwZbVMZofZSDyIl3/zFILK95/tq4SNuN1gA0EDfSNJzgFO9a1XG6iW6zBNCsPQ0/ZafX1291izYeLGpzO4c3WRG3zgMsFtDjJPMS5zSyXkV8udl4PqY5rls/F8fVZnmw9jcOsQ6jBoCNG1gxbWbNXpwXw5zlcIQokQAmtA8Yzl6pXy6y5YSqmsPLNWlPhEV/KasUG9y7Jowl/pMGHAUCtI7GrsNPvos2M4+tgQAgHDgW3t7CuD3WJJgCCRiXIf9/quzBdQrzY0divK7LSS8tn9ya4tFnH9k1mszhfY2OL33dzmIBEWMthuk/o1rFb5GgGCSCKssTzRTeXrszprSIHu0hHSEcgE5dazK0OhfQdTC6EihkyXlVEmbq3ooPyQEox0xco9eFleKvWZoretK2qV16ss87JNNpUFBbVeNoZ4OGqn2L6RJJ77xnFEE2Fp6bttzTk5Na/dZA2DINMXhxGwxr5TfQtrZXke61aW2U2Bq+n6bGu2XKiyD6WYdM+W2TQppq4sYvLivBUGwlZZbnNQMeAJoagUa6iUa23zDYYD6B1OaqyIs5l8fVZnDWV52NQRdmfpM0XAKNrf8tPUpJ6GpTVtFhffRuYfPhZBYnXHKicsic2z8tpWKd6ElgLnaarK3KusVMiUSoWgstryjPL22yE2mgjhuW8cx+ChNNjYtG51dLpiEHnsBTYQNJDMRFu21dpiUT4As5VldnP2MJ91ZmvVBi6dm8a5N69h5vYKGnXnPtrtMudXy7h9aQFrC0UmTzuYg0IaEr46KxdrqBSbT0Sy56uESJb9u7l8fVZng1JVcu0tVKTTKheUQN1aFgkLBScy0JSxmyKmxFIkWkcT7Y/8qcTRX2/ZIAtAHAbfVCbF10KIIki9yYoAdjfcieX9CAcLfZvZE2dH8chzY4jEgpK3W+LtnBpvt9lAyEBPbwzrSyUZz95WxfUKGnVzz5TZZ5m7f2MZH751E/dvLWPywjyeeGUcfFBClQAAIABJREFUJ54aRTQR2jNlNk2K+zeXcfPTWWlsW0/CQJN1sF1rCycwg6NeayAYsg49aRrPQQOpTLSJ7SZfn7XCDcI9RSSiJNL0P6L7gy+rCVcOBIQpVlgrNvaVkOb/ySe0KRPQlEIu1cWKj/lBGggizW5YVmaxKqMyjrpKEw3H19PcIPEuK+ISECUNi9W2SKiV7nazo0ez+MJXjiLdF5dWtzp27M7Nfy+xwZCBnr54y7bKLZfk6mq7yuyWns86u2Kugs/fv4v7t5ZRLtZx+YN7+NGfX8Df/6sLmL+7tmfKnF8t48ans1i6n7OMc0CRgc5z0JKDDCBghmC1VG+ZbyBoIJWNNbHd5OuzVtygZfUoGp3ql5Y/1TW/utIV6Ugv0hRHdWwVyzNSxljTFjVhil6kSLtktfIo1RFVppTyJ9a0hFkcD7OW5W1rE8q2S6g6VITVvY1sdiiBZ18/jrGH+xEIGtb4URjiNL5sv+3Xu80GggEkM9GWbbW+XEK91tiWMkvD1yG+fWvRZy321oU5XPngHsrFmhzDC3fXsLZQwOztVTz9tYdw8ukDCEWCu1Zm06SYm1rF5V/cQ6PBdlCEwLeEgvMcFEYgwG9ZgaBea8hnEdqW2cZ2k6/PWr+D9oZnKcHZEVuAoqjtWytuSagoQCyeciuB8BUTKF9lw6oUVzKUr7c3wwolzRqN8oYism5ywIlg4a/U1Ytsk7NPNHvwNrLRRAhPvHwEJ58+gGg85BLRjhHH33uNDYYMZAYSagIaSwCsr5Qc38HsJl83dqP8g8guTK/jwrt3sDST40LUMmSrlQZufDKL1YUCpi4v4PlvnEDfaGpXylzKVXDz/CyW5/JSjonbcfZbfc1zkHKRSYTwRW6lhFK+yla4LVwoGkR2MIHVhaJku8nXZy3/INCi8+0rXrtrEdRKBkuUCqWhPLIln55mCpZSbkUI5SKG3iZZrWCUWLe1pfKySsi8mKcWz3Msj8QNEHk/WXpTyarKfDvYQIDg0WfHcPbLR5FMi1d2Nq5knKz1vcAGQwFkBuKsH1zaqlE1US3X2ZO2Rmf5d1rmVmFNhrbPolap48ans7jx6SwaDS5JqBUOsPG8eC+H9eWbmL29ime+fhwnnx5FKBx0THe7yry2WMTFc9MwTSHkFZHnUGZ1DsrbQASSrZbrqNf0p/GdXCBIEImFpAjtNl+ftdjWpyG1VKFtyDYo5UdIEL41xxZ0qgKhus6kVg26Y62asQUllcpa3F9lEa0tBHntUZaCyDjiAyhNLG9HcY9iO9hAgODkMwfx4m+cRHY4uaHhtZn7abvBBkIGUr2xtm21NJOT239bWWY1vppGO6XwoLIzk6s4/9MpFNYrTEQo28PaeAY7wm/ywjze/L9/iX/7f36E+btrO1bmcqGKqx/PYOleTmdblVmdg7ZxRClFvWrCVJ707tR1m6/PWqx/HCFhDWeNP5dyE+JZVu3G3TyOcHQii+deP46hsR75gXc3Zx8/G9my202WEHYsYSIVbtlWxfUKW8lsYZntglRdMbvxDzJbyldx7eP7uHt1EXIniRBlYjWP50aDYnWhiE9/PInv/eF7+PjtSXk7YTvLnFsp46O3bqBhUhBQa8epgzIDXEIQorHryyUU89W2ZY7EQug/mNqyfH3WYv3jCLkisxQakQntpSMFu2FlCxA+LKiNpUTpLmvFvZXs8EQWX/3uE5g4PQgj0GbjBZCWopP/XmdDYf4gVou2WryXQ6NmNrHd5LvR7fQHnZ2bWsUnb0+irt6Pp1DetHQez5SyV3ju31zGD/7oQ/zN//VLLM/mt63MtUoDn79/F0uzeT7/ldtuHZYZfMtMZalpOo45e5kNg/Av1G1Nvj5rsf5xhMryklpFg2xMYil7r7L6e9OAGBrSaIHYuOcR6NaxhBAMj2fwa3/wBRw7MwJD+dRkO+ckrLzAhsIBpHpjLduqmK82fQqw23zdtjbbpfWgsQD7HOiHb93E0kweqkzidpKULc5zQchCoFSo4tyb1/En/+M7OP+zKfYVrS0sM6UUxfUKPnrrhvw6FxsmmyuzyhZyFVRKtZZtJcYk27Hamnx91mL94wi5LtvrRwp2w4rnxkEtBbATxxHCAHqHk3jp2ydx5NEBpS7E6hvFiftg9jDV3wtsMBxAin8Ny62tlu6vo9Fwfhd4s/mqcdWtTafwB5lt1E3cvbqIC+/ekbKKBTI5uJkj5+am1vAX/+v7eOv//RTzd9dRrzW2pMxmg+Lqx/exNJN3zLebMpdyNdSUk7nc2jmaCGPwUHrL8vVZixUvtUE6rrA0Rcn97RY6y5Rrc0VBE67wZFYOLLESYQpSlEFT9JYClRaGKoc2wVLOEaLEl01gNZBU3FQxQLzKqu0iJ5fFqv3O/BWFsUkWADIDCbz0Gyfx1GsTsj+cFAnLRr8HZv/tJTYUCSLJX+1wa6tapaF9b3gr8m0a+y7uQWZBgaX7Ofz8315BTR6IweaLEC7i6XW3uaCnabG1Sh0//+truH1xAa/8R6cwcWoQ8Z5IV2Uu5sp4/wfXWubbTZnrdVM7mcttLmgNuAX5+ixj/eMI+Q8i4/Lm4FaLyMPLrDrNWVdYykAMHsKtE5lMl+zAgRRe/LWH8czXjyl8B+NMcfZVglfYYNhAKhvVlK69rebvrDe9C+zV+nqJrVbq+OxnU7h9aVHuFIkxzcavNfjd5wLzdGPv31rB9//wPTz7jeM48/IRDB3JyFO+Nlrmz9+7i5mp1Y7y3UyZ15dKqBRriCXDjvlTypRzMBzYlrZ60Fn/OEIo8Ymu5DVjg3qXZdGEv9JhwoChVpC4/98NOzKewde++wSeff14x4JGXQ005+stNhQOIplRPm7g0lbFfFVb6Xabb6sVlc+yU4RmJ1fx4Vs3mSHEhaSMIvqJ38NymwudsNVKHT/9y8v4N//7L3D53LQ8e3cjZa5V6njvr69uKN+NlrlWrktD0HU8RwP4/9l7syc5jjvP8+t531lZN1C4QYIESUDgoYs6KQ1baqm1I1P3ag6Tdc/07M7D7MM+7Nruy9ra/Attu7Y2D71tNmM91tPb6pZkLal1i6Io8QQJEgRAHAVUoe4z7zsifB/8CI/IiKzMyqpCRlU4icrMCP+4//znx+/nHodnxxP7pqujzPrbEXKFUVUmqkhITXm9yrJD1jqzsGB37TFdsUa0W/bE46P4+r97Ds985pTFuOwU7Et0XmaDoQASmQiC4UBXXW0ulWAYe5evmwFX0z3KbLPexmvfv4XiVs3sP5RiP7ecW7y7he/+xRv47fduYeH2JgzduY6dZJ59fw0bC6Vd5durzLVKSy7Fu+k5EAggFA7uu66OIutvR8jl5io0DThPUzXmXmWlQaZUGgSVtUzPKNffLtjTT47jK396BecvT8lO3KvXL/IQ8b3ORqIhpLLRrnoub9dBDbpn+boF+7mjyt5+ewm33loSsQBQ3ldEfyI99YV+2Xq1jde+/xF+/Ffv4dpv5lDeNnfKcpO5WW/j1e/dGijfXthaqYl2U+vQlV3PoXCAvzZ2f3V11Fh/O0ILrcQj5lHT6HiTFSfEnXqdLK9HOMwqemCDoQCe+PhxvPiNJ3Dm6QnLc77dZipqUOPZPXEvstF4GJnRBIqbdVc959eqrNsNicyHmS2sV/Hr/+8GtLayDaQ6kQBr6uZdJbCMG7D97pfVNQMPbqxja6WM5dk8Ln/uFE48PoZgqPOZeEop7lxdwcLtTYfxa29lbjd1OSvvpudwNIRkNoZmvbLvujpKbEgZs8WfjkTgEgeiwtRE+MgvPSjLlExBOcY8AQr5tgkhIFVMCAFba+dyDcIKmcVygSUxYipJmV+DCIPmUVbslGRNQ6kXZRWDfeUrBj2woWAAT3/mJL7wJ09h+syIvJvSbYB0O6563YeBDceCSGajinOKDj2XCw3I5ak9ltkp2JmjxL7x4ztYmyvI9izbNx/pZBVZ/vDGbusLu2YNiuJWHW/95C5W7ufx7Etn8OQnZiybIVBK0ay18caP70Br6Wy2tI8yV4oN9l7yHfQcCBAEQ0Qkvf+6OiKsvx2hoiDCyzGsWwoOwpqdyaYTypZLzPmtmcFObDwZxpWXzuKTX3scEzPW10vaPyHzcjbQTt63l9lILMS3JXTXc2mz5voo0m7zFUvYTvHtA+tRYedubOC9X89Z2jOFGDoUx57BVofJoS8MyrYaGh58uIb8WgUPb2/i2S+exaknx/mdxgT3rq1i5X4ehuLo7pfMWkuHIbY27KLncDSIRDoKitKB6uqws/52hDw2bA1OTqrFcaWsXmQ7gr2j2U/vwMaSYbzwB+fx4jeewMhEEiSw8/VLtY30OovxKhuOhBBPR7vqeXu14qqzvZK5X/6wse2Wjt9+7xZK23Vbc6Z8CCFiMJKrdfbLZp19YXCWUiC/VsW1V+aw+qCAy58/jStfOINYKoxrr8yhWdf2JV87Wy020Wrq2CmEeHuWS6kHqKvDzPrbERJFiRah1WvhtnieY3kk7oAMuqVgbjKJT3/9Ap790lmkR2JyS71+DYWTx31Y2Gg8hMxovKuey4UGaPdtgfvOt9u5nZZvDyN74/cLmL+1wV77qbRnAsJXjiCGC3P4EAOnS1/YS7bd1LF4dwv59SoW7mzh+LkcFu9uQdeMfc1XsPVKE1pL70HPbBmaPkJdHUbWeUNLU+3dT3cjd0DFbFXssCOHJioMCPgsjxtSeZwMyLJSEV48sVTNJiLMqrOJpphH84LwZV4vsuC6kY1BriIILwYwEdOyO7ETMxl84U+ewqXPnEQsGdlx1mupc9r/dTyvsqFIkOsHcNMz1dmm6E4vQdhtvk5L107LtEeBLW7W8PoP76BWaso+Y7Zn2pGO6dFCScepL+wtSylBOV/HzdcXcO+9FTSqbdlu9jNfgMCg7vcgqCEaDyGdiz1yXR021t+OkBsys/25yE2IZ1m1GgfZUnD6VBZf+/NnceULpxFNhKUsbsHeBvpZZvQ6SwhBIh2Rg5abnvPr1T3L1z6QqjNmN/4ws2/95B7WHxbZKoOtPVPwY9wVJYSAf1E6lnNf2C+23TZQK7eg6/RA891cKqNRa3fVcyjMHMph0dVhYeUMuBcvqGsc++EdjLdwAgj/QRWAEH5ezOgIe26K7gVLICck8m41zrBPIhMiYN4p4eXxLMtKDnDDDa4PydqMuXBsBBsIEJy+OIFv/k+fwOTJTE/bCTJxnGdwvczoDgMbCgcRiYW66jm/Vt03mXsJh5V98OE6bry+gEatLduxpS+AmGOHGEv4KdF3nPrCYWR1zejYmQtw0DORKT1ymQ8L629HqEwvqSmaqUyl0XmVtT43DYhlEsGK2wOE9yYaCwEQiQZx+XOn8N//Ly+yx4y48e21zp0GyaPCJjIRZMcTXfW8vVres3zVuOrsZae0Dhtbr7bwux98hI2FkuwWnX2BKmOE0okIG1DlkvURYJv1Ngzd+WYEoedYMoKRieTQyHxYWH87Qm7Lhn1LwUFYuUZATQPQy5aCsWQYlz57Ct/6nz+JsekUKKWKPMTUrxLUOPb6P2psOBJENB7qqmcxA96LfNW46nKs0/nDylKD4vpvH2Lx7hZ7zSfXs70vWPSqTpEplc/dHxU2v15Fi29L6KbnYCiASDQ4NDIfFtbfjpAPhpSfEAqShpsqDohXWVUvsnOZrFrv7DhBZjSGF7/xBF76F8+YdcbTcTIG4rxaz/bvlFJobb1jFyA1BEPsvbNO7CD5Pgo2mY0hN5Wytn+bnoubVUd2N/l2tH2XcJjZjaUy3n91HvmNmtJHFAfIwbjzgQRicBmm7eoOgtX5loQ76ZkEAgiGCH9zlnfLO0ysvx0h/0JkXK4O7rWIPLzMqsMaqwrTGIjGQ7h3EggS5KaSePlfX8azXzrLo1lnJzuFZkNDu6mhVW+j1dCgtQ20mzq0to5KoYFqqenKprIx9vhOAIgmwggEAoglw4jEQojGw46v7nMK/cq8H2wwFEA4ElTqzNSzqK5yvjFUMnuZbdbbuP7beSzPbsvGL7sF7H2BHVT7A4tLjhxb3Kii7fIssKrneDKMdC6O4mbtkct8WFh+E5bFWjpWhJjlWkK3TtP1TQ6Qd+Oy8YjFNZNTSiZmaVR4DtQ2o+2PpdJagR9U4hOrkefDpZRXDKJeZM26U+pE9cgIM76nn5rAZ7/5JJ78xIxlRaOXQCnFyv081h4WUdqqY3u1jPx6FfVKC8XNmjTE4uXvrAmwzM3VCiZzMBTAxEwGkVgIEycyyE2lMHEijXQujmQ2hvRoHPFkGAHbPqu7kXm/2EQ6isxYokPPzG9iP/KrFeiagWAoMHC+TitNR4U1DPbGq5tvLqJeaUE8OsDnJJ19QYw/UJ4oEPV0xNh2U4ehbAripudAKIBQmDvAHi7vMLEhpw7g2CmUtM05pRtDmYl36FeClTaSWw8xEEtU2gvhGECOYPKa5i5Y044JM8UKJY0WP6S+gEKc71wq8wZLO+oHVhYUkVgYpy9O4OXvXMbM46PytZKdyyrugRCC5ft5VAoNgAK5yRRykylLnFqlhUqhAV3T0axrqFdaqJWaqJWbqJWaMChLR9cpVucLIIRg4c4WAOYgpHNxTJ3K4vj5UUyfGcH4TBoTJ5ihFjL0K7PQ7X6wkRi7E5pdY+N3qMtOyTpvcauG3GRy32R2mi0eNra8XcOHv3+I1bmCGU92f+rQF3gf4N8Ba7pHia1XW9Db+o56DgaJXIF61DIfFjYkjZPSmN06hWnPlIHcwfOnFKqJtaahzLStHhc32ITK34RIGytlJBSgg7Dit61QLK76iA/pMOZeZ6lSzyobS4TxzGdO4dN/dAHHzuYsxtfeKXcKz/+zcz2xrYaGWrmJ8nYdhc0aihs1bK2WUVyvYWOphOJmDc162yKzoVMUNqsobNZw+91lJFJRHD+fw+mLEzh5YQzTZ3MYmUj0LbM64Ow1G09FkMxE0WxoFkcQiue8vVLG6FRq4HzdgpuDfVjYdkvH3fdWcfe9VRgaVT1Si56t/Yj1ADFIsr8EYkvTo8SWtmpyCbqbniPxMBKZ6FDIfFhYfztCC606IeZR1ZXwIitOyJUDhc2MxfH0p0/i0390AeMzGea42HTbr1HohY3EQojEQhiZSOLkEyyerhkorFexOl/A1koFq3MFLHy0ifxaFTp/TMIsL0G90sK991cx+/4aJk9mMPPYKC48dwznLk8hM5bYc5l3w0YTYcSSYdkVQXg9KHHUl3EMg8xeY7eWy/jw9wvIr1e54y21ben7sP22TCT4qaPKavxZYPtrZVU9h0IBRKKhoZH5MLD+doRqYsRUkuk2KEvmHmXdthTMjifwia88hudfPo/seKJjK0G3AdLtuMrshg2GAhifyWDseBqUslcJrtzPY3WugNkPVrF0dxt18cYedVmHAmsPi1hbKOHBjXWceXoSTzx/HBc/eYJvIr5/Mu/ExhJhxJMRi5csZAZY/VULjQ5u0Hy7pXeY2HqlhY/eXsLcjXXTWbX84Y2dEEtfkL/5SCeSPKpsabsOTTMQCgdc6ygUDiIcDfl63kPW345QURDh5RjWLQUHYc3OxOJlxpjx/cRXH2M3ConkHWYbxKmebd/3miUEyE0mkZtM4rEr07jw/DEs3d3G7avLePDhOuqVpjKfN5WSX6+huDmPh7c2MX9rE8996SxOPjF2IDI7sfFUFIlslDtAcJR5c7m8Z/nar9up8e0Dq9dZw6BYmcvjg9/Oo15psbgMVjqJ+d2L29UdFNuotti2hJGgax1F4iEkMhGeyqOX+TCw/naEPDbsDU6cFseVsnqRVcP4TAYvfuMCLn32NDKj8c4IXYJaz73OYgZlI7EQTjw+hqlTWZy9NImF25u4/rsFPLi+hmZdM9MUPplBsb1awdVfzGJtvoArXzyDZz5zCslM9MBkFvEjsSCi8bA5oNnjULCb1vY4326/DwtbLTZw640lrM0XZb8WK272S1+dfYHyIYSIwehIs/VKiz/f6x7EM/rDIvNhYP3tCImiRIvQ6rVwWzzPscIyUYzPZPClf/EMnvrUCbkLj9MMo9dwkGw4GsLkySxyk0mcfmoSd64u4/V/vIPN5RIobw9qedsNDXM3N5Bfr2BzuYxP/uHjGD+ePlCZk9kYUiPWXWSIwlICrM4V9izfbud2Wvrdib36i/uo5Bs4+eQYTlwYQzQWPpB8nc7rmoGle9t491f3oWmG6PLmECAGP0XPatsgIHzlCD5LgfJ2vesLcggh/M1uYZn+o5b5MLD+doQiDcooiMdE5Do+Lwhf5vUiC66b0akUvvyvLuGZF08iEgvtODA61hvt/zreXrPhaAhjx1J4/p+dw5mnJ3D15/fx9s9m2V3TSnkJ2POhhfUa3vrJPWwulvDFbz+NU0+OH5jMoXAQsUQYwWAAmqbDrBrTg3LbiWY3+TotXTst8fbLLt/P4/f/eBv5tSqiiTDiqQjOPDWO8x87hhOPjyI73nn3+V7k68aWtuv43Q9us9UDhTW9UijpsGNe3K7uoFhdM6TOnQJbgmZ3QQ+LzIeB7W6A+xlvRJpKxl29XggvQDEuUkwzcyG6uHNUzGp3zVJIIwzAPM6NdUdBZJLEsywIkB6L4yt/dgVPv3gSYX6dB0p6bsFej/0sFe43G42HcexMDi9/5zLOfWwK3/u/3kIl3xB9gcXjTkiz1sadd1eQX6/iD/70Y3ji+eOOb9XaD5lTIzEkMhGU8nU1Je4dE1CDYnOphPGZzED5uuU/KNtqavjN393E2nwRettArdJCYb2KjcUS3v/NPGLJCI6dG8FjV47h/OUpTJ7M7qvM7aaG2+8s4f71NdbGRfsnYvhTWVPP6m0jlGXis5zNr1Whtaxvw7LXESEwH1EcApkPA+tvRwgiGfZJZEIEFEOzpeAAbCQaxHNfOotLnz1lMTq9zKzcZmHDwpIAQSwZwcWPz2DmL76Kv/o/foW1hRKYO8pXCXj965qO1fkCfvD/vI2Xv3MZlz53GtFYqCP9vZY5HAshHA1BrlQAMD1nVo+1SmvP8+0l9MK++8sHmLu5zmZJREjPnr9tNzXUyi3k16u4/fYKAiGCyRMZPPWpk7jw3DFMnc6ysu+RzJRS5Deq+M13b0JrG+DutTkecOFE+7foWY0AYo4dPstexmG7BuxUR9FECNFEmK3aeLi8w8IGP/v4t/5jx12WMG9WkkeoWiEyJcs5e7CmARtL+V9I74oQeYoZE0Iseamp7ZaVchLBUlWDptR8mVuARFWmh9hIJIjPfesivvpnV+RjRiL0OgA6xRk2lgQIYokInvnMKVQKDawvFKWDIr1RAKAEzVoLd6+tIjUSw8SJTMdrIPda5lqpifmPNlDarMmOxzwnLl+A4MRjo5h5bGygfN2Wcu3H+mFX5wr49d9+iLWHRavMgPmIIV+6NAwKTdNR3m7g3gereOuns3jvVw+wcGcbwWAA8bRyz0GXl710k7nd1PHLv/kQd6+tAjBnZpBjliKg9FAdZPZZCxuJBHHli2eQzMS6to3tlTLmbmygXm09cpkPA2vehCVOACakfLIotg4sjR06Og0b9rp1fiL+NzueWhAqk4d5zVMZSAdghRiUqk6AeV4sc0uZlfJ5iSUEuPD8cbz8nctmlfHBkqXpXDdqnM56HW42nYvjG//+eQQCBO+/Oo82X1az66rV1PHj//ddEAJc+cIZRBPhfZNZzIDF/MK8d4HK1ZpauemYZj/5OsV1O98LW6+08Psf3sby/bx5XnXGxQBj6/esgbJWWlivorAxh/d/M4dILITHPjaNc5en8Niz00hlYwhHgwhFgnJpcyeZF25v4Y0f3eFt3D1fwhLalcxHkd1eq6Ld0ntqG2RIZD4MrL8doTBo/AQhRBp21XCLMnmJnTqVxTf/w8ctuhf1RNU6Fyysg7747TU2kY7iq392BYQA7786j1ZDs+iKw2g3dfzoL98FAFz54lnEEuF9kTk1EkOSv8IPso4AcMfWMCg2FksD5+vkADiFXlhdM3Dz9UXMXltDu6Ur7Y2Y3VDpe2aaquMOeZ8GpUCzruHmm4u48eYiQqEATl8cx7nL0zhxYQzjx9OIJcKIJsLmC/9tMjeqLfzwL6/2ne8gMh8lVtes8ZzaRiwZRjwVBVAZCpm9zvrbEfIvRMbl6qDEkofX2EQqgq/9D88hzZ/ztc+K+gleZFO5GF76l8+g1dBw841Fdr2Q64rplnlj7QYzwpQCz335HKK2u8P3QuZoPIRwLGTJV1YXWJXVy62h0TM1KFYe5PHeKw+wtVqRjVCV2RxWwH4JB1H2SDbguLGaZmD2gzXMfrCOUITtfHX6qQmcenIckyezSGWjSKSjCMdCCAQIDN3A1V/ex8r9vCJ5//kOIvNhZ0ubNRjncgia70fsaBuRWAjRRGhoZPY6629HqMYnViPPh0sprxi8h50NBAiefekszl2asqxK9BLsMyEvs7nJJD73rYvsndHX1szOInXH4ovl6Gg8jI99/vSu9hzuJnMiHUUyHUGAKNUnVjgoBTWAwkZ14PI6rTTthq2Umnj/N+xtYmywoLyvwZQZYG2P8EIRplDzK+mZ1dsGVucKWHlQwJs/vouRiQROX5zAzGNjmDyVQWY0Dk0z8Nr3P5KrPHuRr89a2Wq5BcOgCHZpG4FgAIFgYGhk9jrrb0fI3RVp8Pgh9eUV4nzn8t5wslOns/jkHz5uea8rlHS6Bfvg7GU2EAhg5vwoPv/HT6FabGLpfp43SX6nuOwcFK2Ghl/9t+tIZqO48NyxPZc5lowgHA2hWdcs+Yp+UC010WpoclvFvcpXjdcLq7V13P9gDbffWUaL79tMCJH3/EmZiVh1onxMAMC/s8GH7prNr1eRX6/i/VfnkcpGMXEyi1A4yDaC38d8jzrbrLVAlX2BndoVW4KODI3MXmcDpnEyg1tHNu2Zed6pkiiFMoezpSFYpYIZwwtBKNgAKeJDFk7wzX5nAAAgAElEQVR4EoOw8retUHJgFocoMb+LPD3AxpJhfOrrFzA6nZSdSPVkewlqB/Q6GwgGcPriBD71RxeQm0xybxUQfiiouSqytVzGL/7rB1i6t73nMqdzcf7msc58KQBdZ9vCDZKvW3BzsJ3YzaUyrv36ATYWS6yvuuhKDDI8BwDmgMP+7g1bLjZx//oa7ry7DF2nB5bvUWQL61X2Pugu7SocYftbD4vMXmcDzFQyhVM+mLOoDv9R63GRH2PNc4QQaSQc0wFbRla9csJlJOI/pd6JiCN+D8IySDYutXkRxbUQaQpXgniEffKF47j4iRmEbC9V72V50h7vsLCRWAhPfnwGH/v8aSRSEd5GiGyrQqeUAsuzebzydzextVLZU5kTmSii8ZBjvgQANSgqxcZA5e0ldGOrxQY+/P0C7l9fk46KkFD2I0VmdYA2j8JnPcpqbcOcvLi0KxIIsMcZh0Rmr7MBMwHbYO70H7EeB6UQg5lInlBrxRHqnJZ8oF8YdcoNuTDmVByD9DBEmoOwTGbhNFAZx3QiIBUnnAoCM51hZtO5GD72xTNIZmM7Dsxux9UZ3GFi07kYnvvSWZx9ZhIkwD18ELPtMBiaZuDueyt46yf30Ky390zmZCaCaDzsmq+uGyhu1vasvG6yuLFaW8eDGxt495f30axpchxg7UztU6bMahuUXj2Fz3qULWywGbC9baghngybz3MPgcxeZwOUilgiKo/tFOyVonjrssLkIdIRx4JSJSMlWeEEMAPCZeNpC4M0CEuJsjhOheOhSKwokf1Tij/k7NOfPomZ86MIBE2d22c7LDp1NdBOM6TDwk6cyOC5L5/F5ImM0i6p/C5ektGstXH9tXl88NuHeyZzIh1FJB5yzdfQKcrbDUe2n3yFI2qPL+K4sYX1Kt7+6T1srZQhVrdke5QOfaeuZL78r896l60UGjAMamHs7SocDSEinmkfApm9zgZUj1gGZ5vZaUxV42c755aEilIQKZQclogpPptRK/G5YR2ElTqQVoyrSVEiUQsgjqv6G0I2OxbHEy8cR3Ik1lEX9qCe72XJ87CwgWAAj31sGhc/eQIJvhOUjKPqGUBho4Z3f3kfC7e39kRmtgQd7ugXIl9DM5Bfrziyg+TbC1+vtHDt1Xncv77G26HS9oQz6yCzmSo74LPeZjXlRRxOQbSjYCiAYJAMhcxeZwNAlw7apTJYCu6ndiCZ0CISVWd4RFhMgH8lrEQ8UTIQaxGMsuvfQolWoYUCqUx6mNknnj+OY2dzCAZ7e4RGDWqn63ew9xobS0bw8a+cx4nHx+TrEAlUPXO96wYW727hnZ/Polq0zkx3k28iHeVL0OAOsDVfw6CO+wL3m2+3c+rsVwRDN7A2X8TVn8+yF5YImWB2J7jILHRFeL/yWW+z26sV+TIOe7A7k4lUZChk9jq7w2jd36BoIXdAKbcghPI7xogiGJdUtZnqsvNgrFky5pSwtNiqLzV9Dr6sK6+KUzq0bDQRxtlnJpEZi3dXusyCWj77CYeBzU2lcOWLZ5AZi8trMkLP7IZExrWaOu5dW8Htq8sD5xsMBZDIRBCOBHjdWfPVNQPbyo1fuy2vGl9Nw8n4Amz2+8p3b6CwXu1Mh8sHsP7lqiunJW+f9Rzbamod8SzxeQiFAgiEAkMhs9fZ7ga4H/trq7edBg5hYOT6eUcy9uPKtatBWGoVlSlEdRhc5CZkaNnTF8cxfTbHHpAXqTkMxCrf7bcaDiMbCBBc+twpnHtmEuFIkLUToqwqCI5S5NdruPbKPJZn8wPnm8zG2Bux2FlLvgD47j7ObC/52o2seh3PidfaOq7+4j7uvrvCrv0RAra+wlnh8UmWOOqKimM+63l2c7ksrwO7tatgOMheVjMkMnuZlSN2L5521zj2/u0+XvC0wGd67AelpvMg5eTHiby2uwcsYT+oJQ4Ug0ZkQmIrQwEPKztzfhSj0ymr+m0DsVPd9bKEeljZSDSET3/jCWTGEp1LRWydCBTs5qgHH67ho3eWoLX1jjT7yTeViSIit+ajHfm2mhpW5/KObC/59ruMv7Vc4dv66QBfUhHP1MtAYV7ucZBZ9kSfPRRsjb8SFXBvV+lcDKlsbGhk9jIbANChZGpF2RGqPsJAO871EqwsZa/x4lZEOgjcsICAe+6AME5E8rtnLU2JGztp6EzRIJVJ5LehZDNjCUyfGUE0Hupr1usUxy0cVvbUE+O4/LnTiERDUs/yNaf8g4Ci1dBx5+oKFm5v7byy0yXfVC6GSCwkvWRQWPKlBnsMarfldVt+dkpL1wx89y/eQLXY5OWlSp9RGiThA4z0+uCgK589LKzhsiew2obMWd1wyOxl1rwJS1GyehOQMANWb4iYp5RzaiWBulScNCeEGxPluUReEEL4sitV0iPCoyADsmJgFXJylpiK4yVmMvP4plc4XOzxczlMnspC1GMvg7Dq4drP2+McdvYz//xJZMfNa+dUOGlU3E3A9Dx/cwO33lxEvdLadb7JLDPAhApHUGHBXoe59qCw6/KqcdXl547zBsVbP72HhdubsryWfCyuPeX3WhBHmX32cLGLd7ekEXZrV2J7zWGR2ctsgMeGDPI7sX4qnVpGFUaaOnR04jwgiEDMRJiBpNxqSi8ByndiGtcBWWopovm2KZaEaaal4aZiyZcMHQsQjE6nkR1PdB1w7cvRok7sg7jKHRU2nYvhhZfPIxgOcH+SyDqAjMvi335nGYt3tuT7cvvNNzXCDDDLg9WfqF+Rb7ul77q8Tg6A3XADwMZSCb/6mw8t+VrjUcsnlek7y+yzh4elhhnPrV2xnaoiQyOzl1lmgAlh/7oFZWCXh0TaRERR0lCi2o0vE4YPEkTYS/ZX2E/VyIBSS1EGYVUDLqUiVgPNTvABmKiz0+FiI7EQclNJJNJRi27VwVnqW6k7cd7pn1M47OwLL5/HyHgS9pQIUVgAqw+LmP1gDbVyc1f5ZsYSiMbDAFWqGmadtps6NpZKuy6vapDdmHqlhZ/+l/dRLTZs5WXCiDJDyCUaIZxl9tnDxVYKjQ6Da29XUD6HQWYvs/wmLIu1hGOgZoKWuC7RlSvOLqf5dJxyYyqSI1ZhAXPaztoFHYgVhptCDJZKfJsxtMxo6PCx6VwM2fEEK6nDTEc97jZwu8U/SmxqJIZPf/2CA6ukwevo5huLWHlQgGHQvvMNR4KIJcIIBAmEWyjvZQB7FrjV0HqS2SlftzYggq4buPbKA8y+vwpDN6yzacUroLZ2Ka7pOMnss4eLza9XO1Z47O0qlgjzDRmGQ2YvswE5oCvBsSMTyATNOaUbQyHXv+3xOCtjEyGjTFwaVCG8GY/JOggrDLKpHSptoWK3zV/UlHfY2NRIDOmc87O/YjlEdKCdBmcR1GWno8Q+9+Wz8k5yO6vW0fpCEfevr6FRae0q38xYHOFokHdKKusXYI8FFTZqXflu5d1pVr54Zwuv//AuGtW2JV9KlbZIqexPMl0QtnzmILPPHi623dQgJltu7SqeiiCWDA+NzF5m/e0IudxchaYB52mqxnzY2Gg8jFgyzA9Z60wsF4kO1MsMSQR1YD8qbCITxYvfeMJ0fCiVhletIxDg1puL2F6rdDg5veSbzEYRCgcBytspr19QCmpQtOptNKotV75bed0CIQTVUhOv//COlFvNl8cCQHnTEm2TKM4rHGX22cPFFjaqlnbt1q4CYlekIZDZy6y/HSHUuEo8YqpPDMLDxkbiIcQSYV6n1kHf7hh1myHZOVW3R4m99NlTyI4neftVdA+zjggI1h4WsXh3C+2m3ne+6VwcoWjQUpeyjRKCdktHOe/+Sspu5XULumbgw98/xP3ra9D4TV72fEUZRYmFs2GWGq4y++zhYRvVNptA7dCuEmm2u9cwyOxl1t+OkMdRZzxCccKpIDDTGSYWCmcPO3Ugt+PqDO6osclsDM985iTkcpHUt1lHlFLomoGbry+iVmr2nW8qF0M4EjTbLItkpt02UK80By6vGpZmt3Ht1w9Qzjdc8zX7CSuoGAfYebVP+exhY4OhALLjCZy7PIXnv3yOPRGwQ7uKJsIIqe3YQ+UdJjZketMiKo+t/DSPU1inl0Q5JWa+8mRHHDWwB5d5RkpdE4UTS2XgjUEYpEFYizxKcUSRKaVsnZ5aEmZxhoyFwtqXPu0zJOJUV7bv9t9HjQ2GArjyhdN495f30ai2mXbV9kPZ0hIFwfytDWwslZAeiys7w+ycbyobY0vQSkWq25mJGfBuyysdX/67UqjjvV8+wPJsHobBX/LhkC8fLwBQ3iaVpTXZWJ1l9lnvsNFYELmpFDJjCeSmkhg7nkYqG0MiHUF6NI5kJopwOLhjuwqGAmzbU2lhhrO8w86GxMCtdnBH48tysP5WDDWxnXNLQkUBswLFy50o4bMPUD7LhlkobqComOLvghVGWmxPCB4b9gYnTovjSlmHhhW6dqrDLkGN1ytzFNhAgGDseBrnLk3i5htLagIWlgBo1jXcvrqCkxfGEExGHFJzzjcznmA3YYnjSv0CbEu4Sr6xJ+XVNB03Xl/ErbcW0ai3rXFs+YK766LfmHHE7SI+6zU2mghhdDqNsWMp5KZTGJlIYuxYCvFkBNEEu38kkY6y96EHdh5D1HOpbAyxRBjFLetNg17V1aNiQ0CXDm6f8dpDl1MdcjmhVBgc5ZYtefc0M7CUssJIwyRM6C5Zi2CUnZNKtAhN+CF20BJvWFhVn30O0mpwmlEdVTYaD+OZF0/h5uuLvO2Y7Y21KeHXAh/+7iE+980nEXMxwE75JtIRhJQZhlm/LN12S0e5UN91edVzy/fy+OC38yhu1c3BwCVfueROILqP2Z18dujZeDKCsWNpjM9kcPxcDtmJBEYmkojGQ4jG2WND4p9T6Mf4AkAowjdk8KCuhol1rg1T7d1PdyN3QMVslXAjL4c1KowP+AyRG1J5nAzIslIRXjyxVM1WWJhVZxNNMY/mBeFLxMPEthoamvWdnxvt0L2yZL1b43VY2WAogBMXxnDs/CiW7+dlfZgeH2S3KG5U8eDGOi599pTjPsxO+QYCAUycyGDxzhZaTR0Av/TA26+YAe+2vCJ+rdzEjdcXMH9rE4bOlp7NyxSkI1/FjZXpiHg+O1xsMh3F8fM5jB1LYfRYGjPnR+W9BeFIEJF4GKFwgF/qsOdlfjfz6jSw9mC/JKKGYdbVsLPdDXA/45xIU8m4q0cF4QWo94xBEZ/IvxTMgBJusAZi+TgqGHmcG+uOgsgkydCxjWob9XKzk0Fnh+m2pNmtno4aCwDJTBTnLk1hZXZbtjFZRwpqGMDtt5bw9KdOIBgM9JxvOMqW/Ah4G+ZVTwE+A27sqrxq/vc/WMP11x6i3dJh9Yad86UsEwh3Vji21jbpswfNjkwkMDqVwqmLE5g8mcHodAq5ySRCfEvAYCiAUDhg2YpUDW6OXC+rKd3Y3FQSyWxMaVuPXldeZKUB7sXT7hrHfngH4y2cAMJ/WK9p8vNiNkj4nWN7wXKrzJYORBwoxpDIhAgoKOXmngwfW9ysIb9exVmHurF/d6q7XmZWR5GNpSI4d2kSr33/I6Z3KHVEVXtG8dE7S9A1A+Fo7/mmsjEEQwE5oaZKegCB1tbRampsl6ZdlHd1roCrv7yP7bWKTFa0JdNj78xX9iXRt3z2QNncZALHzuUwdjyD0xfHMXN+FIlMFIQAwWCAOW0Bwp+/7S3sdtVoJzYQZM8Bm5fHvKPnYWJDQOfgLW9iUo9QtUJkSpZzOwUrS+XNU4QQJTXVwIqjIr55GXu3rPBN2Cn+Sz46perRtPKUwpLHsLCFjZrcQJsZiN5nvU5x3MJRY4PBAMaPp3H64jge3toABZF1RKA4fISgVm5j8e42zl6aZK/wMyh/TSVQ3q5jaXYbG4slrNzPY2OxhPx6lc1KAasxp5CdslFto7BexeTJbF/lpZSiXmnh/VfncfPNRYi7CaQXLr09h3zVtiMGEp/dE5YQMMMZDCIQIAiFA8iOJ3H8XA7HzuVw7HwOx8/mEE9Futa3U//u1uftbWMv2UCAlYlNDoZDz15kzZuwqJma7LjKp32AF5mCdJ4Ta9xi6de5gon0EGSDgLA/TED5lctmrp1jIFaIQSk1S6jc6cQMn9LwlPING7v2sIjNpRImTmR67miizt3qRo1zVNlkNoYzT01g/tZGRx0BUO4/oHjn57OoFOoobNSQX6tg/WEJ26sVFDarvN4UWQixsNKxFU4vpdDbOpq1tpSpV5kNg2Lu5gau/nwW8poFXz5hYpgDQ0e+tr7rs7tj2ZJwyFwejgSRm0xg+kwOx87mMPP4GEYmEkikI6716Va/Tm3B7fx+sQB7sUsyG0MsGZZt2Ut1NExsiMeWDcE0xKJxyJHfZkChDBqdFcbNdkelw5qqtJSickEcBlBCLMYVA7CUc6yIxDRo/ISYUdsNtyjTsLFr8wWsL5QwPpMBIWY9MHUQy6f4Tik1dSarvdNQHWU2kY5g5sIYQqEANM2AqCMO83oAAIJrr8zhvVfm5Dm1DtT6dWJlk1babqPWRnGzhhMXepeZUorNpTJe/+Ed5dEQ1vEB2K5ld+Zr1Rv12Z3YAEE4HEQ4yu4sDkeDCIWDGJ9JY/pMDrnJBMZnsjh5YdRyfVZ1iu1tUg1ObdLJsdxPFgBaDQ3tlg6tpaPVaKNZ11DcrGF5dhtL9+z3SAxZHXmADXHCpTqUYDNu4EnLPGCrPLfj4rSQhAgzzQwNpabI0m+g5qI4FRnvklUlUdMjMi5XByWWPIaV3VwsYfb9VZx+chzp0bi7vm2ebz/hKLKBYADZsQTGjqexvlCSdcTqhXlysrqgdjPwPAFZc32yWttAvdruS+5mXcNHby3h7tUVS94sHzMj93yJ6eT5bAcrHucRn/FUBNlx1j6mz4xgYiaDkYkE26jeJQxzXzB0A62mjkalhXZTQ6OuoVFtYWOpjO2VMvKrFazM5VHcrEPXDNamh6yOvMjy1mKxlo4VxBK1nevWEDqfULad5lJSQF6dldGVkonZAxWeA7XNaPtjqbR04AeV+MRq5NXrxUQZRIeNvXN1BY99bBpPfmKGPZunBPsy0k7BaQn7qLKZsThOXBhjBlj1Xgn7J1cpVAMr81Xy75NtNdqoFjufBXaT2dApFm5v4o0f3+HZEuHDmXnzmya4j96ZrwkcaTYQIIjGQkhkouxlFYkwe8b2OHvkZ+xYCmPTaWTHEwhFrI/59NKunFYDD5rV2jrq1TZatTbqlRZqlSbqlRYK61WszhVQ2q5ja7mM/EaND6PSogxFHR0mNuRUqY4VraTdeZOWnaGQ16DsDYSz0kZyy0OUe7kpUWy7+KKMYPI2mF2wph0TJo4VSho8fsi8t9w837mEMxzs1koZ13//EJOnsxg/lpZvtQFnO5dG3IO98x5lNjUSw/Fzo3jv13PsRjcWE1Q8s00Ib41cz7D3A1jrt0dWaxn8VZg7ywwApe06fv+Pt5Ffq0Cs+hBpiJV2ILuDU75c1iPEBoME8VQUsWQYyZEYEukokpkIsuNJTJzIIDMWx8hEErnJZEefcgpOM81e2+R+sADQbmmoFpuoFBpo1tqolpoo5xvIr1dQ3qpje7WCrZUy6pUWDMp1Re0yeLN+vcCGpHFSKtetok17pgwwDjMOyivSyQJLltiv13KDzV/xJAYqbmOljOyZ2AFY8dtWKBaXuweEpWE35sPMfvTWEsaPZ/Dprz+OZDbW0Ynt37sFteMfZTYSDSE3lUQqG0UpX2fGTXHmoHi/ah1RpT+pddQr22xoKG/3tiOS1tbx/itzuPvuisxNdHz2l0Bs09kt36PAZscT7BWKqTDSuThGJhJIj8aRGoljdDqF7FgCiUzE8gILp7bhFtwmMgfFVooN1MstNKotFDdrKOcbqFWaKKxXsb1aQbXQRGGzajp3FGAvNYJ03B51HR01NiRMJbeaECaSSt9dCfK9W5AJs/TEgNPpqTmmA4AoVsbawIjlQ35VHQSK3bOAvBjeIZNy1ESsrsSwso1qG1d/MYtYIowXXj6HaCJscYz6NUZMFp/NjMYxPpNRtgjkbR5Oq0ScB7XUlVlzvbPNRhu1chOJdLSrzJvLZfz+h3egtQ1bXry7E/OYvS/A9vuwsJFoiF+jTSI7Hkd6NI5EKorRYylkcnHE0+z6bToXR7cwrG1Sa+uoV1oo5+sorNdQLbEZbmG9gmqRLSfn1yoobteh83bRkQe8W7+HiQ0p473405EIXOJANAo1EWnk+cxYMZZqkE9JUEC+6kkYa0LMmQJP1vIc7wCskJkKh0NNzDJrMVUol8yHnN1eq+K1738ESik++dXHEImHXTu923HV6/ZZID0ax/hMGvc/XBcJKRwAiNUVcVOKva5gtv8+2FZDQ63ccjTAqqyVfIPd9UyVtHjvldla/hDHfL3KhsMBZCeSGBlPIDueQHYiicxoXO7uk87FkRphj8zYddct2NtEr8Zzr1nDoNhaKaNabKK4UUVxs4biVg3VYhPVYgOl7Tpq5RZqpSa0tj6UdeSz7qy/HaGiIMLL4ZXtCJ3Y/HqFG2HgxW9ckMtpxKmubN/tv+2fR5FNjcQwOpWSeiYEyvzWrAzawdraXp9sq66hXmntKPPosZRkKUR3UJxVBlidAId8vcBGImwrvYmTGaRzMeQmk8iOJ5BIR5HIROVnJBaSb4tyMn5qW7Dq3YxvN5xOM9K9Zpt1DdViA5tL7DnySqGJ/FoF5XwdzZqGarmJWqmJRq0NQzek/qSuyKOvI5/tj/W3I4S4PmfrJOK0OK6UddjZwmYNv/3eLWyvVvC1P3+2YwcUta569cyPKhsKB5GdSCCZjaJaZO/dtqfQ9YZ/+yDcI9tqamhwA9xN5ngyouCUdwsiOphcgbJfCurMd7jYZDaGzHgCuckkpk6PYPx4GolMFPFUBMlMFJF4CPFkhL1Xu886tcjjYpz3m21U29hcLqGwUcP2ShlbKxWUtupo1tuoldgycquhoVEzb8YTuiT8P8C79euz7Li/HSFRlGgRWr0WbovnAba8XcfVX8yCGhQvf+cyUiMx17pw8tZ7DUeBTefiyI4nUC02+exFLC+Zjo91VYY7gsRsq+xw72yj2rZsS+gmcyBAMHkyi/WFIsuTUtbeCW8est3AwtrzfZRsNBHGsbM5TMykkZtKYXwmg5GJuHzJRSwZQSwRRiBI+qrrnZZ+u53bS7a0VcPGUgmbi2VsrZRR2KyhsFFFs9ZGq6GjVW+jWW9DaxvW1RoMTx357P6w/naEIg3KKIjHROQ6Pi8IX+b1EttqaHjv1w9Q2Kjin/+Hj2N0KsWT7P/alKy3I8jGUxEk0lHz6gAxzwkvyLolmXAOxWqN8BZ7Z9tNDc1ae2eZCRBNhLmzafWw1TwASB0453swbHo0hunTI5g4mcXUyQzGZzJIjcTk26TCEfZ2qUCQSLZbcLq84LTEe1Ds9gp7YUVhvYaNxSIW726j3dTQaupoNzVoLR1a2+BvVwMboIasjnz24Fh/O0JxnBvrjoLIJIkn2VZDw71rq/j7v3gDX/03V3DywnhfS2f2ejyKbDIbQzoXg7SQ5lluMEnHLQnixgxuh/tm65UWStvmDNhNZkIIl43zRFx1IhDOqTVj53z3gx2bTmPiZAaTJzKYPpPD9JkRJLNRtpVeOIAQf1+y21Z6bsHNoeplVWOvWK2lY2ulgtX5AtbmClidK2BrpYxGtQ2trUPXKXTNgNbSZfc028Hw1JHPPlrW344QRDLsk8iECCiGeTvCnliwl6ffv76G7/3fb+Eb//4FnH1mkkffoZIgjL37jSxHgU2NRPlrPokYP3kQ3i/MZSYegfLeSKHUUR+s1jbQamg7ykwCBCOTSaijvFj9sSQLiA7jnO8AbDAYQHqUvTVs5rFRTJzI4Pi5HJLZGNuyjm+hZ5/V7mZFQvAHzd6/voaVBwVsr1awdHcLq3MFGJSC6mz3K4PvhGWqUqnsPdKzzx4+1t+OUFg2wUo9mlaeUljy8BoLyjaPX57N4wf/6W18/d89h/OXp9j+oj0aJXvodRA7DGw4EkIkFmZtV3X4CLEaVQrZsdS4oo7E7YG9so1qmz+KFOkiK9s4Qnhk5vVD3haEUWcKcM/XgSUASJBYjWiAYOp0FmPH0jh+fhRnnp7E5MmMvNHPaYbppne3eAfFUgpz+0iDwtANVEtNrD0sYuV+Hsv381i5n2f7KguHiteNqivu9kKOuH3qeZA68llvs/52hLIY5nlmvJTOrJTPi6x5VzjFyoMCfvKfr+Erf3oF5y5NIhQOdjpg3GI4DWjiuFu9HlY2nYshmY2iUmAv5NhpS0HTmFrrqB+2UWujXm0ike7cJ1bKFiCYOJHl3rW1/7GGwlqL5bxTvoTILfTE8nA0HsbodArTZ0YwdWYEo9MpnLwwhmAo0KEru17V8076dDq3n6yuUxiaAa3Nr8G2dZS2alidK2CD3xy1dHcLpe26gy47dTWInn3WZwXrb0coDBo/IWbUdsMtyuRJVtULpVi8s4Vf/NcP8OV/fQnnLk0hFA44GirxW/3OZg5qJTgbucPGCuPEYa5TAMI5ZYBFzyKqqKN+2Ua1hXq5BTol0uqUmYBKJ8oqv+pAw3Y9miASCyEUCSASCSLM7zTOTSUxdTLLbpA6lUVuOoVIl8d8nAygXc9O8feVpexNUe2WjnZTh9bW0Wpo2FgqobBexdp8Ecuz2yhu1lArtzoMu5Ou7HXUj5591me7sf52hPyLnH0IdVBiycPLrDqssaogePjRJn713z4EKHDu0qRnt1E7KFYmQcQlAEjntpueeYKyk/bDNuvsOdBu8pMAwfhMWvyCdNR43oEAQTgaQiwZRjQRRjgSRDQexvSZEYxMJDExk8bEySwmTmT60pEIj7KOqEHRbLTRaupo1lpMX9UW8utVbC6WsbFUQnGTzXI1zTD1LBxUWHXF6sSsFPc66tSzzxFA4eQAACAASURBVPrsblh/O0I1PrEaefV68TBvR9gLa9adWSfzNzfwm+/eQDgaxOmLEwiGAh2zCvsMsVs4zCwh7DqoqXeYKw076FnWUZ9sq84eReomMwD2CE8kCEOn3NBGEEuGkUizF1dkx+KYPD2CiZk0MmNx5KZSCAad63o3ujoI1tApW5KvsM0GWnUN5Xwd2+tVlDZr2FgsYWuljEq+gXZLB+XjhNStXc9i/AFRvvJ64iDldeGzPrtfrL8dIXdXpNHih9QXI4jznUtl3mBpR/1AsnM3N/DGj+/KWZFYZhXxO5dV3IN9gD1MbDQRRjQeBnPiiNKxaE965rn0xdYr7NWDO8kciQVx5YtnEAwFkJtMITOewMhkEuPH00hmoo4vsOhVV06z1P1m2Xuwm2hU26gUG2hUWqiU+K4+KxUUNqoob9eRX/e3X/RZb7P+doRigABzDig30l7bjrAXlir1LFhdBz783UOEI0F86V8+g9Fp5d3Cfc6Q1HiHjQ1HggiFAhZnDor3u5OeKUjfLFtSdd4XWJU5nozgq//m2a5vO9upvG6hm+EelKWUollvo5yvo7zdQK3cRKXYQHm7juJGDZVCA9trFVTy7Jwh/U/VeJsDHftLMGxbzvmsz/rbESq/h3VLwf1ixQm5cmBjDZ3ixusLSI3E8Pk/vohkJsax3Rmyw8jWKy12PVa0eTitEnXXM/pkWw0NtUoLhm5YXlZhl5kECZLZzl2TBinvfrDVUhPl7TqqpSbyq2yTgVqZ7V1b3KzJ862G5piGvT2zY+pYA+54EzO+i5591meHgfW3I1QTs8xaTBXKJXOPsr1sk1evtPDOz2YxdiyFZ186i3A05Dq4uh23z24OE8teIahbl5OY5woQ0rOe+2XrlSbq1TaSGdPA9iKzU3Cage4Hq2sGauUmtlbKKG/VUdqusw3iCw1UCg3UKy0UN6qolprQdWq+XAaQ3ZZa/hBHXcnfnCU+67MeY/3tCBUFEV6OR72l4H6w5mBp0wkV1y0IqqUmXv2HW5g4kcXppybklm7EqZ5t3+2/7Z+eZ5XmbM5RzcrY6+0IBdtu6NBaGgDTAHeT2enaqnqZaK9ZXafIr5XZLHajis2lMkr5OurlFjO25RZqlSZq5RYMQ2mfgKoJAIqDzTK2Oi4OuqI+67MeZ/3tCCGuz9kGI3FaHFfK6kW2I9gHYX54Y7GEX//th/j2//oiUtnOa4pqPfc6ezoMbKXQQK3cAkw3z4yzCz33ylaKDVRLLWTHk33L7PZ7t2y90kIl38DqfAGlrTq2VsrIr1fRqLLl+Wa1jVq5iVZDAzXA/AjhIfN2Oej2bT7rs4eJ9bcjJIoSLUKr18Jt8TzH8kjcAdlpm7zZD9bw9k9n8dK3n3asOzU4zYp6DV5i200dWkvv0BWAXeu5F7bd0KC1tJ5l7nZupyVn9Vw5X8fmUhnbaxVsLpawsVRCOd9Au6GhXm2h3dTRrLfRbuoybelsQOmK1Jq2vbwEhK/gQHRbn/XZI8P62xGKNCijIB4Tkev4vCB8mdeLLLhuZGOQqwjCiwFMhEJrG/jtP9zCE88fw/Hzo9Z6o/1fP/Q6Wyk2UNqumyv8iq64Vnel517Y0nZdvv6yn7Layw04G2dDN1DcrGN7rYylu9vYXGZGt7RZY2+T4m+Uajc1GDo125xcTgMUF7ijbCJf9/L6rM8eXdbfjlAc58a6oyAySeJZlrcNdkgx6OZgaoFAAFTLTfzsrz/An/2fX+i6hNvPjMurbGW7geJmDW66sm9JBvSu551YTdOha0ZPMruVWz22MpfH9koFa/NFrDzYxtrDEhrVltw6T9cM6DoFNawLZqIcTjJTlgmEKyycYmuBncvrsz57lFl/O0IQybBPIhMioBiKLQUHZVnJIWfNXB+S5emIeOKmgvvX13DrzSVc/ORMX0ZMjePUZrzGimdTRS9z0tUgeu7GFjdqln2Be5W5WWsjv17F8uw2Fm5vYmOpjPWFIhq1trkDEN9Kz+qlE7NvCZEA0dmcZQYx+6HP+qzP9sz62xEKyyZYqUdzMBKevzjlNZZFJwKXDUSwBIoTQ4g0FK2Ghlf+7gaeeOE4giFr/fa6nOsUx0sspRT5tSq2VivsnIuuWOTd6bkbaxiUL/3yWa5h3X/W0A20Wzrmbqxjda6IzZUyVu5vY3ulAq1tQLR6XhjHfIU3J5euJcMdgi4s9Vmf9dlds/52hLIY5nlmvJRZhVI+L7LSoaJUGeStLADlmjqV6W0slvDBb+fx7EtnoV5LdKtXNU5nm/AeK/aHbdbawk4562oQPe/Abq9WsLlURjgaRDnfwPpCEWtzBazOFbAyV0Bpq+ZQHnFfAGsthCXIzjvla+u78Fmf9dl9Z/3tCIVB4yfEjNpuuEWZPMmqeuG6Ulm13tlxIlXdqLXxzs9m8dSnTiAaD4NSaupbNplOIyd+q9+9yBY3alibL1jbsIuuBtFzN/bO1WUs3d3C+mIJjWrbNOQ21iq/MPw8LdlGnPP1WZ/12YNnA5yQltk1qIZOHFLzsGQs8+w8Lk4TNgiadyWzv5SaIhORCzWXnumArINrAea4mPN+7qrIwVIo2ausGojgLKyYLSnJcNYwKDaWSrj73grnies/p6C2Ga+xum5gda6AhdubPelKDf3quRu7uVLB/O0tNKqtHVh2UPAQ5+Uo4bM+67PDxIodxhXempwM1EzQEtclOpt2ugfxekVCuTEVyRGrsIA6w+O/B2CF4aYQA60S32bQLLMh6l2WRRPHlQrjrJkWINwVla2Vmrj5+iK0to5uQTV6nfl2D8PIVgsNLN7dQrOu9ayrQfQ8KEsU60xt7YN3Fp/1WZ8dIjYgB3Ql2Ge6LDZkguac0o2hUG4Ns8bjrIxNhIwycWlQhfBmPCbrIKwwyKZ2KIQ9k+lSRUJqyutVlh2y1pmFBUXHndQK227pWL6fx+pcEd2Cmpfb0q9XWGpQbC6Vce/aal+6GkTPA7OKkyb6hCgPAWHXln3WZ312aNgACJSBnQW32YNpz8zzTjMOJofzAChZYl3SppQRYtsmcYrALJDpSeyelb9theIqNA04T1M15l5lpUGmVA7qKms6KCwupZ1scbOGm28sQNcMdAuqIRPLqL0aw2FiG7U25m5tYGul3LeuBtHzIKxo8YRIgPU3n/VZnx1K1t+O0EIr8Yh51BwMvcmKExQUxJHl9YjOm+UE26i2MHdzHVsrZUyezDpIYhoyhpGOY93CULEGxdZKGR++9hCGztt0H7oaRM+DsNb4kM6YOGbvCz7rsz77aNkA4QdFJKIk0vEfsR4Hn1aLJVICwgwrYM6MqXNaYjWNUjaoUAo5VacQ38V5cK+BzxIGYJnMYqZBZRx15iEUx/7x+B5mRVwCoqRhspYlEmqmC5s+NxZKuP3OsussWJ11us0+3Y4PE9ust3H33RWszhd2patB9DxQHYnfHBJ9mZ1X+4XP+qzPDgPLrgEzswwZKJwDtZ1QZ7rinDxEOuJYUKpkpCQrnAAiZtTEzFcYlUFYKpYMOMucCkViRYnsn1J8j7KQOuEEtbJEeGBqBg5spdjEnXdXsDZfYOdt7cFpNklsbcT1eueQsIZBsb5Qwjs/n4Wu0V3rahA9D8JS/pfKb4wHkYn5rM/67JCwAcdrZQTOwW5MVeNnO+eWhIpSECmUHFqIKT6bUSvxuWEdhJU6kFaMq0lRIlELII6r+vMiaw+WRtO5vO3EGjrF0t0t3HprCa2G1lHnOwU1/rCyzVobb//sHrZWKmoCCtubrh4Nyw6w9qC0AeGQ+qzP+uxQsQFAnHQIdsNsD13Gsh1IJrSIRNUZHhEWE+BfCSsRT5QMxFoEo4SZaq5Eq9BCgVQm7V1WeCL8+qIw2PKwsmTCz7mxtUoLH/7uIWY/WJWszL1PwzhsrK4bmH1/Fddfe7gnujpolvD2LboAYHYJ+KzP+uzQsf52hCINoSFKmOxUzqO5wFTeCOU1VjgeZoNh8QQLACZC+Q8X1qBYe1jEGz++i3QujpnHrNsVdq1zar3buJ9wEGy12MBP/ss11CvtvdHVgbO0o9wiHgCpA5/1WZ8dDjaAbqGfcY7afu4wexZGQq6fdyRjP65cqxuEpVZRCTdk5rjsIjchnmXVahROi4W11LNYznZnDZ3i3nureOsn91BYrzrnjc420HGZoosxfBTsP/3Ve9hcKpvx9kBXB8lScYybbkII+Belsfisz/rssLDSAO9kMHeMYx/T3MdHnhYTlvAflEKueEs5+XH5QPNesIT9oJY4UAwakQmJrQwF7FVWaoDwZkFtLCVKddHOpRMHVtd0vPPz+3j172/xvXI7g+P9Bfz4TuGg2bd/eg/vvzpvrirsoa4OjAXh7cPmh1MoTw/6rM/67LCwAQAdS3PUirIjyjIeLOdpT8Zb5GOy1HyNF/f2CZHyA4QNmKqBIZLfPWsZgrnBksbKFA1SmUR+8yxrfW4aEE1DOi0QN7bxCLQ3VtcMvP7D2/j7v3gDK/fzMHRjx9knY3trLwfB6pqBd395Hz/4T+/A0Om+6epgWKq0e6VhED5ISM/NZ33WZ4eB9bcjlMUwz1PKdCBlVsrnRVZcGQYV1ys6WQDKNXUxy+6Nvf3uCgobVXz9f3weZ56aQCQWgv2aqzB+rCzObUKNcxBss97G9dce4kd/+S7aTe1AdLWvrK3/sYbCBwWWIDvvsz7rs0PBBj/7+Lf+o9m7iWKIxeDGPzsMKEwDK4SQxoJl7G58eapMLjNf2AZQAimPuJWbDMiK5VxWRMJlMZcLZDwRiQoHhMfxIsuPEUVXUFj1OzvdP1srtXD36gpC4SCyYwlEEyEEAgHHuE5BtBsRzy7XXrKUAuXtOt788V388m+uo1ZuHaiu9ot1LrvZt0WX8Fmf9dnhYEPixI6BWGcWLAmeNlEz48HtuDitGkieGhWHFJxdD5P+BS/s7llVEjU9OfsQ6qDEkoeXWXU4Z1XBU+Qsi0+ZkRfJ7IKtFpv40V+9hwc3NvDpb1zA8XM5JDNRR8PYS1Db216xjVobGwtFvPaDj3DrzSW06hqwy/IOoqv9YYnpqMmeATaj5pF91md9dojY//1rf007h3mH0EMUa3Rh9twicCkpiwuYy6yW09ScZVOeMivb7lgIVkQUUqo8/xSKJTwu9TDbreqYvhglr6sPyMZSEXzyDx/HU586galTWcSSkS6pAPZl434Mbi9su6khv17FvWurePun97A6XwQ16J6VdyhYuXpl+cp+g5p30/usz/rsULAhpwHLcRAjqs3sNK5WhjIT7zCiCFYaCW4x5PUugQpWfCGQxodKI9w/a9oxYbJYoVQDxoQTaZrn1UHeSyztqB+rwQYoKOW6IQTihp9B2Ea1jVf/4RZuv7OMy58/jZMXxnDsbA6pkRicgt2AqtdudwrdWK2lY2u1jPlbm/jorSU8+HAdtXITsi3sUXmHg+UM/w5YdSHuvPRZn/XZ4WBD0jgpHd9t0DPtmTJIUOW6rzwG1cRa0xDHiHVJmwqDLR4b4oMNt7FSRkIBOggrftsKxeJy94CwNOzG3OssVepZZVUHBYpHNyhLdQMrD/JYXyhi7FgaF54/jlNPjmP6zAhGp5IIR63vgVENaL+zYYvxpUCt3MT6QgmLd7cwd2MdD26so1pihne/yvuoWUGIjs/+EohtOn3WZ312uFjyv33tr/kvyuOL64fKgC8CJVAeZoL0wyn4oEFhpsARp3QAEJcZ8o5BLeduWCI/+sU6vnuFNY91vyzQ7fxesCQAZEYTmHlsFMfOjmDy1AjGj6cxOp1CLBEGCVj5fo1vYb2KzeUy1h4Wsf6wiJUHeaw8yKPd1B9JeQ+a7Yy7u27isz7rswfDhuRJxWKzbw6YLQ7EAKkmIo08nxlL42wTzOLUU8jbk8HjU0V0ArnWzryJ3bNCZjbTsAlimXlISSGXzD3KUuJUbqVe1CUS6YyRPWepARQ2qihs1nDn6jIy4wmMTqWQnUhgbDqN5EgU2bEERiYSCEdDiMbDliVrSim0lo5auYV2S0et3ERxo4ZqsYGt1QoK61Xk1yrYWqmgVm4+8vIeNCt/894rUcsf4rM+67NDwirXgFXDav1pHjcHfACW75bHf9jJjjhqYIaZZ0SV4wonl+PE4CNEG4C1yEOtCiK8HFTh1KJQD7PmTNKmEyquW4jzZgb7ybZbOrZXythaqYAAiCbCiMZDSKSjSGaiCIYDCEeCiCasN2/pmoFWvQ1dM9Csa6iVm2jU2qgUGjAMs/zDVt6DYClEd1CcVcDab6nP+qzPDgsbsl9zYynBOdiNqbAAgJXvkoSKAsTkKTsmNlqQPoQ4LvLn3sVuWWGkxfaEgLjGZh0E5aRaHFfK6kW2I9hYe7SDZhvVFhq1Nkqb9Q7WMuNzSNK8K/hgZR4+lvJuQUQHkytQ9ktBPuuzPvvoWX87QrCBm3QITSCuhoukvcvySJTPoYQhk4cpq2rK2gLxWU+yFqeT903RJeCzPuuzQ8f62xGKNISGxKMech1faJEt83qRFY6H2WDEKgI1W4lEKP/hs95jWdsXQY0HsI7vsz7rs8PD+tsRckNmOgwucvMlTi+yajV6bYs9n+2dpeIYN93yngxClMbisz7rs8PC+tsRckNmGjQiExqmLQUHYaUGCG8W1MZSolQX7Vw68VlvsCC8fdj8cArzko3P+qzPDg3rb0eoTC+pKRqkMon85llWfRSMOWTUworbA6iIQH3WmyxV2r3SMAgfJKTn5rM+67PDwPrbEcpimOcpZTpQH62SzzV7kBVXhkHF9YpOFoByTV3Msn3WU6yt/7GGwgcFliA777M+67NDwQZ4bMggvxPrZ4cBZYnwLzBnx5AGwN34mqkLS0kpFVaEG00o3/k6OyHi8K5ZaikiN9z8mJQfJivuPhVG3ous1JFwtGysPEAIP0181oOsdSWKWj6FUfdZn/XZ4WGZASam5XYNioGVh0TaRERR0lCi2o0vE4YNLpQIe8n+CvtpJssGJLUog7CqAZdSEauB5q6KHPAI8TarBiI4C8tn2FRJxmc9yLKDgoc4LxoDfNZnfXaYWH4TlsVawjFQM0FLXJfoyhVnl9N8aZVyYyqSI1ZhAWoORJT/HoAVhpsCkMsEIr7NoKnlFdecvciyaOK4UmGcNdMChLvis95jiWKdqa198M7isz7rs0PEBuSArgT7TJfFhkzQnFO6MRTyNi97PM7K2ETIKBOXBlUIb8Zjsg7CCoNsaodC2DOZLlUkpKa8XmXZIWudWVhQUPmsKWtEPutBVnHS5N3/fIAgIGwJzGd91meHhg2AQBnYWXBaMmbH+adisDu9d5acYiataZhW0zLgiNu2xbZN4hSBWSDTk9g9K3/bCsVVaBpwnqZqzL3KSoNMqRzUVdZ0UFhcSn3Wi6xo8YRIgPU3n/VZnx1KNgQoCRAZXXR7a6AE6tKySFgYOJGBxRi7GWJKTENiMfjE8iG/KnGsj2z0yQIQb5bqkEk5aiJEGQy9yYoTFBTEkeX1iM6b5XzWO6w1PjfixDxm7ws+67M++2hZfztCNTFiKsl0G/jSASCvPXuNfdTb5PnswbDyN++9ErX8IT7rsz47JGxAdnaLYYVzoLYTimGVS6SqMbbFsaCmRJb8iBRcCGnmK8ekAVhKlMVxpgMpMuFlpKKslFrS9yoLqRNOUCtL1JYiMvBZT7KU/6XyGyBXt4jP+qzPDhPrb0fIY8OuRHFaHFfK6kW2I9hYezSf9SJLebcgooPJFSj7pSCf9VmfffSsvx0h2DI56RBazKepTNq7LI9E+fVFQiwsu0sP3DHjKfis51iL08n7pnxPrc/6rM8OHetvRyjSEBqihMku1/GFFtk6vxdZ4XiYDUasIlCzlUiE8h8+6z2WtX0R1HgA6/g+67M+OzxsdwNMup61BpGmkrHTzPqFl88jmgj3kfDehY3FEurlJmqVFraWywCEQiBWqNFREBEIkfd7EXno0bKhcACnnhzH8fOjPeugXmli7sYGtlcrZr6WbIV3RuTyimhS4mYDbh8km0xHcOH540hmYz3LMWzhjR/dgd42eiqvGdx1lZtI4IkXjiMU2cHH5YFSisJ6FTdfX9h1vhRg7UW0JSKGA9I3O3kqi1MXJxCNH3xf1Vo68msV1KttrD8solFr73t5D5pNZaI4cWEMuckkRiaTyIwlEAwFMHkyg5jD+KhrBgobNVRLTVSLDWytVFDcrGFtvoDCRhWtpj7U5e2XDYQIRiZSmJjJYPxEBulcHLmpJABgdDqFVDbaoSOhp/XFEtpNHc1aG9urZRS36iisV7G5VEIp3xiq8srRwc1gqqFrHPthl2hf+JOnMDKZ7JrPfgVqULmUxzp5FeuLRczf2sTcjXWsPyyg42UHlM8nCeRyA3sai882uQFlnwfLHjs7gpe+/TTOXprqWQfthoY3/+kufvKf3zfz5TJwLUG+s1Q5JmfclLsKCpsaieEz/90TmD6b21W9DEO4+vNZaJrBf3Uv7066isRCuPjJE/janz+rRt4xrD8sYv6jDVTyzV3lyxqLuD9A6YLCfpPe2ZnHRvHSt59GZizRs/x7FngfpZTyPgss3t3G8uwWFu9tY+7GBkpbtQ6ZBynvfrIgQCobw/kr07jw/DEcO5vD6FQSgWAAJMD6sniaJBAgjmMspRSjx9Js9kQBw+C6MSiaDQ0rD/J48MEabr29hPWFEjv3iMq7W/bUE+N47Mo0zl2awonHR0EChOlD6CjA6AAh8rujnqZTEH6rGPOFvgobNaw8yGPu5gbuX1/D5lL5keoqJIS2P7tLoBaQckMhbtiSKVnO7RQopQiFAwhHgvI3oKZL5HH7d/sLPwZlY4kwUiMxnLgwiue+dBaEEGwulXDjjUXcfH0Baw+LaNU1VnFULS0PwsuhIk21DoT3g31jCSE4fn4Up54cRzgSdCyjU52EI0GcvjiB4+dzWJ7dZgzEcif4iK8M9hSysRAC2biEzEKWYMis151CL87egbNE9o0dy9tNVyAEI5MpXP7caYSjob5kzk0l8YmvPI5f/+2HfeerPsbEDvF2JJwJJkjPbCAY6OirbmVw63M7tcV+2Mefncbjz04DADTNwNK9bdx+ewnXfjOH8lYdmmaAGnTX5R1EV3aWAAiFgwiFA3jihRl8/A/O4/HnjvVcXqcgnuwIBNjbgwMKG02EkRmN48Jzx/DVf/ssSls1vPWTe3jnZ7OolJrQ2jqosX/l7ZclAILhAILhAM48NYFnXzqLZ148KftLv23DricSdI5HKcX0mRFMnxnBlS+eASEEpa0abr+zjHd+PouVBwU0G9q+tg07+8i2I+ymSPt3uyEdhHWqYHFufCaDL/zxU3jxjy5g4e4W3vjRXczdWEe12ITOZ0cieUqpqR3btnEESgNQdLOX7PiJDB5/9hhiyYhjee3lU49Nns7i/OUprD7I85kG56loKIrDJZwxShXDZJXZrlM3WcTxbm3iUbIAei6vm65CwSCmT2dx5ukJpe56kzmWjOD85Sm89U93USk2+sqXgMjGKa8xEUAsnxCWkSzjjqwio70Mdj07lc/t/F6wwSDB6SfHcfrJcXz2m0/i7nsruPb/t/fmz5EkWXrY53lnAplIJO67ABSAuu/qqr6ne3rund0d7T0UJVHHDxQlGSmTjH+CzCTTyoy/UCaJS1JGitxZcnt35+zpnu7p6fuoq+tCoVAACvd95IW8XT94uIfHmZGZAArYTS9DZWaEf/6999zD33OPCPf3ZjDzYA2ZdB6lYqlyfWuxlYT1+T2ItIRw/tUBXHxtEK3dYRDXwdoqHAvi6z88i9f+6AxuvjeNT38ygbX5OHKZwp7rWwmWuAh8fg+i7SGcutaLS18fQmt3GC63C2xmklalb622uvLNYVz5xjBmH23gn/9Pb+1b2zDD8hAdIglHzC9C0fNrnS/kzsqonBrrlOnwdE6wnBOpFWvlrOVyvX4Phs50YOhMB6buruDTn05g+t4qu38gzENUR8pCG6Y7L0vIpdpjr7CEAO39Tegba9HoLttAf0zWuSHiR99YC8KxIOIbu5p6Z1AlqIIkKyGincgy61O5YEgfCJk5yGeFdayvja0aon6ce2WgKpkJAdp6Izh1vRefvzVZEa++zrUBNHT3lJ1gzZOZnZ2M4PYLGwr7ce7lAZy42osHn87h859PYnF6C9l0XsnjVN9abEXg9hA0RoM4/XwfXvj+KFq6I3C5nq2t3B6Cq98YxqlrvfjkJxO4++EsNpcSyGULNetbKdbr96ClqxGnn+/D5W8MIdbRaHvNHrStQIBILLAvbcMO61EQlgJKkhodmMyhM4TlcSmZRSflnKU+X6VYvTz6vPo0dLYDQ2c78PkvJvHxjx9hZXaHTeeAGx7qiAmKKSkRnSXPJzPUim1oCmDwdBuibeb30s300durf6wVw+c7ceu9aTApKHPyXARZTlEulwBC5nJtR89bSTporFN9rWxFXAQtXWEMneuoWuaGJj+Gz3fiqw9nmRNxwKvKTNRATZGb5VUzV4J1osNhqV9/0IOLrw2i/0QrPvv5JO5/PIet1SRKBbrvtvIFPOgba8HzvzWGkUtd8AfMH7x7VrYKhX14/Y9O4+S1Hnzwlw8xcXMJ6Xi2prbhFOtyu9DY5MfxC1249t0R9I7E4PGWv1X1rGzF0t5eR3bYZ7IdIY/+9RGKfMzKgHbTD06w+j/9qFouU07Pffs4fv8fX8fIxS74Ah51ioFnlRwmm4mQOjHOp2SvBQuwUdLope6yMuvtI6fmjkYcO9WGxohfkgNQunvBq8VKZSgyy01HPzthxmuVDifWRl8TW/mDHpx7eQChsPkTmk54PV43uoebMXS23TEvxxLunaHeOxb4arZRcyiz3QjjoLEtXWF88++fw7f+8/PoOd4Cl7LY7n7ZqqHJj3Mv9+N7//UlnHmhTzjfw2Yr4iLoGY7h2//FBTz/vVE0tzewh5sqQmyGnwAAIABJREFU1LcSW7k9LnT0N+HV3z+N7/03l3DsVJup8z10ttrr68gGe+DbEerzO3F+8jnZuNVgzZxyucSddc/xGH7nH17B+VcHlFcFqPCjohQK9ReXE7xy1GPVYv0hL/pPtKKtL+JIZqupUADSK0wUtWyTx5N++seK1yw9a6y+HDnp9bWyVaQlhLGr2sCoGpmbWkMYPtcJf9DjiFfILAV4e7GNmt4WVjLbzXA9C6zb48K5lwfw9T85g4GTbXC7yb7YqqEpgCvfGMYbPzyH7qHYkbBVtK0BL/7OGF79g9No621SxlCVt41ytnK7CXpHWvD6n5zB9e+NoFH3iuJhtFUt+laLPfDtCPXGkoW3M5zMUQtW37maOWWz3/xYrLMRr//xGVz42jHxAJRSslIZAChRv7MCpJGveqwabFNLCCef63Essxx46HVv7Q6j70Qrgg0+yI6fUpVXBAKUCkcky6yfAdHXrdNo9FljAVSgr9FWbo8LJ650I9bRWLPM/iALsthrXfa8ssxQ5lEIEQB2rVaJBYztykxmq/SssSeu9uCNH55F32gLXK69tVVjkx9XvjGE698bFa9VPmt9nWJDYT8ufO0YXvztMTR3NDrStxJbEQL0jrTg639yBudeGjAd9R5GW0m5KtK3Flu5mKtUIgdpbEvN/lHtcc6ndlbsH1G8vFk5VkYzMw7Pp/+sBSvntxzxWPwWUWRrA176wUmcvNoDl1s1suQzhel5B06UE5xXltYp1uv3oG+0Bd3DsYplNgtQvH4PRi52ob2/idkTVCMfke1EJFkkmfXBmL4+ygVGhwoLZ/qa2SoQ8uLyN4b3TObWnjCGznbA63Xb8mpkBkAkqbnjlmvKKbYSmZ2kZ4UdOteBr//wHFp7IntmK3/Qg9Mv9Imp3L2WOb6RxvZqClsrSWyvprC9mhIPlZVLTnkDIS/OvtyPS68PoqEpUFHbKGer3tEWvPH3zmH0srPZoGptldjaFTbinzvrqZra1V5fR+Wwz2w7QoGQFNd3XpvLSTx9uIbdZM4SXy75g16EIj74Al5EWoLstQATLruOU99BUlDEOhpx9dvHsb2WwvT9VaEjAeQwA4Q7UjnSIoBY2opSx9hQ2IdTz/eKe9CVyKxP/HjXYBS9oy1Ymt5GPltQAjkmk9Nt8tKJLO785ilmHqzZV4aD9Ny3j8PtcdnKzNP6QhxPx9cdd052qZAvscjUgb4Ab68At9XIxU509DeZBkJmusht0CxPKOzHwMlW3O8KY2V2x5J3v7ZR0ye9rLLMhXwRy9PbmH20XpnRpeRyEQTDPgRCPjQ0+dHc0Yhgo1d0Vna2sko878jFTrzx987iL/70U+TzxZps5XYT9I214oXvj1kuKGRnKzkViyXE19NYX0hgez2FzeUkcpkCktsZ8dojwOo80OBFoMGHRsU2rT0RxDobNatmOeXlKRT24/I3hrG5ksK9j2aR3S0Y9K3UVpFYEF//k7MYvdTlyBGWk7mYLyG+mcb2Wgo762nsrKeRjudQKBSR2mHvOMvJ5XIhHGPT3b6AB+HmIAINXsQ6GxFtbUBjcwAer9uUl8uzl9dROaxHVVh2rNqfkrW0ztTMgWk9uqnzNYtyzBrK2nwcn/3sMdaVZSOrSV6/G/6gFx6vC8GwH00tQXQMRNE70oKuwSgCDT5TR2wmm3zc5SboG23B5TeGsLXKGgeVK0JnBkq09pUrhii8dli3i6C9rwmDZ9o1MjmR2So/wBrp0Jl2TNxYxPpCQiOc+TZ5VIjGygFSO1l88dYkXG6XRS04T5deHxRTVlYy8+8rszv45MePsL2Wrpm3kC861peKRq7a6rlvjziS2eycVR11Dzdj8HQb1hfiKBWpKa8sM58yhzLXxAM4zXVLnWH1cuo7R/mzkCti5sEafv0X9+2NbJOIi8Af8LDrNeRFY1MA4VgQncdYgNg5EIXbQwz8+pkeK5lPv9CHmftr+PgnEzXZKtwcxMu/e1IEW+V49bYCgN1kDrPja5i+t4qlmW0kNneRjmeR2M4wh2IyaCGKjQIhLxqa/IjEgmjuaMTAyTYcv9CJaFtIvE9rxWtmq2hbCC98fxSrs9tYmNxEidbWrl76wUkcVxZMqbSOeJ5SiWJnLY3p+ytYmNzC+kIc6XgW6QT7y+4WUCwqUlnYioIt1Rts8MEX8KAxGkAo7EdDkx8t3WH0DMfQeSyKcCwIQnR9fJVtoxrsM9uO0AyjT4V8Eal4FomtXZWfKqQCSkGockubcIXZMXaWarCEEDRGA4jEgmjpDmPsSjdGLnahqTUkZCo3suTnfQEPRi51YfbRBr54a1JtcLwF8IqR7FTtloK+oAenn+8TT9jqG61e5rX5OFq6w5p3Ec3sTgjB0NkOdA02Y3M5iWKBGmQ2KUBTTqlEkU7kpOjRiNWM2kyK5FiroFkvM8CWE03tKO2jRl6iiy3t9NVnGzzdhr6xFkcyb62m0BDxw+u3fxWDtdMg+k+04dGXS9heSxl493sbNb0OVolSiJGbHOCzoqgo3qyOxBOhIEjosG6Pi12rLUG09zXh/CsDptOahr7HRGaPx40Xf3sMj28tSYFmZbby+t04/8oAhs+bv2ZWzlb5XBHTd1fw5dtPsPJ0B9trKTbq1NtKx8tTqVRCOpnFbjKH9fkEXJ41TN5ext0PZ3Hqei/OvTKAUNgHu2Qmc/dQMy6/MYyt1RSSO9mq29XJ53pw8bVBeDzl7/la2WpxahMTXy5h4uYik2c7g3y2aGhXcNCeC/miaJOby0mmhhsINPgQaQ6iMRpAW18Tjl/oxKiyUlkl+lrxVoJVV8IyS/oRrz7ZnLLrvy2Ls3J6IKpj4lNklDsr6XEv8eQ1c9BsBlGLBQWS2xkktjNYfrqN2fF13Pt4Dle/NYyxy93weN22F5Le0UViQYxc7MTUV8vYWEpKEqsxEFvDWTII1R3TGMsECyAcDeLcKwOObJfayeJX/+4ufvDfPedoMf1g2IexK92YHV/HznpamJLJx3sHZUqcqPZnh3mcpw0iqsU6TWaj/Wcl8+U3hgzL6FnJfOOdJ+gdbcHx851l34d0uQiGzrajdzSGrdVkWZkJlGc5CPgloF4SIg51hjWTvVwd8UusFl4ZW8gXxdTj4tQWnj5Yw8ilLrz8n5xErKNRU66pPDqZo+0NeO7bx/Gzf3GrclsR9tDic98ZgafMkqtmI+PE1i4++utHuP/xHDZXksoIrjZblYoU2+tpxDfSoi/7+g/PoKUzbLpWspWtXG4Xzr86gK8+eIp0Yg2lEq24XTU0+fHaH55GY9S4IYuTOsopa9TfeGcKic1dpOJZcZ4NUfemXdES2Gg6ngWZJZh9tI6JG4v4+G9C6BttVepk766jcthnsh2h2ZSE/pzmGLAv2xGWihTbayzKWl+MY2s5hUtfH7R9j1N/YbncLhw73Y6hsx1YX0wyvcU9AMIzio6cAGpHLkZ8LJqwwrq9bpx9uR8NEePo16xjfHxrEZO3l/Hw8wVcePWYqY31o+axK924+atpxDfSKJWYTM9miz3zZHdfa294q8O2dIUxdqXHkcxbqynM3FvD2lwc3YPNthsdcExTK+sYpr5aRSohdUqmMlNDGWqEByGLM6xcRmUBUm285thCroS1hTh2NtKYf7yJ7/yDCxg622F6LVjJ7Pa4cOp6H7785RRWZ7crktnj8+Dad0YQ62zUcDnhTe5k8Jf/7DNM319DNpVTAhXiiNeJrUqUIr6Rxt2PZrHydBu//Q+vov9Eq2H2y07mUNiPy28MYXlmG+lEtuI6uvC1QXT0N5nOuJWz1eZKEn/zf36J2fF14Xj3vj2bY3OZIjaWEthcTmLxyZYyaNt/Xn7M/qZdJf5X5zftbsDzuX+rc/KnWrz8tCqPIPhvvQj64xKWakUlhKCQL2F9IYH3fnQPX7z1xPDQl6yLfuRFKUU4GsDxC51o7Q5bKWzKq51gsLAXIfB4Xbj42qCB1yrd/NU0UvEsPv6bRwaZOV7/uzEawNCZdvhDXiVIUKZl5Xx8ulaWWVMUqR3LzzqQeU95q8RefH1QTPuVk3nm/ho2lhO4/+k8VmZ3UCqqD9pYYYmLYOxKF7oGo2Vl5h07UUIGQni0SaSG5hSrymF1rRpk3hNee2w+U8T8xDr+8p99hk9/OqGRTe47zGQmhCDcHMD5Vwcq5g2F/Tj9Yh97nUkXBNrxZtJ5/Pn/9jEmbi4hk8rvcR1psYVcEYvTW/iL//1jZZpdrSMnMp97ZQCtPWz0XAlvQ5Mfl14b1My2OeWduruC/+9/+QATNxbZqHTf2rM9FpTV1UHzCgds16E7yqNv75U4bz3U0NnyUS2XA+qsLVVej6I8r5qJ9Z86rBKMUE0egJbY1O17P7qHL99+IipDL4/phe0i6DwWRWtPWAhBiPKuFx9JWPEKJ0wssedeHrB07nJkCQCTt5exOs+2I5t7tI7Z8TVLh63X68o3hxFuDoqBnrr6FhOSKlGeRma+baKSby+wXJ5yMqtpb3grxfqDHlx6bRBuj6uszPlcAY9vLWFrNYVCrogHn86znVcc6NveH0XXULO025SFzCBK29LF4RTSwnQVYm2SXuY95bXBliiwvpjApz97jOl7qw6lZckX8ODEcz3wB7wV8Z57ZQCNTQFHU/Fy+un/cxNP7iyrDw3tRx1JWFqi2FhO4i/+j4+RSedEHTmR2ef34MwLffB4XBXxnn6+D1FlZS2enPBO31vFT/6vG5if3ESxqLzKut/t+ZBhXYAxStHfLAa0795Cc546ct6cR/9bjpSs8nHnRAQ3VZcAU0YohAjdAcIjLCNW0xwUZyecJKXYTebx4ZsPMfuQ3Quxk03+3t7fhJ7hGDxeF0RFEDVQsOflBcKAdRHg6reGNQXYyXP/kzmkdjIiKPngzXHNVmRy0ts52t6Ak9d64PO7hczya2QsmOM2UVQBfwccIpKsBas1U3mZReE18laDvfzGEEJN/rIBGqUUk7eXsTS1JYLHG+88QXona5hRMcO6XARnX+pHR39TGX2p1O6lRkWUTkJEfU6xZeyuk3nveMtjKYCl6S38/F/ewtL0lsN+hMnbEPFj6Gy7c14CXP3msBi1mXHoj9ESxac/ncCt96ZZALdvdWTEUgrMPdrAr/7tXXHtO5EZAC6+Ngivz+OYl7gJTl3vRShifPjLjnd9MYF3//welma2xWBj/9vz4cO6uKEgdwQgWjDUhke4pxPlWzRKajymv38qN2i7Tkw0LEU6xcNqeKliBKJMCXBqI5Z3rFxOBUtUw22v7+KTnz7GxmLCtLGa6UMIQedglEWCUHRSuNT7Hfa8iqU12P4Treg/0WbLy9PWSgqz4+vIZ4uC99GNRawtJDR4/b0qWTc2pareAxcvv1DV8ehlBsDeVeYIUSeVY2U5ncq8F7yVYr0+N05d74VfrAtuLXOpSDH7cB0bSwnBm8sUceNXU+J9z3L6dg81o3MgCo/XZSmzxjaa8JyKd8krwkpyyeftrok94a0Auzi1hc/fmpS2CzXei9XLHGjw4Ziy1rYT3taesOYdb7lceUpVPr++mMCHfzWOQq64v3Vkg/3srUmszscdywyw7fl6R2OOeQdOtqK5oxEul8u0bZjxFvIlfPbzx3j6cE1sbHMg7fkQYl1KbogkvhPtp67j56TKF2NlEnPjy5Ujn7O7sKE4VS68KEmJOpiySpRB1bBEjJAlLNWoyB/gYseE/AAmby1h+t4qewReMqwqklYfSilaeyKIxIJSJMqnmoljXhlLCPD898fK8nKeO+/PYGs1peEt5kv4/BePxWhe3ynJNqeUoutYM3pHYmwPUy4r5VEbz6urIyEz04LrWw3WTE8rmeUiauWtFHvyag/a+5vgcquLhljJvPx0G3MTG8gpm31z3s9//hhp5aGTcvp6fG6ceakPTa0hS5m1dqGaTyrKrARrTDxo1su8t7zOsYVcEbMP1zFzf820bZjJ7At40D3UrMxWlec9db1Po69ZsCQfK5UoPvv5Y+xspNVS962OrLGFXBEfvPkQxUKprMyyrU4+1+OYt/9EGxqa/AKrbxtmvJO3ljBxY1FZ+GP/2sZRwPKbV+zPLkkOVhziZROeRSpDymp+oWods95Z6zs8WRU+lFefaGb/c9+rikQMWNmBC6mI1kGDALlsEXfen0FqJ2PaOcqy8r9YZ6PyYjcRHS0hlfFymUHY1nYnrvaU5SWEIBXP4On4GnaTWQ1vsVDCw8/nsb2W0uhg9QcAL/7OCfgDHuhrjRAJK2RWpluoJL6sY4VYOcltwEpWjdlq4K0E6/W5MXa1G6FG47SbXmZaopif2GCrWel4EztZ3P90zrG+x061o623CW4PsZCZKMGw2l4IV4SWs5URy+WwS1qZ94a3UuzK7A4mbiwinysa2oZZIoS9PtgxEHXEe/I59Sl3fZ9l1iZ3NtKYuruCfK6473Vkhy0VKR59wRbYKSeznIbOdTjidXtc6Bxo0qzGJSczW+UyBUzcXMLafPxA2sZhxx767QjFcfDIQRrKU8URc1GIVlGAGrDccVPBK+XXOcOnD9exsZwUT6tqR5zGQCEQ8iISC8Lr075LXO12hFe/NQyP11WWFwCe3l/D+kICVH2wVvAmtzL46v2nlvUhJ0ophs52oHuoWVMvSolS4UQNwMDVoRrearBcBi22jMx7wFsJtns4hr7RFs37oFYyxzd38fTBGhKbu6a8H/94AvlswZG+wUYfzrygLsZyWLYjlIy0N7wVYgu5IhYmN7E6u+NYZl/Qi5aucFneQNCDrmNRDdZs5Cin8c8WlJXxDqCOymBzmTwefj5fVmbZPp3HmhFUnuy3421qCSHa1iCWdjSzs553fmIDcxMbKBXpgbSNw449OtsRip5TerpMoRDbp1EIZ6ycMGCJ6Eh5KVT4QslvA2ArqUzdWUE+W9REc3aytnSFRePlHEwm57wAEG0NYexyj+m6yHreTDqPx7eX1SUZdby5TAEPP59XVxSzSZzr+vdGDQGSLKZ0uaGWrQz1WC6D1RSZhdA18zrFupWHTppaQ5r8VjIvPNnE0/F1UZKed3V2B0/urDjW9/iFTrHCmUFmKcA7yO0I5bz7vX2bFXZ9MYGVpzuOZfYFPIi2N5Tl7RiIstdyJKxVoEQpRbFYwtTdFWSSuX3V1yk2lylg/IsFcS/aTGYzWw2cbC3LG+tq1DhqMzvLtioWSpib2MDq3M6Bto3DjD0S2xFyhdRIQv+Al3KPlbCukp8iJljxW6eUIoXqwJUyF55sopAvmkZzZlM44VgQ/qDXEAhUynvmhT5E20OOeJent7D4ZJMFCia8pRLFxlISj75cNNjWLFFKMXKxi71WJQVK3BHJMmuGlFSxvcJbFRZq+3Ay2tgzXofYlu4wjp1qE1tR6tuyLPNuMof5iU1srSRteT/+8SMUCyVH+kbbG3DiSjd8frdBZt7iCRFk7Fp1oK8ZFjD2BWb6qnn3hrcabGJzF2sLceSzBUcy+wMexDobyvK29YQ17/7azVIQQhDfYDv0FAqlfdXXKbZUokhsZaRV+owym9mqvS9aljfa1mC7GYS+7NROBusLceTShQNtG4cZe+i3I+RqiBEkIB6q4hii6Ef4P2KDZSDRQGRGIoUWvMzFqS22Uw70nFLUIyW+zi83Pe/AK+ENNfpw4moPvAFPWd5isYRpZfqZy6znJYRgN5nDw8/my+4sxesjGPbh2ndGVE4i6SHJzOxNRL1z3YTdK8TK+tqNNuS0F7xOsSMXuxDrChvkM5N5fSGOmfurKBWpLe/c4w3Mjq871vfMi/2ItISMMiscXGru9FWtbWylw5olK32lmqiZt1psqUTZpgYJ4yI6ZjJ7/WynnHK88gjYqK8xrc3tIJPK77u+lWDz2QLWFuK2cutt1dYbLsvb1BqCX3HA5dsGsL2WZmsyH3DbOMxYl1qA2snwQgz/iPY4lGG1KgiB2ASBj4ypDqNLcqVZNW4eYfDz4uluHhBQiBE0H2myY0Ysk5kHDVTkkUc8nJMCiG+yLbBoSR2hG6Yopd+hiB9ev0cEJESS3ynv8LkOtPc3we12ifKteLdXU5ifWMduMifK0fNSKFvGzWxj5v6qQWZ9ffBz/AV7MX0iZFdl1kyvUFUfSHVRCdZONuvjtfM6wUbbQhg83S6WBJVtpZctnyticWqLvaNahjebzuPG21OO9W3rjWD4fAfbi1pu81wHhZBfbVS2kYW+eqyZLHb68nqolbcWbHI7g7SyXKcTmd0eF7wBty1vU1uIvRFQxvHytDoXRyadPxB9nWLz2SJ76Mkm6W3VGA2U5W1oCoitUcu1DYDvc6w+GX6QbeOwYtk9YAJoIl+rtqY3rBStC6OLQ8SQR4URUWH8zzYp57lTYVPr1CCrGOEQJScxYimRJscpDzwkiSUjsj9gZ2PXspHpR6X+oBcej0tgBZVDXo/HhbMv9YtH+zmHFe/s+Dpbw1Qns8zL8+9s7OL+J/PI7uYto1Q5kg3Hgjj5XI80KiOibC4z4dGbrJiOt1Ks2YyILJexvewNbzls/4k2dA1FxcpXZlE//9xZS2Hy9jJ2k7myvKUixfT9VSxNbTnSl1KKK98cRrDRZ5BZaSWg4hvjVoNya331WJmbt0ErfaHD1sJbLTaTyiObzjuW2ef3oDESsOXlbzWYje7M6iW+kVYeqtt/fZ1i89mCWNPAavCgt1Vrd6QsbyDkEZvX2NmZ8yZ3Mohv7T6TtnFYsYd6O0I9FQhRHJWiCeem3LkqowtQZYSuHJewfBReybaA2XROxB56e+kbXkOTX0wdizIlO5XjHTjRiq6hZsNOOWa86UQOcxMb2NlIswBDklnPC7CnRRefbGLxyZbpvsL65PGwNahv/3pGO3Wtv9B0OOMWXRpFbLFWSZbTSuZaeMthAw1eHDvdhmib+SbsciqVSlhbTLDZBoe8ia1d3HpvBt3DMU1+/Xeeuo4149ipdtz/ZE46SpXLgqiBg9IeZKdqrq8Ra8VtlQjZG95qsel4FulkzrHMLjeBx+cSfYIZb0TZL9ZSX93v+MauWDtgv/V1ii0USohv7lrKbJYaowGJ2sgbaQ6I5yCcJEIICrkSCrninurb0h3GuZcG4AuU342sXNpN5vDBmw8d8dYis4z9O7kdoTovwM4JI2qEJsohio2lBKi0LKWt0/K64XIREQgAOo4yvGNXuk13yTHjXZ7ZYktmFrkFVJm1vAoBZbpM3FwUDlhftqbjdxG09oRx4rke3PrVlGJL1f6sSCp45eBFz+sU6zTJkfxe8JbD9iivHrm9LgOvPu0m85gbX0dyO+OYN58rYvLOMtYXE6brfuvryO0hePkHJ3D/4zkhs5g2J+CXgHpJSAGkmb56rB2/VeKXWC28tWAL+SKKee0GF07aFbXhdbuNbyHIMulTLltAsVg6EH0dYykRD5Ja2sDUVta8voBHvIZXzs6EEKQTWcQ31K1O90rfE1d7cP17I462XS2XttdS+ODNhwdaR3+ntyMUnSIhygiXNVY2SOXjaIJcpiicvN20qOYclwlKWYSU5e0ebsbAqTb4TaI5PW8+W8Tc+IZYS1Uvs8zLAw8CILtbwNyjDSzPbKNjoKlsB+UPeXH+1QHc+3AWuVxRcKgREKDSqRHF36btCN0eNwZOtaFzsNnWVjzF19N48Om8svqYQ17KcI9vLqG1O2yrL099o63oGm7G4tSWIrP22pE5AIjyzPXVY+UyKguQauOtAaspY69kts6vv/b107n7rm8F2GK+hHQiK94hN5PZoKMtr9EOdrYqFkpsYZI91Nfn9+DcS+yBxGq2QdSnTCqnDNoOro7q2xEqTlCls5Yb0OpV7iKVMjriHTrbjpZudTNtfUOXsZsrSTwdX1Pe77OQQeHVWJJSLExual5JsruAXC6C9t4m9I22iIBHYysNVKkZE96jvB1hx7EmHDvVZlhgRZ8opchlCng6vsYWhaiQN53I4t5Hs0jFs46mCt1eF659+7i2/RM290I4hn2RGpq5vkasymuls6GO9oS3Bqxkq3Iya64nC95wc0Czw4+MNbtFEN/cRXY3L0rdd30rwBZyRSS3MgaZrWzlchP0DEWteXXl6JOtrfZI36FzHYi2N2icb7k6smsboowyvLXIrMfWtyNUnKDqDEXPA7EtoI1s+uNqhKU+CeeENxILYvBMOxqjAVMuPe/6fByzD9etZZZ4hQUIaxa7yRwWJjewwxfusEmEEERiQVz55rCIiDW2orLjpOoT6ia8TrGc16y9mdt/b3itsJ3HmtEz0uLIVulEFuOfL7Lt5yrkLZXYghLjXyyU0VdNZ18eQDgWhLgiKMXf9u0I90Jm/WyVGW+kJSTeRLDCyim3W5CmwA9QXwdYSoGSk8GClNxetz2vTSpnq73Q9+S1Hs3GMY54y6aDraP6doTS0FTQUv4fi15cbmOE5UhmogYKdrwAwfGLXegeihnsY/Z9ayWJh58tILmTtZRZ5uUPAYB/UIrp+2t4fGvJUd15fG70HI/h2KlW8GYlAh6ltVBeOLXmdYLVmsl4EZnKuwe8Vti2njDGrnQjFC7/wEmpVBIOtFre+OYuHn42r24OXqZ+/EEPXv39U4qtqNTupYZBlE5CRH1m+pph1WQlhzZI3Cve/ZdZe86cN5vOG5yWMeiQ+i/RBx2kvk6xRrvY919CYQteY3lGqNUMYe36tvaE0TfaavrwlW0dVa3v/tRRfTtCxQ/abQvYe7xF44TN9OHfSyX11SqicKmjYnPeQMiLoTPtaO5osGw88u/N5SSm76/ayizz8jugoKoDSGymMf94EyndnrScQ99om9pCOPV8n7IogZYXAP42bkdICNDWF0H/WIspr162bLqAux/O1sRLiyWszScwqyxfWY7X7XFh9FIXGpsC2rwOtkKTeU2xEq983qxD21PeKrHERTTv7NrJrOljLHg3lpIoSTsJmZUrT21GWxsQCPkOTN9MxByqAAAgAElEQVSKsC6ILQNlme1sVSyUbNsGT07sTAjU6fw90JcvB1uOtxJ9ARx4HdW3IwR3ilLlQcU6ify57JRS7Kyn2ehF6KTYxoa3/2Qreo7HbBsKT9ndAhYmN7G5lLSVWeYVekiBFqXA1N0V0dHrnZwsCwAEQj70jbaguaNRwysKI/yBMlKW1w5rZl/9xWLs+GvnNcOGIn4Mnm4Xi5HI7VNvK0op4ptp3PtwtmbejcU4Hnw6h3y2UJaXEIJwLIizL/fr7EI1n39btyOUsY3RgFgkpZzMHM/eILDjhSlWsEpt0uNziUD9IPStBOsLeNDc3mCQ2cpWpRLF2nzckrdYKIlNavRYM1v5Al5purg2fX0BD/pOtIpZKTtep/rq85rx1iKzFZavdWgQzERSgyMlvGyiKqPhNjsui0eN0YnskKWMoPK4nHsuEU2oDo7nYZ/EgJUlkcsjIq9iDiVqASHwh7xqOKKrLL1uhVyRXdSSfHa8Pr8HfWOtaO2JaMrRl8t/76yncf/TeVOZgw0+JquT+gQbre+sp1DIFeH1Wz8Qz/Vs72vC6Rf68OGbD9nKYEwwZn1ueyLbX5afaw4hsxnWjNfMHhrb7AGvGbatJ4LRy92O7FkslHD/4zkkle0rZV6P14Vgo0+5p+YspXayWF9MoMvBk9f+gAdnX+pn72snchpupp+qoLW+7KDGXrC3O6Dt6PaKt1qsL+Bhy8A6kJkQ9nZDckd94M2MN6Ms7GE1orJKB6FvJVjiIvD6nbc/ULYlqxVvYiuDTCpvhWZFSLbyBTwINnqVvrU2fYfOdqC9NwKX2/wZYqd1ZJ0Oro6UXlfjLc1loibK2Clns7KBYSRN1eloszxEEZ5d61Sdb6dQRuHy06aSVUANWCo8LJSDUn6idfIEBB6vCx0DbON1fQTFAwVZ1txuQV1YX5hC7fj1vJ0DUQydadcs6aZPnLdUZLvnzD/eMMhMXARnXujD4NkOwyIedinaFlJel1G59J0N/90YDWDoTDu++s1T7KynRRzEBOByEo2+qj6SXtzOJlgz3nJJtIEaePVYX8CDvrEWdB6LWvNKtsqk8rj74awpb8dAFOdfHUBTa/lFPHjyBTyO9lmllMLldqGtJ4KTz/Xg5rvTAKQn7LnOyjMHVJHNYCsVAF0zt+Q11lHtvLVgg40+g82sZKaU7XaWVZaNtOJdndtBe38TXC5osFZt0x/ywuUmKBZK+66vU6zLRUxfbbSrX1GjFrz6EbCdnVUn7IU/6EUmna9aX5fXhcEz7Whqa3DM60RfzYzjAdaRx0xQU+GlstUxpRWGMhdvo7/pSNeKW+HnPae4T6d4SyIWT1BoRR9IDFjVB3JephSVaFh/zvJHWkNwuYmpvGZTGjsbaWSVB2i4wZjPJzoMhdvrRvfxmGUnLzcKSilSOxnc/WiWrSajkznSHMTZlwYwcqlL7N4iY/n3cknfmPXY9v4mDJ1px81fz3B3CcrfnSYE/EEjLp++PjV2NsFWI/Ne8OqxTa0hnHyu17Gtnj5cw+L0NqDjdbkJBs+048o3hg1PbHLsXtRRsNGH0cvduPfxnLLUKNNW0w7E5WBmK8VGyne9fFa8Rl1q5a0eG4r4EWz0O5K5WCix9dPL8Ka2M2LwUa6OKKVo64kgEPIilcjtu75OsV6fB7HORkuZzWyV3M5o6tSMN5PKo5ArwiO9nmfXnhujfoRjQeymclXrG2zwweN1Y3MpYaqPnDw+NyKxoGbFLru2UU7famW2w3qEc5IMZdXAVH8mdWwmkTClgHqX05jkSuKfdo2bKwSiPGCli3CoWF2Dit+ECP+sxfLfOqVYXiW0IKwMStg0pEfZk9dsBKxP2XQehbz5toB6XrG4f1PAtDy5UVAKbCwnMXlr2VTmwTPtaFW2TtNjzb7bJX39yMeaWkMYON2OiZtLSMazmuAGUjQo60ul9iXLbIqtRua94JWwXp8bPcMx9IzEDFRWtrrxzpQpb7StAX1jLWWdb6115PG50T3cjL6xFjy5swx+7REQ8G067eqIW4h3GjxZBefmoyUVWwtvNViPz4Noa0iZ5iwvcy5TwNZKsizv6lwcpVIJLlp+RoYQgsbmAFshap/1rQTr8bkQbTd3wFa2Wl+Ml+XdXkshk86h0Re0tLOcGpsCiMSCWJuLV61vIV/CnfdnMHGj/NaqTW0hXPnGMAZOtpXVV9u3H1wdebirVLwmuHtVu0NZWiKcnMhJ5A7H6ERNy4Gxsuw6HqIIK35L3k2LIZoPUyyYAzdjko9ySP+JVrHkmpmc+t87G7vIpgvC9HIYIvMSAnQNNlsuCSn/JoQgt5vHxJeLSCey0GpM4A96MHi2XbOEpT4wqrRj5/rqj3m8bgycbEXfWKvyvqrSBmA2a6LgQQ0y829m2Epl3itejg1F/Dj9Ql/Z5e24fMsz23jy1Yoqt8TLnGKrJbYafa2wTa0hnH6+D7Pj65q9odUnJaC5FqD7bX5VlOeVCmPHauCtFhuJBRHrbDTcF7SSuZArKqM8e5m319OgJed1FOtshD9o8hzGHutbCdbr97C9vcskWbfkdkZ7TZrwpnayyGWKBqyVrSItIbaWeg36ZtN5zE1slNUFYLuGnbja40hfw+cB1VF9O0Ilj8BKnG6PC/0nWuHVrXlqNvXGU3wjjexuXilL4TLhbYwGMHimHZGWoKnOsm0opUjGM7j38ZypzN3DMXQPNQs59VhTm1ocl/WzytPaHcbAqTYEGrzC7gRErQdFXy4jO8ftrdrZDFuNzHvBK+rIRdDaHcbgWW1gZGerG+88QTaVM/CGIn70jbUi2mpc29uJnSutI3/Qi76xFnT0NwE8nhY6y9eF0VbqdQL1ItDJUk5mjq2Ft1pstK3BMM1qJ3N2t4AN5U0CO96FxxsoFUum+pqlrsFmtkvVPutbCdYX8KBzwPpZBjNbba+kyvJuraaU5RvLtw0AaGjyI9bZCI/XdTBtowJ95c+DrKP6doREFZkoXNyIHf1NiHWoUbVZhcmjzHQyh8RWBoV8UbG2pIKON9bZiOMXOg3RoplNSkWKqa9WsbGUMMjsdhMcO9WGFmX9YD1WH9nJXLIeZuessF4/e0CptSfCqpdIzYyXa8ASYQ9uZytspTLvFS8l7OGrU9f70KjcFihnq91kDg8+mzflbesJY/B0m+kDfE7sXE0dtXSFMXKpC7wL4m0ZPNK2sRVHyN2X3M7LySxja+GtFOt2E7T1RtDWG3Esc3Y3r9xHtOeNb2WwthA3Hd2Z1UtDxI/OgSh8fve+6VsJ1u0iaG5vQFNryFJmM1stz26X5V1biCOVyJZtG5zX43WjY6AJzR2NB9I2zJLT9nxQdeQyHXlaya9XTHZ+unPWJtBiZAdml7jzBPhIhgiFRFdKVNXZaNyIFTYQXkydjxcyKQqMXulGULcCkt0U3OZSAsntXcmjK3ll2xOCYKMPg2c60CLteiM3CL1NCvkivnxrki1vqJM52taA7uEYAg0+x/Y0m+51mnj+3uMxDJxoZfuB6vPI+hoLkMopN+lZmcy18HJsOBrA+VcGHPM+/GwBO+u7Bl729HxUPGBXrZ0rxQYbfBg42abu50o5XnuNG23FDrD2Xx23jK2Ft1JsYzSArqFm8bBNOZlLJbaV587GriPeuUfmU56GPk/5PXiuHYFG377pWwnWG/Bg5GKn2MPaSmZ9mrq7WpY3tZNBYmNXeeLbPnGenuMt6ByIHkzbsJHDPh1cHakrYZnKYa6EWoKtChUny46VaaQUqoxyOYG85iZ/uUp5KIuaYDWCUcJcterXRIp1NGL0Ypftaw36tLYQV/bd5ManQiy57EgsiLGr3eKiKKf/4tQW5ic3TWXuG2OLeJjtBuI0mY2Yy6VAgw9D5zsQ6wqr0y1K8KLqyyMgKoIPojlMDdhqZa6VlxJ2y+H0C33K2srlefO5Im786gmK+aKBN9oWwvC5DvgCXlNspQ7ZKZa4CHqGYxi93MVwRBLNpo6Icm3wy8eMv5zMMrYW3kqxnYNRHL/Q6VjmfLaA1dlt8bBkOd7Ht5YMZdjZYuhsByLNbB/h/dDXMRYsoDzzYn9ZmWVbbSwnsRvPleUtlYDVuTgyKfs9mOVzkdYghs62IxIL7n/bsEl27fkg68h+N6SKukQd0s4520w7m02jUkAz7UwV70PEdKKklKKl7G+1WFUzFpSwstiMMRUxx5kX+tn7f25rJ6mfJlxfSCCxuQs+jS0aAaWC1+N1oXsoht4R6+UN9enOr2ekZeFUmYONPvSNxtDUZrzHaJfK3atxij12qh3dQ81wu5WARzg2qjQ6IuxJFbn1dubho8BWIfOe8FIKt9eFi68NOuadHV/H6lycla3jbe5sxLDiFGq1c6W4hmgAfWOtLJBQdAMgZllMbWWYmlTLc+J8DbJXzVsZNhwLYuRiF2IdDRqb2cmcSeUxc3/NMe/k7WVplyMpv+475w03B3HmpX727u0e61sJ1uVmOwbJ78xaySzbaub+qmPe2fE1pOJZUzub2crlIjjxXA+6hpr3XN+yWAt9tfn2gdeujmwtV9GQRK+IdcdhN02qn+JVi5fm6xXB9ms7wo6BJrbTRkTdO9NML3n6fnM5ieWZbeTF6jEaEsHbEPHjzIt98PrcZTtXSiniG2nc+NWUqcydg1H0n2zT7NhiJqeex+k0VDlsKOzDwIlWaQcnPn0vzSrwM4qRZTtr25c2Zq1M5j3gJQRnnu9De5+zFckA4Na708gkcyLI42camgI4fr7TsCxitXZ2iuUdi8tF0HM8hr6xFjXSFHhzW1F+DFQN9GB/rRpkFlhSA69zLHG70D/aiouvD8Lldmn6DjuZM6kcpu6uOObNZYuYvLVssLPQW8frchFc+cYQIi0hdmyP9K0U29gUwIu/c0KsC2Ans5xu/3rGMe/Th+vYWk1pFvPhNrKyVVNbA04/3yeWxtyPtqHvWZ20DSF7rbwVYMXyKI6mmOzy6A9X4rz1UEPnw0cwXA5WPlF+yC+bEKJGMRTEiCUAlBELEXkgnLDH68H1746ib6zV8E6tmWw8rTzdwfp8XAhBQEGpej+ZEvbIeXN7I05e0y7wII+E9Vx33p9hS8KZyLw2F8cv/uUt0x1BqknegAff/S8voll6Z5AHGVYO4fSL/bj3ybwy9U5FUKROYzLDsjph9cDsTfgpkY/qdLfj1aa94b38xpB4YKoc78ZyEnOP1lFQtp+TebOZAu68P4OZ+6smslaXLr0+hJPXekyXDDWzVVtvBMdOtbHRG38tjl0w5rZSpoHEsxUOkhyAAoptZTjvmCrgrQTb0hnGte+NmK7/bJXyuSIm7ywjnchVxHvz3SmcfqHP8WxAYzSA7/yDi/h3/+uH0pKOtelbKfa574ygvTdS0QxGfCONuUcbjnmL+RJm7q+hb1T7rrvV9QuwUfDZl/uxMLmBW+9OI5sp7HnbqN4BHWwdeQBjx88fYpKFYg6KG1WUpDlXVjWLaQF9ZRkrjnlNsewXIEaU8r1DMdInkOTXYplr5KeUX4oFXW4Xrv/WKM6+1A+PVx1VWsnG5c9lC5h7vI71xQTEcEixPpWiI1/Qi7Mv98Ptcek6LvPyi4USvnx7StHAKHNiK4PEFr/nDFBCVf1kJ8Odt0oI9QUpJVhQMrd1R/Dq75+CX7r3bVa3XM5ILIjRy11YntlCcidrwku42IKXq04gBU+EGMJWO15dxpp5W3vCGD7f6YiXUoo7700jsZnRzp4ovIVcEUvT21ia2rK0M8/vtI5S8SyaOxvROxIzlU9/DRECjFzswuTtZUzcWFLaBLW2layfYfxgYXedrVjRvPNTAqCKeR1gAYRjQVz/3gjGLndr5LPrRyilyO0W8OjLRW0+B7yTt5exsZgQbxvoOcyOnbrei+vfHcGHfzUOWqpB3wpt5SLA8QtdeOOHZ03rz07mB5/Oo5Avcj/hiPf2r6dx4dUBBBt9hgGEFW+wwYev/eEZbK+mMXlnWfsgVy1tQ8Lqdbf3MULoA6kjjq1vR6jYyB/04NLrg7j+3eNoaPKb66STicu5Nh/HwsQmioWS2tVSdSqPYxujAZx/5ZitvjLvw8/nsbmSNJWZBR/chrDlFe6G8jvkRiwAEEpx69czSMUzmikkWWc5aOLHTl3rRXN7A0Szq4KXY83sbcUrbFYjL3EBr/3hace86UQWT+6uIJPO1ayvU+zs+DqePlhDLlMwyGYmIyHs1ZzuoRjboIBfbxa8GrtKT2GZlW3WNgzYfdq+DWAPMb7ye6fw0u+e1OjL5bSSmVJgfSmBiRtLFfPmc0V8oGxCYtaJW/F+97+6hOHznXB7XVXrW4mt3MrSp3/4Pz5v2zbMZM5lC7jxzhR7jbIC3q2VFCZuLbHFX8q0SZm3ub0Bv/OPrmL4fKdY7KjWtqHHyjLYtQ2R9wDqSMb+nd+OkLhdaGoJ4YXfGsM3//4FtHSFbStMFYn9LhZKmLm3ipkHa8JawulTdXbA7XHhzAt9CDcHDLbgfzJvsVDCV7+ZRTFfMsgs4ioqNXQLXsoxlEde3MY6OyvnN5eTGP9iQdmmzbwhyzIDbPTYO9qi7LZCquKllGuh5bLjlYuohTfaEsLIpS7HvBNfLmFjMYFSqTbeSrH3P53D9mpKtBW5vXA5VRq2V/DwuQ609UbU6TILXq1NddeflMx4tYlqPvdy+za314W23gi+/sOzePkHJw36mrUNWeZ8toDPfjpRMS8hBKUixePbS9hcSVbM+8f/84s4+2I/QmF/xbyV2MoX8OD4+U78/j9+Ho3N2uVtnch894NZMYtXaR198YtJ5TaUqrsT3lhHI373H13F6ed7EQz7qm4bdrZyUkf6vHvB6wTLXw5jf3ZJckbiEC+bqMoYuPXHZfF0Tkc+pu+0ZFWo4lzFEtDK/9z3qiIRA5Y7cOIiCCurUb3xn57D1/7oNCItQVNHazVapZRi5ekOHn25iJyy+hUjJqKjJYTx+kNeXPr6oEF3+U9OK0+3MX1vBcUS1QQdIhfRBhVWvHrLE6LqpGKVh5QU+33608fsfWZJVr099H+Xvz6EppZQTbx6UDleyRRM9Sp5L7w+iAbp/pUdbz5bxKMbi0hsZWrmrRQ7N76O+clNcd9Zbyv5WuJ/fSda0Xu8RdxSseYl4NNiVu3dLGltpeYn/ACF9NsZrx7rcrN1009e7cEf/JPnce07I5b6ml1LPC1ObeHex3OOeWWZAWBnfRe/+Y8PUMgVK+JtjAbwg//+OXztD0+hYyCqbJm4d7Zye1yIdTTg4muD+N3/9jk2G6Xrp8rZKp3I4s77M2IVv0rraHU2jq8+eKqZSnZaR7GORvze/3AdL//uSXQdiyIgloCtrI4MMvNvDupIm2rkrQD7d247Ql/Ai0hLEK3dERy/0IkTV7vR0h2GVYPVyymnTCqPx7eW2OhX5wzle82EUgydbUd7X5NmRG02M8B/33x3mm3bxQMIno9SrY5leNWOn/NIenGsFJlQSrEyF8fDzxdw7Tsjjhstfx95azWFovJ+ZaW8PI9Ze7BLog1UoW8o4se5lwbg9roc8S5ObWJ1bke53VA9L9e3EmwhX8Std6cxdLZDs7k6l9ms3QZCXoxe6cbUvRWsz8eVtmHCy0ffUO+VG+wslW9uK+mNAi53ldu3uVwEwQYvwrEg2noiOPFcD06/0Cfey7fS10rmTDqP9/79PeSyRVteO5nzuSLGv1jEyWu9tmsMm9nKH/Tihe+PYeBkG27+ahpPx9ewtZJiO6dVaSuvz4VISwhdQ804/8oARi93wx/0mNaRna1KRbbBwcKTTRSL1HEd6WX+8M2HGL3YhR7lOYVK6sgX8OD1Pz6DsavduP3rGTx9uIbNpSRS8Sy7f15NuyqT9HXE4NW1jUptxbGHejtCj8+Nhogfu+I1l8pTKOyH2+tCQ8SPhogf0fYG9I22YOBUm/T6jH3SO02ALQ+5MLmBrz54iqxyX07x+WrwoRjM7XHjhd8eMy3TLO2sp/HkqxVpQX2iw7ByhaO14OVYCmOdarCg0G/Pd+OdKVx6bQjegLoRRbl08bVBPL69jNROsWpezmU19W+aFGw1+p661oPmjgZHvIU8ex1lazVVM2+12On7q1ie2UYkFoTLTRzZqv9EK9r7mrC5nGQdrCmvwqd8FzI4mKUihK037PR6Mkserxv+kAdev0dxvCG09YTRfTyGwdPa/bLL6Wt2O+fO+zOYuLkkndfrqy3Xasu5xNYuPvnJBNr7mizXnrayldvjwsDJNnQei2JuYgOTt5ex8nQbic1dJLezSCeyyGUL7PI2qSO3x4VQ2I9QxI9wcwCtPREcO92GkQtdBttXYquFqS18+fYUUvGsw7Zhbqt0Iou3/+1X+IN/ct1yh7dytuoZZtuzrs3HMXlrCYtT29haSSK5ncFuKodMMoc8347VpI48XjcamvxobA6g61iULfjhsI7U79W1jWqwh3o7wraeCK59dwS7yZxpOU5SpCUEr9+N5vZGRNtCyn1KWSejjPpjRgcIbK0m8cUvn2DxyZYyAlXCEgLwrQx5MV3DzegbbXHMO/75AuIbaX5QVKiUkX2U4dVjqVTPMlYzPFMiutlHG5i4uShW0XESyR473YauY1FM3V1BiVbHq+dywiuwFerr9Xtw5sV++AIeQ7RuxruxlMTMgzWk41kR7VbDq9G3QmwxX8KNd56g/0QrGiJ+R/aJxII4fr4Ts4/WkdjcNeXlbLzT4MkqONcHysdOt+F19xlbOeySz+9BQ5Mf/hAb9Ta1huCTXrky47VK+vNTX63gN//xQVl9CQjKbTlXLFDMjq/j8188xiu/d8rw6o2crGT2B704fr4TQ2fakdjOYH0+jq2VFLbX08ikcijkS0jHs+LdWq/fjVDYB4/Hjaa2EJpaQ2jtDiPW2Wj6Wloltkps7uLTn0xgdW4HlL/L66BtWNlq/MtFfPjXj/DKD06KdRTMkp2t3G4XOgei6ByIIpcpYG0hjs3lJBKbu0hs7SKXKSCTyiOXKQgR/UEPAg0++AMeRNsb0NIdRnN7AyKtQce8Ui7H+tZiK5BDvh1hrLMRzR0Nhnyco1xDs+Kwm/q1+82xqXgWn/x4Ag8+ndfagn8n6lEK4Np3RuD1eRzxZFJ5TNxcRCalvRdTyRaKhvCHOxXWlZtglXqEVp4P3hzH8Qtd8Ic8pvbVJ3/IiyvfHGbb4eWKVfNW5HwBYx6HvIOn29E5EDWsk2vFO/twTSzMr5e5Et5asRM3ljD/eAMjFzrFSm3lbHXiuR7c/XgWqZ2s2tFKvFou82Q1evB43egdaUHvSIsjrN2xSnidYNfm43j/PzzA5kpK6d7M9aXKKX5MnxfS791kDnfef4poewMufG3QsFytU5ldygOgTS3alewK+SKS22o9+QJuhCL+PbdVJp3HzXenMXFjEXk+NW+iL1CZrT75yQQaIn48/1uj8Hi1A55KZfYFPGxv7mHt3ty7yRwy6Tx3OfCHvAgp6/bX0q7EZ5Vto1Lsod+OUH/erKOuBGs39W2V5EaRzxRw4+0p3HhnCrlMUUw98PgGyif7o2jrCWPscpdj3hllirFQKEKENJQqAyA2HqIUZXllrJgeAZHKULF8BoKdV8tdnNo0XUzCylaEEIxd7kZrb6RqXrvyrY+rMjvldXtcOPNSP0JNfke8ia1dzI4rI0gTW9Vi50qx2d0CvnjrCQp559vkxTobMXy2A/6gx5RX/JYblM4Gcvt1yvsssatzO3jvz+9h5uEaG03a6CsCXUjtyaKOKIDttRQ++ptH+OqDp8wR7KG+Hq8bTa1BNHc0INoeEtO5TrBOeTPpPL764Cm++OUTxDczZfWtxFbZdB6f/GRC80rTXsgsp2CjD9G2kLBRKOzbk3a1F22jEuyh3o5QYxRKDQ61FqycR55ClytGX/5uKof3/uI+Pv7xI+ymckpAImkrVQD7Y/dFefRajrdYKGHi5pKynrSkC5/mAFilOuCVsZxLIKgWS3gEJhMAKORL+PyXk5qLSLalWTARivhx9sX+mnj10Wg5XhnrlLfzWBQ9x2Pw+tyWUbDMuzS9hYUnmygVS6Yy17oNYqXYyVtLWJ3bMR05WAV5Z17qZ525Ba/SOjWzVnJbtRsx2PE+C+zq7A7e+9F93P1ojs3GONBXXEN8VGJTR6USxfp8HB+8+VA44aNiK+58P3jzIduS0YG+FdkKwNZKEu//hwf46G8eIbmTOVRtwxG2En1rwB7q7QjNOsS9wsqfsv5yxcjlp3Yy+Pmf3canP32M7fW0MCRlIFUmQCgfCvtx6nqvYYrTind9IYGl6S22dB3PK9eb8Lz2vKZYoxEkWYxzE4QCtMTud03eXjbYTv9dTpffGEJDxF8Vr1VywluJviev9SLW0WiW08CbyxYwO76Btfm4qcx7sQ1ipdhdZZRhJbPZ77beCIbOtMPrde3bdoR2vw8KO3l7Gb/417dx/+M55DJsdLof2wJSCuaE//IhPv/5YyS2MlXLfFC2Smxl8MlPJvDrH91nT8Uz76Atbw9sRSmwuZLEh381jnf//T2szcWrlvngbVV723CKPRLbEZY7VylWjnyc5B//YgE/+tNPcPvX0+oDYTZbGUKZbj/3cj+ibeo7eeV4xz9fwOpsnIdMnEZbtgNeI5ZyxYUjJ5rD0pQJ4Y/Ms9+7iRy++s1TS5n1QQQANLWGlD11K+d1mvS8sszleFu6wzh2qg3+kNfRBbk6F8fMg1Wx0o+VrWqxczXYex/PYXlmSyOrnT4uF8G174wg0OAz8BJl1E25TLpU6TXzLLDpRBaf/uwxfvGvbuPRjUVkd/OWdjbTt5ot50qUbUP6mzcf4md/dlPMkhw2W5WKJSxObeFnf3YTH/7VODaXkyjRyvWtyFaUPeR1850p/Pj/vsHeGDHZVeqw2Wqv2oYTbJlV/CvpEnVIO+csTQNYnePnraYeq8XqR836PPK5tfkdfPn2E9z7aI6930O7GgoAAA4zSURBVFqk0mhUKZMQNYrkr5hQ9oTt6Rf64AuqJrbj3VlPY/bROtLJLCik8Q6l4gEsJ7xUOGEVC6VRqA1Gukss788o7MTOUcJe4Zh7tIGZB2s4dqpNM0Vv18Cvfus4brw9hWymUCGvebLj1ctcTt+Ri51o64s42kOZUorl6S3MT2yo8aiFrWqxczXYTIo9DNR5rNlgJ73NANb+uoaa0TvagkdfLipP2XJebcjMdbW7VvV2suPdT2ypSLE4tYlPfjKBR18uIp3ICSdobWe9vmo+zusYW6JIbGZw76M5LE1t4dp3RnDp9UEEGnyHwlbpRBZfvDWJm+9OY2Mpyabka9G3QuxuKocnd5axPh/H5O1lXP3WMLqHYuI1ur3WtxYs3eu2UQZr74Ar8b+6/tM2wigTtZjNzZfr8CvB6vPoz28sJXDn/Rncfv8ptlaS6vu4Sl9INHws2FCnctjZoXMdaOtt0nTydrxzj9gUJy3pDElIRbw6g6ivBvNDkkMXWA2UR2cqdns9jRtvP8GxU22Op3RauhoxdLYdD79YrIjXzFZmPNrfRpmt9A02ejFwqg3hZu3rCVa826spTN9bRSaVt5TZCe9+Yb98ewrPf38MkVjQ0mbyMbfHhctvDOHJnWXkM0XBS1lG8OfnOcTJKMIJ735gC7ki5ic38cVbk3jy1TKSWxnk+SphAm9uZ72+ILzrLN+urLD5XBErT3fwy//3Dm68M4Xr3xvFpdcHxeYrB22rYqGEm+9O49OfTmB9IY7sbgFQQvS90LcSbKlYwtZqij11fXMRJ6704Nr3RtDRZ9xz/VnZavxL1lftR9uwwh7q7QjNnOleYM3KSsWzmB1fx533Z/DkzjLSyRxbh5n3fYSPTBRnyEebihNkn6LXwvlXjiEcDZg2An0q5EtspaKFuKg8/VaGTnlNscwiEKNmqrhsjqVSfyUiOhVbyBXxdHwd0/dWMXim3VYXnrx+D176wUk8/GKhYl5evll7M+c1ymyl78jFLvQeb7Ec/ep51xbiePpwDSLIKWOrWuxcDTadyOKTHz/CN/+z846vkVPXehHrbMTy0x2VF6xBURDH166TmZC9xlJKkdjO4MEn87j/yRyePlhDIV8Ua5ezTOo1a2lnnb5kj7AAe8J44ckm/vqff4EP33yIK98YwvlXjyEcMy516yRVaqv4Rhqf/WISX/5yEql4DoV8EbQkyb6H+laKLeSK2F5N4/O3JnHzvWmMXuzCmRf7cOr5PvHe90G2q8k7y0pbmkUqnttzfcthD3w7wkK+JJ5KPOhES+ypuFKJIp8tYmlqC/OPNzD11QoWnmwq93d5dMIjRahOGOooRUQ54rUrNUPfWAs6BppEVFwuzY2vY/HJFrtILLYydMJrhWXZeTAC0UA4VnmrVZSv6ewVqp31NB5+Po/ekZjsCWxTa08Yw+c6MHV31TFvIV903D6KBeU1HFOZjfp6fB70jrYgHAs64sikcpi+t4a1+YQ4Vt5Wtdi5cmyxUMKNd6Zw5ZvDiOjeJ7VLr/7eKfzoTz9ReeXpOlCUiqVnd61S5Q2EElCiFInNXSzPsO0dJ+8sY258Q0zTyzKL5x/4qMOubeiw2Gss2LrhK7M7+Om/uIWf/6vb6Dkew/ELXThxtRsd/U0gLgLiYstuEsKuW/HdJJWU/guU9WWlEgUtsf2nl6Y2MXV3lT1HImbSuMzsy77qWwGWgqJYBIq7Bdz9aBZ3P54DKNB/ogWnn+9Dz/EYekdbhC2Iiw04iEu5FedS36LRz2xyO/EIltuMKrZaW4hj7tEGnj5cw9TdFfbgnKYPPYC2IWHJP/3uv6GQT6jqqGDwzl4XWainDPPtHKsfkV55Y0iz1+xBprX5ONKJLFbndtg7vJTfZSMgRNaT14P1/WE7bPdQFL2jLZqVfOzS6twOnj5cR3a3UBOvFVYcU6Y2oQuiuBMjlI/AWJPQY6PtDRi93A2vr/zL9QBQLJawMLmJufF1x7zXvzvi6OV9AFhfiGPmwRqyuwVLmWXeUCSAwVNtiCrrKJdLu8kcZh6sYXM5UbGtarFzpViPz42RC52GpRHtUna3gC/ffmLRiRF09EfQf6IN/qCzNryXKZPKYXstjVQ8i42lhGabO+uOV50VAg9VNP3R4cIGQl609kTQ2t2Ilp4Iom0h+AIetPc1mS7sUSyUFJtksJvMYWslhY2lBFaebmN7LY18pnCo9a0U6/W50dbbhFhXI1o6GxFpCSEcCyAQ8iHa1gBfwNhHUAqkk1lsLLKAOZ3IYX0+jsTWLtYWEtheTSGdyB4uff/pd/8NVcNsYuKIJe10x9VOA8qoS/b+0uhN77jlDDxCM1FGjhiIlJ9lrA7Lp3O52KAscubvbHF9qMgkGRJHFMsxUsfNk3yMfZeaQh17pLDmedXM0qVSx9axdewhwD6z7Qhr2VJwL7YjhPQJwmQU/p2oWBDVkR1VrJwIx2mw/ClqqZg69ghiiQjU+DVHeIEU0u86to6tYw8DVnn8TOMtYZqoWqAmr0V2ec1o89Ms2idUcaa8OKIVFqBqR0SV3zVgueOmAMRUOc+vc2iyvoQeXSzLxo9LFaZg1bIAMaquY48clkjemerah3Kx1LF1bB17iLAu0aFLST/SZbkhClTHlFYYCtO3+SWsyE24jKJw4VC58Go+JmstWO6QVetQcH8myqWShFSV96hi2SFtnWmwoDA8SV3HHj2sFKTxa4IqHQQBYfeW69g6to49NFgXCKSOnSWzKWN2XPmUHLYxemfFSW5SW4bqNTUdDqUMwbdt4qcIVIXUSKJ6rPitU0oxoerAlTJlZ35UscIhUyo6dRmrBigsL6V17FHE8hZPiACw662OrWPr2EOJfWbbERJp41qtwyeaD/FVykMkL1MxFhCLHBhkko6qECJ1hkcTy09QUBBTrFKPMHlYro49MlhtfsWJE/WY/lqoY+vYOvbZYj1ERfH/DIXAIg+o0hnIhSg9P6XqfVqDsIB4gIpFAhTi8WQuIJVcCIGyAAWTqxYsl5lPF2gKI6qR1LCBP3EMce/5qGHl99PUMqR6kWYx2FdWbh17tLDit3L1CqjmP1LH1rF17CHBPpPtCAEoA2lq4CNCcC6kyiv6pBqwtW7tdxSxEDZREFSLJXJL4QR17JHEUuV/Kr4BYnaL1LF1bB17mLAeHnFrprWkr5qkd6ZUzaufFrMqQoYCRMUrfoOvQCViCH6c81M+SVcdlo/sKXfSSm7ojchP8+OSrkcRa0g6rD5bHXsUsVS5LAi/wMQMlP5WUB1bx9axzx77zLYjJFwwAPzhIf5d8abgOhDubJgnrQmrEayqrf2OIlbJRJX7i4RosOwpPSiBmVJCHXvksJqgU7k292sbtTq2jq1ja8c+k+0ImVBsNCqW1tMIz5Rhozyw0bs4TmrEKs5fUY8/QCbuq1HCZBfz+NyKbJ7/KGJ54KE2GD6LQNVWIiBU+VHHHj0sa/s8yfkAduHXsXVsHXt4sNp9oPSJ2J7VJqr7WWb0rJ0KVqmolEN7XJ0mrwlLtaLyh1rUgMFCbkKOLFauRh60aLCaelasW8ceOSzlxxTXLR6QJERqLHVsHVvHHhascMDlHGbZPKTMb0NZTFii/KAUYsZbyKkcFy807wWWsB9UkweSQyOiIELUab+jjBUWIEqzoDosJVJ1UePUSR17NLAgSvvQxeEU6i2bOraOrWMPDdYFAPqHsPQ3iwEq8lC5d5fOOUlaLIVYxkuJ9gkR8gOERQ+ygyECXz2WSPJwh8VFoqpoEMYk4tuRxWrfmwZ40xBBi1LjlGegdezRxFKp3UsNgyidhIjc6tg6to49DFgPAOZ8pTlNFmtTpWj2SRSw5oEthVR/js9xy1O/BqziKIh0jsqKUFG8EFqdO0dNWC4GWx6M51XPU8psIGSW9DuKWH5nGJTfrzBiAUj31Pkou449Uljd9ccaitIpsALZ+Tq2jq1jDwXWpeSGSOI70X4aHCgrRPkCdXQM4QCsna9aOveUlFLuRSDeTRbflXl2QvjhqrFUo6LiuJVjQn6oWP70KXfyRxErbMQDLR1WHCBEOU3q2COI1c5EUc0nd+p1bB1bxx4ebH07QuWL7KCVUEV0eIQcbaycCMdpsMoIm0rF1LFHEMsOcjz4ed4YUMfWsXXsYcLWtyOElF/n0GR9n/WWgrVgWTZ+XKowBauWBfBwpY49elgieWeqax/KxVLH1rF17CHC1rcjVAxGZZmoJCFV5T2qWHZIW2caLCgO7RZ7daxzrBSkHeYt2OrYOraOZdj6doSK3IoJVQeulCk786OKFQ6ZUtGpy1g1QGF5Ka1jjyKWt3hCBIBdb3VsHVvHHkpsfTtCDVrKR9Sjamd4NLH8BAUFMcUq9Qjjw3J17NHBavMrTpyox/TXQh1bx9axzxZb345QLoyoRlLDBmXqABD3no8a9llvk1fHHgxW/FauXgHV/Efq2Dq2jj0k2Pp2hEQVmSg6Uq4rpZryjyoWwiYKgmqxRG4pnKCOPZJYqvxPxTdAzG6ROraOrWMPE7a+HaGSG3oj8tP8uKTrUcQakg6rz1bHHkUsVS4Lwi8wMQOlvxVUx9axdeyzx9a3IwSbJicGofl4moqijy5WyUSV+4uEaLDsKT0ogZlSQh175LCaoFO5NsU6tXVsHVvHHjpsfTtCXga3ECVMdjGPz63I5vmPIpYHHmqD4bMIVG0lAkKVH3Xs0cOyts+TnA9gF34dW8fWsYcHW9+OUHFkasBgITchRxYrV+NR22KvjnWOpfyY4rrFA5KESI2ljq1j69jDgq1vR6g4MtWhEVHQYdpSsBassABRmgXVYSmRqosap07q2KOBBVHahy4Op1Bv2dSxdWwde2iw/z+D/NCmYCrbawAAAABJRU5ErkJggg==;" vertex="1" parent="1">
          <mxGeometry x="650" y="1642" width="78" height="78" as="geometry" />
        </mxCell>
        <mxCell id="rylPVy3shO58b24bcxYE-46" style="edgeStyle=orthogonalEdgeStyle;rounded=0;orthogonalLoop=1;jettySize=auto;html=1;entryX=0.5;entryY=0;entryDx=0;entryDy=0;entryPerimeter=0;strokeColor=#a29696;" edge="1" parent="1" source="rylPVy3shO58b24bcxYE-5" target="rylPVy3shO58b24bcxYE-7">
          <mxGeometry relative="1" as="geometry" />
        </mxCell>
        <mxCell id="rylPVy3shO58b24bcxYE-53" style="edgeStyle=orthogonalEdgeStyle;rounded=0;orthogonalLoop=1;jettySize=auto;html=1;strokeColor=#E6E6E6;" edge="1" parent="1" source="rylPVy3shO58b24bcxYE-5" target="rylPVy3shO58b24bcxYE-8">
          <mxGeometry relative="1" as="geometry" />
        </mxCell>
        <mxCell id="rylPVy3shO58b24bcxYE-74" style="edgeStyle=orthogonalEdgeStyle;rounded=0;orthogonalLoop=1;jettySize=auto;html=1;exitX=0;exitY=0.5;exitDx=0;exitDy=0;exitPerimeter=0;entryX=0.5;entryY=0;entryDx=0;entryDy=0;entryPerimeter=0;strokeColor=#FFE599;" edge="1" parent="1" source="rylPVy3shO58b24bcxYE-38" target="rylPVy3shO58b24bcxYE-40">
          <mxGeometry relative="1" as="geometry" />
        </mxCell>
        <mxCell id="rylPVy3shO58b24bcxYE-75" style="edgeStyle=orthogonalEdgeStyle;rounded=0;orthogonalLoop=1;jettySize=auto;html=1;exitX=0;exitY=0.75;exitDx=0;exitDy=0;exitPerimeter=0;strokeColor=#E6FFCC;" edge="1" parent="1" source="rylPVy3shO58b24bcxYE-38" target="rylPVy3shO58b24bcxYE-43">
          <mxGeometry relative="1" as="geometry" />
        </mxCell>
        <mxCell id="rylPVy3shO58b24bcxYE-76" style="edgeStyle=orthogonalEdgeStyle;rounded=0;orthogonalLoop=1;jettySize=auto;html=1;exitX=1;exitY=0.5;exitDx=0;exitDy=0;exitPerimeter=0;strokeColor=#FFFFCC;" edge="1" parent="1" source="rylPVy3shO58b24bcxYE-38" target="rylPVy3shO58b24bcxYE-45">
          <mxGeometry relative="1" as="geometry" />
        </mxCell>
        <mxCell id="rylPVy3shO58b24bcxYE-77" style="edgeStyle=orthogonalEdgeStyle;rounded=0;orthogonalLoop=1;jettySize=auto;html=1;exitX=1;exitY=0.75;exitDx=0;exitDy=0;exitPerimeter=0;strokeColor=#FFFFCC;" edge="1" parent="1" source="rylPVy3shO58b24bcxYE-38" target="rylPVy3shO58b24bcxYE-44">
          <mxGeometry relative="1" as="geometry" />
        </mxCell>
        <mxCell id="rylPVy3shO58b24bcxYE-78" style="edgeStyle=orthogonalEdgeStyle;rounded=0;orthogonalLoop=1;jettySize=auto;html=1;exitX=0.5;exitY=1;exitDx=0;exitDy=0;exitPerimeter=0;entryX=0.633;entryY=0.011;entryDx=0;entryDy=0;entryPerimeter=0;strokeColor=#FFE599;" edge="1" parent="1" source="rylPVy3shO58b24bcxYE-38" target="rylPVy3shO58b24bcxYE-42">
          <mxGeometry relative="1" as="geometry" />
        </mxCell>
      </root>
    </mxGraphModel>
  </diagram>
</mxfile>
